<svg width="32" height="32" viewBox="0 0 32 32" fill="none" xmlns="http://www.w3.org/2000/svg">
<!-- <rect width="32" height="32" fill="black"/> -->
<path d="M4.20309 29.1476C3.58642 28.6646 3.18173 28.0119 2.98902 27.1895C2.80916 26.3671 2.79631 25.486 2.95048 24.5461C3.10465 23.5932 3.41298 22.6337 3.87548 21.6677C4.33798 20.6887 4.90968 19.8076 5.59058 19.0243C6.28433 18.2281 7.06159 17.5819 7.92235 17.0859C8.79596 16.5898 9.72096 16.3418 10.6974 16.3418C11.3911 16.3418 12.0977 16.4919 12.8171 16.7922C13.5494 17.0924 14.2817 17.5754 15.014 18.2411C15.6178 18.7894 15.984 19.4682 16.1125 20.2775C16.2409 21.0868 16.1895 21.9484 15.9583 22.8622C15.727 23.7629 15.3416 24.6636 14.802 25.5643C14.2753 26.465 13.6394 27.2743 12.8942 27.9923C12.1491 28.7103 11.3269 29.2977 10.4276 29.7546C9.52826 30.1984 8.60968 30.4203 7.67183 30.4203C7.09371 30.4203 6.50916 30.3159 5.91819 30.107C5.34006 29.9112 4.76836 29.5914 4.20309 29.1476ZM11.3526 20.8845C10.4276 21.3544 9.66957 22.0202 9.0786 22.8817C8.48763 23.7433 8.0444 24.6832 7.74892 25.7014C7.71038 25.8449 7.74249 25.9298 7.84527 25.9559C7.94805 25.969 8.01871 25.9167 8.05725 25.7993C8.36558 24.8594 8.79597 23.9783 9.3484 23.1559C9.90083 22.3335 10.6331 21.6808 11.5453 21.1978C11.5838 21.1717 11.6159 21.1325 11.6416 21.0803C11.6673 21.0281 11.6673 20.9759 11.6416 20.9237C11.5902 20.8323 11.4939 20.8192 11.3526 20.8845Z" fill="white"/>
<path fill-rule="evenodd" clip-rule="evenodd" d="M2.1647 27.3699L2.16479 27.3699C1.95937 26.4306 1.94869 25.4411 2.11773 24.4099C2.28606 23.37 2.62073 22.3344 3.11367 21.3044C3.60764 20.2592 4.22084 19.313 4.95424 18.4694L4.95483 18.4687C5.70616 17.6064 6.55509 16.8987 7.50191 16.3531L7.50659 16.3504L7.5066 16.3504C8.50363 15.7843 9.57196 15.4961 10.699 15.4961C11.5168 15.4961 12.3329 15.6733 13.142 16.0107C13.9842 16.3564 14.7975 16.8999 15.5844 17.6153C16.3312 18.2935 16.7907 19.1465 16.9491 20.1447C17.0981 21.083 17.0348 22.061 16.7796 23.0693L16.7789 23.0721C16.5253 24.0598 16.1062 25.0342 15.5313 25.9946C14.9662 26.9602 14.2829 27.8296 13.4825 28.6009C12.6786 29.3754 11.7881 30.0122 10.8122 30.508L10.8034 30.5125L10.8034 30.5124C9.796 31.0096 8.75004 31.2655 7.67353 31.2655C6.99342 31.2655 6.31549 31.1427 5.64336 30.9057C4.96194 30.6742 4.3086 30.3037 3.68268 29.8123C2.90276 29.2011 2.40041 28.3758 2.16757 27.3821L2.1647 27.3699ZM4.20478 29.1473C4.77006 29.5911 5.34176 29.9109 5.91988 30.1068C6.51086 30.3156 7.0954 30.42 7.67353 30.42C8.61138 30.42 9.52995 30.1981 10.4293 29.7543C11.3286 29.2974 12.1508 28.71 12.8959 27.992C13.6411 27.2741 14.277 26.4647 14.8037 25.564C15.3433 24.6633 15.7287 23.7626 15.96 22.8619C16.1912 21.9481 16.2426 21.0866 16.1142 20.2773C15.9857 19.4679 15.6195 18.7891 15.0157 18.2409C14.2834 17.5751 13.5511 17.0921 12.8188 16.7919C12.0994 16.4917 11.3928 16.3415 10.699 16.3415C9.72266 16.3415 8.79766 16.5896 7.92405 17.0856C7.06329 17.5816 6.28603 18.2278 5.59228 19.0241C4.91138 19.8073 4.33968 20.6885 3.87718 21.6675C3.41468 22.6335 3.10634 23.5929 2.95218 24.5458C2.79801 25.4857 2.81086 26.3668 2.99072 27.1892C3.18343 28.0116 3.58811 28.6643 4.20478 29.1473ZM8.06147 25.7913C8.06215 25.7892 8.06284 25.7872 8.06352 25.7851C8.12528 25.5977 8.1919 25.4126 8.26337 25.2299C8.54837 24.5013 8.91061 23.8099 9.35009 23.1556C9.36376 23.1353 9.37753 23.115 9.39142 23.0949C9.82942 22.4597 10.3769 21.9279 11.0339 21.4994C11.1862 21.4001 11.3444 21.3063 11.5084 21.2181C11.5125 21.2159 11.5165 21.2138 11.5206 21.2116C11.5293 21.2069 11.5381 21.2022 11.547 21.1975C11.5855 21.1714 11.6176 21.1323 11.6433 21.0801C11.669 21.0278 11.669 20.9756 11.6433 20.9234C11.5946 20.8368 11.5055 20.8206 11.376 20.8747C11.3689 20.8777 11.3616 20.8809 11.3543 20.8843C11.3494 20.8867 11.3446 20.8892 11.3398 20.8916C11.3268 20.8983 11.3139 20.9049 11.301 20.9116C11.1423 20.9941 10.9886 21.0824 10.8399 21.1766C10.1443 21.6171 9.5578 22.1854 9.0803 22.8815C9.06575 22.9027 9.05129 22.9239 9.03693 22.9452C8.58122 23.6209 8.21557 24.3443 7.93997 25.1154C7.87159 25.3067 7.80876 25.5009 7.75147 25.6981C7.75119 25.6991 7.7509 25.7001 7.75061 25.7011C7.71207 25.8447 7.74419 25.9295 7.84697 25.9557C7.94974 25.9687 8.0204 25.9165 8.05894 25.799C8.05979 25.7964 8.06063 25.7939 8.06147 25.7913ZM7.87505 25.7345L7.80508 25.7157ZM7.8364 25.726L7.75063 25.7011L7.80506 25.7157M11.4289 20.9745L11.4842 21.0017L11.4289 20.9745L11.4948 21.007" fill="black"/>
<path d="M17.1718 23.2296C16.5552 22.7466 16.1505 22.0939 15.9578 21.2715C15.7779 20.4491 15.7651 19.568 15.9192 18.6281C16.0734 17.6752 16.3817 16.7158 16.8442 15.7498C17.3067 14.7707 17.8784 13.8896 18.5593 13.1064C19.2531 12.3101 20.0303 11.6639 20.8911 11.1679C21.7647 10.6718 22.6897 10.4238 23.6661 10.4238C24.3599 10.4238 25.0664 10.5739 25.7859 10.8742C26.5182 11.1744 27.2505 11.6574 27.9828 12.3232C28.5866 12.8714 28.9527 13.5502 29.0812 14.3595C29.2097 15.1689 29.1583 16.0304 28.927 16.9442C28.6958 17.8449 28.3104 18.7456 27.7708 19.6463C27.2441 20.547 26.6081 21.3564 25.863 22.0743C25.1178 22.7923 24.2956 23.3797 23.3963 23.8366C22.497 24.2804 21.5784 24.5023 20.6406 24.5023C20.0625 24.5023 19.4779 24.3979 18.8869 24.189C18.3088 23.9932 17.7371 23.6734 17.1718 23.2296ZM24.3213 14.9665C23.3963 15.4365 22.6383 16.1022 22.0474 16.9638C21.4564 17.8253 21.0132 18.7652 20.7177 19.7834C20.6791 19.927 20.7112 20.0118 20.814 20.0379C20.9168 20.051 20.9875 19.9988 21.026 19.8813C21.3343 18.9414 21.7647 18.0603 22.3171 17.2379C22.8696 16.4155 23.6019 15.7628 24.514 15.2798C24.5526 15.2537 24.5847 15.2146 24.6104 15.1624C24.6361 15.1101 24.6361 15.0579 24.6104 15.0057C24.559 14.9143 24.4626 14.9013 24.3213 14.9665Z" fill="white"/>
<path fill-rule="evenodd" clip-rule="evenodd" d="M15.1335 21.4519L15.1335 21.4519C14.9281 20.5126 14.9174 19.5231 15.0865 18.4919C15.2548 17.4521 15.5895 16.4164 16.0824 15.3864C16.5764 14.3412 17.1896 13.395 17.923 12.5514L17.9236 12.5508C18.6749 11.6884 19.5238 10.9808 20.4707 10.4351L20.4753 10.4324L20.4753 10.4324C21.4724 9.86632 22.5407 9.57812 23.6678 9.57812C24.4855 9.57812 25.3017 9.75537 26.1108 10.0927C26.953 10.4384 27.7663 10.9819 28.5532 11.6973C29.2999 12.3755 29.7594 13.2286 29.9179 14.2267C30.0668 15.165 30.0035 16.1431 29.7483 17.1514L29.7476 17.1542C29.494 18.1418 29.075 19.1162 28.5001 20.0767C27.9349 21.0423 27.2517 21.9117 26.4513 22.6829C25.6474 23.4575 24.7569 24.0943 23.7809 24.5901L23.7722 24.5945L23.7722 24.5945C22.7647 25.0917 21.7188 25.3475 20.6423 25.3475C19.9622 25.3475 19.2842 25.2247 18.6121 24.9877C17.9307 24.7562 17.2774 24.3858 16.6514 23.8943C15.8715 23.2832 15.3692 22.4578 15.1363 21.4642L15.1335 21.4519ZM17.1735 23.2293C17.7388 23.6732 18.3105 23.993 18.8886 24.1888C19.4796 24.3976 20.0642 24.5021 20.6423 24.5021C21.5801 24.5021 22.4987 24.2802 23.398 23.8363C24.2973 23.3794 25.1195 22.792 25.8647 22.0741C26.6098 21.3561 27.2457 20.5468 27.7725 19.6461C28.3121 18.7454 28.6975 17.8446 28.9287 16.9439C29.16 16.0302 29.2114 15.1686 29.0829 14.3593C28.9544 13.55 28.5883 12.8712 27.9845 12.3229C27.2522 11.6572 26.5199 11.1742 25.7876 10.8739C25.0681 10.5737 24.3615 10.4236 23.6678 10.4236C22.6914 10.4236 21.7664 10.6716 20.8928 11.1676C20.032 11.6637 19.2548 12.3098 18.561 13.1061C17.8801 13.8894 17.3084 14.7705 16.8459 15.7495C16.3834 16.7155 16.0751 17.6749 15.9209 18.6279C15.7668 19.5677 15.7796 20.4489 15.9595 21.2713C16.1522 22.0937 16.5569 22.7463 17.1735 23.2293ZM21.0302 19.8733C21.0309 19.8713 21.0316 19.8692 21.0323 19.8671C21.094 19.6797 21.1606 19.4946 21.2321 19.3119C21.5171 18.5833 21.8794 17.8919 22.3188 17.2376C22.3325 17.2173 22.3463 17.1971 22.3602 17.1769C22.7982 16.5418 23.3457 16.0099 24.0027 15.5814C24.155 15.4821 24.3131 15.3884 24.4772 15.3001C24.4812 15.298 24.4853 15.2958 24.4893 15.2936C24.4981 15.2889 24.5069 15.2842 24.5157 15.2796C24.5543 15.2535 24.5864 15.2143 24.6121 15.1621C24.6378 15.1099 24.6378 15.0577 24.6121 15.0054C24.5634 14.9188 24.4743 14.9026 24.3448 14.9567C24.3376 14.9597 24.3304 14.9629 24.323 14.9663C24.3182 14.9687 24.3133 14.9712 24.3085 14.9737C24.2956 14.9803 24.2826 14.987 24.2698 14.9936C24.1111 15.0761 23.9574 15.1645 23.8086 15.2586C23.1131 15.6991 22.5265 16.2674 22.049 16.9635C22.0345 16.9847 22.02 17.006 22.0057 17.0273C21.55 17.7029 21.1843 18.4263 20.9087 19.1974C20.8403 19.3887 20.7775 19.583 20.7202 19.7802C20.7199 19.7812 20.7196 19.7821 20.7194 19.7831C20.6808 19.9267 20.7129 20.0116 20.8157 20.0377C20.9185 20.0507 20.9892 19.9985 21.0277 19.881C21.0285 19.8785 21.0294 19.8759 21.0302 19.8733ZM20.8438 19.8165L20.7738 19.7978ZM20.8052 19.808L20.7194 19.7831L20.7738 19.7977M24.3976 15.0566L24.4529 15.0838L24.3976 15.0566L24.4635 15.089" fill="black"/>
<path d="M7.47922 16.5604C6.77627 16.0099 6.31496 15.2658 6.09529 14.3284C5.89026 13.3909 5.87561 12.3865 6.05135 11.3151C6.22709 10.2289 6.57856 9.13518 7.10578 8.03404C7.63299 6.91802 8.28468 5.9136 9.06086 5.02078C9.85168 4.11309 10.7377 3.37651 11.7189 2.81107C12.7147 2.24562 13.7692 1.96289 14.8822 1.96289C15.673 1.96289 16.4784 2.13401 17.2986 2.47626C18.1333 2.81851 18.9681 3.36908 19.8028 4.12797C20.4911 4.75294 20.9085 5.52671 21.0549 6.44929C21.2014 7.37186 21.1428 8.35396 20.8792 9.39558C20.6156 10.4223 20.1763 11.4491 19.5612 12.4758C18.9607 13.5025 18.2358 14.4251 17.3864 15.2435C16.537 16.0619 15.5998 16.7315 14.5746 17.2524C13.5495 17.7583 12.5024 18.0112 11.4333 18.0112C10.7743 18.0112 10.108 17.8922 9.4343 17.6541C8.77529 17.4309 8.12359 17.0664 7.47922 16.5604ZM15.629 7.14122C14.5746 7.67691 13.7106 8.4358 13.0369 9.4179C12.3633 10.4 11.858 11.4714 11.5212 12.632C11.4772 12.7957 11.5139 12.8924 11.631 12.9222C11.7482 12.9371 11.8287 12.8776 11.8727 12.7436C12.2241 11.6723 12.7147 10.6678 13.3445 9.73039C13.9742 8.79293 14.8089 8.04892 15.8487 7.49835C15.8927 7.46859 15.9293 7.42395 15.9586 7.36442C15.9878 7.3049 15.9878 7.24538 15.9586 7.18586C15.9 7.0817 15.7901 7.06682 15.629 7.14122Z" fill="white"/>
<path fill-rule="evenodd" clip-rule="evenodd" d="M5.1565 14.5352L5.1566 14.5351C4.92243 13.4645 4.91026 12.3365 5.10295 11.161C5.29483 9.97565 5.67633 8.79509 6.23825 7.62098C6.80133 6.42952 7.50033 5.35098 8.33634 4.38934L8.33702 4.38856C9.19347 3.40553 10.1612 2.59889 11.2405 1.97691L11.2458 1.97383L11.2458 1.97385C12.3824 1.32852 13.6002 1 14.885 1C15.8171 1 16.7475 1.20205 17.6698 1.58655C18.6298 1.98063 19.5569 2.60023 20.4539 3.41572C21.3052 4.18881 21.829 5.16119 22.0096 6.29905C22.1794 7.3686 22.1072 8.48349 21.8163 9.63287L21.8155 9.63609C21.5264 10.762 21.0487 11.8727 20.3934 12.9675C19.7492 14.0682 18.9703 15.0593 18.0579 15.9384C17.1415 16.8213 16.1264 17.5472 15.0139 18.1124L15.004 18.1175L15.0039 18.1174C13.8556 18.6842 12.6633 18.9758 11.4361 18.9758C10.6609 18.9758 9.88806 18.8358 9.12189 18.5657C8.34512 18.3018 7.60037 17.8795 6.88687 17.3193C5.99783 16.6226 5.42519 15.6818 5.15976 14.5491L5.1565 14.5352ZM7.48202 16.5613C8.12639 17.0672 8.77809 17.4318 9.4371 17.655C10.1108 17.8931 10.7771 18.0121 11.4361 18.0121C12.5052 18.0121 13.5523 17.7591 14.5774 17.2532C15.6026 16.7324 16.5398 16.0628 17.3892 15.2444C18.2386 14.426 18.9635 13.5034 19.564 12.4766C20.1791 11.4499 20.6184 10.4232 20.882 9.39643C21.1456 8.35481 21.2042 7.37272 21.0577 6.45014C20.9113 5.52756 20.4939 4.75379 19.8056 4.12882C18.9709 3.36993 18.1361 2.81936 17.3014 2.47711C16.4812 2.13486 15.6758 1.96374 14.885 1.96374C13.772 1.96374 12.7175 2.24647 11.7217 2.81192C10.7405 3.37737 9.85448 4.11394 9.06366 5.02163C8.28749 5.91445 7.63579 6.91887 7.10858 8.03489C6.58137 9.13603 6.22989 10.2297 6.05415 11.316C5.87842 12.3874 5.89306 13.3918 6.09809 14.3292C6.31776 15.2667 6.77907 16.0107 7.48202 16.5613ZM11.8783 12.7357C11.8791 12.7334 11.8799 12.731 11.8807 12.7286C11.9511 12.515 12.027 12.304 12.1085 12.0957C12.4334 11.2652 12.8463 10.477 13.3473 9.73124C13.3628 9.70805 13.3785 9.68497 13.3944 9.66202C13.8937 8.938 14.5178 8.33176 15.2667 7.8433C15.4403 7.73008 15.6206 7.62319 15.8076 7.52263C15.8122 7.52015 15.8168 7.51768 15.8214 7.51522C15.8314 7.50986 15.8415 7.50452 15.8515 7.4992C15.8955 7.46944 15.9321 7.4248 15.9614 7.36528C15.9906 7.30575 15.9906 7.24623 15.9614 7.18671C15.9058 7.08798 15.8043 7.06947 15.6566 7.13116C15.6485 7.13455 15.6403 7.13819 15.6319 7.14207C15.6263 7.14487 15.6208 7.14768 15.6153 7.1505C15.6006 7.15804 15.5858 7.16563 15.5712 7.17326C15.3903 7.26729 15.2151 7.36798 15.0455 7.47534C14.2526 7.97742 13.584 8.62523 13.0397 9.41875C13.0231 9.44293 13.0067 9.46715 12.9903 9.49144C12.4708 10.2616 12.054 11.0862 11.7398 11.9652C11.6619 12.1833 11.5903 12.4047 11.525 12.6295C11.5246 12.6306 11.5243 12.6318 11.524 12.6329C11.4801 12.7966 11.5167 12.8933 11.6338 12.9231C11.751 12.9379 11.8315 12.8784 11.8755 12.7445C11.8764 12.7416 11.8774 12.7386 11.8783 12.7357ZM11.6658 12.671L11.5861 12.6496ZM11.6218 12.6613L11.524 12.6329L11.5861 12.6495M15.7169 7.24499L15.7799 7.27599L15.7169 7.24499L15.792 7.28195" fill="black"/>
</svg>
