<svg width="96" height="190" viewBox="0 0 96 190" fill="none" xmlns="http://www.w3.org/2000/svg">
<path d="M11.4342 110.884C9.16399 107.031 15.799 110.07 17.0795 110.568C34.007 117.154 48.7586 114.068 64.342 105.185C69.2819 102.369 82.0806 92.4314 79.5937 97.5448C77.6547 101.532 72.5331 103.037 68.714 104.28" stroke="white" stroke-width="4" stroke-linecap="round" stroke-linejoin="round"/>
<path d="M20.9505 108.793C19.2472 107.037 17.3711 105.395 16.2346 103.193C15.8633 102.474 15.2558 100.108 15.482 100.885C16.1697 103.247 13.6265 105.077 11.6213 105.355C7.51464 105.926 8.51155 101.411 12.3197 110.269C20.9842 130.424 23.59 153.943 34.9289 172.828C37.4393 177.009 41.119 183.045 44.8601 177.953" stroke="white" stroke-width="4" stroke-linecap="round" stroke-linejoin="round"/>
<path d="M74.2307 105.276C72.5548 99.1066 73.8637 104.361 74.9419 107.945C80.0198 124.823 84.4695 142.019 87.8101 159.332C88.6209 163.534 91.1238 170.025 86.5391 172.613C81.3497 175.544 76.31 178.489 70.7618 180.741C63.3422 183.752 55.6922 185.52 47.7832 186.632C45.8343 186.906 43.7935 187.076 41.8782 187.562C40.0218 188.033 45.7259 187.733 47.6231 187.471C62.1722 185.461 77.4232 179.863 89.261 171.073C95.6419 166.334 93.7142 165.425 87.4756 165.192" stroke="white" stroke-width="4" stroke-linecap="round" stroke-linejoin="round"/>
<path d="M2.38672 100.186C3.80602 101.589 4.17349 104.264 5.71546 105.866C5.95662 106.117 7.89391 108.255 8.01532 106.947C8.66291 99.9689 7.11327 93.5693 9.60802 86.6105C14.0899 74.1088 25.2052 66.9169 37.7008 63.9418C50.0729 60.9961 69.8404 60.2682 79.8333 70.0015C86.8243 76.8109 81.8898 90.2041 75.8069 96.1422" stroke="white" stroke-width="4" stroke-linecap="round" stroke-linejoin="round"/>
<path d="M41.1311 79.4553C40.0709 80.9709 39.5508 83.2091 39.5623 80.0037C39.618 64.3716 39.0486 48.7931 38.7802 33.1665C38.7533 31.5999 37.0669 17.3874 41.0833 18.7334C43.9828 19.7051 44.6504 17.6055 45.6129 15.1679C47.1729 11.2171 48.7381 7.26703 50.6841 3.48514C50.9617 2.94558 51.6035 1.26333 51.6381 2.95277C51.7712 9.45556 51.2064 16.0243 50.7589 22.4998C49.5679 39.734 46.4585 57.8566 48.2472 75.1532C48.3954 76.5854 48.6891 80.0251 48.7999 76.6163" stroke="white" stroke-width="4" stroke-linecap="round" stroke-linejoin="round"/>
</svg>
