<svg width="105" height="114" viewBox="0 0 105 114" fill="none" xmlns="http://www.w3.org/2000/svg">
<path d="M82.3238 22.7937C83.7896 20.9259 85.6428 19.7873 87.2794 18.1369C87.5794 17.8344 88.8041 16.5825 87.7376 16.2811C83.8098 15.1711 79.1498 21.4257 77.5807 23.8513C69.8589 35.7878 64.639 60.1047 84.6778 61.8396C86.7707 62.0208 101.716 61.1226 97.5044 56.5575" stroke="white" stroke-width="4" stroke-linecap="round" stroke-linejoin="round"/>
<path d="M101.092 70.6556C100.604 72.0437 102.392 72.3603 102.385 71.3077C102.374 69.541 99.6733 68.406 98.4378 67.9218C91.098 65.0449 81.9779 64.8731 74.538 67.4446C67.9309 69.7283 60.8811 74.7425 58.1523 81.4367C55.5753 87.7584 59.979 91.8044 64.7615 94.967C65.3483 95.3551 73.6036 100.376 69.324 99.8397" stroke="white" stroke-width="4" stroke-linecap="round" stroke-linejoin="round"/>
<path d="M57.4366 108.606C57.8832 109.373 60.2809 114.167 58.9118 110.724C54.8352 100.471 46.5323 91.1027 37.6509 84.7763C32.958 81.4335 27.4533 78.8333 21.6597 80.7754C17.9207 82.0288 14.1194 85.0305 11.5447 87.9945C10.5022 89.1947 10.1806 90.0128 11.1744 91.1855" stroke="white" stroke-width="4" stroke-linecap="round" stroke-linejoin="round"/>
<path d="M4.77806 78.1985C4.31918 78.4098 1.57532 79.8737 2.05635 80.7581C3.59022 83.5785 15.638 73.2342 16.0128 72.8723C24.4655 64.711 35.6259 50.0092 23.3557 40.0319C20.7397 37.9047 17.6007 36.9061 14.2937 36.5657C14.0032 36.5358 10.184 36.6621 12.3059 36.3203" stroke="white" stroke-width="4" stroke-linecap="round" stroke-linejoin="round"/>
<path d="M25.8468 23.0049C25.5624 21.8593 23.7223 15.8524 26.0457 19.7142C30.9692 27.8978 36.8431 41.6983 48.8124 38.4559C60.4998 35.2899 70.7755 20.9851 73.877 9.79475C74.0129 9.30433 74.6825 1.09592 73.8959 2.08216" stroke="white" stroke-width="4" stroke-linecap="round" stroke-linejoin="round"/>
</svg>
