<svg width="105" height="39" viewBox="0 0 105 39" fill="none" xmlns="http://www.w3.org/2000/svg">
<path d="M3.11688 8.0865C1.30303 8.98463 5.4539 7.63557 5.82021 7.53726C8.30364 6.87081 11.7718 6.24171 14.0803 7.74673C16.0142 9.00751 15.9233 11.5748 14.5115 13.1827C13.7464 14.0541 10.7429 15.1582 10.9355 15.1916C13.192 15.5838 16.3801 17.1246 16.0829 19.8593C15.9568 21.0198 15.1161 21.9122 13.957 22.0125C13.6884 22.0358 13.1416 21.7698 13.4379 21.8621C18.3914 23.4044 17.3693 30.044 12.8575 31.2482C11.4785 31.6162 -0.897926 31.9654 2.63006 29.4413" stroke="white" stroke-width="3" stroke-linecap="round" stroke-linejoin="round"/>
<path d="M98.0897 6.66992C102.122 6.66992 95.7893 7.63901 94.727 8.24724C91.7359 9.95965 92.0001 12.2549 95.4314 12.3722C96.1 12.3951 97.2069 12.1611 96.0337 12.6783C94.5503 13.3322 92.9099 13.9854 91.6152 14.9776C87.8141 17.8907 92.182 19.7814 95.1175 19.5749C95.6298 19.5388 98.1018 18.7724 96.4858 19.3886C95.3009 19.8404 93.887 20.5589 93.2717 21.7355C92.4393 23.3274 93.2962 25.6884 95.0637 26.0306C97.4918 26.5008 100.043 26.2758 102.501 26.4557C103.194 26.5064 102.88 26.5292 102.498 26.5292" stroke="white" stroke-width="3" stroke-linecap="round" stroke-linejoin="round"/>
<path d="M9.74609 6.55937C9.74609 5.24142 9.96763 1.89915 11.5056 2.00234C17.0926 2.3772 22.9564 4.80446 28.2476 6.32367C44.458 10.9779 60.2485 17.0053 77.2337 11.9831C81.5283 10.7133 85.6988 8.8969 89.8694 7.26428C90.072 7.18494 90.1976 7.16129 90.3665 6.99054C90.7494 6.60353 91.075 6.12622 91.3669 5.66904C91.5948 5.31214 91.6369 7.97065 91.6902 8.5508" stroke="white" stroke-width="3" stroke-linecap="round" stroke-linejoin="round"/>
<path d="M11.4156 33.5111C11.3751 28.3939 12.163 37.0524 12.6466 36.8359C15.0221 35.7724 17.8823 35.1557 20.3403 34.157C36.996 27.3896 53.4871 20.5855 71.8935 22.5797C78.8588 23.3343 85.2004 26.2543 90.5415 30.0845C92.2984 31.3445 93.0158 30.1765 94.2294 28.6073" stroke="white" stroke-width="3" stroke-linecap="round" stroke-linejoin="round"/>
</svg>
