<svg width="120" height="97" viewBox="0 0 120 97" fill="none" xmlns="http://www.w3.org/2000/svg">
<path d="M78.6695 34.0951C81.8354 32.9182 83.8536 33.6735 86.9266 34.65C88.7791 35.2387 91.0725 35.1314 89.0495 32.8225C84.8125 27.9864 77.1169 25.7672 71.1222 24.4917C55.6118 21.1913 37.3223 22.2819 22.2067 27.0554C9.81561 30.9685 5.37289 40.3778 5.60067 52.904C5.72228 59.5915 6.97723 67.1847 12.0793 72.0141C18.0451 77.661 27.4734 78.0486 35.1731 78.349C58.8545 79.2729 79.827 72.3922 100.564 61.45C104.758 59.2374 110.005 57.0196 113.704 53.9207C114.815 52.9905 112.223 52.786 111.78 52.6965C110.29 52.3959 102.241 49.0418 105.554 51.4622C106.131 51.884 107.348 52.403 107.734 53.01C110.604 57.5295 104.619 64.4941 101.89 67.2462C87.7727 81.4859 66.4219 89.9465 46.9817 93.3637C30.1024 96.3307 14.5624 94.5574 6.05034 77.9978C4.09988 74.2033 1.94402 68.9334 2.00111 64.521C2.03197 62.1355 4.91534 62.027 6.56197 61.3746" stroke="white" stroke-width="3" stroke-linecap="round" stroke-linejoin="round"/>
<path d="M23.0197 24.5083C21.7666 23.7756 20.198 23.3053 19.7502 21.7908C19.5757 21.2006 19.0982 16.102 17.6866 17.0997C12.0092 21.1124 11.7689 36.1122 12.3225 41.9092C13.443 53.6415 21.5847 52.3511 26.5338 43.5385C28.5287 39.9864 37.0826 17.9974 26.9985 17.7775C18.6207 17.5949 12.3031 33.6735 9.96518 39.8173C8.30321 44.1847 11.0445 42.7563 13.4846 40.9501C17.1575 38.2313 20.4847 35.8837 24.6443 34.0395" stroke="white" stroke-width="3" stroke-linecap="round" stroke-linejoin="round"/>
<path d="M42.3124 20.7454C41.5825 19.4016 39.5389 15.8569 37.6394 15.9375C31.562 16.1953 32.477 41.7706 41.4792 42.6168C55.6787 43.9515 62.0316 15.3094 49.7572 9.06229C43.461 5.85786 37.1158 11.7102 34.7522 17.1318C31.4551 24.6948 35.9886 28.0179 40.9473 32.4623" stroke="white" stroke-width="3" stroke-linecap="round" stroke-linejoin="round"/>
<path d="M48.341 56.9618C46.8481 56.9327 42.2832 56.0755 42.3537 58.6195C42.4741 62.9636 44.3488 75.942 50.4698 68.1884C53.2781 64.631 56.4412 58.2734 55.2966 53.5664C53.4642 46.0313 43.6219 56.1652 41.9446 58.2798C40.6481 59.9142 35.6291 66.2124 39.2134 68.2268C42.5394 70.0959 47.9366 67.3085 51.1288 66.3547" stroke="white" stroke-width="3" stroke-linecap="round" stroke-linejoin="round"/>
<path d="M64.2397 55.342C54.8663 48.8686 53.317 70.0252 63.4247 64.7564C68.2462 62.2431 74.0286 52.1058 68.4726 47.5276C66.2133 45.6659 63.7549 47.9269 62.8485 49.9001C61.2927 53.2868 62.8815 55.5233 63.1246 58.8418" stroke="white" stroke-width="3" stroke-linecap="round" stroke-linejoin="round"/>
<path d="M81.3152 41.5726C79.2842 40.8852 79.6108 41.577 79.3627 43.6328C78.3247 52.2341 84.5432 33.3657 85.0388 32.3775C90.1929 22.101 96.1487 10.7562 104.574 2.70614C108.765 -1.29773 102.09 13.0207 101.972 13.2575C96.5726 24.1133 90.5426 34.6971 84.8448 45.4018C84.7759 45.5312 83.4393 47.5092 83.5639 47.4605C84.3124 47.1678 84.5843 45.3009 84.9113 44.5977C91.645 30.1126 103.153 14.6326 115.352 4.39163C122.931 -1.97107 113.856 12.707 112.931 14.2156C105.538 26.2708 96.38 37.0966 88.8014 49.014C84.5369 55.72 86.1708 55.187 90.7086 50.6797" stroke="white" stroke-width="3" stroke-linecap="round" stroke-linejoin="round"/>
</svg>
