<svg width="169" height="155" viewBox="0 0 169 155" fill="none" xmlns="http://www.w3.org/2000/svg">
<path d="M15.7305 110.428H15.7306" stroke="white" stroke-width="3" stroke-linecap="round" stroke-linejoin="round"/>
<path d="M9.2963 109.458C8.95536 108.92 4.37297 102.509 5.75401 101.672C7.96339 100.334 16.0555 115.202 16.5232 116.025C22.4589 126.471 26.7281 139.334 35.0158 148.232C37.674 151.086 40.6622 152.163 44.4335 152.041C47.4011 151.945 50.2739 152.753 53.2186 152.694C57.6736 152.604 61.5049 149.731 65.4953 148.109C67.1041 147.455 76.0425 146.826 76.0748 144.564C76.2074 135.267 73.2156 127.715 68.8742 119.586C61.6819 106.118 54.9188 92.4656 47.9378 78.8915C47.6566 78.3448 42.4442 66.6719 40.1848 68.6891C35.2441 73.1001 32.0466 80.0809 27.6266 85.0524C22.1671 91.1932 15.9047 96.7534 7.77185 98.8201C1.17166 100.497 -0.359486 97.1704 6.298 96.2001" stroke="white" stroke-width="3" stroke-linecap="round" stroke-linejoin="round"/>
<path d="M79.2247 137.146C78.5508 137.146 77.8479 137.242 77.2227 137.242" stroke="white" stroke-width="3" stroke-linecap="round" stroke-linejoin="round"/>
<path d="M44.082 69.2605C39.9669 68.9402 40.9079 72.4695 42.3995 75.3379C43.3946 77.2518 43.6311 74.5847 43.7436 73.7177C45.1246 63.0728 46.195 52.2438 51.9157 42.8281C58.9978 31.1716 70.7697 29.7836 82.198 36.1681C90.5883 40.8553 99.0153 51.3887 109.444 51.1425C114.52 51.0227 115.961 46.8456 115.846 42.467C115.769 39.5412 115.135 39.1054 114.713 42.0347" stroke="white" stroke-width="3" stroke-linecap="round" stroke-linejoin="round"/>
<path d="M80.6198 137.954C76.343 137.954 81.4555 140.417 81.7726 139.01C83.094 133.147 82.4846 126.603 82.8221 120.656C83.5411 107.988 84.8394 94.9534 90.0364 83.2234C93.7183 74.913 99.5251 67.7546 107.159 62.782C110.597 60.5418 114.761 59.3396 117.864 56.6036C121.464 53.4303 122.251 49.7967 124.85 46.3466C130.157 39.3011 139.922 35.1803 147.983 32.6017C149.147 32.2294 166.015 27.204 166.82 29.676C167.306 31.1673 163.683 29.6969 162.116 29.7533C153.054 30.0796 144.693 31.9222 135.929 34.162C133.862 34.6903 128.915 36.6844 128.234 33.3306C127.312 28.7893 128.39 23.4658 128.773 18.9152C129.196 13.8808 130.009 9.23298 127.559 4.65906C124.915 -0.278269 125.3 2.37898 124.814 6.79058C124.401 10.5474 121.822 45.6677 119.057 45.8816C116.433 46.0846 118.447 40.7425 118.952 39.933" stroke="white" stroke-width="3" stroke-linecap="round" stroke-linejoin="round"/>
<path d="M10.2447 94.587C6.71481 94.7452 5.38822 96.8262 5.27816 100.247C5.2696 100.513 5.30949 104.553 6.32609 103.457C7.61937 102.063 7.99268 98.8411 8.36712 97.2039C9.76987 91.0709 10.9543 84.9126 12.6954 78.8577C15.7933 68.084 20.0147 54.8022 31.0736 49.6597C39.2468 45.8591 48.8325 47.4177 57.2491 44.3309C63.8635 41.9051 68.8933 37.367 73.3376 32.0568C75.1162 29.9316 75.5409 28.7848 75.5715 31.9157" stroke="white" stroke-width="3" stroke-linecap="round" stroke-linejoin="round"/>
<path d="M22.8362 104.706C22.4752 104.177 19.4863 99.0631 21.9159 101.209C26.8741 105.588 30.1359 112.401 33.2132 118.087C36.6438 124.425 39.752 134.566 46.1595 138.704C49.985 141.174 54.3486 137.713 57.8258 136.104C64.1764 133.164 70.3075 128.411 65.9763 121.013C60.8786 112.306 56.2667 104.636 52.6716 95.0335C51.0163 90.6125 50.1267 93.0814 47.6265 90.555C41.2405 84.1022 35.012 96.3595 31.6002 100.622C30.5208 101.97 27.5763 105.268 27.3305 103.558C27.1939 102.608 28.0329 103.056 28.4343 103.204" stroke="white" stroke-width="3" stroke-linecap="round" stroke-linejoin="round"/>
<path d="M34.9886 109.212C34.6135 108.206 32.3866 104.132 34.5374 103.552C37.6895 102.702 40.622 110.616 41.4364 112.242C44.587 118.533 47.1755 128.272 52.719 132.981C54.2586 134.288 55.0058 128.056 55.371 127.209C56.4098 124.8 59.3638 123.422 60.0271 120.957C61.3665 115.978 55.227 110.338 51.902 107.704C49.0296 105.429 35.2768 100.478 43.2814 106.809" stroke="white" stroke-width="3" stroke-linecap="round" stroke-linejoin="round"/>
<path d="M84.4707 108.815C82.478 108.46 73.378 108.63 80.1366 108.189C89.0813 107.605 98.0767 107.306 107.039 107.638C107.743 107.664 119.783 107.697 117.004 111.27C111.028 118.953 98.3126 115.897 90.5105 114.916C86.7448 114.442 78.9032 113.624 76.7177 118.015C76.1218 119.212 82.7229 114.871 83.3131 114.413" stroke="white" stroke-width="3" stroke-linecap="round" stroke-linejoin="round"/>
<path d="M17.9982 68.7538C19.1939 68.5029 19.7284 69.4859 20.5559 70.456C20.7608 70.6962 23.5792 73.9359 23.7044 73.428C24.821 68.8969 19.1277 60.2378 17.3103 56.5093C14.1215 49.9671 3.70602 38.9837 11.6606 31.7147C23.5115 20.8852 34.8399 13.0292 50.1709 7.62701C54.2828 6.17809 59.6887 3.79902 64.1545 5.17538C65.3351 5.53924 66.252 5.84753 65.5166 6.79716C61.848 11.5342 59.1073 17.1739 56.1843 22.3686C52.3242 29.2289 47.6266 36.2659 45.1616 43.8075C43.9947 47.3775 44.7792 46.8132 47.8863 47.5357" stroke="white" stroke-width="3" stroke-linecap="round" stroke-linejoin="round"/>
</svg>
