<svg width="68" height="136" viewBox="0 0 68 136" fill="none" xmlns="http://www.w3.org/2000/svg">
<path d="M30.0029 25.4729C30.0029 25.3768 30.0803 19.9633 30.5337 20.3576C32.6894 22.2323 32.0458 28.5985 32.0376 30.8634C31.9815 46.4097 29.5201 61.983 27.8255 77.4098C26.2185 92.0396 20.8744 110.153 29.6541 123.422C32.0425 127.032 41.1713 140.513 42.1644 129.728C45.4051 94.5381 46.8102 59.1371 48.4354 23.8206C48.7437 17.1203 49.6771 10.2664 49.5654 3.55924C49.5297 1.41489 47.3227 1.97873 45.7838 2.37802C43.1333 3.06567 29.3147 9.66774 35.0689 12.5802" stroke="white" stroke-width="3" stroke-linecap="round" stroke-linejoin="round"/>
<path d="M24.5839 25.4175C21.9557 23.7321 27.01 19.8502 28.3239 23.6637C29.2258 26.2815 25.1826 24.839 23.786 24.6697C16.6103 23.8001 6.97892 23.7426 3.433 31.4642C1.82062 34.9754 1.91112 39.0849 2.10106 42.8461C2.57296 52.1911 4.17884 61.4972 5.25628 70.7819C7.22266 87.7271 6.98748 104.285 7.43737 121.254C7.61539 127.968 13.1128 126.246 17.9487 124.44C24.314 122.064 26.8076 119.348 29.1981 113.218" stroke="white" stroke-width="3" stroke-linecap="round" stroke-linejoin="round"/>
<path d="M53.6068 21.0602C51.8467 17.915 48.8645 18.3173 55.1887 17.5427C73.9669 15.2426 62.7374 48.7289 61.6989 57.29C60.2191 69.4892 59.561 81.7692 58.7317 94.0239C58.5487 96.7268 59.3438 110.762 55.5038 111.84C52.7646 112.608 48.9586 111.041 46.0702 111.163C45.3358 111.195 41.9822 111.868 44.5417 111.489" stroke="white" stroke-width="3" stroke-linecap="round" stroke-linejoin="round"/>
<path d="M44.1859 27.0371C45.2458 28.0917 46.1128 28.6601 45.3063 30.1965C39.7168 40.8442 32.5433 51.5 37.5977 63.8955C41.6767 73.8988 43.5726 80.77 39.0012 91.5362C38.4455 92.8449 32.3024 104.159 33.6019 103.577" stroke="white" stroke-width="3" stroke-linecap="round" stroke-linejoin="round"/>
</svg>
