<svg width="172" height="176" viewBox="0 0 172 176" fill="none" xmlns="http://www.w3.org/2000/svg">
<path d="M115.303 4.98537C114.996 1.5231 114.805 2.44163 114.784 5.36119C114.74 11.5912 112.742 17.5361 110.326 23.2213C102.966 40.5386 92.4943 57.0013 80.8867 71.7699C72.0548 83.007 62.611 90.6443 50.4069 97.4826C50.1244 97.6409 51.3077 97.3571 51.2693 97.0356C51.1353 95.913 51.1127 94.8209 51.1127 93.6847C51.1127 93.6027 52.197 93.5204 52.4067 93.4576C71.1956 87.8278 87.3849 77.647 103.569 66.7499C119.895 55.7576 135.985 44.373 153.043 34.5266C153.324 34.3646 155.495 33.3866 154.399 32.8989C152.224 31.9316 150 32.1429 147.949 30.644C142.174 26.4228 137.589 21.664 131.301 17.9273C126.546 15.1017 118.683 9.59919 119.732 2.97197C120.523 -2.02592 139.074 13.8154 140.311 15.055C144.784 19.5391 148.532 24.6005 151.673 30.0897C152.191 30.9953 153.244 34.1416 154.323 34.8348C154.66 35.0511 153.628 34.1708 153.249 34.2995" stroke="white" stroke-width="3" stroke-linecap="round" stroke-linejoin="round"/>
<path d="M50.9875 98.7202C50.9067 98.5285 49.0026 94.186 50.0142 94.2554C52.5677 94.4305 53.9811 103.574 54.3307 105.085C54.4697 105.686 56.3921 117.826 55.9052 117.789C55.2388 117.738 53.9839 112.914 53.6323 112.162C53.3717 111.605 62.7398 104.421 65.4668 102.053C89.3699 81.2921 116.796 65.4165 142.286 46.7738C143.243 46.0743 152.435 38.059 152.954 38.9023C157.466 46.23 155.878 34.1775 154.848 30.8613" stroke="white" stroke-width="3" stroke-linecap="round" stroke-linejoin="round"/>
<path d="M80.6261 105.809C80.6261 93.9192 72.0166 119.607 71.8618 120.274C68.3139 135.552 65.0345 158.968 79.1907 170.232C81.3233 171.929 89.4931 176.557 92.1549 173.163C92.9504 172.149 90.183 166.725 89.9955 166.184C84.6098 150.625 78.7011 132.933 80.5685 116.229C80.8839 113.408 87.9554 101.042 82.7568 99.9688" stroke="white" stroke-width="3" stroke-linecap="round" stroke-linejoin="round"/>
<path d="M115.009 89.6844C107.663 89.6844 112.819 89.3247 116.919 90.5261C137.245 96.483 132.582 119.711 138.048 135.234C140.864 143.232 149.892 140.409 156.178 142.144C156.4 142.206 157.216 142.666 156.552 142.48C152.783 141.422 150.692 134.786 149.704 131.73C148.161 126.955 148.47 121.599 149.516 116.759C150.694 111.309 154.4 106.172 154.874 100.624C156.156 85.5974 132.13 75.4065 120.504 74.4821C114.458 74.0014 107.603 73.8609 101.556 74.6668C101.003 74.7405 104.211 76.0492 104.852 76.3008" stroke="white" stroke-width="3" stroke-linecap="round" stroke-linejoin="round"/>
<path d="M41.4287 113.239C41.7034 111.84 41.9228 110.208 43.1009 109.239C43.763 108.695 46.471 108.627 45.6186 108.717C39.6712 109.345 33.9546 114.709 29.5567 118.221C19.2279 126.47 6.55529 136.628 2.63986 149.865C1.36568 154.173 1.62833 159.14 6.85419 160.026C12.54 160.99 16.4742 156.94 20.2074 153.327C27.2364 146.524 32.4634 138.841 38.3874 131.082C41.5215 126.978 44.9254 122.477 49.3075 119.582C53.5303 116.792 53.5604 118.872 56.1516 121.156" stroke="white" stroke-width="3" stroke-linecap="round" stroke-linejoin="round"/>
<path d="M55.7339 132.982C55.7339 134.044 55.9195 134.183 54.9454 134.183C53.1846 134.183 57.8671 132.207 59.2236 131.084C60.8539 129.735 63.2194 125.95 63.2194 129.413" stroke="white" stroke-width="3" stroke-linecap="round" stroke-linejoin="round"/>
<path d="M84.7186 117.88C83.6583 117.88 82.4648 117.694 81.5032 118.25C79.9809 119.13 89.3274 112.789 90.2487 112.06C98.196 105.764 106.569 98.0885 115.721 93.5298C116.225 93.2784 115.409 94.685 115.596 95.217" stroke="white" stroke-width="3" stroke-linecap="round" stroke-linejoin="round"/>
<path d="M135.436 77.841C135.291 77.6976 134.284 76.8243 134.02 77.2174C130.985 81.7343 142.786 70.7637 147.298 67.7218C148.178 67.1289 168.951 54.017 169.62 56.2498C169.728 56.6107 166.701 57.1411 166.199 57.1411C165.96 57.1411 166.095 57.0618 166.226 57.3159C167.307 59.4025 167.771 61.8728 168.587 64.0699C168.698 64.3675 170 68.2371 170 66.3636C170 65.7781 153.782 75.7611 153.05 76.2602C148.608 79.2881 134.574 87.1998 139.435 84.9032C141.076 84.1275 142.487 83.2316 144.286 82.8376" stroke="white" stroke-width="3" stroke-linecap="round" stroke-linejoin="round"/>
<path d="M86.6224 127.937C85.4958 127.945 82.1696 128.294 83.2836 128.463C84.3617 128.625 85.1616 127.341 86.0136 126.661C92.6286 121.38 98.8016 115.563 105.394 110.249C111.679 105.183 130.982 90.9674 125.729 97.0972C124.078 99.023 119.839 100.572 117.68 101.997" stroke="white" stroke-width="3" stroke-linecap="round" stroke-linejoin="round"/>
<path d="M72.4309 134.653C71.8596 134.068 71.3896 133.545 71.1921 132.745C71.0975 132.361 63.2262 138.971 62.9601 139.194C57.0715 144.132 49.9278 147.668 44.1713 152.558C43.397 153.215 45.677 153.386 45.9637 153.39C49.9329 153.448 48.9966 148.019 49.0965 145.157C49.2183 141.663 50.3792 134.918 48.638 131.663C48.3145 131.058 49.5003 132.777 50.0985 133.112" stroke="white" stroke-width="3" stroke-linecap="round" stroke-linejoin="round"/>
<path d="M162.75 57.9218C162.75 54.7832 157.987 56.487 155.528 56.487C149.359 56.487 143.129 56.4404 137.038 55.3424C133.3 54.6685 137.587 55.1506 138.761 55.4236" stroke="white" stroke-width="3" stroke-linecap="round" stroke-linejoin="round"/>
</svg>
