<svg width="152" height="156" viewBox="0 0 152 156" fill="none" xmlns="http://www.w3.org/2000/svg">
<path d="M6.235 57.896C4.92909 57.9113 -0.0558186 59.4939 2.94626 58.7737C9.88758 57.1083 17.0016 48.2429 22.1996 43.9127C34.1325 33.972 46.0909 23.995 58.2726 14.3607C64.1904 9.68043 72.5581 1.88574 80.7587 2.00127C86.3885 2.08059 92.9647 9.93754 96.4845 13.5506C105.013 22.3055 112.525 31.8336 121.699 39.9856C128.564 46.0857 136.948 50.5024 143.629 56.6956C146.02 58.9113 146.966 62.0882 149.16 64.4223C149.255 64.524 150.516 65.5233 150.243 65.2754C142.126 57.9004 129.499 53.0154 119.338 49.6882C107.295 45.7446 94.3561 45.5661 81.8049 45.4582C66.1721 45.3238 50.2808 46.2569 35.0101 49.835C25.4422 52.0768 16.7248 56.2067 9.43829 62.8591C4.05884 67.7705 10.1076 64.9765 13.2718 63.8305" stroke="white" stroke-width="3" stroke-linecap="round" stroke-linejoin="round"/>
<path d="M59.0945 53.8833C59.03 52.7703 58.6321 51.0164 60.3025 50.8738C62.1719 50.7141 58.179 73.9663 57.8084 76.1459C57.2399 79.4895 58.829 75.0361 61.5639 79.3491C64.1279 83.3926 63.9772 89.124 63.9533 93.6974C63.9 103.928 62.1306 114.1 60.6988 124.203C59.5444 132.349 58.4143 140.541 56.6121 148.575C56.4272 149.399 56.4824 148.757 56.6015 148.739C57.9467 148.535 60.1532 150.399 61.2125 150.883C67.1001 153.577 73.8909 155.257 79.8854 151.915C82.5248 150.443 84.6406 148.264 86.6909 146.088C87.076 145.679 87.9629 144.343 87.8856 144.9C87.7752 145.694 87.9625 144.856 87.9625 144.475C87.9625 133.301 84.2633 122.026 82.8857 110.988C82.0567 104.345 81.5726 97.4852 82.4627 90.8201C82.7737 88.4915 83.2826 82.3909 85.8407 81.1282C87.5723 80.2735 89.0592 85.0697 87.987 82.0274C87.2143 79.8347 79.1823 49.7034 83.752 50.8399" stroke="white" stroke-width="3" stroke-linecap="round" stroke-linejoin="round"/>
<path d="M10.2137 71.8476C7.49993 71.0847 5.91859 70.7281 9.48731 72.7139C10.0792 73.0432 10.7652 72.8301 11.3386 72.5561C19.2561 68.7726 26.3672 64.3448 35.0498 62.1503C41.5668 60.5032 48.1223 60.0536 54.7996 60.7007C57.1206 60.9257 61.4316 62.5625 63.9247 62.2944C64.3951 62.2439 64.3277 59.0417 64.4392 58.4805" stroke="white" stroke-width="3" stroke-linecap="round" stroke-linejoin="round"/>
<path d="M84.4308 61.087C84.2765 61.087 83.365 61.0665 83.6538 61.1363C94.3017 63.7065 107.215 59.4293 117.98 59.227C125.687 59.0822 140.079 59.8985 143.466 68.9622C143.632 69.4068 143.568 66.7781 143.666 66.1389" stroke="white" stroke-width="3" stroke-linecap="round" stroke-linejoin="round"/>
<path d="M68.9376 53.4277C68.8478 46.0294 69.0046 57.4696 68.8522 59.1548C68.6198 61.7256 67.5991 72.401 63.6917 72.8192C62.6622 72.9294 65.5227 70.6541 65.6926 70.5497" stroke="white" stroke-width="3" stroke-linecap="round" stroke-linejoin="round"/>
<path d="M74.6899 53.3748C72.1991 50.0732 74.1475 56.2721 74.2734 58.0171C74.4554 60.5375 73.9633 80.3443 80.0413 76.5591" stroke="white" stroke-width="3" stroke-linecap="round" stroke-linejoin="round"/>
<path d="M57.4493 28.291C57.2442 27.298 57.0961 26.4745 57.4962 25.4859C59.2005 21.2744 56.9035 28.8935 56.9263 30.0274C57.0327 35.3128 66.4664 28.0657 62.1217 24.5544C60.1926 22.9954 56.1695 24.1041 54.9343 26.0951C53.289 28.7472 60.3773 28.3541 61.1971 28.4412" stroke="white" stroke-width="3" stroke-linecap="round" stroke-linejoin="round"/>
<path d="M82.7345 21.5874C82.7458 20.441 83.2044 16.7758 83.1989 16.8442C83.008 19.2146 86.4277 14.4479 82.1367 16.0303" stroke="white" stroke-width="3" stroke-linecap="round" stroke-linejoin="round"/>
<path d="M99.2816 36.0068C95.0962 36.1073 97.5037 39.6831 100.754 39.3604C101.805 39.2561 103.772 38.6224 103.56 37.1803C103.265 35.1757 99.833 35.4481 98.4846 35.2559" stroke="white" stroke-width="3" stroke-linecap="round" stroke-linejoin="round"/>
</svg>
