<svg width="127" height="148" viewBox="0 0 127 148" fill="none" xmlns="http://www.w3.org/2000/svg">
<path d="M13.4059 74.3741C12.5336 74.3741 9.04596 73.8585 8.70938 75.0228C8.19041 76.818 11.5753 72.6158 12.8916 71.2893C21.3278 62.7873 30.6226 51.7954 42.2835 47.7394C51.8626 44.4075 49.234 65.0598 49.1825 69.9974C49.1135 76.6123 48.8691 84.0876 44.3669 89.4034C43.4021 90.5426 43.4907 89.8092 44.627 89.7877C50.0462 89.6849 54.7616 89.7748 60.0303 87.6296C74.9355 81.561 89.4368 68.9544 98.6065 55.8389C107.164 43.5984 105.157 29.2876 96.5001 17.4834C85.0399 1.8567 62.9202 0.0403743 45.2508 3.45015C35.3985 5.35141 24.9413 9.13044 17.7232 16.4121C9.60924 24.5976 5.8645 36.3437 3.87294 47.4005C2.12131 57.1253 -0.80596 77.751 8.35156 85.4224C11.2764 87.8726 11.2096 82.829 11.4833 81.0695" stroke="white" stroke-width="3" stroke-linecap="round" stroke-linejoin="round"/>
<path d="M11.0228 81.9835C8.64856 79.5982 7.33856 77.3221 7.69452 73.7634C9.16096 59.1027 12.5311 102.834 15.2952 117.306C16.3261 122.704 17.6984 128.966 22.1734 132.643C22.6879 133.066 24.2932 134.242 23.821 133.773C22.0124 131.975 19.9296 128.744 19.6841 126.154" stroke="white" stroke-width="3" stroke-linecap="round" stroke-linejoin="round"/>
<path d="M47.0801 96.7438C46.9723 93.5472 46.8301 90.3633 46.8301 87.1634C46.8301 70.8877 43.516 120.432 48.3741 135.966C49.8458 140.672 50.0118 141.337 48.6881 145.959C48.3221 147.238 50.4429 143.916 51.5523 143.183C61.2227 136.797 70.8659 130.187 80.8871 124.374C92.8076 117.459 131.6 102.941 123.414 82.7813C119.031 71.987 108.938 64.1912 105.852 52.5968C105.779 52.3214 104.9 48.918 105.316 50.637" stroke="white" stroke-width="3" stroke-linecap="round" stroke-linejoin="round"/>
<path d="M26.8728 131.59C25.2902 130.619 22.86 129.156 21.4734 131.27C18.8612 135.254 28.5647 129.919 28.8007 129.755C32.7457 127.003 44.3912 118.655 40.04 120.705C39.1911 121.105 39.3407 122.962 39.2832 123.719" stroke="white" stroke-width="3" stroke-linecap="round" stroke-linejoin="round"/>
<path d="M20.7495 33.3445C19.2944 32.7104 20.7565 30.3783 20.804 29.0108C21.1021 20.441 8.10045 12.2596 5.06957 23.4736C1.14626 37.9895 19.8432 43.1992 27.9214 32.8504C28.334 32.3218 20.0099 32.9024 18.5193 33.6904" stroke="white" stroke-width="3" stroke-linecap="round" stroke-linejoin="round"/>
<path d="M50.8782 16.5516C51.1726 15.4719 51.3127 14.2523 51.1549 13.1393C50.594 9.18263 44.9564 16.4952 48.7949 18.1747C55.4516 21.0873 62.3869 5.82407 52.419 3.82714C48.4903 3.04008 43.4755 5.03597 42.2409 9.12842C40.5935 14.5891 46.3103 17.0194 49.7151 19.5396" stroke="white" stroke-width="3" stroke-linecap="round" stroke-linejoin="round"/>
<path d="M77.0067 31.7672C76.4414 30.2417 73.4371 22.6304 70.8046 26.4636C68.0587 30.462 74.1672 33.6132 77.373 31.4382C85.2077 26.1228 69.8027 19.272 65.5858 19.6752C55.4921 20.6403 63.4454 29.7275 66.4707 33.4963" stroke="white" stroke-width="3" stroke-linecap="round" stroke-linejoin="round"/>
<path d="M72.4493 49.8211C71.13 50.1331 63.8758 51.9947 66.7049 54.9149C70.2182 58.5414 77.9553 52.2749 79.2874 49.0926C83.1813 39.7898 61.106 39.1547 63.3841 47.3865" stroke="white" stroke-width="3" stroke-linecap="round" stroke-linejoin="round"/>
</svg>
