<svg width="869" height="493" viewBox="0 0 869 493" fill="none" xmlns="http://www.w3.org/2000/svg">
<g>
<path d="M848.636 117.1C844.382 126.917 837.183 134.935 827.038 141.152C817.221 147.37 803.968 150.479 787.278 150.479C778.115 150.479 767.807 149.497 756.354 147.533C744.9 145.243 732.301 141.643 718.557 136.734C716.594 136.08 714.957 136.244 713.648 137.225C712.34 138.207 712.012 139.843 712.667 142.134C722.157 182.058 725.92 221.163 723.957 259.451C723.629 272.213 722.811 284.648 721.502 296.756C720.521 308.537 717.903 319.173 713.648 328.663C709.722 337.825 703.504 345.352 694.996 351.242C686.487 356.805 674.543 359.587 659.162 359.587C649.018 358.605 640.346 355.497 633.147 350.261C625.947 345.025 620.057 338.48 615.476 330.626C610.894 322.772 607.458 314.264 605.167 305.101C602.877 295.611 601.568 286.285 601.24 277.122C600.586 256.178 600.75 234.907 601.731 213.309C603.04 191.711 605.986 169.622 610.567 147.043C611.221 145.079 610.731 143.443 609.094 142.134C607.785 140.498 605.985 140.498 603.695 142.134C593.223 148.679 581.77 153.751 569.334 157.351C557.226 160.95 545.282 162.75 533.501 162.75C524.666 162.75 516.321 161.769 508.467 159.805C500.94 157.514 494.232 153.915 488.342 149.006C482.451 144.097 477.706 137.88 474.106 130.353C470.507 122.827 468.707 113.664 468.707 102.865C468.707 88.4661 474.761 75.8672 486.869 65.0682C498.977 54.2692 514.848 45.1064 534.483 37.5798C554.445 30.0532 576.861 24.4901 601.731 20.8904C626.602 16.9635 651.799 15 677.324 15C703.177 15 728.047 17.1271 751.936 21.3812C775.825 25.3082 796.114 31.5258 812.803 40.0341C829.493 48.2152 841.437 58.6869 848.636 71.4494C856.163 84.2119 856.163 99.4287 848.636 117.1Z" fill="white"/>
<path fill-rule="evenodd" clip-rule="evenodd" d="M862.014 122.848L861.996 122.89C856.433 135.728 847.091 145.919 834.737 153.512C821.798 161.674 805.541 165.039 787.279 165.039C777.107 165.039 765.956 163.952 753.895 161.885L753.696 161.851L753.499 161.811C746.214 160.354 738.578 158.421 730.599 156.028C737.588 191.206 740.242 225.876 738.508 260.01C738.169 273.026 737.334 285.74 735.997 298.149C734.889 311.236 731.944 323.41 726.984 334.511C721.933 346.238 713.919 355.851 703.284 363.214L703.126 363.324L702.964 363.429C691.163 371.145 676.019 374.147 659.163 374.147H658.461L657.761 374.08C645.411 372.885 634.175 369.011 624.584 362.036C615.719 355.589 608.475 347.52 602.9 337.963C597.599 328.875 593.655 319.079 591.044 308.633L591.029 308.576L591.015 308.518C588.51 298.139 587.055 287.842 586.691 277.642L586.69 277.61L586.689 277.577C586.023 256.25 586.19 234.607 587.188 212.649L587.193 212.539L587.199 212.429C588.156 196.643 589.957 180.634 592.595 164.403C586.44 167.1 580.05 169.405 573.434 171.323C560.093 175.284 546.769 177.311 533.502 177.311C523.584 177.311 514.045 176.208 504.937 173.931L504.58 173.842L504.229 173.735C494.892 170.893 486.445 166.378 479.022 160.192C471.385 153.828 465.396 145.884 460.973 136.636C456.201 126.659 454.148 115.223 454.148 102.866C454.148 83.7657 462.41 67.3756 477.179 54.2034C490.928 41.9408 508.455 31.9659 529.272 23.9858L529.31 23.9715L529.347 23.9574C550.425 16.01 573.856 10.2205 599.554 6.49537C625.156 2.45795 651.082 0.441406 677.325 0.441406C703.944 0.441406 729.64 2.62895 754.395 7.03128C779.269 11.1278 801.009 17.696 819.315 27.0118C837.84 36.1118 852.273 48.3298 861.251 64.1773C871.722 82.0337 870.761 102.313 862.032 122.806L862.014 122.848ZM848.637 71.4504C841.438 58.6879 829.493 48.2161 812.804 40.035C796.115 31.5267 775.826 25.3091 751.937 21.3822C728.048 17.128 703.178 15.001 677.325 15.001C651.8 15.001 626.603 16.9644 601.732 20.8913C576.862 24.491 554.446 30.0541 534.484 37.5807C514.849 45.1073 498.978 54.2701 486.87 65.0691C474.762 75.8682 468.708 88.467 468.708 102.866C468.708 113.665 470.508 122.828 474.107 130.354C477.707 137.881 482.452 144.098 488.343 149.007C494.233 153.916 500.941 157.515 508.468 159.806C516.322 161.769 524.667 162.751 533.502 162.751C545.283 162.751 557.227 160.951 569.335 157.352C578.711 154.638 587.529 151.087 595.788 146.698C595.97 146.602 596.151 146.505 596.332 146.408C597.332 145.87 598.324 145.321 599.307 144.759C599.845 144.451 600.381 144.14 600.914 143.825C601.849 143.273 602.776 142.71 603.696 142.135C605.986 140.499 607.786 140.499 609.095 142.135C610.731 143.444 611.222 145.08 610.568 147.044C610.318 148.273 610.074 149.502 609.834 150.728C609.773 151.041 609.712 151.353 609.652 151.665C609.42 152.862 609.193 154.058 608.97 155.253C608.92 155.523 608.87 155.794 608.82 156.064C605.229 175.514 602.866 194.597 601.732 213.31C600.751 234.908 600.587 256.179 601.241 277.123C601.569 286.285 602.878 295.612 605.168 305.102C607.459 314.265 610.895 322.773 615.476 330.627C620.058 338.481 625.948 345.026 633.148 350.262C640.347 355.497 649.019 358.606 659.163 359.588C674.544 359.588 686.488 356.806 694.997 351.243C703.505 345.353 709.723 337.826 713.649 328.663C717.904 319.173 720.521 308.538 721.503 296.757C722.812 284.649 723.63 272.214 723.958 259.452C725.779 223.936 722.673 187.717 714.639 150.794C714.634 150.772 714.629 150.75 714.625 150.728C714.529 150.287 714.432 149.846 714.335 149.406C714.296 149.232 714.258 149.058 714.219 148.884C713.72 146.637 713.203 144.387 712.668 142.135C712.013 139.844 712.34 138.208 713.649 137.226C714.958 136.245 716.595 136.081 718.558 136.735C720.538 137.443 722.494 138.122 724.427 138.775C724.755 138.886 725.083 138.996 725.41 139.106C725.904 139.271 726.397 139.435 726.888 139.596C726.939 139.613 726.99 139.63 727.041 139.646C737.528 143.094 747.299 145.723 756.355 147.534C767.808 149.498 778.116 150.48 787.279 150.48C803.969 150.48 817.222 147.371 827.039 141.153C837.184 134.936 844.383 126.918 848.637 117.101C856.164 99.4297 856.164 84.2129 848.637 71.4504Z" fill="black"/>
</g>
<g>
<path d="M558.131 247.554C560.422 253.117 561.24 258.68 560.585 264.243C559.931 269.479 558.294 274.551 555.677 279.46C553.059 284.369 549.459 288.95 544.878 293.204C540.623 297.131 535.715 300.731 530.152 304.003C516.407 312.184 501.681 318.402 485.974 322.656C470.593 326.91 455.213 331.328 439.832 335.91C438.523 336.564 437.214 337.055 435.905 337.382C434.924 337.709 434.597 338.691 434.924 340.327C435.251 341.964 435.906 342.945 436.887 343.273C438.196 343.6 439.342 343.6 440.323 343.273C444.905 342.291 450.141 341.473 456.031 340.818C462.249 340.164 468.63 339.836 475.175 339.836C486.955 339.836 498.409 341.473 509.535 344.745C520.661 347.69 528.515 353.417 533.097 361.925C538.333 371.088 539.969 380.251 538.005 389.414C536.042 398.577 531.624 407.576 524.752 416.411C517.88 424.92 508.881 432.937 497.754 440.464C486.628 447.99 474.684 454.535 461.921 460.098C449.159 465.334 435.906 469.588 422.161 472.861C408.417 476.133 395.327 477.769 382.892 477.769C374.384 477.769 366.53 477.115 359.331 475.806C352.131 474.17 345.75 471.552 340.187 467.952C323.17 459.444 310.899 446.027 303.372 427.701C300.754 420.502 299.772 409.376 300.427 394.322C301.409 379.269 303.863 362.416 307.79 343.763C311.717 324.783 316.789 305.149 323.007 284.86C329.224 264.571 336.096 245.59 343.623 227.919C351.15 210.248 359.167 195.031 367.675 182.269C376.511 169.179 385.346 160.834 394.182 157.235C411.853 149.708 428.706 144.309 444.741 141.036C461.103 137.437 478.611 135.637 497.264 135.637C505.772 135.637 514.444 137.437 523.279 141.036C532.115 144.309 538.496 149.872 542.423 157.726C546.023 166.561 545.532 174.906 540.951 182.76C536.696 190.614 530.152 196.013 521.316 198.958C510.844 202.558 500.209 205.83 489.41 208.776C478.611 211.721 468.303 215.648 458.485 220.556C457.504 221.211 456.358 221.865 455.049 222.52C454.068 223.174 453.904 224.32 454.558 225.956C455.213 228.574 457.667 229.228 461.921 227.919C464.867 226.938 470.102 225.792 477.629 224.483C485.483 222.847 493.991 221.374 503.154 220.065C515.589 218.429 526.552 219.247 536.042 222.52C545.532 225.792 552.895 234.137 558.131 247.554Z" fill="white"/>
<path fill-rule="evenodd" clip-rule="evenodd" d="M478.435 339.879C489.072 340.154 499.44 341.776 509.538 344.746C520.664 347.691 528.518 353.418 533.099 361.926C538.335 371.089 539.971 380.252 538.008 389.415C536.044 398.578 531.626 407.577 524.754 416.412C517.882 424.921 508.883 432.938 497.757 440.465C486.631 447.991 474.686 454.536 461.924 460.099C449.161 465.335 435.908 469.589 422.164 472.862C408.419 476.134 395.33 477.77 382.894 477.77C374.386 477.77 366.532 477.116 359.333 475.807C352.134 474.171 345.752 471.553 340.189 467.953C323.173 459.445 310.901 446.028 303.374 427.702C300.756 420.503 299.775 409.377 300.429 394.323C301.411 379.27 303.865 362.417 307.792 343.764C311.719 324.784 316.791 305.15 323.009 284.861C329.227 264.571 336.099 245.591 343.625 227.92C351.152 210.249 359.169 195.032 367.678 182.27C376.513 169.18 385.349 160.835 394.184 157.236C411.855 149.709 428.709 144.31 444.743 141.037C461.106 137.438 478.613 135.638 497.266 135.638C505.774 135.638 514.446 137.438 523.282 141.037C532.117 144.31 538.499 149.873 542.426 157.727C546.025 166.562 545.534 174.907 540.953 182.761C536.699 190.615 530.154 196.014 521.318 198.959C514.193 201.408 506.993 203.706 499.716 205.852C496.298 206.861 492.863 207.835 489.412 208.777C484.736 210.052 480.153 211.511 475.661 213.154C475.54 213.198 475.419 213.243 475.299 213.287C472.025 214.493 468.8 215.798 465.625 217.2C463.563 218.11 461.523 219.061 459.503 220.054C459.445 220.082 459.388 220.111 459.33 220.139C459.049 220.278 458.768 220.417 458.488 220.557C457.506 221.212 456.361 221.866 455.052 222.521C454.07 223.175 453.906 224.321 454.561 225.957C454.983 227.646 456.155 228.518 458.077 228.572C458.386 228.581 458.714 228.568 459.061 228.535C459.902 228.454 460.856 228.249 461.924 227.92C461.993 227.897 462.063 227.874 462.135 227.851C462.447 227.75 462.784 227.647 463.144 227.542C464.573 227.127 466.379 226.685 468.561 226.216C471.082 225.675 474.105 225.097 477.631 224.484C482.479 223.474 487.575 222.527 492.921 221.642C496.133 221.11 499.434 220.601 502.826 220.114C502.936 220.098 503.046 220.082 503.156 220.066C515.592 218.43 526.554 219.248 536.044 222.521C545.534 225.793 552.897 234.138 558.133 247.555C560.424 253.118 561.242 258.681 560.588 264.244C559.933 269.48 558.297 274.552 555.679 279.461C553.061 284.37 549.461 288.951 544.88 293.205C540.626 297.132 535.717 300.732 530.154 304.004C516.41 312.185 501.684 318.403 485.976 322.657C482.834 323.526 479.693 324.402 476.551 325.285C476.093 325.413 475.635 325.542 475.177 325.671C468.466 327.561 461.756 329.481 455.045 331.433C455.028 331.438 455.01 331.443 454.992 331.448C452.458 332.186 449.925 332.927 447.391 333.673C444.872 334.414 442.354 335.16 439.835 335.91C439.64 336.008 439.445 336.102 439.25 336.192C439.116 336.254 438.981 336.315 438.847 336.373C438.76 336.411 438.673 336.448 438.587 336.485C438.433 336.55 438.279 336.612 438.125 336.672C437.386 336.961 436.647 337.198 435.908 337.383C434.926 337.71 434.599 338.692 434.926 340.328C435.253 341.964 435.908 342.946 436.89 343.273C437.066 343.317 437.239 343.356 437.409 343.388C437.588 343.422 437.764 343.449 437.937 343.47C438.819 343.576 439.615 343.51 440.326 343.273C440.852 343.161 441.386 343.05 441.929 342.942C442.356 342.857 442.788 342.773 443.225 342.69C445.083 342.34 447.036 342.014 449.086 341.711C451.291 341.386 453.607 341.089 456.033 340.819C462.251 340.165 468.632 339.837 475.177 339.837C476.266 339.837 477.352 339.851 478.435 339.879ZM510.415 329.871C511.433 330.143 512.448 330.428 513.461 330.724C527.522 334.49 538.996 342.287 545.828 354.858C552.535 366.667 555.042 379.408 552.244 392.465C549.74 404.15 544.206 415.117 536.247 425.351L536.165 425.457L536.081 425.561C528.124 435.413 517.974 444.366 505.915 452.524C494.023 460.568 481.292 467.539 467.742 473.446L467.596 473.509L467.45 473.569C453.972 479.099 439.997 483.582 425.536 487.025C410.834 490.526 396.607 492.33 382.894 492.33C373.65 492.33 364.912 491.62 356.728 490.132L356.416 490.075L356.106 490.004C347.711 488.096 339.947 485.01 332.974 480.62C313.035 470.448 298.608 454.419 289.907 433.234L289.793 432.958L289.691 432.678C286.055 422.678 285.211 409.167 285.883 393.691L285.89 393.533L285.901 393.376C286.937 377.488 289.509 359.942 293.54 340.79C297.566 321.334 302.753 301.268 309.088 280.595C315.44 259.867 322.484 240.402 330.23 222.215C338.026 203.913 346.45 187.864 355.563 174.194L355.587 174.159L355.61 174.124C365.077 160.099 375.886 149.01 388.576 143.799C406.923 135.991 424.646 130.288 441.723 126.794C459.19 122.96 477.718 121.078 497.266 121.078C507.801 121.078 518.264 123.299 528.565 127.468C540.48 131.937 549.777 139.873 555.448 151.215L555.698 151.715L555.909 152.233C561.087 164.943 560.522 177.974 553.646 189.895C549.561 197.359 543.943 203.276 537.042 207.582C538.304 207.939 539.554 208.33 540.791 208.757C555.798 213.931 565.554 226.585 571.649 242.14C574.772 249.78 576.007 257.786 575.047 265.945L575.041 265.998L575.035 266.05C574.148 273.146 571.935 279.92 568.526 286.313C565.059 292.813 560.408 298.655 554.787 303.874L554.771 303.889L554.755 303.904C549.666 308.602 543.913 312.8 537.568 316.535C528.873 321.708 519.819 326.154 510.415 329.871Z" fill="black"/>
</g>
<g>
<path d="M268.84 256.89C268.84 254.272 267.531 252.963 264.913 252.963C262.622 252.963 261.477 254.272 261.477 256.89V265.235C261.15 286.179 260.659 306.141 260.005 325.121C259.677 343.773 256.732 360.626 251.169 375.68C245.933 390.406 236.77 403.168 223.681 413.967C210.918 424.766 192.102 432.62 167.231 437.529C161.013 438.838 154.96 439.656 149.069 439.983C143.506 440.637 137.943 440.965 132.38 440.965C109.473 440.965 90.0018 436.056 73.9669 426.239C57.9319 416.421 45.1695 403.495 35.6794 387.46C26.1894 371.098 19.9717 352.773 17.0265 332.484C14.4086 311.867 14.7358 290.76 18.0083 269.162C21.2807 247.564 27.4983 226.62 36.6611 206.331C45.8239 185.715 57.9319 167.389 72.9851 151.354C88.0383 134.992 105.709 121.903 125.999 112.085C146.615 102.268 169.685 97.3594 195.21 97.3594C203.391 97.3594 212.391 98.9956 222.208 102.268C232.025 105.213 240.37 109.631 247.242 115.521C254.114 121.412 258.532 128.611 260.495 137.119C262.786 145.3 260.495 154.627 253.623 165.099C250.351 169.68 245.279 174.262 238.407 178.843C231.534 183.424 224.008 188.169 215.827 193.078C207.646 197.659 199.465 202.568 191.284 207.804C183.102 213.04 176.067 218.767 170.176 224.984C165.595 229.566 161.177 234.638 156.923 240.201C152.669 245.764 149.069 251.327 146.124 256.89C145.469 258.527 144.651 260.326 143.67 262.29C143.015 264.253 143.506 265.562 145.142 266.217C146.451 266.871 147.433 266.871 148.087 266.217C148.742 265.562 149.396 264.908 150.051 264.253C155.614 254.763 162.486 245.437 170.667 236.274C179.176 227.111 188.502 219.094 198.646 212.222C208.791 205.022 219.59 199.296 231.044 195.041C242.497 190.787 254.114 188.66 265.895 188.66C278.003 188.66 288.475 190.787 297.31 195.041C306.146 198.968 313.836 204.368 320.381 211.24C327.253 218.112 333.143 226.293 338.052 235.783C342.961 244.946 347.378 254.763 351.305 265.235C359.486 288.469 363.25 308.758 362.595 326.102C361.941 343.119 358.668 357.354 352.778 368.808C346.888 380.261 339.197 388.933 329.707 394.823C320.545 400.387 311.545 403.168 302.71 403.168C292.892 403.168 284.384 399.896 277.185 393.351C269.985 386.806 266.549 376.825 266.877 363.408L268.84 256.89Z" fill="white"/>
<path fill-rule="evenodd" clip-rule="evenodd" d="M148.088 266.218L150.052 264.254C150.835 262.918 151.644 261.585 152.479 260.256C152.617 260.037 152.755 259.818 152.894 259.599C153.631 258.439 154.388 257.281 155.164 256.126C157.661 252.41 160.363 248.719 163.27 245.055C165.604 242.112 168.07 239.185 170.668 236.275C172.408 234.401 174.182 232.576 175.99 230.798C176.043 230.746 176.096 230.694 176.149 230.642C182.217 224.691 188.671 219.279 195.508 214.404C196.546 213.665 197.592 212.938 198.647 212.223C205.356 207.462 212.351 203.345 219.632 199.872C219.702 199.838 219.773 199.805 219.843 199.771C223.505 198.032 227.238 196.456 231.045 195.042C236.092 193.168 241.172 191.706 246.283 190.657C246.591 190.594 246.899 190.532 247.206 190.472C253.39 189.265 259.62 188.661 265.896 188.661C278.004 188.661 288.476 190.788 297.311 195.042C306.147 198.969 313.837 204.369 320.382 211.241C327.254 218.113 333.144 226.294 338.053 235.784C342.962 244.947 347.379 254.764 351.306 265.236C359.487 288.47 363.251 308.759 362.596 326.103C361.942 343.12 358.669 357.355 352.779 368.808C346.889 380.262 339.198 388.934 329.708 394.824C320.546 400.387 311.546 403.169 302.711 403.169C292.893 403.169 284.385 399.897 277.186 393.352C271.855 388.506 268.588 381.776 267.383 373.162C266.961 370.142 266.793 366.891 266.878 363.409L268.841 256.891C268.841 254.273 267.532 252.964 264.914 252.964C262.663 252.964 261.518 254.228 261.479 256.756C261.478 256.801 261.478 256.846 261.478 256.891V265.236C261.47 265.763 261.462 266.289 261.453 266.815C261.126 287.183 260.644 306.619 260.006 325.122C259.766 338.749 258.13 351.416 255.096 363.122C255.09 363.145 255.084 363.168 255.078 363.191C254.329 366.078 253.494 368.906 252.574 371.675C252.126 373.024 251.658 374.359 251.17 375.681C245.934 390.407 236.771 403.169 223.682 413.968C210.919 424.767 192.103 432.621 167.232 437.53C161.014 438.839 154.96 439.657 149.07 439.984C143.507 440.638 137.944 440.966 132.381 440.966C109.474 440.966 90.0027 436.057 73.9678 426.24C57.9329 416.422 45.1704 403.496 35.6804 387.461C26.1903 371.099 19.9727 352.774 17.0275 332.485C14.4096 311.868 14.7368 290.761 18.0092 269.163C21.2817 247.565 27.4993 226.621 36.6621 206.332C45.8249 185.716 57.9329 167.39 72.9861 151.355C88.0393 134.993 105.71 121.904 125.999 112.086C146.616 102.269 169.686 97.3603 195.211 97.3603C203.392 97.3603 212.392 98.9965 222.209 102.269C232.026 105.214 240.371 109.632 247.243 115.522C254.115 121.413 258.533 128.612 260.496 137.12C262.787 145.301 260.496 154.628 253.624 165.1C250.83 169.012 246.724 172.924 241.305 176.835C240.377 177.505 239.412 178.174 238.407 178.844C234.976 181.132 231.381 183.46 227.623 185.83C223.855 188.205 219.923 190.622 215.828 193.079C208.665 197.09 201.503 201.352 194.34 205.864C194.293 205.894 194.246 205.924 194.199 205.954C193.227 206.566 192.256 207.183 191.284 207.805C183.103 213.041 176.068 218.768 170.177 224.985C168.333 226.829 166.516 228.753 164.725 230.756C164.689 230.795 164.654 230.835 164.619 230.874C161.997 233.813 159.432 236.922 156.924 240.202C153.843 244.231 151.105 248.261 148.71 252.29C147.799 253.824 146.937 255.358 146.125 256.891C145.818 257.658 145.476 258.461 145.097 259.299C144.861 259.822 144.611 260.359 144.347 260.91C144.181 261.256 144.01 261.607 143.834 261.963C143.78 262.072 143.725 262.181 143.671 262.291C143.016 264.254 143.507 265.563 145.143 266.218C146.452 266.872 147.434 266.872 148.088 266.218ZM265.079 174.105C265.351 174.103 265.623 174.102 265.896 174.102C279.605 174.102 292.261 176.496 303.424 181.827C313.831 186.482 322.993 192.905 330.801 201.07C338.754 209.05 345.444 218.405 350.936 229C356.152 238.746 360.815 249.127 364.939 260.124L364.991 260.262L365.039 260.4C373.594 284.694 377.891 306.883 377.145 326.652L377.145 326.663C376.434 345.151 372.85 361.616 365.727 375.467C358.817 388.902 349.443 399.711 337.386 407.195L337.326 407.233L337.264 407.27C326.31 413.92 314.728 417.729 302.711 417.729C289.308 417.729 277.298 413.13 267.392 404.125C263.99 401.032 261.24 397.545 259.068 393.75C252.751 405.593 244.004 416.063 233.016 425.142C217.656 438.109 196.208 446.641 170.141 451.796C163.442 453.202 156.835 454.11 150.329 454.495C144.352 455.181 138.369 455.525 132.381 455.525C107.377 455.525 85.1422 450.153 66.3655 438.657C48.3239 427.611 33.862 412.975 23.1508 394.877L23.1181 394.822L23.0859 394.766C12.5887 376.668 5.80838 356.548 2.61897 334.576L2.60031 334.448L2.58394 334.319C-0.211888 312.301 0.150395 289.842 3.61399 266.982C7.08749 244.057 13.6848 221.846 23.3751 200.379C33.1714 178.349 46.1546 158.677 62.321 141.444C78.6212 123.74 97.7652 109.574 119.658 98.9804L119.699 98.9606L119.74 98.941C142.531 88.088 167.778 82.8008 195.211 82.8008C205.245 82.8008 215.752 84.7889 226.606 88.3878C238.025 91.8412 248.165 97.1364 256.718 104.468C265.777 112.233 271.883 122.014 274.61 133.533C278.32 147.265 273.798 160.895 265.797 173.088L265.639 173.328L265.472 173.562C265.342 173.744 265.211 173.924 265.079 174.105Z" fill="black"/>
</g>
</svg>
