<svg width="310" height="307" viewBox="0 0 310 307" fill="none" xmlns="http://www.w3.org/2000/svg">
<path d="M309.115 114.181C306.755 126.325 300.854 136.247 291.412 143.948C281.971 151.649 270.612 155.499 257.335 155.499C250.844 155.499 244.5 154.463 238.304 152.389C232.108 150.612 225.765 147.798 219.274 143.948C212.783 140.097 206.292 135.951 199.801 131.508C193.605 127.065 187.557 122.622 181.656 118.179C175.755 113.44 170.444 109.146 165.724 105.295C163.658 103.814 161.888 103.814 160.413 105.295C159.233 106.48 158.938 107.665 159.528 108.85C160.413 109.738 161.298 110.479 162.183 111.071C167.789 115.514 174.28 120.549 181.656 126.177C189.327 131.804 197.146 138.024 205.112 144.836C213.078 151.353 220.897 158.313 228.568 165.718C236.239 173.123 243.025 180.823 248.926 188.821C254.827 196.521 259.4 204.519 262.646 212.812C266.186 220.809 267.661 228.806 267.071 236.803C266.186 249.539 262.793 260.35 256.892 269.236C251.286 278.122 244.058 285.378 235.206 291.006C226.355 296.633 216.324 300.78 205.112 303.446C193.9 305.815 182.246 307 170.149 307C156.872 307 143.743 305.667 130.761 303.001C118.074 300.336 106.272 296.633 95.3558 291.894C84.1441 286.859 72.4899 280.343 60.3932 272.346C48.2964 264.349 37.3797 255.463 27.6433 245.689C18.2019 235.618 10.8258 225.104 5.51505 214.145C0.204262 202.89 -1.27096 191.634 1.08939 180.379C1.97452 176.529 3.30222 172.53 5.07248 168.384C7.13779 163.941 9.64566 159.942 12.5961 156.388C15.8416 152.537 19.3821 149.131 23.2177 146.169C27.3483 143.207 31.9214 140.986 36.9372 139.505C39.5926 138.913 42.248 138.468 44.9034 138.172C47.5588 137.876 50.0666 137.728 52.427 137.728C64.8188 137.728 75.7354 140.542 85.1768 146.169C94.9132 151.501 103.765 157.869 111.731 165.274C119.992 172.382 127.811 179.639 135.187 187.043C142.858 194.448 150.824 200.076 159.085 203.926C159.675 204.222 160.56 204.667 161.741 205.259C163.216 205.555 164.248 205.259 164.839 204.37C166.019 202.89 165.576 201.557 163.511 200.372C160.56 198.595 155.25 194.892 147.579 189.265C139.907 183.341 131.941 175.788 123.68 166.606C115.419 157.425 107.895 146.614 101.109 134.174C94.6182 121.438 90.9302 107.369 90.045 91.9667C89.75 83.9696 90.4876 75.9725 92.2579 67.9754C94.3232 59.9783 97.2736 52.4255 101.109 45.3169C104.945 38.2084 109.665 31.6922 115.271 25.7685C120.877 19.5485 127.073 14.5133 133.859 10.6628C145.956 3.55427 158.938 0 172.805 0C195.228 0 220.307 8.4414 248.041 25.3242C254.827 29.767 262.203 35.3946 270.169 42.207C278.135 48.7231 285.216 55.9798 291.412 63.9768C297.903 71.974 302.919 80.2672 306.459 88.8567C310 97.4462 310.885 105.888 309.115 114.181Z" fill="currentColor"/>
</svg>
