<svg width="235" height="307" viewBox="0 0 235 307" fill="none" xmlns="http://www.w3.org/2000/svg">
<path d="M233.282 175.997C236.146 187.699 235.43 199.115 231.133 210.246C226.837 221.092 220.107 231.367 210.942 241.071C202.063 250.774 191.322 259.622 178.72 267.614C166.118 275.605 153.087 282.598 139.625 288.591C126.164 294.299 112.846 298.723 99.6709 301.863C86.496 305.288 74.7532 307 64.4424 307C48.117 307 35.3717 304.003 26.2066 298.01C17.0414 291.731 10.3108 283.596 6.01463 273.607C2.00488 263.618 0 252.344 0 239.786C0.286411 226.943 1.71847 214.099 4.29616 201.256C6.87386 188.127 10.1676 175.427 14.1773 163.154C18.4735 150.881 22.4832 140.179 26.2066 131.045C28.4979 124.196 31.9348 115.491 36.5174 104.931C41.3863 94.085 46.5417 83.0968 51.9836 71.9659C57.7118 60.8349 63.44 50.5602 69.1682 41.1417C75.1828 31.4378 80.4814 24.3026 85.064 19.736C93.3699 11.1738 101.389 5.751 109.122 3.46772C116.856 0.899044 123.586 -0.242595 129.314 0.0428102C145.926 0.613637 157.669 5.18018 164.543 13.7424C171.417 22.3047 174.854 34.0065 174.854 48.8477C174.854 61.9765 173.279 74.2491 170.128 85.6655C167.264 96.7964 163.111 107.357 157.669 117.346C152.227 127.335 145.64 136.896 137.907 146.029C130.46 155.163 122.297 164.153 113.419 173.001C106.831 179.565 102.249 184.274 99.6709 187.128C97.0932 189.982 96.3772 191.98 97.5228 193.122C98.6685 194.264 100.101 194.406 101.819 193.55C103.537 192.408 107.118 189.412 112.559 184.56C117.142 180.564 122.441 175.997 128.455 170.86C134.756 165.723 141.344 161.013 148.218 156.732C155.378 152.166 162.538 148.455 169.698 145.601C177.145 142.462 184.449 140.892 191.609 140.892C196.764 140.892 201.633 141.891 206.216 143.889C210.798 145.601 214.808 148.17 218.245 151.595C221.968 154.734 225.119 158.445 227.697 162.726C230.274 166.722 232.136 171.145 233.282 175.997Z" fill="currentColor"/>
</svg>
