<svg width="234" height="307" viewBox="0 0 234 307" fill="none" xmlns="http://www.w3.org/2000/svg">
<path d="M231.6 100.425C233.657 105.417 234.392 110.408 233.804 115.4C233.216 120.099 231.747 124.65 229.396 129.055C227.045 133.459 223.812 137.57 219.698 141.387C215.878 144.911 211.47 148.141 206.474 151.077C194.131 158.418 180.907 163.998 166.801 167.815C152.989 171.632 139.177 175.596 125.365 179.707C124.19 180.295 123.015 180.735 121.839 181.029C120.957 181.322 120.664 182.203 120.957 183.671C121.251 185.14 121.839 186.021 122.721 186.314C123.896 186.608 124.925 186.608 125.806 186.314C129.92 185.433 134.622 184.699 139.912 184.112C145.496 183.525 151.226 183.231 157.104 183.231C167.683 183.231 177.969 184.699 187.96 187.636C197.952 190.278 205.005 195.417 209.119 203.052C213.821 211.274 215.29 219.495 213.527 227.717C211.764 235.939 207.796 244.014 201.625 251.943C195.454 259.577 187.372 266.771 177.381 273.525C167.389 280.279 156.663 286.152 145.202 291.143C133.741 295.842 121.839 299.659 109.496 302.595C97.1538 305.532 85.399 307 74.2319 307C66.5912 307 59.5384 306.413 53.0732 305.238C46.608 303.77 40.8775 301.421 35.8817 298.191C20.6004 290.556 9.58018 278.517 2.82114 262.073C0.47017 255.613 -0.411417 245.629 0.176326 232.122C1.05794 218.615 3.26193 203.492 6.78839 186.755C10.3148 169.724 14.8699 152.105 20.4534 133.9C26.037 115.694 32.2083 98.6628 38.9674 82.8063C45.7264 66.9498 52.9262 53.2956 60.5669 41.8436C68.5014 30.098 76.4359 22.6102 84.3705 19.3802C100.24 12.6265 115.374 7.78145 129.774 4.84504C144.467 1.61501 160.189 0 176.94 0C184.581 0 192.368 1.61501 200.303 4.84504C208.237 7.78145 213.968 12.7733 217.494 19.8207C220.727 27.7489 220.286 35.2367 216.172 42.2841C212.351 49.3314 206.474 54.1765 198.54 56.8192C189.136 60.0492 179.585 62.9856 169.887 65.6284C160.189 68.2712 150.932 71.7948 142.116 76.1994C141.235 76.7867 140.206 77.374 139.031 77.9613C138.149 78.5485 138.002 79.5763 138.59 81.0445C139.177 83.3936 141.381 83.9809 145.202 82.8063C147.847 81.9254 152.549 80.8977 159.308 79.7231C166.361 78.2549 174.001 76.9335 182.23 75.759C193.397 74.2908 203.241 75.0249 211.764 77.9613C220.286 80.8977 226.898 88.3855 231.6 100.425Z" fill="currentColor"/>
</svg>
