<svg width="268" height="307" viewBox="0 0 268 307" fill="none" xmlns="http://www.w3.org/2000/svg">
<path d="M67.5522 23.2035C76.4996 14.5766 87.2363 8.62694 99.7626 5.35466C112.289 1.78489 125.412 0 139.131 0C154.341 0 168.955 1.78489 182.973 5.35466C197.288 8.62694 209.665 12.9404 220.104 18.2951C234.42 25.7321 245.306 35.549 252.762 47.7457C260.218 59.9424 264.84 73.1803 266.63 87.4593C268.718 101.738 268.419 116.315 265.735 131.189C263.051 146.063 258.577 160.045 252.314 173.134C247.244 183.546 240.384 194.255 231.735 205.262C223.086 215.971 213.244 226.234 202.209 236.051C191.174 245.868 179.245 255.09 166.42 263.717C153.894 272.344 141.069 279.929 127.947 286.474C115.122 292.721 102.298 297.778 89.4731 301.645C76.9469 305.215 65.1663 307 54.1313 307C43.991 307 34.8945 305.215 26.8419 301.645C18.7894 298.373 12.228 292.87 7.15785 285.135C2.6842 278.293 0.298244 267.881 0 253.9C0 239.621 1.34214 223.557 4.02633 205.708C7.00877 187.562 11.035 168.82 16.1052 149.484C21.4736 129.85 27.1402 111.555 33.1051 94.5988C39.07 77.345 45.0348 62.3222 50.9997 49.5305C57.2628 36.4414 62.7803 27.6657 67.5522 23.2035ZM106.473 177.15C105.877 179.827 107.07 181.463 110.052 182.058C112.736 182.653 114.376 181.612 114.973 178.935C117.657 162.871 123.324 148.889 131.973 136.99C140.92 125.091 152.85 115.72 167.762 108.878C170.446 107.688 171.341 105.606 170.446 102.631C169.85 101.441 168.806 100.697 167.315 100.4C166.122 100.102 164.929 100.251 163.736 100.846C148.227 107.688 135.403 117.951 125.262 131.635C115.122 145.319 108.859 160.491 106.473 177.15Z" fill="currentColor" />
</svg>
