<svg width="130" height="307" viewBox="0 0 130 307" fill="none" xmlns="http://www.w3.org/2000/svg">
<path d="M129.421 162.632C129.421 167.27 129.276 174.083 128.986 183.069C128.696 191.766 127.827 201.478 126.378 212.204C125.219 222.93 123.191 233.946 120.293 245.252C117.396 256.268 113.34 266.415 108.124 275.691C102.909 284.968 96.2444 292.505 88.1315 298.303C80.3083 304.101 70.6018 307 59.0119 307C54.9554 307 50.6092 306.565 45.9732 305.695C41.3373 305.116 36.4116 303.811 31.1961 301.782C21.6345 298.303 14.3908 292.795 9.46506 285.258C4.8291 277.721 1.93166 267.429 0.772665 254.384C-0.386324 241.339 -0.241464 225.394 1.20727 206.551C2.94576 187.418 5.40863 164.806 8.59585 138.715C11.4933 115.524 13.8113 95.8107 15.5498 79.5765C17.2883 63.3423 19.3165 49.8621 21.6345 39.136C24.2422 28.4098 27.5743 20.1478 31.6308 14.3499C35.977 8.55194 42.2066 4.63834 50.3195 2.60906C56.4042 0.869686 62.1991 0 67.7043 0C79.584 0 89.2905 3.76865 96.8239 11.306C104.647 18.5534 110.732 27.83 115.078 39.136C119.714 50.152 123.046 62.3277 125.074 75.6629C127.392 88.9981 128.841 101.754 129.421 113.929C130 125.815 130.145 136.396 129.855 145.673C129.565 154.66 129.421 160.313 129.421 162.632Z" fill="currentColor"/>
</svg>
