<svg width="433" height="307" viewBox="0 0 433 307" fill="none" xmlns="http://www.w3.org/2000/svg">
<path d="M260.134 153.37C258.698 153.657 257.837 154.375 257.55 155.523C257.55 156.671 257.693 157.531 257.981 158.105C259.416 164.993 260.565 174.32 261.426 186.086C262.287 197.852 262.431 209.905 261.857 222.245C261.283 234.298 259.703 245.777 257.119 256.682C254.822 267.3 250.802 275.192 245.06 280.357C240.179 284.662 234.58 287.962 228.263 290.258C221.947 292.554 215.343 293.702 208.452 293.702C201.561 293.702 195.244 292.697 189.502 290.688C178.878 286.671 169.834 279.64 162.368 269.596C154.903 259.265 148.443 247.929 142.988 235.589C137.819 222.962 133.369 210.192 129.636 197.278C125.904 184.077 122.458 172.741 119.3 163.271C118.151 160.401 116.572 159.397 114.562 160.258C113.414 160.832 112.696 161.693 112.409 162.841C112.409 163.701 112.553 164.562 112.84 165.423C118.295 181.207 122.028 197.134 124.037 213.205C125.76 223.536 126.765 234.728 127.052 246.781C127.339 258.547 125.617 269.309 121.884 279.066C118.439 288.536 112.552 295.998 104.226 301.45C96.1864 306.903 84.558 308.338 69.3404 305.755C57.2812 303.746 47.0884 299.154 38.7618 291.98C30.7223 284.805 24.1184 276.053 18.9502 265.722C13.782 255.103 9.90581 243.624 7.3217 231.284C4.73758 218.657 2.87129 205.887 1.7228 192.973C0.574304 180.059 0 167.576 0 155.523C0 143.47 0 132.708 0 123.238C0.574247 110.898 2.44054 97.4099 5.5989 82.7741C8.75726 68.1384 13.7819 54.507 20.6729 41.88C27.5639 29.2531 36.3211 18.9219 46.9447 10.8866C57.8554 2.85126 71.0632 -0.735947 86.5678 0.124971C96.9043 0.698933 106.236 3.42521 114.562 8.30379C123.176 13.1824 130.785 19.4959 137.389 27.2442C144.28 34.7056 150.309 43.3149 155.478 53.0721C160.646 62.8293 165.24 72.8735 169.259 83.2046C173.279 93.5358 176.581 103.867 179.165 114.198C182.036 124.242 184.477 133.569 186.487 142.178C186.774 142.752 187.205 143.47 187.779 144.331C188.353 145.191 189.214 145.478 190.363 145.191C192.086 144.905 192.947 143.757 192.947 141.748C192.947 127.973 193.809 113.337 195.531 97.8404C197.541 82.0567 201.274 67.4209 206.729 53.933C212.472 40.1582 220.511 28.5356 230.847 19.0654C241.184 9.30822 254.822 3.4252 271.763 1.41637C285.257 -0.0185072 298.034 2.13381 310.094 7.87333C322.44 13.6129 333.638 21.3612 343.687 31.1184C354.024 40.5886 363.068 51.3502 370.82 63.4032C378.86 75.1693 385.463 86.5048 390.632 97.4099C422.215 159.971 436.141 208.326 432.408 242.476C431.834 249.364 430.255 256.108 427.671 262.708C425.374 269.022 422.215 274.905 418.196 280.357C414.463 285.81 409.725 290.545 403.983 294.563C398.528 298.293 392.211 300.876 385.033 302.311C374.409 304.32 364.36 303.315 354.885 299.298C345.697 294.993 336.94 288.823 328.613 280.788C320.574 272.752 313.108 263.282 306.217 252.377C299.614 241.472 293.584 230.28 288.129 218.801C282.673 207.322 277.936 196.13 273.916 185.225C270.183 174.32 267.169 164.849 264.872 156.814C264.297 153.944 262.718 152.796 260.134 153.37Z" fill="currentColor"/>
</svg>
