<svg width="136" height="51" viewBox="0 0 136 51" fill="none" xmlns="http://www.w3.org/2000/svg">

<g>
<path d="M49.9911 47.1985C48.9957 46.4188 48.3424 45.3653 48.0314 44.0378C47.741 42.7103 47.7203 41.2879 47.9692 39.7708C48.218 38.2326 48.7157 36.6838 49.4623 35.1245C50.2089 33.5442 51.1317 32.1218 52.2308 30.8575C53.3507 29.5722 54.6053 28.5291 55.9948 27.7284C57.405 26.9277 58.8981 26.5273 60.4742 26.5273C61.5941 26.5273 62.7347 26.7697 63.896 27.2543C65.0781 27.739 66.2601 28.5186 67.4422 29.5932C68.4169 30.4782 69.0079 31.574 69.2153 32.8804C69.4227 34.1868 69.3397 35.5775 68.9664 37.0526C68.5932 38.5065 67.971 39.9604 67.1 41.4144C66.2498 42.8683 65.2232 44.1747 64.0204 45.3337C62.8176 46.4926 61.4904 47.4408 60.0387 48.1783C58.587 48.8947 57.1043 49.253 55.5904 49.253C54.6572 49.253 53.7136 49.0844 52.7597 48.7472C51.8264 48.4312 50.9036 47.9149 49.9911 47.1985ZM61.5319 33.8602C60.0387 34.6188 58.8152 35.6934 57.8612 37.0842C56.9073 38.4749 56.1918 39.992 55.7148 41.6356C55.6526 41.8674 55.7045 42.0044 55.8704 42.0465C56.0363 42.0676 56.1503 41.9833 56.2125 41.7936C56.7102 40.2765 57.405 38.8542 58.2967 37.5267C59.1884 36.1992 60.3705 35.1456 61.8429 34.3659C61.9051 34.3238 61.957 34.2606 61.9985 34.1763C62.0399 34.092 62.0399 34.0077 61.9985 33.9234C61.9155 33.7759 61.76 33.7549 61.5319 33.8602Z" fill="white"/>
<path fill-rule="evenodd" clip-rule="evenodd" d="M46.7018 44.3387L46.6996 44.3288C46.368 42.8127 46.3508 41.2154 46.6236 39.5508C46.8954 37.8723 47.4356 36.2005 48.2313 34.5379C49.0287 32.8507 50.0185 31.3234 51.2023 29.9616L51.2033 29.9605C52.4161 28.5685 53.7864 27.4263 55.3148 26.5455L55.3224 26.5411L55.3224 26.5411C56.9318 25.6273 58.6563 25.1621 60.4757 25.1621C61.7956 25.1621 63.1131 25.4482 64.4191 25.9927C65.7785 26.5507 67.0914 27.4281 68.3617 28.5829C69.5671 29.6777 70.3088 31.0547 70.5646 32.6659C70.805 34.1805 70.7028 35.7593 70.2909 37.3869L70.2897 37.3914C69.8804 38.9858 69.2039 40.5587 68.2758 42.1091C67.3636 43.6677 66.2608 45.071 64.9688 46.3159C63.6711 47.5662 62.2336 48.5942 60.6583 49.3945L60.6512 49.3981L60.6441 49.4016C59.0179 50.2042 57.3295 50.6172 55.5918 50.6172C54.494 50.6172 53.3997 50.4189 52.3147 50.0364C51.2148 49.6626 50.1602 49.0647 49.1498 48.2714C47.8908 47.2849 47.0799 45.9526 46.7041 44.3486L46.7018 44.3387ZM49.9926 47.198C50.905 47.9144 51.8279 48.4307 52.7611 48.7467C53.715 49.0839 54.6586 49.2524 55.5918 49.2524C57.1057 49.2524 58.5885 48.8942 60.0402 48.1778C61.4918 47.4403 62.8191 46.4921 64.0219 45.3331C65.2247 44.1742 66.2512 42.8678 67.1015 41.4138C67.9725 39.9599 68.5946 38.506 68.9679 37.052C69.3412 35.577 69.4241 34.1863 69.2167 32.8799C69.0094 31.5735 68.4183 30.4777 67.4436 29.5927C66.2616 28.5181 65.0795 27.7384 63.8974 27.2538C62.7361 26.7692 61.5955 26.5268 60.4757 26.5268C58.8996 26.5268 57.4064 26.9272 55.9962 27.7279C54.6068 28.5286 53.3521 29.5717 52.2323 30.857C51.1332 32.1213 50.2103 33.5436 49.4637 35.124C48.7172 36.6833 48.2195 38.232 47.9706 39.7703C47.7217 41.2874 47.7425 42.7097 48.0328 44.0372C48.3439 45.3647 48.9971 46.4183 49.9926 47.198ZM61.9999 34.1758C62.0414 34.0915 62.0414 34.0072 61.9999 33.9229C61.9213 33.7831 61.7774 33.7569 61.5684 33.8443C61.5569 33.8491 61.5452 33.8542 61.5333 33.8597C61.5255 33.8637 61.5177 33.8677 61.5099 33.8716C61.489 33.8823 61.4681 33.8931 61.4473 33.9039C61.1912 34.037 60.9431 34.1796 60.703 34.3316C59.5802 35.0426 58.6334 35.96 57.8627 37.0837C57.8392 37.1179 57.8158 37.1522 57.7926 37.1866C57.057 38.2772 56.4668 39.4449 56.0219 40.6896C55.9116 40.9985 55.8101 41.312 55.7177 41.6303C55.7172 41.6319 55.7167 41.6335 55.7163 41.6351C55.6541 41.8669 55.7059 42.0038 55.8718 42.046C56.0377 42.0671 56.1518 41.9828 56.214 41.7931C56.2153 41.789 56.2167 41.7849 56.2181 41.7807C56.2192 41.7774 56.2203 41.774 56.2214 41.7707C56.3211 41.4682 56.4286 41.1694 56.544 40.8745C57.004 39.6983 57.5887 38.5822 58.2982 37.5262C58.3202 37.4933 58.3425 37.4606 58.3649 37.4281C59.0719 36.4029 59.9557 35.5444 61.0162 34.8527C61.2621 34.6924 61.5174 34.541 61.7822 34.3986C61.7887 34.3951 61.7952 34.3916 61.8017 34.3881C61.8159 34.3805 61.8301 34.373 61.8444 34.3654C61.9066 34.3233 61.9584 34.2601 61.9999 34.1758ZM55.8042 41.6587L55.7177 41.6303L55.8042 41.6587" fill="black"/>
</g>

<g>
<path d="M70.9854 38.7509C69.9837 37.9843 69.3264 36.9482 69.0133 35.6428C68.7212 34.3374 68.7003 32.9387 68.9507 31.4469C69.2011 29.9342 69.702 28.4113 70.4532 26.8779C71.2045 25.3239 72.1332 23.9252 73.2392 22.682C74.3661 21.418 75.6287 20.3923 77.0268 19.6049C78.4459 18.8175 79.9485 18.4238 81.5345 18.4238C82.6614 18.4238 83.8091 18.6621 84.9778 19.1387C86.1673 19.6153 87.3568 20.3819 88.5463 21.4387C89.5271 22.309 90.1219 23.3865 90.3306 24.6711C90.5393 25.9558 90.4558 27.3234 90.0801 28.7739C89.7045 30.2036 89.0785 31.6333 88.202 33.0631C87.3464 34.4928 86.3134 35.7775 85.103 36.9171C83.8926 38.0568 82.557 38.9892 81.0962 39.7145C79.6354 40.419 78.1433 40.7712 76.6199 40.7712C75.6808 40.7712 74.7313 40.6054 73.7713 40.2739C72.8323 39.9631 71.9036 39.4554 70.9854 38.7509ZM82.5988 25.6347C81.0962 26.3806 79.865 27.4374 78.905 28.8049C77.9451 30.1725 77.2251 31.6644 76.7451 33.2806C76.6825 33.5086 76.7347 33.6433 76.9016 33.6847C77.0686 33.7054 77.1834 33.6225 77.246 33.436C77.7468 31.9442 78.4459 30.5455 79.3433 29.2401C80.2406 27.9347 81.4301 26.8986 82.9118 26.132C82.9744 26.0905 83.0266 26.0284 83.0683 25.9455C83.11 25.8626 83.11 25.7797 83.0683 25.6968C82.9848 25.5518 82.8283 25.5311 82.5988 25.6347Z" fill="white"/>
<path fill-rule="evenodd" clip-rule="evenodd" d="M67.6852 35.9505L67.683 35.9404C67.3477 34.4422 67.3304 32.8646 67.606 31.2219C67.8803 29.5659 68.4255 27.9179 69.2276 26.2802C70.0314 24.6181 71.0289 23.1144 72.221 21.7743L72.222 21.7733C73.4434 20.4033 74.8223 19.2804 76.3586 18.4153L76.3661 18.411L76.3662 18.4111C77.9829 17.514 79.7127 17.0586 81.5359 17.0586C82.8582 17.0586 84.1793 17.3386 85.4907 17.8729C86.8555 18.4204 88.1755 19.282 89.4541 20.4179C90.6677 21.495 91.4196 22.8547 91.6791 24.4518C91.9224 25.9494 91.8187 27.5094 91.4027 29.1155L91.4015 29.1201C90.9883 30.6929 90.3058 32.2431 89.3707 33.7696C88.4513 35.3046 87.3404 36.6858 86.04 37.9102C84.7338 39.1401 83.2879 40.1502 81.7045 40.9363L81.6975 40.9398L81.6905 40.9432C80.057 41.731 78.3632 42.1354 76.6214 42.1354C75.5215 42.1354 74.4244 41.9413 73.3354 41.5662C72.2327 41.2 71.1736 40.6136 70.1574 39.8342M73.7728 40.2734C74.7327 40.6049 75.6823 40.7707 76.6214 40.7707C78.1448 40.7707 79.6369 40.4184 81.0977 39.7139C82.5585 38.9887 83.8941 38.0563 85.1044 36.9166C86.3148 35.777 87.3478 34.4923 88.2034 33.0626C89.0799 31.6328 89.706 30.2031 90.0816 28.7734C90.4572 27.3229 90.5407 25.9553 90.332 24.6706C90.1233 23.386 89.5286 22.3085 88.5477 21.4382C87.3582 20.3814 86.1687 19.6148 84.9792 19.1382C83.8106 18.6616 82.6628 18.4233 81.5359 18.4233C79.9499 18.4233 78.4474 18.817 77.0283 19.6044C75.6301 20.3918 74.3675 21.4175 73.2406 22.6814C72.1346 23.9247 71.206 25.3233 70.4547 26.8774C69.7034 28.4107 69.2026 29.9337 68.9522 31.4463C68.7017 32.9382 68.7226 34.3369 69.0148 35.6423C69.3278 36.9477 69.9852 37.9838 70.9868 38.7504C71.9051 39.4549 72.8337 39.9626 73.7728 40.2734ZM67.6852 35.9505L67.6877 35.9605ZM83.0697 25.945C83.1115 25.8621 83.1115 25.7792 83.0697 25.6963C82.9919 25.5611 82.8506 25.5339 82.6459 25.6148C82.631 25.6207 82.6158 25.6271 82.6002 25.6342C82.5962 25.6362 82.5921 25.6382 82.588 25.6402C82.5674 25.6505 82.5468 25.6608 82.5262 25.6713C82.2661 25.803 82.0142 25.9441 81.7705 26.0946C80.6381 26.7943 79.6834 27.6976 78.9065 28.8044C78.8853 28.8346 78.8643 28.8647 78.8434 28.895C78.1041 29.9642 77.5103 31.1088 77.0621 32.3288C76.9488 32.6372 76.8447 32.9505 76.75 33.2686C76.7489 33.2724 76.7477 33.2763 76.7466 33.2801C76.684 33.5081 76.7361 33.6427 76.9031 33.6842C77.07 33.7049 77.1848 33.622 77.2474 33.4355C77.2481 33.4335 77.2488 33.4315 77.2494 33.4295C77.2506 33.4261 77.2517 33.4226 77.2529 33.4192C77.3552 33.1156 77.4657 32.8158 77.5844 32.5199C78.0466 31.3678 78.6334 30.2744 79.3447 29.2396C79.3644 29.2109 79.3843 29.1823 79.4043 29.1539C80.1155 28.1431 81.0051 27.2968 82.073 26.615C82.3197 26.4575 82.5758 26.3088 82.8415 26.1689C82.8479 26.1655 82.8543 26.1622 82.8607 26.1588C82.8782 26.1497 82.8957 26.1405 82.9132 26.1315C82.9758 26.09 83.028 26.0279 83.0697 25.945ZM82.7276 25.7727L82.8229 25.8206L82.8393 25.8289M82.8229 25.8206L82.7276 25.7727ZM67.6877 35.9605C68.0687 37.5495 68.8901 38.8641 70.1572 39.834Z" fill="black"/>
</g>

<g>
<path d="M41.2312 19.2678C41.1036 19.2933 41.0271 19.3571 41.0016 19.4591C41.0016 19.5612 41.0143 19.6378 41.0398 19.6888C41.1674 20.3012 41.2695 21.1305 41.346 22.1766C41.4226 23.2228 41.4353 24.2945 41.3843 25.3917C41.3333 26.4634 41.1929 27.4841 40.9633 28.4537C40.7592 29.3978 40.4019 30.0995 39.8916 30.5588C39.4578 30.9416 38.9602 31.235 38.3989 31.4391C37.8375 31.6433 37.2506 31.7453 36.6382 31.7453C36.0258 31.7453 35.4645 31.656 34.9542 31.4774C34.01 31.1202 33.2063 30.495 32.5428 29.6019C31.8794 28.6833 31.3053 27.6754 30.8205 26.5782C30.3612 25.4555 29.9657 24.32 29.634 23.1718C29.3023 21.998 28.9961 20.9901 28.7154 20.1481C28.6133 19.8929 28.473 19.8036 28.2944 19.8802C28.1923 19.9312 28.1285 20.0077 28.103 20.1098C28.103 20.1864 28.1157 20.2629 28.1413 20.3395C28.6261 21.7429 28.9578 23.159 29.1364 24.588C29.2895 25.5065 29.3788 26.5017 29.4043 27.5734C29.4298 28.6196 29.2767 29.5764 28.945 30.444C28.6388 31.286 28.1157 31.9495 27.3758 32.4343C26.6613 32.9191 25.6279 33.0467 24.2755 32.817C23.2038 32.6384 22.298 32.2301 21.558 31.5922C20.8435 30.9543 20.2567 30.1761 19.7974 29.2575C19.3381 28.3134 18.9936 27.2927 18.7639 26.1955C18.5343 25.0728 18.3684 23.9373 18.2664 22.789C18.1643 21.6408 18.1133 20.5308 18.1133 19.4591C18.1133 18.3874 18.1133 17.4306 18.1133 16.5885C18.1643 15.4913 18.3302 14.2921 18.6109 12.9907C18.8915 11.6894 19.3381 10.4773 19.9505 9.35462C20.5629 8.23189 21.3411 7.3133 22.2852 6.59884C23.2548 5.88438 24.4286 5.56542 25.8065 5.64197C26.7251 5.693 27.5544 5.93541 28.2944 6.36919C29.0598 6.80297 29.736 7.36433 30.3229 8.05328C30.9353 8.71671 31.4712 9.4822 31.9305 10.3498C32.3897 11.2173 32.798 12.1104 33.1552 13.029C33.5125 13.9476 33.8059 14.8662 34.0356 15.7848C34.2907 16.6778 34.5076 17.5071 34.6862 18.2726C34.7117 18.3237 34.75 18.3874 34.8011 18.464C34.8521 18.5405 34.9286 18.5661 35.0307 18.5405C35.1838 18.515 35.2604 18.413 35.2604 18.2344C35.2604 17.0096 35.3369 15.7082 35.49 14.3303C35.6686 12.9269 36.0003 11.6256 36.4851 10.4263C36.9955 9.20152 37.7099 8.1681 38.6285 7.32606C39.5471 6.4585 40.7592 5.93541 42.2646 5.7568C43.4639 5.62921 44.5994 5.82059 45.6711 6.33092C46.7683 6.84125 47.7634 7.53019 48.6565 8.39775C49.5751 9.23979 50.3789 10.1967 51.0678 11.2684C51.7823 12.3145 52.3691 13.3224 52.8284 14.2921C55.6353 19.8546 56.8728 24.1542 56.5411 27.1906C56.4901 27.803 56.3497 28.4027 56.1201 28.9895C55.9159 29.5509 55.6353 30.074 55.278 30.5588C54.9463 31.0436 54.5253 31.4646 54.015 31.8219C53.5301 32.1536 52.9688 32.3832 52.3309 32.5108C51.3868 32.6894 50.4937 32.6001 49.6516 32.2429C48.8351 31.8601 48.0569 31.3115 47.3169 30.5971C46.6024 29.8826 45.939 29.0406 45.3266 28.071C44.7397 27.1013 44.2039 26.1062 43.7191 25.0855C43.2343 24.0649 42.8132 23.0697 42.456 22.1001C42.1243 21.1305 41.8564 20.2884 41.6522 19.574C41.6012 19.3188 41.4609 19.2167 41.2312 19.2678Z" fill="white"/>
<path fill-rule="evenodd" clip-rule="evenodd" d="M41.193 20.6084C41.1505 20.2853 41.1038 19.9975 41.0529 19.7451C41.0496 19.7284 41.0462 19.7119 41.0428 19.6956C41.0423 19.6931 41.0418 19.6907 41.0413 19.6882C41.0158 19.6372 41.003 19.5607 41.003 19.4586C41.0285 19.3565 41.1051 19.2927 41.2326 19.2672C41.4045 19.229 41.5263 19.2766 41.5981 19.4098C41.6063 19.4249 41.6138 19.4412 41.6207 19.4586C41.6329 19.4893 41.643 19.5235 41.6511 19.5612C41.652 19.5652 41.6528 19.5693 41.6537 19.5734C41.6586 19.5905 41.6635 19.6077 41.6684 19.625C41.7402 19.8745 41.8196 20.1393 41.9066 20.4194C42.0645 20.9276 42.2476 21.4861 42.4559 22.095C42.4564 22.0965 42.4569 22.098 42.4574 22.0995C42.5522 22.3567 42.6514 22.6156 42.7551 22.8763C43.0424 23.5987 43.3643 24.335 43.7205 25.085C44.2053 26.1056 44.7412 27.1008 45.328 28.0704C45.9404 29.04 46.6039 29.8821 47.3183 30.5965C48.0583 31.311 48.8366 31.8596 49.6531 32.2423C50.4951 32.5996 51.3882 32.6889 52.3323 32.5103C52.9702 32.3827 53.5316 32.153 54.0164 31.8213C54.5267 31.4641 54.9478 31.0431 55.2795 30.5583C55.6367 30.0734 55.9174 29.5504 56.1215 28.989C56.3512 28.4021 56.4915 27.8025 56.5425 27.1901C56.8743 24.1536 55.6367 19.8541 52.8299 14.2915C52.3706 13.3219 51.7837 12.314 51.0692 11.2678C50.3803 10.1961 49.5765 9.23924 48.6579 8.3972C47.7649 7.52963 46.7697 6.84069 45.6725 6.33036C44.6008 5.82003 43.4653 5.62866 42.2661 5.75624C40.7606 5.93485 39.5486 6.45794 38.63 7.3255C37.7114 8.16755 36.9969 9.20096 36.4866 10.4258C36.0018 11.625 35.6701 12.9264 35.4914 14.3298C35.4471 14.7292 35.4091 15.1223 35.3776 15.5089C35.3296 16.0973 35.2966 16.6708 35.2784 17.2294C35.2701 17.4842 35.2649 17.7359 35.2628 17.9845C35.2624 18.0358 35.2621 18.087 35.2619 18.1381C35.2619 18.1444 35.2619 18.1508 35.2619 18.1572C35.2618 18.1828 35.2618 18.2083 35.2618 18.2338C35.2618 18.4124 35.1852 18.5145 35.0321 18.54C34.9301 18.5655 34.8535 18.54 34.8025 18.4634C34.7515 18.3869 34.7132 18.3231 34.6877 18.2721C34.6847 18.2593 34.6817 18.2466 34.6787 18.2338C34.6097 17.9393 34.535 17.6353 34.4547 17.322C34.3293 16.8323 34.19 16.3198 34.037 15.7842C34.0245 15.7341 34.0118 15.684 33.9989 15.6339C33.7752 14.7654 33.4944 13.8969 33.1567 13.0284C32.7995 12.1098 32.3912 11.2168 31.9319 10.3492C31.4726 9.48165 30.9368 8.71615 30.3244 8.05272C29.7375 7.36378 29.0613 6.80242 28.2958 6.36863C27.5558 5.93486 26.7265 5.69245 25.8079 5.64142C24.4301 5.56487 23.2563 5.88382 22.2867 6.59828C21.3426 7.31275 20.5643 8.23134 19.9519 9.35406L18.7538 8.70056C19.4513 7.42182 20.3527 6.35036 21.4631 5.51004L21.4701 5.50478L21.4771 5.4996C22.7389 4.56986 24.2377 4.18735 25.8836 4.27879C26.9993 4.34077 28.0389 4.63805 28.9772 5.18616C29.8741 5.6957 30.6644 6.35202 31.3455 7.14694C32.0366 7.8993 32.6328 8.75644 33.138 9.71067C33.6189 10.619 34.0466 11.5537 34.4211 12.5145C34.6203 11.6097 34.8865 10.7425 35.2213 9.91427L35.2241 9.90755L35.2268 9.90086C35.807 8.50836 36.6299 7.30956 37.7004 6.32625C38.8709 5.22418 40.3722 4.60663 42.1053 4.40102L42.1135 4.40005L42.1217 4.39917C43.5652 4.24561 44.9522 4.47705 46.2536 5.0955C47.4854 5.66922 48.6001 6.44132 49.5946 7.40449C50.5909 8.32008 51.4618 9.35767 52.2069 10.5137C52.9462 11.5977 53.5647 12.6572 54.0558 13.6917C56.8709 19.2738 58.2718 23.8695 57.9011 27.3211C57.838 28.0569 57.6692 28.7747 57.3983 29.4711C57.1524 30.1428 56.8162 30.7697 56.3921 31.3489C55.9644 31.9686 55.4289 32.4984 54.799 32.9393L54.7931 32.9435L54.787 32.9476C54.135 33.3938 53.3987 33.6887 52.6 33.8485L52.593 33.8499L52.586 33.8512C51.3912 34.0773 50.2231 33.9666 49.1201 33.4987L49.0968 33.4888L49.0738 33.478C48.1036 33.0233 47.2035 32.3827 46.3704 31.5783L46.3618 31.57L46.3533 31.5615C45.5585 30.7667 44.8335 29.843 44.1742 28.7992L44.1672 28.7882L44.1605 28.7771C43.6367 27.9116 43.1519 27.0264 42.706 26.1216C42.6321 27.0289 42.4958 27.907 42.2957 28.7549C42.0541 29.8633 41.5972 30.8606 40.806 31.5726L40.796 31.5816C40.23 32.081 39.5832 32.4606 38.8667 32.7211C38.1521 32.981 37.4071 33.1095 36.6397 33.1095C35.8939 33.1095 35.1778 33.0005 34.5048 32.765L34.4886 32.7593L34.4726 32.7533C33.2596 32.2943 32.2514 31.4957 31.4488 30.4152L31.4433 30.4078L31.4379 30.4004C31.1665 30.0245 30.9094 29.6358 30.6665 29.2343C30.5772 29.8166 30.4311 30.3795 30.2251 30.9206C29.8202 32.0274 29.1159 32.9235 28.1339 33.5695C26.9991 34.3345 25.549 34.4164 24.0505 34.1623C22.7614 33.9471 21.618 33.4439 20.6684 32.6253L20.6594 32.6176L20.6505 32.6097C19.7982 31.8487 19.109 30.929 18.5782 29.8672L18.5748 29.8606L18.5716 29.8539C18.06 28.8023 17.6807 27.6742 17.4296 26.4745L17.4283 26.4684C17.1883 25.295 17.0151 24.1085 16.9085 22.9093C16.8031 21.7239 16.75 20.5735 16.75 19.4586V16.5563L16.7515 16.5246C16.8067 15.3381 16.9849 14.0627 17.2782 12.7024C17.5854 11.2785 18.0763 9.9427 18.7538 8.70056L19.9519 9.35406C19.3395 10.4768 18.893 11.6888 18.6123 12.9902C18.3316 14.2915 18.1658 15.4908 18.1147 16.588V19.4586C18.1147 20.5303 18.1658 21.6402 18.2678 22.7885C18.3699 23.9367 18.5357 25.0722 18.7654 26.1949C18.995 27.2921 19.3395 28.3128 19.7988 29.2569C20.2581 30.1755 20.845 30.9538 21.5594 31.5917C22.2994 32.2296 23.2053 32.6378 24.277 32.8165C25.6293 33.0461 26.6627 32.9185 27.3772 32.4337C28.1172 31.9489 28.6403 31.2855 28.9465 30.4434C29.2782 29.5759 29.4313 28.619 29.4058 27.5728C29.3979 27.2443 29.3841 26.923 29.3643 26.6089C29.3195 25.8982 29.244 25.2244 29.1378 24.5874C29.087 24.1805 29.0237 23.7746 28.948 23.3698C28.9478 23.3684 28.9475 23.3671 28.9472 23.3657C28.8126 22.6465 28.6388 21.9305 28.4258 21.2178C28.3414 20.9355 28.2509 20.6538 28.1543 20.3725C28.1504 20.3613 28.1466 20.3501 28.1427 20.3389C28.1172 20.2624 28.1044 20.1858 28.1044 20.1093C28.1299 20.0072 28.1937 19.9306 28.2958 19.8796C28.4652 19.807 28.6001 19.8836 28.7007 20.1093C28.7053 20.1197 28.7099 20.1304 28.7144 20.1414C28.7152 20.1434 28.716 20.1455 28.7168 20.1475C28.7306 20.1889 28.7444 20.2306 28.7583 20.2727C28.8386 20.516 28.9209 20.7726 29.0053 21.0425C29.204 21.6782 29.414 22.3878 29.6354 23.1712C29.758 23.5955 29.8893 24.018 30.0292 24.4388C30.0332 24.4507 30.0372 24.4626 30.0411 24.4745C30.2461 25.0882 30.4696 25.6983 30.7116 26.3046C30.7479 26.3957 30.7847 26.4867 30.8219 26.5777C31.3067 27.6749 31.8809 28.6828 32.5443 29.6014C33.2077 30.4945 34.0115 31.1196 34.9556 31.4768C35.4659 31.6555 36.0273 31.7448 36.6397 31.7448C37.2521 31.7448 37.839 31.6427 38.4003 31.4386C38.9617 31.2344 39.4593 30.941 39.893 30.5583C40.4034 30.099 40.7606 29.3973 40.9647 28.4531C41.1944 27.4835 41.3347 26.4629 41.3857 25.3912C41.4209 24.6356 41.4258 23.8922 41.4004 23.1609C41.3928 22.9397 41.3823 22.7195 41.3691 22.5005C41.3685 22.4911 41.368 22.4818 41.3674 22.4724C41.3613 22.3734 41.3547 22.2747 41.3475 22.1761C41.3042 21.5841 41.2527 21.0615 41.193 20.6084Z" fill="black"/>
</g>
<g>
<path d="M22.4416 18.153C23.2071 19.2234 23.5412 20.4063 23.4439 21.7015C23.3466 22.9967 22.811 24.1594 21.8372 25.1896C21.3611 25.6932 20.8157 26.1096 20.201 26.4389C19.6092 26.7898 18.9264 27.0764 18.1527 27.2987C17.379 27.521 16.5824 27.7217 15.7629 27.9007C14.9651 28.0568 14.1781 28.2015 13.4019 28.3348C12.6028 28.4464 11.8813 28.5447 11.2374 28.6296C10.9715 28.6816 10.8416 28.819 10.8479 29.0417C10.8529 29.2198 10.9228 29.3293 11.0577 29.37C11.1913 29.3663 11.3134 29.3517 11.4241 29.3263C12.1787 29.216 13.044 29.0802 14.02 28.9191C15.0176 28.735 16.0718 28.5828 17.1826 28.4625C18.2706 28.3205 19.382 28.2224 20.517 28.1682C21.652 28.114 22.7449 28.1501 23.7958 28.2766C24.8239 28.3814 25.7774 28.6109 26.6564 28.965C27.5342 29.2746 28.2605 29.7444 28.8353 30.3745C29.7548 31.3737 30.3415 32.4269 30.5955 33.534C30.8711 34.6181 30.9017 35.7092 30.6875 36.8072C30.4732 37.9051 30.0579 38.9864 29.4416 40.0511C28.8024 41.0942 28.0392 42.085 27.1519 43.0236C26.1781 44.0537 25.112 44.9751 23.9538 45.7876C22.8172 46.5772 21.6654 47.2224 20.4984 47.7232C19.2869 48.2252 17.9285 48.6534 16.4231 49.0076C14.9177 49.3619 13.4303 49.5597 11.9606 49.6011C10.4898 49.5978 9.13609 49.4019 7.89953 49.0133C6.64008 48.603 5.66196 47.8951 4.96517 46.8896C4.73248 46.5396 4.52082 46.1444 4.33016 45.7041C4.13826 45.2192 4.01316 44.7325 3.95485 44.2439C3.8953 43.7107 3.89172 43.1872 3.94412 42.6732C4.01817 42.1362 4.18191 41.6191 4.43534 41.1217C4.58432 40.8724 4.74475 40.6339 4.91662 40.4062C5.08849 40.1786 5.261 39.9732 5.43412 39.79C6.34303 38.8285 7.36122 38.1871 8.48868 37.8657C9.61489 37.4998 10.7563 37.2783 11.9129 37.2012C13.0683 37.0796 14.2026 37.0031 15.316 36.9718C16.4509 36.9176 17.4702 36.7107 18.3737 36.3511C18.4399 36.3269 18.5392 36.2907 18.6715 36.2424C18.8026 36.1496 18.8555 36.0478 18.8301 35.9371C18.8022 35.7373 18.6667 35.6743 18.4236 35.748C18.0699 35.8471 17.3942 35.9886 16.3966 36.1727C15.3761 36.335 14.208 36.4013 12.8924 36.3714C11.5768 36.3416 10.1894 36.1354 8.73013 35.7531C7.26966 35.3261 5.91175 34.5844 4.65641 33.5277C4.01667 32.9663 3.45267 32.3248 2.96441 31.6031C2.4978 30.8586 2.13045 30.0778 1.86235 29.2608C1.59426 28.4438 1.43688 27.6015 1.3902 26.7337C1.32063 25.8443 1.38591 24.9956 1.58604 24.1878C1.92389 22.7298 2.60137 21.4628 3.61849 20.3869C5.26319 18.6471 7.75509 17.3179 11.0942 16.3996C11.9353 16.1977 12.9113 16.0365 14.0221 15.9161C15.1101 15.7741 16.1903 15.7549 17.2629 15.8585C18.3571 15.9391 19.366 16.1559 20.2895 16.5088C21.2131 16.8616 21.9305 17.4097 22.4416 18.153Z" fill="white"/>
<path fill-rule="evenodd" clip-rule="evenodd" d="M10.0722 36.0582C9.63225 35.9733 9.18539 35.8715 8.73158 35.7525C7.2711 35.3256 5.91319 34.5839 4.65785 33.5272C4.01811 32.9658 3.45411 32.3243 2.96586 31.6026C2.49924 30.8581 2.13189 30.0773 1.8638 29.2603C1.5957 28.4433 1.43832 27.601 1.39164 26.7332C1.32207 25.8438 1.38735 24.9951 1.58748 24.1873C1.92533 22.7293 2.60282 21.4623 3.61993 20.3864C5.26463 18.6465 7.75653 17.3174 11.0956 16.3991C11.9368 16.1971 12.9127 16.036 14.0236 15.9156C15.1115 15.7736 16.1918 15.7544 17.2643 15.858C18.3585 15.9386 19.3674 16.1554 20.291 16.5083C21.2145 16.8611 21.9319 17.4092 22.4431 18.1525C23.2085 19.2229 23.5426 20.4057 23.4453 21.701C23.348 22.9962 22.8125 24.1589 21.8386 25.1891C21.3625 25.6927 20.8171 26.1091 20.2024 26.4384C19.9376 26.5954 19.6545 26.7396 19.3532 26.8709C18.9813 27.033 18.5816 27.1754 18.1542 27.2982C17.8039 27.3989 17.4489 27.4951 17.0893 27.5868C17.083 27.5884 17.0767 27.59 17.0705 27.5916C16.6418 27.7008 16.2064 27.8036 15.7644 27.9002C15.1397 28.0224 14.5217 28.1377 13.9103 28.2459C13.9061 28.2466 13.9019 28.2474 13.8977 28.2481C13.7324 28.2773 13.5676 28.3061 13.4033 28.3343C12.9259 28.4009 12.4762 28.4629 12.0543 28.52C11.8002 28.5544 11.5561 28.5871 11.3221 28.6181C11.3097 28.6197 11.2972 28.6214 11.2849 28.623C11.2782 28.6239 11.2716 28.6248 11.265 28.6256C11.2563 28.6268 11.2476 28.6279 11.2389 28.6291C11.161 28.6443 11.0948 28.6669 11.0402 28.6968C10.9085 28.7689 10.8449 28.8837 10.8493 29.0412C10.8543 29.2193 10.9243 29.3287 11.0591 29.3695C11.1566 29.3668 11.2479 29.3583 11.3332 29.344C11.3481 29.3416 11.3627 29.3389 11.3772 29.3361C11.3936 29.3329 11.4097 29.3294 11.4256 29.3258C11.6702 29.29 11.9264 29.2516 12.1943 29.2105C12.6016 29.148 13.0358 29.0793 13.4969 29.0045C13.5038 29.0033 13.5108 29.0022 13.5178 29.0011C13.6822 28.9743 13.8501 28.9469 14.0214 28.9186C14.6283 28.8066 15.2561 28.7064 15.9049 28.6181C15.9101 28.6173 15.9154 28.6166 15.9207 28.6159C16.3334 28.5598 16.7545 28.5085 17.1841 28.462C17.6016 28.4075 18.0226 28.3594 18.4471 28.3179C18.853 28.2781 19.2621 28.2443 19.6744 28.2164C19.9543 28.1974 20.2356 28.1812 20.5184 28.1677C21.6534 28.1135 22.7464 28.1496 23.7973 28.2761C24.8253 28.3809 25.7788 28.6103 26.6579 28.9645C27.5357 29.2741 28.262 29.7439 28.8368 30.374C29.7562 31.3732 30.343 32.4264 30.5969 33.5334C30.8725 34.6176 30.9032 35.7087 30.6889 36.8066C30.4747 37.9046 30.0594 38.9859 29.4431 40.0506C28.8039 41.0936 28.0406 42.0845 27.1533 43.0231C26.1795 44.0532 25.1135 44.9746 23.9553 45.7871C22.8187 46.5767 21.6669 47.2219 20.4999 47.7227C19.2884 48.2247 17.9299 48.6528 16.4245 49.0071C14.9192 49.3614 13.4317 49.5592 11.9621 49.6005C10.4912 49.5973 9.13753 49.4014 7.90097 49.0128C6.64152 48.6025 5.6634 47.8946 4.96661 46.8891C4.73392 46.5391 4.52226 46.1439 4.3316 45.7036C4.1397 45.2187 4.0146 44.732 3.95629 44.2434C3.89674 43.7102 3.89316 43.1867 3.94557 42.6726C4.01961 42.1357 4.18335 41.6186 4.43678 41.1212C4.58576 40.8719 4.74619 40.6334 4.91806 40.4057C5.08994 40.1781 5.26244 39.9727 5.43556 39.7895C6.34448 38.828 7.36266 38.1866 8.49012 37.8652C9.01579 37.6944 9.54476 37.5551 10.077 37.4472C10.6852 37.324 11.2976 37.2418 11.9144 37.2007C12.2369 37.1667 12.5578 37.1363 12.8771 37.1094C13.7014 37.0399 14.5149 36.9939 15.3174 36.9713C15.7289 36.9517 16.1252 36.912 16.5062 36.8522C16.5118 36.8513 16.5174 36.8504 16.523 36.8495C16.9223 36.7862 17.3049 36.7007 17.6708 36.5931C17.9129 36.522 18.1477 36.4411 18.3752 36.3505L18.673 36.2419C18.8041 36.1491 18.8569 36.0473 18.8315 35.9366C18.8061 35.7544 18.6911 35.6859 18.4866 35.7312C18.467 35.7356 18.4464 35.741 18.4251 35.7475C18.3983 35.755 18.3698 35.7627 18.3393 35.7707C18.2904 35.7835 18.2368 35.7969 18.1783 35.811C18.1729 35.8123 18.1675 35.8136 18.162 35.8149C17.9781 35.859 17.7485 35.909 17.4732 35.9651C17.1702 36.0268 16.8118 36.0958 16.398 36.1721C16.0488 36.2277 15.6824 36.272 15.2987 36.3051C15.2943 36.3054 15.29 36.3058 15.2857 36.3062C14.5515 36.3689 13.7542 36.3905 12.8938 36.3709C12.5524 36.3632 12.2062 36.3436 11.8551 36.3121C11.8436 36.311 11.8321 36.31 11.8205 36.3089C11.2504 36.2566 10.6677 36.173 10.0722 36.0582ZM7.47182 36.7685C6.15086 36.2677 4.91926 35.5311 3.77902 34.5713L3.76826 34.5623L3.75769 34.553C3.02834 33.9129 2.3875 33.1832 1.83553 32.3674L1.82215 32.3476L1.80946 32.3273C1.28543 31.4912 0.870419 30.6102 0.5671 29.6858C0.262909 28.7588 0.083944 27.8035 0.0297868 26.823C-0.0480055 25.8077 0.0258033 24.8206 0.260308 23.8692C0.653043 22.182 1.44506 20.7004 2.62819 19.4489C4.50438 17.4641 7.2553 16.0399 10.7337 15.0832L10.7553 15.0773L10.7771 15.072C11.6843 14.8542 12.7149 14.6852 13.8619 14.5604C15.0398 14.4078 16.2132 14.3866 17.38 14.4981C18.5866 14.5884 19.7222 14.83 20.7781 15.2334C21.93 15.6736 22.878 16.3812 23.5603 17.3688C24.5041 18.693 24.9275 20.1887 24.8062 21.8032C24.6832 23.4402 23.9985 24.8909 22.8304 26.1266C22.6075 26.3623 22.3719 26.5825 22.1238 26.7868C22.7423 26.804 23.3504 26.8481 23.9481 26.9197C25.0773 27.0358 26.1437 27.2893 27.1404 27.6876C28.1975 28.0651 29.1099 28.6492 29.843 29.452C30.8865 30.5867 31.6053 31.84 31.9235 33.2126C32.2452 34.4873 32.2803 35.7773 32.0284 37.068C31.7824 38.3286 31.3088 39.5516 30.6242 40.7343L30.6156 40.7491L30.6067 40.7637C29.9154 41.8916 29.0937 42.9571 28.1451 43.9606C27.1083 45.0574 25.9726 46.0389 24.739 46.9043L24.7339 46.9079C23.5285 47.7453 22.2966 48.4367 21.0381 48.9768L21.0302 48.9802L21.0223 48.9834C19.732 49.5181 18.3019 49.9673 16.7372 50.3356C15.1465 50.7099 13.5671 50.9207 12.0004 50.9647L11.9798 50.9653L11.9591 50.9653C10.3687 50.9618 8.87615 50.7498 7.49178 50.3147L7.48501 50.3126L7.47826 50.3104C5.96014 49.8158 4.72593 48.9378 3.8449 47.6664L3.83739 47.6556L3.8301 47.6446C3.54676 47.2184 3.29767 46.7503 3.07923 46.2458L3.07063 46.226L3.06266 46.2058C2.83006 45.6182 2.67422 45.0172 2.60118 44.4051L2.59997 44.3949C2.53006 43.7691 2.52528 43.1483 2.58788 42.5342L2.59033 42.5102L2.59364 42.4862C2.68912 41.7938 2.90029 41.1307 3.2208 40.5016L3.24168 40.4607L3.26528 40.4212C3.43901 40.1304 3.62684 39.8511 3.82885 39.5835C4.02719 39.3208 4.23195 39.0761 4.44382 38.852C5.33318 37.9112 6.34278 37.205 7.47182 36.7685ZM11.2916 29.0287L11.1611 29.0324L11.2523 28.7308M11.2916 29.0287L11.1611 29.0324Z" fill="black"/>
</g>
<g>
<path d="M56.0763 24.2123C54.9519 23.3506 54.2139 22.1861 53.8626 20.7189C53.5346 19.2516 53.5112 17.6796 53.7923 16.0027C54.0734 14.3026 54.6356 12.5908 55.479 10.8674C56.3223 9.12065 57.3648 7.54861 58.6064 6.15124C59.8714 4.73057 61.2887 3.57774 62.8583 2.69274C64.4513 1.80774 66.1379 1.36523 67.9184 1.36523C69.1834 1.36523 70.4718 1.63306 71.7837 2.16872C73.119 2.70438 74.4543 3.5661 75.7896 4.75386C76.8906 5.73202 77.5583 6.94308 77.7925 8.38703C78.0268 9.83099 77.9331 11.3681 77.5114 12.9984C77.0898 14.6053 76.387 16.2123 75.4031 17.8193C74.4426 19.4263 73.283 20.8702 71.9243 22.1512C70.5655 23.4321 69.0662 24.4801 67.4264 25.2952C65.7866 26.0871 64.1116 26.483 62.4014 26.483C61.3473 26.483 60.2814 26.2967 59.2038 25.9241C58.1496 25.5747 57.1071 25.0041 56.0763 24.2123ZM69.1131 9.47C67.4264 10.3084 66.0442 11.4962 64.9666 13.0333C63.889 14.5704 63.0808 16.2473 62.542 18.0638C62.4717 18.32 62.5303 18.4714 62.7177 18.518C62.9051 18.5413 63.034 18.4481 63.1042 18.2385C63.6665 16.5617 64.4513 14.9896 65.4586 13.5224C66.4659 12.0551 67.8012 10.8907 69.4645 10.0289C69.5348 9.98237 69.5933 9.9125 69.6402 9.81934C69.687 9.72618 69.687 9.63302 69.6402 9.53987C69.5465 9.37684 69.3708 9.35355 69.1131 9.47Z" fill="white"/>
<path fill-rule="evenodd" clip-rule="evenodd" d="M62.8597 2.69223C61.2901 3.57723 59.8728 4.73007 58.6078 6.15073C57.3662 7.5481 56.3238 9.12015 55.4804 10.8669C54.6371 12.5903 54.0748 14.3021 53.7937 16.0022C53.5126 17.6791 53.536 19.2511 53.864 20.7183C54.2154 22.1856 54.9533 23.3501 56.0778 24.2118C57.1085 25.0036 58.151 25.5742 59.2052 25.9236C60.2828 26.2962 61.3487 26.4825 62.4029 26.4825C64.113 26.4825 65.788 26.0866 67.4278 25.2947C69.0677 24.4796 70.567 23.4316 71.9257 22.1506C73.2844 20.8697 74.444 19.4258 75.4045 17.8188C76.3884 16.2118 77.0912 14.6048 77.5129 12.9979C77.9345 11.3676 78.0282 9.83048 77.794 8.38652C77.5597 6.94257 76.8921 5.73152 75.791 4.75336C74.4557 3.56559 73.1204 2.70388 71.7851 2.16822C70.4733 1.63256 69.1848 1.36473 67.9198 1.36473C66.1394 1.36473 64.4527 1.80723 62.8597 2.69223ZM72.2973 0.903214C70.8425 0.309705 69.3805 0 67.9198 0C65.9018 0 63.9877 0.504377 62.1969 1.49925L62.1969 1.49922L62.1894 1.50346C60.4817 2.46636 58.948 3.71648 57.5886 5.24317L57.5876 5.24426C56.26 6.73847 55.1488 8.41558 54.253 10.2702C53.359 12.0979 52.7525 13.9347 52.4475 15.7781C52.1413 17.6055 52.1611 19.3563 52.5321 21.016L52.5344 21.0261L52.5368 21.0362C52.9559 22.7862 53.8572 24.229 55.2464 25.294C56.3755 26.1614 57.5489 26.8112 58.7675 27.2162C59.9741 27.6325 61.1878 27.8472 62.4029 27.8472C64.3317 27.8472 66.2086 27.399 68.0213 26.5237L68.0283 26.5203L68.0353 26.5168C69.7978 25.6407 71.4074 24.5149 72.8619 23.1437C74.3106 21.7778 75.5481 20.2373 76.5723 18.5251C77.6147 16.8214 78.3737 15.0941 78.8329 13.3442L78.8341 13.3396C79.296 11.5539 79.4099 9.82459 79.1411 8.16797C78.8562 6.41202 78.0318 4.91875 76.6981 3.73366C75.2737 2.46668 73.8079 1.50988 72.2973 0.903214ZM63.1081 18.2308C63.1094 18.227 63.1107 18.2231 63.112 18.2193C63.2082 17.9332 63.3109 17.6502 63.4201 17.3702C63.9484 16.016 64.6284 14.7332 65.46 13.5219C65.4823 13.4894 65.5048 13.4571 65.5274 13.4249C66.3582 12.2429 67.4057 11.261 68.6701 10.4793C68.9015 10.3362 69.1401 10.1999 69.386 10.0702C69.3932 10.0664 69.4003 10.0627 69.4075 10.0589C69.4269 10.0487 69.4464 10.0385 69.4659 10.0284C69.5362 9.98186 69.5948 9.91199 69.6416 9.81883C69.6885 9.72567 69.6885 9.63252 69.6416 9.53936C69.5542 9.38725 69.3954 9.35679 69.1652 9.44797C69.1487 9.45452 69.1318 9.46169 69.1145 9.46949C69.1098 9.47186 69.105 9.47424 69.1002 9.47663C69.077 9.48821 69.0538 9.49986 69.0307 9.51157C68.7923 9.63247 68.56 9.76043 68.3338 9.89546C66.9964 10.6941 65.8745 11.7398 64.9681 13.0328C64.9442 13.0669 64.9204 13.101 64.8968 13.1352C64.034 14.3847 63.3478 15.7258 62.8382 17.1585C62.7338 17.4521 62.6368 17.7495 62.5472 18.0507C62.5459 18.0549 62.5447 18.0591 62.5435 18.0633C62.4732 18.3195 62.5317 18.4709 62.7191 18.5175C62.9066 18.5408 63.0354 18.4476 63.1057 18.238C63.1065 18.2356 63.1073 18.2332 63.1081 18.2308ZM69.3638 9.6791L69.2572 9.62547Z" fill="black"/>
</g>
<g>
<path d="M109.307 22.709C110.15 22.9131 110.8 23.2958 111.259 23.8572C111.719 24.393 112.038 25.0182 112.216 25.7327C112.421 26.4216 112.497 27.1616 112.446 27.9526C112.42 28.7181 112.331 29.4325 112.178 30.096C111.719 32.1118 111.362 34.0765 111.106 35.9903C110.877 37.8785 110.583 39.6264 110.226 41.2339C109.894 42.8159 109.41 44.2066 108.772 45.4059C108.159 46.6051 107.253 47.4982 106.054 48.0851C105.34 48.4168 104.561 48.5827 103.719 48.5827C103.235 48.5827 102.763 48.5189 102.303 48.3913C101.844 48.2637 101.448 48.0596 101.117 47.7789C100.581 47.4217 100.185 46.8986 99.9302 46.2096C99.7005 45.5207 99.5474 44.7935 99.4709 44.028C99.4199 43.2625 99.4199 42.5097 99.4709 41.7698C99.5474 41.0298 99.6367 40.4301 99.7388 39.9708C99.7898 39.7667 99.8281 39.5243 99.8536 39.2436C99.9047 38.9374 99.8026 38.7588 99.5474 38.7078C99.3688 38.6823 99.2412 38.7461 99.1647 38.8992C99.1137 39.0267 99.0626 39.2819 99.0116 39.6646C98.8585 40.6343 98.6416 41.6422 98.3609 42.6884C98.1058 43.709 97.7102 44.6531 97.1744 45.5207C96.8937 46.0565 96.5365 46.5541 96.1027 47.0134C95.6689 47.4472 95.1841 47.8299 94.6483 48.1616C94.1379 48.4933 93.5893 48.7613 93.0025 48.9654C92.4156 49.144 91.8287 49.2333 91.2418 49.2333C90.5784 49.2333 89.9405 49.1057 89.3281 48.8506C88.7412 48.5699 88.2054 48.1234 87.7206 47.511C87.2357 46.8475 86.9551 46.0438 86.8785 45.0997C86.8275 44.1555 86.8785 43.1732 87.0316 42.1525C87.2102 41.1318 87.4399 40.1367 87.7206 39.1671C88.0268 38.1719 88.2819 37.3171 88.486 36.6027C88.6902 35.9137 88.8816 35.1737 89.0602 34.3827C89.2388 33.5917 89.4174 32.8007 89.596 32.0097C89.7746 31.2187 89.966 30.4277 90.1701 29.6367C90.3743 28.8457 90.6039 28.1057 90.8591 27.4167C91.0377 26.8043 91.2929 26.2047 91.6246 25.6178C91.9818 25.0054 92.4028 24.4823 92.8876 24.0486C93.3725 23.6148 93.9083 23.2831 94.4952 23.0534C95.1076 22.8238 95.771 22.7727 96.4855 22.9003C97.2765 23.0534 97.8889 23.2958 98.3226 23.6275C98.7819 23.9337 99.1137 24.3292 99.3178 24.8141C99.5474 25.2989 99.6878 25.8475 99.7388 26.4599C99.7898 27.0468 99.8026 27.6847 99.7771 28.3736L99.624 32.8517C99.624 33.0814 99.7133 33.1962 99.8919 33.1962C100.071 33.1962 100.185 33.0814 100.236 32.8517C100.389 31.729 100.619 30.568 100.925 29.3687C101.257 28.144 101.704 27.0212 102.265 26.0006C102.852 24.9799 103.579 24.1506 104.447 23.5127C105.34 22.8493 106.424 22.5176 107.7 22.5176C108.134 22.5176 108.67 22.5814 109.307 22.709Z" fill="white"/>
<path fill-rule="evenodd" clip-rule="evenodd" d="M109.604 21.3756L109.63 21.3821C110.698 21.6409 111.626 22.1539 112.307 22.9801C112.899 23.6739 113.307 24.4782 113.535 25.3725C113.781 26.2157 113.868 27.1013 113.811 28.0184C113.782 28.8528 113.683 29.648 113.51 30.4002C113.06 32.375 112.711 34.2956 112.462 36.1624C112.228 38.0821 111.928 39.8691 111.562 41.5216C111.209 43.1989 110.688 44.709 109.983 46.0364C109.238 47.4911 108.119 48.5942 106.655 49.3104L106.643 49.3165L106.63 49.3224C105.724 49.7434 104.747 49.9469 103.721 49.9469C103.115 49.9469 102.52 49.8669 101.939 49.7057C101.334 49.5376 100.779 49.2631 100.297 48.8701C99.5228 48.3335 98.9833 47.578 98.6519 46.6831L98.644 46.662L98.6369 46.6407C98.571 46.4428 98.5107 46.2425 98.456 46.0401C98.425 46.0926 98.3937 46.1448 98.3619 46.1968C98.0243 46.8314 97.6006 47.416 97.0963 47.9499L97.0829 47.9641L97.0692 47.9779C96.5624 48.4846 95.9987 48.9298 95.3808 49.3136C94.7799 49.7027 94.1361 50.016 93.4522 50.2539L93.4269 50.2627L93.4013 50.2705C92.6914 50.4865 91.9708 50.5975 91.2433 50.5975C90.3997 50.5975 89.5834 50.4343 88.8046 50.1098L88.7723 50.0963L88.7407 50.0812C87.9323 49.6946 87.2403 49.1006 86.652 48.3575L86.6357 48.3369L86.6201 48.3157C85.9652 47.4194 85.6134 46.3655 85.5197 45.2094L85.5182 45.1911L85.5172 45.1728C85.4608 44.1285 85.5179 43.0533 85.6834 41.9496L85.6859 41.9331L85.6888 41.9167C85.8757 40.8487 86.1163 39.8054 86.4111 38.7871L86.4143 38.7761L86.4176 38.7652C86.7221 37.7757 86.9744 36.9302 87.1753 36.2272L87.1789 36.2144C87.3735 35.5576 87.5576 34.847 87.7304 34.0816L88.2662 31.7086C88.4479 30.904 88.6426 30.0995 88.8501 29.2951C89.0603 28.4807 89.298 27.7108 89.5644 26.9866C89.7732 26.2846 90.0658 25.6041 90.4379 24.9458L90.4425 24.9377L90.4472 24.9297C90.8699 24.2051 91.3789 23.568 91.9791 23.031L92.8891 24.0481C92.4043 24.4818 91.9833 25.0049 91.626 25.6173C91.2943 26.2042 91.0391 26.8038 90.8605 27.4162C90.6054 28.1052 90.3757 28.8452 90.1716 29.6362C89.9674 30.4272 89.7761 31.2182 89.5975 32.0092L89.0616 34.3822C88.883 35.1732 88.6916 35.9132 88.4875 36.6022C88.2834 37.3166 88.0282 38.1714 87.722 39.1666C87.4413 40.1362 87.2117 41.1313 87.033 42.152C86.8799 43.1727 86.8289 44.155 86.88 45.0991C86.9565 46.0433 87.2372 46.847 87.722 47.5105C88.2068 48.1229 88.7427 48.5694 89.3295 48.8501C89.9419 49.1052 90.5798 49.2328 91.2433 49.2328C91.8302 49.2328 92.417 49.1435 93.0039 48.9649C93.5908 48.7608 94.1394 48.4928 94.6497 48.1611C95.1856 47.8294 95.6704 47.4467 96.1042 47.0129C96.5379 46.5536 96.8952 46.056 97.1758 45.5202C97.5452 44.9221 97.8479 44.2877 98.0839 43.617C98.1903 43.3146 98.2831 43.0049 98.3624 42.6878C98.4509 42.358 98.533 42.0319 98.6088 41.7097C98.6111 41.7 98.6134 41.6903 98.6157 41.6806C98.7565 41.0793 98.8753 40.4912 98.9719 39.9164C98.9782 39.8788 98.9845 39.8412 98.9906 39.8037C98.9917 39.7971 98.9928 39.7904 98.9939 39.7837C99.0004 39.7438 99.0067 39.7039 99.013 39.6641C99.0394 39.4667 99.0657 39.3033 99.092 39.1737C99.0959 39.1544 99.0999 39.1358 99.1038 39.1179C99.1246 39.0237 99.1454 38.9506 99.1661 38.8986C99.2427 38.7455 99.3703 38.6818 99.5489 38.7073C99.7853 38.7546 99.8903 38.9114 99.8638 39.1777C99.8617 39.1988 99.8588 39.2206 99.8551 39.2431C99.8376 39.4358 99.814 39.6104 99.7845 39.767C99.7833 39.7732 99.7822 39.7793 99.781 39.7854C99.7685 39.8502 99.7549 39.9118 99.7403 39.9703C99.7356 39.9911 99.7311 40.0121 99.7265 40.0335C99.6301 40.4841 99.5454 41.0627 99.4723 41.7692C99.4453 42.1612 99.4326 42.5567 99.4342 42.9558C99.4342 42.9623 99.4342 42.9689 99.4343 42.9754C99.4357 43.252 99.444 43.5302 99.4592 43.8102C99.4631 43.8825 99.4675 43.9549 99.4723 44.0275C99.5489 44.7929 99.702 45.5202 99.9316 46.2091C100.187 46.8981 100.582 47.4211 101.118 47.7784C101.45 48.0591 101.845 48.2632 102.305 48.3908C102.764 48.5184 103.236 48.5821 103.721 48.5821C104.563 48.5821 105.341 48.4163 106.056 48.0846C107.255 47.4977 108.161 46.6046 108.773 45.4053C109.411 44.2061 109.896 42.8154 110.228 41.2334C110.585 39.6259 110.878 37.878 111.108 35.9898C111.363 34.076 111.72 32.1113 112.18 30.0955C112.333 29.432 112.422 28.7176 112.447 27.9521C112.498 27.1611 112.422 26.4211 112.218 25.7321C112.039 25.0177 111.72 24.3925 111.261 23.8567C110.802 23.2953 110.151 22.9126 109.309 22.7084C108.671 22.5809 108.135 22.5171 107.701 22.5171C106.426 22.5171 105.341 22.8488 104.448 23.5122C103.58 24.1501 102.853 24.9794 102.266 26.0001C101.815 26.8215 101.437 27.709 101.134 28.6627C101.061 28.894 100.992 29.1292 100.927 29.3682C100.702 30.2489 100.518 31.109 100.376 31.9484C100.325 32.2521 100.278 32.553 100.238 32.8512C100.236 32.8583 100.235 32.8652 100.233 32.872C100.18 33.0878 100.066 33.1957 99.8934 33.1957C99.7147 33.1957 99.6254 33.0809 99.6254 32.8512L99.7785 28.3731C99.804 27.6842 99.7913 27.0462 99.7403 26.4594C99.6892 25.847 99.5489 25.2984 99.3192 24.8136C99.1151 24.3287 98.7834 23.9332 98.3241 23.627C97.8903 23.2953 97.2779 23.0529 96.4869 22.8998C95.7724 22.7722 95.109 22.8233 94.4966 23.0529C93.9097 23.2826 93.3739 23.6143 92.8891 24.0481L91.9791 23.031C92.5812 22.4922 93.2559 22.0729 93.9993 21.782L94.0083 21.7785L94.0174 21.7751C94.8838 21.4502 95.7983 21.3905 96.7268 21.5563L96.7365 21.5581L96.7462 21.56C97.6373 21.7324 98.461 22.026 99.1171 22.5158C99.7615 22.9544 100.256 23.5379 100.565 24.2556C100.751 24.6537 100.887 25.0734 100.979 25.5106C101.009 25.4543 101.04 25.3982 101.071 25.3424L101.077 25.331L101.083 25.3198C101.755 24.1513 102.604 23.1746 103.637 22.4146C104.798 21.5528 106.178 21.1523 107.701 21.1523C108.258 21.1523 108.89 21.2328 109.577 21.3702L109.604 21.3756ZM100.545 26.3923C100.258 27.0247 100.008 27.6855 99.7945 28.3736ZM101.142 28.4216C101.17 27.6872 101.156 26.9937 101.1 26.3436C101.1 26.3428 101.1 26.342 101.1 26.3411L100.546 26.3893M100.545 26.3923L99.7403 26.4594L100.546 26.3893" fill="black"/>
</g>
<g>
<path d="M132.032 5.26588C133.235 6.1765 133.869 7.16842 133.935 8.24166C134 9.28237 133.707 10.3393 133.056 11.4126C132.439 12.4858 131.561 13.5428 130.422 14.5835C129.317 15.5917 128.162 16.5348 126.959 17.4129C125.756 18.2585 124.617 19.0065 123.544 19.657C122.504 20.2749 121.723 20.7302 121.203 21.0229C121.073 21.153 121.024 21.2831 121.056 21.4132C121.187 22.0961 121.252 23.023 121.252 24.1938C121.252 25.3321 121.17 26.5517 121.008 27.8526C120.878 29.1534 120.65 30.4543 120.325 31.7552C120 33.0561 119.544 34.1944 118.959 35.1701C118.406 36.1457 117.723 36.8937 116.91 37.4141C116.097 37.9019 115.121 37.9995 113.983 37.7068C113.235 37.5117 112.65 37.0076 112.227 36.1945C111.804 35.3814 111.479 34.4058 111.252 33.2675C111.056 32.1292 110.943 30.9096 110.91 29.6088C110.878 28.2753 110.894 26.9907 110.959 25.7549C111.056 24.519 111.187 23.4133 111.349 22.4376C111.512 21.4294 111.658 20.6814 111.788 20.1936C111.821 20.0635 111.788 19.9171 111.691 19.7545C110.845 19.1691 109.902 18.4699 108.861 17.6568C107.853 16.8438 106.894 15.9657 105.983 15.0225C105.105 14.0469 104.341 13.0387 103.691 11.998C103.04 10.9573 102.666 9.91655 102.569 8.87584C102.504 7.77009 102.666 6.72938 103.056 5.75371C103.479 4.74552 104.26 4.06255 105.398 3.70481C105.951 3.50968 106.471 3.41211 106.959 3.41211C108.195 3.41211 109.398 3.85116 110.569 4.72926C111.772 5.57484 112.845 6.61555 113.788 7.85139C114.764 9.08724 115.577 10.3719 116.227 11.7053C116.91 13.0387 117.349 14.1932 117.544 15.1689C117.609 15.3965 117.723 15.5104 117.886 15.5104C118.048 15.5104 118.162 15.4128 118.227 15.2177C118.617 14.177 119.219 13.0387 120.032 11.8028C120.845 10.567 121.772 9.3962 122.813 8.29044C123.886 7.18469 125.008 6.27406 126.178 5.55857C127.382 4.81056 128.536 4.43656 129.642 4.43656C130.552 4.43656 131.349 4.713 132.032 5.26588Z" fill="white"/>
<path fill-rule="evenodd" clip-rule="evenodd" d="M110.912 29.6082C110.944 30.9091 111.058 32.1287 111.253 33.267C111.481 34.4053 111.806 35.3809 112.229 36.194C112.651 37.0071 113.237 37.5112 113.985 37.7063C115.123 37.999 116.099 37.9014 116.912 37.4136C117.725 36.8932 118.407 36.1452 118.96 35.1695C119.546 34.1939 120.001 33.0556 120.326 31.7547C120.651 30.4538 120.879 29.1529 121.009 27.852C121.172 26.5512 121.253 25.3316 121.253 24.1933C121.253 23.0225 121.188 22.0956 121.058 21.4126C121.025 21.2826 121.074 21.1525 121.204 21.0224C121.725 20.7297 122.505 20.2744 123.546 19.6564C124.619 19.006 125.757 18.258 126.96 17.4124C128.164 16.5343 129.318 15.5912 130.424 14.583C131.562 13.5423 132.44 12.4853 133.058 11.4121C133.708 10.3388 134.001 9.28186 133.936 8.24115C133.871 7.16792 133.237 6.17599 132.034 5.26537C131.351 4.71249 130.554 4.43605 129.643 4.43605C128.538 4.43605 127.383 4.81005 126.18 5.55807C125.009 6.27356 123.887 7.18418 122.814 8.28993C121.773 9.39569 120.847 10.5665 120.033 11.8023C119.495 12.6213 119.049 13.3974 118.696 14.1306C118.653 14.2189 118.612 14.3065 118.572 14.3935C118.487 14.5794 118.408 14.7625 118.336 14.9427C118.326 14.9673 118.316 14.9918 118.306 15.0163C118.279 15.0837 118.254 15.1506 118.229 15.2172C118.164 15.4123 118.05 15.5099 117.887 15.5099C117.725 15.5099 117.611 15.396 117.546 15.1684C117.533 15.105 117.519 15.0408 117.505 14.9758C117.502 14.9648 117.5 14.9538 117.497 14.9428C117.45 14.7398 117.393 14.5294 117.326 14.3117C117.298 14.221 117.268 14.1291 117.237 14.0359C117 13.3315 116.664 12.5544 116.229 11.7048C115.578 10.3714 114.765 9.08673 113.79 7.85088C112.846 6.61504 111.773 5.57433 110.57 4.72875C109.399 3.85065 108.196 3.4116 106.96 3.4116C106.473 3.4116 105.952 3.50917 105.399 3.7043C104.261 4.06204 103.481 4.74501 103.058 5.7532C102.668 6.72887 102.505 7.76958 102.57 8.87533C102.668 9.91604 103.042 10.9568 103.692 11.9975C104.342 13.0382 105.107 14.0464 105.985 15.022C106.895 15.9652 107.855 16.8433 108.863 17.6563C109.903 18.4694 110.846 19.1686 111.692 19.754C111.79 19.9166 111.822 20.063 111.79 20.1931C111.659 20.6809 111.513 21.4289 111.351 22.4371C111.188 23.4128 111.058 24.5185 110.96 25.7544C110.895 26.9902 110.879 28.2748 110.912 29.6082ZM110.004 22.2163C109.834 23.2381 109.7 24.3827 109.6 25.647L109.598 25.6648L109.597 25.6826C109.53 26.956 109.514 28.2758 109.547 29.6415L109.547 29.6424C109.581 31.001 109.7 32.2868 109.908 33.4976L109.911 33.5161L109.915 33.5346C110.161 34.7671 110.522 35.8708 111.018 36.8236C111.583 37.9097 112.449 38.7161 113.64 39.0268L113.645 39.028C115.047 39.3885 116.416 39.3024 117.614 38.5838L117.631 38.5737L117.647 38.563C118.671 37.9077 119.496 36.9879 120.139 35.8572C120.801 34.7511 121.3 33.4884 121.65 32.0857C121.99 30.7279 122.228 29.3674 122.365 28.0047C122.533 26.662 122.618 25.3909 122.618 24.1933C122.618 23.3102 122.582 22.5248 122.503 21.8517C122.972 21.5807 123.552 21.2397 124.242 20.8299L124.243 20.8299L124.253 20.8235C125.357 20.1547 126.521 19.3894 127.745 18.529L127.755 18.522L127.765 18.5148C129.008 17.6074 130.201 16.6328 131.343 15.5914L131.345 15.5902C132.558 14.481 133.531 13.3217 134.233 12.1062C134.993 10.8481 135.383 9.52229 135.298 8.15602C135.2 6.5518 134.252 5.23776 132.874 4.1902C131.943 3.4427 130.846 3.07132 129.643 3.07132C128.222 3.07132 126.822 3.55284 125.464 4.39624C124.186 5.17793 122.977 6.16268 121.835 7.33946L121.827 7.34699L121.82 7.35463C120.727 8.51627 119.751 9.74886 118.893 11.0523C118.593 11.509 118.317 11.9577 118.066 12.3982C117.884 11.9759 117.678 11.5411 117.449 11.0944C116.756 9.6756 115.894 8.31551 114.868 7.01402C113.851 5.68314 112.686 4.55024 111.372 3.62417C110.014 2.61066 108.536 2.04688 106.96 2.04688C106.297 2.04688 105.63 2.17791 104.967 2.40961C103.497 2.87783 102.39 3.81737 101.799 5.22545L101.795 5.23588L101.791 5.24638C101.322 6.41836 101.132 7.66053 101.208 8.95547L101.209 8.97912L101.211 9.00271C101.332 10.2889 101.791 11.5311 102.535 12.7207C103.23 13.8332 104.043 14.9044 104.97 15.935L104.986 15.9527L105.003 15.9699C105.952 16.9533 106.953 17.8696 108.006 18.7186L108.014 18.7253L108.023 18.7317C108.845 19.3746 109.613 19.9511 110.324 20.46C110.221 20.9414 110.115 21.5302 110.004 22.2163Z" fill="black"/>
</g>
<g>
<path d="M107.613 9.49825C107.281 10.2637 106.72 10.8889 105.929 11.3737C105.163 11.8585 104.13 12.1009 102.829 12.1009C102.114 12.1009 101.31 12.0244 100.417 11.8713C99.5242 11.6927 98.5418 11.412 97.4701 11.0292C97.317 10.9782 97.1894 10.991 97.0874 11.0675C96.9853 11.1441 96.9598 11.2716 97.0108 11.4503C97.7508 14.5633 98.0442 17.6125 97.8911 20.5979C97.8656 21.5931 97.8018 22.5627 97.6997 23.5068C97.6232 24.4254 97.4191 25.2547 97.0874 25.9946C96.7812 26.7091 96.2963 27.296 95.6329 27.7553C94.9695 28.1891 94.0381 28.406 92.8389 28.406C92.0479 28.3294 91.3717 28.087 90.8103 27.6787C90.2489 27.2705 89.7896 26.7601 89.4324 26.1477C89.0752 25.5354 88.8073 24.8719 88.6286 24.1575C88.45 23.4175 88.348 22.6903 88.3224 21.9758C88.2714 20.3427 88.2842 18.6842 88.3607 17.0001C88.4628 15.316 88.6924 13.5936 89.0497 11.833C89.1007 11.6799 89.0624 11.5523 88.9348 11.4503C88.8328 11.3227 88.6924 11.3227 88.5138 11.4503C87.6973 11.9606 86.8042 12.3561 85.8346 12.6368C84.8905 12.9175 83.9591 13.0578 83.0405 13.0578C82.3516 13.0578 81.7009 12.9812 81.0885 12.8281C80.5017 12.6495 79.9786 12.3689 79.5193 11.9861C79.06 11.6034 78.69 11.1185 78.4093 10.5317C78.1286 9.94479 77.9883 9.23033 77.9883 8.38828C77.9883 7.26556 78.4603 6.28317 79.4044 5.44113C80.3486 4.59909 81.5861 3.88462 83.1171 3.29775C84.6736 2.71087 86.4215 2.27709 88.3607 1.99641C90.3 1.69021 92.2647 1.53711 94.255 1.53711C96.2708 1.53711 98.2101 1.70297 100.073 2.03468C101.935 2.34088 103.518 2.82569 104.819 3.48912C106.12 4.12703 107.052 4.94356 107.613 5.9387C108.2 6.93384 108.2 8.12036 107.613 9.49825Z" fill="white"/>
<path fill-rule="evenodd" clip-rule="evenodd" d="M108.867 10.0404L108.867 10.0404C108.412 11.089 107.65 11.9179 106.652 12.5317C105.594 13.1986 104.279 13.4651 102.83 13.4651C102.021 13.4651 101.138 13.3787 100.188 13.2159L100.17 13.2127L100.151 13.209C99.6868 13.1162 99.2054 12.999 98.707 12.8583C99.2017 15.4912 99.3863 18.0891 99.2564 20.6498C99.2298 21.6687 99.1644 22.6644 99.0598 23.6367C98.9713 24.6779 98.7365 25.6514 98.3386 26.5423C97.9271 27.4971 97.2739 28.2796 96.4112 28.8768L96.3963 28.8871L96.3812 28.897C95.4091 29.5326 94.1779 29.7702 92.8403 29.7702H92.7744L92.7089 29.7638C91.7111 29.6673 90.7946 29.3532 90.0091 28.7819C89.2916 28.2601 88.7054 27.6069 88.255 26.8349C87.8303 26.1068 87.5148 25.3227 87.3061 24.4879L87.3034 24.4772L87.3035 24.4772C87.1047 23.6539 86.989 22.8357 86.96 22.024L86.9598 22.0179C86.9077 20.3489 86.9208 18.6554 86.9989 16.9376L86.9993 16.9273L86.9999 16.917C87.067 15.8102 87.1869 14.6898 87.3593 13.556C86.9895 13.703 86.6098 13.8329 86.2203 13.9458C85.1606 14.2604 84.0999 14.422 83.042 14.422C82.2515 14.422 81.489 14.3341 80.759 14.1516L80.7256 14.1433L80.6926 14.1332C79.936 13.903 79.25 13.5365 78.647 13.034C78.024 12.5148 77.5374 11.8682 77.1796 11.12C76.7891 10.3034 76.625 9.37584 76.625 8.38777C76.625 6.82438 77.304 5.48662 78.4975 4.42213C79.5954 3.4429 80.9882 2.65232 82.63 2.02293L82.637 2.02025L82.637 2.02027C84.2982 1.39395 86.1412 0.938951 88.158 0.646506C90.1658 0.329951 92.1989 0.171875 94.2565 0.171875C96.3441 0.171875 98.3607 0.343399 100.305 0.688999C102.26 1.01112 103.978 1.52883 105.431 2.26795C106.904 2.99207 108.069 3.9723 108.797 5.25649C109.66 6.72903 109.57 8.38997 108.87 10.0325L108.867 10.0404ZM107.614 5.93819C107.053 4.94305 106.122 4.12652 104.82 3.48861C103.519 2.82518 101.937 2.34037 100.074 2.03417C98.2115 1.70246 96.2723 1.5366 94.2565 1.5366C92.2662 1.5366 90.3014 1.6897 88.3622 1.9959C86.4229 2.27658 84.675 2.71036 83.1185 3.29724C81.5875 3.88412 80.35 4.59858 79.4059 5.44062C78.4618 6.28266 77.9897 7.26505 77.9897 8.38777C77.9897 9.22982 78.1301 9.94428 78.4107 10.5312C78.6914 11.118 79.0614 11.6028 79.5207 11.9856C79.98 12.3683 80.5031 12.649 81.09 12.8276C81.7024 12.9807 82.353 13.0573 83.042 13.0573C83.9606 13.0573 84.8919 12.9169 85.836 12.6363C86.4696 12.4529 87.0705 12.2204 87.6388 11.939C87.6676 11.9247 87.6964 11.9102 87.7251 11.8957C87.8768 11.8188 88.0261 11.7383 88.1731 11.6543C88.215 11.6304 88.2568 11.6061 88.2983 11.5816C88.3712 11.5385 88.4435 11.4946 88.5153 11.4498C88.6939 11.3222 88.8342 11.3222 88.9363 11.4498C89.0639 11.5518 89.1021 11.6794 89.0511 11.8325C89.0317 11.9284 89.0126 12.0242 88.9939 12.1198C88.9891 12.1442 88.9844 12.1685 88.9797 12.1928C88.9461 12.3661 88.9138 12.539 88.8828 12.7115C88.8755 12.752 88.8683 12.7925 88.8611 12.833C88.6111 14.247 88.4448 15.6358 88.3622 16.9996C88.2856 18.6837 88.2729 20.3422 88.3239 21.9753C88.3494 22.6898 88.4515 23.417 88.6301 24.157C88.8087 24.8714 89.0766 25.5348 89.4339 26.1472C89.7911 26.7596 90.2504 27.27 90.8118 27.6782C91.3731 28.0865 92.0493 28.3289 92.8403 28.4054C94.0396 28.4054 94.9709 28.1886 95.6344 27.7548C96.2978 27.2955 96.7826 26.7086 97.0888 25.9941C97.4205 25.2542 97.6246 24.4249 97.7012 23.5063C97.8033 22.5622 97.8671 21.5925 97.8926 20.5974C98.0303 17.9125 97.8068 15.176 97.2221 12.3879C97.2201 12.3783 97.2181 12.3687 97.2161 12.3591C97.1921 12.245 97.1674 12.1309 97.1422 12.0167C97.1392 12.0031 97.1362 11.9896 97.1332 11.976C97.0943 11.8008 97.054 11.6254 97.0122 11.4498C96.9612 11.2711 96.9867 11.1436 97.0888 11.067C97.1909 10.9905 97.3184 10.9777 97.4715 11.0287C97.6259 11.0839 97.7785 11.1369 97.9291 11.1878C97.9548 11.1964 97.9803 11.205 98.0058 11.2136C98.1219 11.2524 98.2369 11.2899 98.3507 11.3262C98.3631 11.3302 98.3755 11.3341 98.3878 11.338C99.1095 11.5667 99.7865 11.7443 100.419 11.8708C101.312 12.0239 102.116 12.1004 102.83 12.1004C104.131 12.1004 105.165 11.858 105.93 11.3732C106.721 10.8884 107.283 10.2632 107.614 9.49774C108.201 8.11985 108.201 6.93333 107.614 5.93819Z" fill="black"/>
</g>
</svg>
