<svg width="1025" height="360" viewBox="0 0 1025 360" fill="none" xmlns="http://www.w3.org/2000/svg">
<g>
<path d="M793.69 247.796C788.993 238.403 784.884 228.864 781.362 219.178C777.84 209.199 774.024 199.513 769.915 190.12C768.741 187.772 767.274 186.892 765.512 187.479C764.045 188.066 763.164 188.8 762.871 189.68C762.871 190.561 763.018 191.441 763.311 192.322C764.779 196.724 766.833 202.595 769.475 209.933C772.41 217.27 775.345 225.342 778.28 234.147C781.215 242.953 784.004 252.052 786.645 261.444C789.287 270.837 791.342 279.935 792.809 288.741C794.277 297.546 794.864 305.618 794.57 312.956C794.57 320 793.103 325.723 790.167 330.126C786.058 335.996 779.895 340.399 771.676 343.334C763.751 346.563 755.093 348.177 745.7 348.177C739.536 348.177 733.373 347.443 727.209 345.976C721.045 344.802 715.028 342.747 709.158 339.812C697.417 333.648 687.731 322.348 680.1 305.911C672.469 289.475 667.039 270.837 663.81 249.997C660.875 228.864 660.141 206.851 661.609 183.957C663.37 161.063 667.626 140.223 674.377 121.438C681.421 102.36 691.107 86.6571 703.434 74.3296C715.762 62.002 731.025 55.8383 749.222 55.8383C758.028 55.8383 767.714 57.5993 778.28 61.1215C792.956 66.4047 805.283 75.0634 815.263 87.0974C825.536 98.8379 834.048 112.046 840.798 126.722C847.843 141.104 853.713 156.073 858.409 171.629C863.105 187.185 867.361 201.421 871.177 214.335C871.471 215.216 871.911 216.243 872.498 217.417C873.085 218.298 873.965 218.591 875.139 218.298C876.314 218.004 876.901 217.417 876.901 216.537C876.901 215.363 876.754 214.042 876.46 212.574C874.406 203.769 871.324 192.615 867.215 179.114C863.399 165.612 859.877 151.23 856.648 135.967C853.42 120.705 851.071 105.442 849.604 90.1793C848.136 74.9166 849.017 61.415 852.246 49.6745C855.768 37.6405 862.225 28.1013 871.617 21.057C881.01 14.0127 894.658 11.0775 912.562 12.2516C921.074 12.8386 928.852 15.627 935.897 20.6167C943.235 25.6064 949.839 31.917 955.709 39.5483C961.873 46.8861 967.303 55.1045 971.999 64.2034C976.695 73.3023 980.804 82.4012 984.326 91.5001C988.142 100.305 991.224 108.671 993.572 116.595C995.92 124.227 997.828 130.391 999.296 135.087C1001.94 144.773 1004.87 156.954 1008.1 171.629C1011.33 186.011 1013.09 201.127 1013.38 216.977C1013.68 232.827 1011.62 248.676 1007.22 264.526C1003.11 280.376 994.893 294.758 982.565 307.672C971.999 318.826 959.525 327.485 945.142 333.648C930.76 339.519 916.231 342.454 901.556 342.454C887.467 342.454 874.846 339.665 863.693 334.089C852.833 328.512 843.147 321.174 834.635 312.075C826.123 302.976 818.492 292.85 811.741 281.697C805.283 270.543 799.266 259.243 793.69 247.796Z" fill="white"/>
<path fill-rule="evenodd" clip-rule="evenodd" d="M856.01 132.888C853.109 118.652 850.975 104.416 849.606 90.1805C848.138 74.9178 849.019 61.4162 852.247 49.6757C855.77 37.6416 862.227 28.1025 871.619 21.0582C881.012 14.0138 894.66 11.0787 912.564 12.2528C921.076 12.8398 928.854 15.6282 935.899 20.6179C943.236 25.6076 949.84 31.9181 955.711 39.5495C961.874 46.8873 967.305 55.1057 972.001 64.2046C976.697 73.3035 980.806 82.4024 984.328 91.5013C988.144 100.307 991.226 108.672 993.574 116.597C995.922 124.228 997.83 130.392 999.297 135.088C1001.94 144.774 1004.87 156.955 1008.1 171.63C1011.33 186.012 1013.09 201.128 1013.39 216.978C1013.68 232.828 1011.62 248.677 1007.22 264.527C1003.11 280.377 994.895 294.759 982.567 307.674C972.001 318.827 959.526 327.486 945.144 333.649C930.762 339.52 916.233 342.455 901.558 342.455C887.469 342.455 874.848 339.667 863.694 334.09C852.834 328.513 843.148 321.175 834.637 312.076C826.125 302.977 818.493 292.851 811.743 281.698C805.911 271.625 800.438 261.432 795.325 251.119C794.776 250.013 794.232 248.906 793.691 247.797C791.001 242.416 788.503 236.987 786.198 231.51C784.48 227.427 782.868 223.316 781.364 219.179C779.943 215.152 778.473 211.173 776.956 207.241C776.923 207.155 776.89 207.068 776.856 206.982C775.373 203.146 773.845 199.355 772.271 195.611C771.813 194.521 771.351 193.434 770.885 192.352C770.564 191.607 770.241 190.863 769.917 190.122C769.84 189.969 769.763 189.822 769.684 189.681C768.55 187.665 767.161 186.931 765.514 187.48C764.047 188.067 763.166 188.801 762.873 189.681C762.873 190.562 763.019 191.442 763.313 192.323C763.379 192.52 763.446 192.72 763.514 192.923C763.552 193.036 763.59 193.151 763.629 193.266C764.15 194.817 764.739 196.536 765.394 198.42C766.548 201.741 767.909 205.579 769.477 209.934C770.98 213.691 772.483 217.641 773.986 221.784C773.994 221.807 774.003 221.83 774.011 221.853C775.435 225.779 776.858 229.878 778.282 234.149C780.275 240.127 782.2 246.241 784.058 252.49C784.068 252.526 784.079 252.562 784.09 252.598C784.347 253.465 784.603 254.334 784.858 255.206C785.462 257.271 786.058 259.351 786.647 261.445C789.289 270.838 791.343 279.937 792.811 288.742C794.279 297.547 794.866 305.619 794.572 312.957C794.572 320.001 793.104 325.725 790.169 330.127C786.06 335.998 779.896 340.4 771.678 343.335C763.753 346.564 755.095 348.178 745.702 348.178C739.538 348.178 733.375 347.445 727.211 345.977C721.047 344.803 715.03 342.748 709.16 339.813C697.419 333.649 687.733 322.349 680.102 305.913C672.471 289.476 667.041 270.838 663.812 249.998C660.877 228.865 660.143 206.852 661.611 183.958C663.372 161.064 667.628 140.224 674.378 121.44C681.423 102.361 691.109 86.6583 703.436 74.3308C715.764 62.0032 731.026 55.8395 749.224 55.8395C758.03 55.8395 767.716 57.6005 778.282 61.1227C792.958 66.4059 805.285 75.0645 815.265 87.0986C825.538 98.8391 834.05 112.047 840.8 126.723C842.353 129.894 843.849 133.093 845.288 136.321C845.567 136.945 845.843 137.57 846.117 138.197C850.852 149.022 854.951 160.167 858.411 171.63C859.352 174.747 860.275 177.81 861.181 180.821C861.193 180.861 861.205 180.901 861.217 180.941C864.186 190.814 866.966 200.117 869.555 208.849C870.037 210.476 870.513 212.084 870.982 213.671C870.999 213.728 871.016 213.785 871.033 213.842C871.082 214.007 871.13 214.172 871.179 214.336C871.397 214.99 871.695 215.723 872.074 216.538C872.206 216.822 872.348 217.115 872.5 217.418C873.087 218.299 873.967 218.592 875.141 218.299C876.315 218.005 876.902 217.418 876.902 216.538C876.902 216.125 876.884 215.694 876.848 215.244C876.83 215.022 876.808 214.795 876.781 214.564C876.714 213.992 876.62 213.392 876.499 212.765C876.487 212.702 876.475 212.639 876.462 212.575C876.069 210.889 875.637 209.116 875.169 207.257C873.189 199.411 870.539 190.03 867.217 179.115C866.347 176.038 865.492 172.915 864.653 169.746C861.811 159.012 859.143 147.753 856.65 135.968C856.433 134.942 856.22 133.915 856.01 132.888ZM839.507 100.913C839.121 97.693 838.774 94.4726 838.464 91.2518C836.898 74.9701 837.785 60.0535 841.455 46.7077L841.479 46.6194L841.505 46.5315C845.657 32.3445 853.441 20.7004 864.903 12.1035V12.1035C877.314 2.79577 894.077 -0.176863 913.297 1.08345L913.316 1.08469L913.335 1.08599C923.886 1.81371 933.602 5.29713 942.28 11.4213C950.582 17.0811 957.96 24.1533 964.436 32.5338C971.104 40.5013 976.935 49.3593 981.947 59.0709C986.783 68.4392 991.031 77.8336 994.687 87.2539C998.605 96.3157 1001.82 105.021 1004.29 113.361C1006.63 120.959 1008.52 127.087 1009.98 131.749L1010.04 131.945L1010.1 132.143C1012.8 142.066 1015.78 154.433 1019.03 169.2C1022.43 184.366 1024.27 200.23 1024.58 216.771C1024.89 233.712 1022.7 250.61 1018.03 267.433C1013.4 285.248 1004.17 301.25 990.679 315.387C979.046 327.661 965.305 337.187 949.554 343.938L949.464 343.976L949.374 344.013C933.729 350.399 917.767 353.648 901.558 353.648C885.959 353.648 871.588 350.551 858.689 344.101L858.635 344.074L858.581 344.047C846.552 337.87 835.836 329.743 826.462 319.723C818.381 311.084 811.07 301.602 804.524 291.295C805.593 298.993 806.025 306.299 805.765 313.185C805.733 321.637 803.949 329.637 799.483 336.336L799.412 336.442L799.339 336.546C793.677 344.636 785.491 350.246 775.675 353.793C766.348 357.557 756.315 359.372 745.702 359.372C738.724 359.372 731.772 358.55 724.864 356.924C717.733 355.541 710.824 353.16 704.154 349.825L704.055 349.775L703.957 349.724C689.367 342.064 678.241 328.485 669.95 310.626C661.811 293.096 656.114 273.424 652.751 251.712L652.737 251.625L652.725 251.538C649.679 229.604 648.928 206.833 650.44 183.242L650.445 183.171L650.45 183.099C652.277 159.353 656.709 137.511 663.845 117.654L663.861 117.608L663.878 117.563C671.39 97.2181 681.875 80.0619 695.521 66.4159C710.049 51.8889 728.203 44.6462 749.224 44.6462C759.503 44.6462 770.402 46.6972 781.822 50.5038L781.948 50.5459L782.074 50.591C798.589 56.5365 812.548 66.3279 823.785 79.8383C829.552 86.4408 834.793 93.468 839.507 100.913Z" fill="black"/>
</g>
<g>
<path d="M688.892 134.647C690.946 139.637 691.68 144.627 691.093 149.616C690.506 154.312 689.039 158.862 686.69 163.265C684.342 167.667 681.114 171.776 677.005 175.592C673.189 179.114 668.786 182.343 663.796 185.278C651.469 192.616 638.261 198.193 624.172 202.008C610.377 205.824 596.582 209.786 582.787 213.896C581.613 214.483 580.439 214.923 579.265 215.216C578.384 215.51 578.091 216.39 578.384 217.858C578.678 219.326 579.265 220.206 580.145 220.5C581.319 220.793 582.347 220.793 583.227 220.5C587.336 219.619 592.033 218.885 597.316 218.298C602.893 217.711 608.616 217.418 614.486 217.418C625.053 217.418 635.326 218.885 645.305 221.82C655.285 224.462 662.329 229.599 666.438 237.23C671.134 245.448 672.602 253.667 670.841 261.885C669.08 270.103 665.117 278.175 658.954 286.1C652.79 293.731 644.718 300.922 634.739 307.673C624.759 314.424 614.046 320.294 602.599 325.284C591.152 329.98 579.265 333.796 566.937 336.731C554.61 339.666 542.869 341.133 531.716 341.133C524.084 341.133 517.04 340.546 510.583 339.372C504.125 337.905 498.402 335.557 493.412 332.328C478.149 324.697 467.143 312.663 460.392 296.226C458.044 289.769 457.163 279.789 457.75 266.288C458.631 252.786 460.832 237.67 464.354 220.94C467.877 203.916 472.426 186.305 478.003 168.108C483.58 149.91 489.743 132.886 496.494 117.036C503.245 101.187 510.436 87.5382 518.067 76.0912C525.992 64.3507 533.917 56.8661 541.842 53.6375C557.692 46.8867 572.807 42.0437 587.19 39.1086C601.865 35.8799 617.568 34.2656 634.298 34.2656C641.93 34.2656 649.708 35.8799 657.633 39.1086C665.558 42.0437 671.281 47.0334 674.803 54.0778C678.032 62.0026 677.592 69.4872 673.482 76.5315C669.667 83.5758 663.796 88.4188 655.872 91.0604C646.479 94.289 636.94 97.2242 627.254 99.8658C617.568 102.507 608.322 106.03 599.517 110.432C598.637 111.019 597.609 111.606 596.435 112.193C595.555 112.78 595.408 113.808 595.995 115.275C596.582 117.623 598.783 118.21 602.599 117.036C605.241 116.156 609.937 115.128 616.688 113.954C623.732 112.487 631.363 111.166 639.582 109.992C650.735 108.524 660.568 109.258 669.08 112.193C677.592 115.128 684.196 122.613 688.892 134.647Z" fill="white"/>
<path fill-rule="evenodd" clip-rule="evenodd" d="M610.548 217.464C611.854 217.435 613.168 217.42 614.489 217.42C625.056 217.42 635.329 218.887 645.308 221.822C655.288 224.464 662.332 229.6 666.441 237.232C671.137 245.45 672.605 253.669 670.844 261.887C669.083 270.105 665.12 278.177 658.957 286.102C652.793 293.733 644.721 300.924 634.742 307.675C624.762 314.426 614.049 320.296 602.602 325.286C591.155 329.982 579.268 333.798 566.94 336.733C554.613 339.668 542.872 341.135 531.719 341.135C524.087 341.135 517.043 340.548 510.586 339.374C504.128 337.907 498.405 335.559 493.415 332.33C478.152 324.699 467.146 312.665 460.395 296.228C458.047 289.771 457.166 279.791 457.753 266.29C458.634 252.788 460.835 237.672 464.357 220.942C467.88 203.918 472.429 186.307 478.006 168.109C483.582 149.912 489.746 132.888 496.497 117.038C503.248 101.188 510.439 87.5401 518.07 76.0931C525.995 64.3526 533.92 56.868 541.845 53.6394C557.695 46.8886 572.81 42.0456 587.193 39.1105C601.868 35.8818 617.571 34.2675 634.301 34.2675C641.933 34.2675 649.711 35.8818 657.636 39.1105C665.561 42.0456 671.284 47.0353 674.806 54.0796C678.035 62.0045 677.595 69.4891 673.485 76.5334C669.67 83.5777 663.799 88.4207 655.875 91.0623C646.482 94.2909 636.943 97.226 627.257 99.8677C625.2 100.429 623.162 101.03 621.145 101.67C619.05 102.335 616.976 103.043 614.923 103.794C614.815 103.834 614.707 103.874 614.598 103.913C611.021 105.232 607.508 106.681 604.061 108.26C602.843 108.818 601.633 109.392 600.431 109.983C600.379 110.008 600.327 110.034 600.276 110.059C600.023 110.183 599.772 110.308 599.52 110.434C598.64 111.021 597.612 111.608 596.438 112.195C595.558 112.782 595.411 113.81 595.998 115.277C596.377 116.793 597.428 117.575 599.152 117.623C599.429 117.631 599.723 117.619 600.034 117.589C600.789 117.517 601.644 117.333 602.602 117.038C602.664 117.018 602.727 116.997 602.791 116.976C603.071 116.885 603.373 116.793 603.697 116.699C604.513 116.462 605.466 116.215 606.557 115.958C609.156 115.347 612.534 114.679 616.691 113.956C619.023 113.47 621.421 113 623.882 112.547C628.854 111.63 634.088 110.779 639.585 109.994C650.738 108.526 660.571 109.26 669.083 112.195C677.595 115.13 684.199 122.615 688.895 134.649C690.949 139.639 691.683 144.628 691.096 149.618C690.509 154.314 689.042 158.864 686.693 163.266C684.345 167.669 681.117 171.778 677.008 175.594C673.192 179.116 668.789 182.345 663.799 185.28C651.472 192.618 638.264 198.195 624.175 202.01C619.063 203.424 613.951 204.858 608.838 206.313C604.703 207.489 600.568 208.679 596.433 209.882C596.417 209.886 596.401 209.891 596.385 209.895C593.465 210.745 590.545 211.601 587.625 212.463C586.013 212.939 584.402 213.417 582.79 213.897C582.615 213.985 582.44 214.069 582.265 214.15C582.145 214.206 582.024 214.26 581.904 214.313C581.826 214.347 581.748 214.38 581.67 214.413C581.532 214.471 581.395 214.527 581.257 214.581C580.594 214.84 579.931 215.053 579.268 215.218C578.387 215.512 578.094 216.392 578.387 217.86C578.681 219.327 579.268 220.208 580.148 220.502C580.306 220.541 580.462 220.575 580.614 220.604C580.775 220.634 580.933 220.659 581.088 220.678C581.879 220.773 582.593 220.714 583.23 220.502C583.702 220.4 584.181 220.301 584.668 220.204C585.051 220.128 585.438 220.053 585.83 219.979C586.879 219.781 587.962 219.592 589.079 219.411C591.645 218.996 594.392 218.625 597.319 218.3C601.64 217.845 606.05 217.567 610.548 217.464ZM639.74 208.871C642.622 209.487 645.483 210.21 648.324 211.042C660.558 214.314 670.388 221.042 676.228 231.798C682.054 242.05 684.191 253.02 681.789 264.232C679.612 274.389 674.792 283.974 667.792 292.974L667.729 293.055L667.664 293.135C660.666 301.799 651.71 309.71 641.013 316.946C630.446 324.095 619.128 330.293 607.075 335.547L606.963 335.595L606.85 335.641C594.853 340.563 582.412 344.555 569.533 347.622C556.469 350.732 543.854 352.329 531.719 352.329C523.521 352.329 515.798 351.699 508.583 350.387L508.343 350.343L508.105 350.289C500.729 348.613 493.941 345.905 487.866 342.068C470.358 333.158 457.694 319.115 450.041 300.48L449.954 300.268L449.876 300.053C446.744 291.443 445.969 279.63 446.571 265.803L446.576 265.682L446.584 265.561C447.506 251.418 449.798 235.769 453.4 218.655C456.999 201.266 461.636 183.323 467.304 164.83C472.984 146.295 479.279 128.898 486.199 112.652C493.156 96.3171 500.66 82.0296 508.757 69.8842L508.775 69.8574L508.793 69.8308C517.203 57.3716 526.644 47.7764 537.534 43.3093C553.902 36.3424 569.687 31.2658 584.871 28.1603C600.395 24.7519 616.883 23.0742 634.301 23.0742C643.491 23.0742 652.646 25.0124 661.697 28.6786C671.989 32.5334 679.954 39.3468 684.818 49.0738L685.01 49.4583L685.172 49.8565C689.614 60.7593 689.117 71.8475 683.243 82.0191C678.959 89.8546 672.719 95.7031 664.873 99.4762C667.557 100.023 670.178 100.733 672.732 101.613C685.486 106.011 693.929 116.81 699.286 130.486C701.98 137.073 703.035 143.941 702.213 150.926L702.208 150.966L702.203 151.007C701.437 157.133 699.526 162.991 696.57 168.534C693.569 174.16 689.533 179.238 684.624 183.796L684.612 183.808L684.6 183.819C680.142 187.934 675.09 191.623 669.5 194.913C660.053 200.534 650.129 205.186 639.74 208.871Z" fill="black"/>
</g>
<g>
<path d="M384.216 183.077C383.629 181.61 382.896 180.289 382.015 179.115C381.134 177.941 379.667 177.647 377.612 178.234C375.851 178.821 374.824 179.995 374.53 181.756C374.53 183.517 374.824 185.572 375.411 187.92C376.879 193.497 378.199 201.422 379.373 211.695C380.547 221.968 381.134 233.121 381.134 245.155C381.134 257.189 380.401 269.37 378.933 281.698C377.466 294.025 374.824 305.032 371.008 314.718C367.486 324.11 362.643 331.595 356.479 337.172C350.316 342.455 342.538 344.216 333.145 342.455C321.992 340.4 313.186 333.062 306.729 320.441C300.565 307.82 296.162 292.264 293.521 273.773C291.173 254.988 290.292 234.736 290.879 213.016C291.466 191.002 293.081 169.722 295.722 149.176C298.364 128.337 301.739 109.552 305.848 92.822C310.251 75.7982 314.654 63.0304 319.056 54.5185C323.166 46.8872 329.036 41.4572 336.667 38.2286C344.299 34.7064 353.104 32.9453 363.083 32.9453C375.117 32.9453 388.179 35.2934 402.267 39.9896C416.356 44.6858 430.004 51.2899 443.212 59.8018C456.421 68.3136 468.455 78.4398 479.315 90.1804C490.468 101.921 498.833 114.689 504.41 128.484C507.052 134.648 508.226 141.545 507.932 149.176C507.639 156.514 506.318 163.852 503.97 171.19C501.915 178.234 498.98 184.692 495.164 190.562C491.349 196.432 487.093 200.982 482.396 204.21C476.526 208.613 470.069 211.988 463.025 214.336C456.274 216.391 449.083 217.418 441.451 217.418C429.124 217.418 417.53 214.63 406.67 209.053C396.104 203.183 388.619 194.524 384.216 183.077ZM384.657 87.979C384.07 89.1531 383.923 90.1803 384.216 91.0609C384.803 91.9414 385.537 92.6752 386.418 93.2622C398.452 99.1325 408.138 107.204 415.476 117.477C423.107 127.457 427.656 139.05 429.124 152.258C429.711 155.193 431.178 156.514 433.527 156.221C434.701 156.221 435.581 155.781 436.168 154.9C436.755 153.726 437.049 152.699 437.049 151.818C435.581 137.436 430.591 124.521 422.08 113.074C413.861 101.627 403.295 92.6752 390.38 86.2179C387.739 85.3374 385.831 85.9244 384.657 87.979Z" fill="white"/>
<path fill-rule="evenodd" clip-rule="evenodd" d="M319.058 54.5204C323.168 46.8891 329.038 41.4591 336.669 38.2304C344.3 34.7083 353.106 32.9472 363.085 32.9472C375.119 32.9472 388.181 35.2953 402.269 39.9915C416.358 44.6877 430.006 51.2918 443.214 59.8037C456.422 68.3155 468.457 78.4417 479.316 90.1823C490.47 101.923 498.835 114.691 504.412 128.486C507.053 134.649 508.228 141.547 507.934 149.178C507.64 156.516 506.32 163.854 503.972 171.192C501.917 178.236 498.982 184.693 495.166 190.564C491.351 196.434 487.095 200.983 482.398 204.212C476.528 208.615 470.071 211.99 463.027 214.338C456.276 216.393 449.085 217.42 441.453 217.42C429.126 217.42 417.532 214.632 406.672 209.055C398.298 204.403 391.859 197.999 387.357 189.844C386.581 188.44 385.863 186.983 385.202 185.475C385.186 185.436 385.169 185.398 385.152 185.359C385.127 185.302 385.102 185.244 385.077 185.186C384.823 184.596 384.577 183.999 384.34 183.393C384.299 183.289 384.259 183.184 384.218 183.079C384.037 182.625 383.841 182.185 383.631 181.758C383.163 180.808 382.625 179.927 382.017 179.117C381.136 177.943 379.669 177.649 377.614 178.236C375.853 178.823 374.826 179.997 374.532 181.758C374.532 182.625 374.603 183.562 374.745 184.57C374.836 185.213 374.955 185.884 375.104 186.585C375.113 186.628 375.122 186.671 375.131 186.714C375.216 187.108 375.31 187.51 375.413 187.922C375.416 187.935 375.42 187.947 375.423 187.96C375.866 189.649 376.296 191.553 376.713 193.671C377.671 198.544 378.559 204.552 379.375 211.697C380.549 221.97 381.136 233.123 381.136 245.157C381.136 257.191 380.403 269.372 378.935 281.699C377.467 294.027 374.826 305.034 371.01 314.72C367.488 324.112 362.645 331.597 356.481 337.173C350.318 342.457 342.539 344.218 333.147 342.457C321.994 340.402 313.188 333.064 306.731 320.443C300.567 307.822 296.164 292.266 293.523 273.775C291.175 254.99 290.294 234.737 290.881 213.017C291.468 191.004 293.082 169.724 295.724 149.178C298.366 128.339 301.741 109.554 305.85 92.8239C310.253 75.8001 314.656 63.0323 319.058 54.5204ZM284.621 147.761C281.929 168.7 280.288 190.352 279.692 212.715ZM284.621 147.761C287.305 126.589 290.75 107.376 294.98 90.154L294.996 90.0875L295.014 90.0213C299.483 72.7394 304.134 59.0109 309.116 49.378L309.159 49.2955L309.203 49.2137C314.431 39.5038 322.129 32.2726 332.14 27.9933C341.45 23.7284 351.851 21.7539 363.085 21.7539C376.566 21.7539 390.836 24.3815 405.809 29.3726C420.836 34.3817 435.328 41.405 449.278 50.3949C463.271 59.4125 476.009 70.1314 487.483 82.5274C499.466 95.1533 508.608 109.04 514.747 124.187C518.094 132.046 519.466 140.591 519.119 149.609L519.119 149.617L519.118 149.626C518.784 157.972 517.289 166.26 514.676 174.466C512.332 182.456 508.965 189.873 504.551 196.664C500.16 203.419 494.998 209.088 488.935 213.301C482.139 218.368 474.667 222.257 466.566 224.957L466.426 225.004L466.286 225.047C458.396 227.448 450.099 228.613 441.453 228.613C427.365 228.613 414.017 225.41 401.559 219.012L401.396 218.929L401.236 218.84C397.361 216.687 393.816 214.213 390.609 211.43C391.762 221.903 392.33 233.15 392.33 245.157C392.33 257.647 391.568 270.27 390.05 283.023C388.494 296.091 385.667 308.029 381.458 318.737C377.439 329.422 371.706 338.494 363.991 345.474L363.88 345.574L363.766 345.672C354.564 353.559 343.169 355.717 331.112 353.464C315.697 350.621 304.369 340.401 296.766 325.542L296.719 325.449L296.673 325.355C289.859 311.403 285.198 294.648 282.442 275.358L282.428 275.26L282.416 275.163C279.988 255.744 279.092 234.922 279.692 212.719M389.924 86.0799C387.519 85.4133 385.764 86.047 384.659 87.9809C384.072 89.1549 383.925 90.1822 384.218 91.0628C384.805 91.9433 385.539 92.6771 386.42 93.2641C386.538 93.3217 386.656 93.3795 386.773 93.4376C387.119 93.608 387.462 93.7803 387.804 93.9544C389.139 94.6347 390.444 95.3429 391.719 96.0791C401.33 101.627 409.25 108.76 415.477 117.479C415.533 117.552 415.589 117.625 415.644 117.698C415.671 117.733 415.697 117.768 415.724 117.804C422.187 126.359 426.4 136.093 428.364 147.005C428.543 148 428.703 149.004 428.845 150.018C428.906 150.452 428.963 150.888 429.016 151.325C429.037 151.49 429.056 151.655 429.076 151.82C429.093 151.967 429.109 152.113 429.126 152.26C429.15 152.383 429.177 152.503 429.204 152.621C429.837 155.303 431.279 156.504 433.528 156.223C434.702 156.223 435.583 155.782 436.17 154.902C436.757 153.728 437.051 152.701 437.051 151.82C437.036 151.675 437.021 151.53 437.005 151.385C436.981 151.156 436.955 150.928 436.929 150.7C436.74 149.062 436.505 147.443 436.223 145.843C434.111 133.837 429.397 122.915 422.081 113.076C422.032 113.007 421.982 112.938 421.932 112.869C421.881 112.799 421.831 112.729 421.78 112.659C414.649 102.847 405.773 94.8875 395.154 88.7808C394.651 88.4913 394.143 88.206 393.632 87.9248C392.769 87.45 391.894 86.9871 391.009 86.536C390.983 86.5229 390.957 86.5098 390.931 86.4967C390.749 86.4039 390.566 86.3116 390.382 86.2198C390.227 86.1681 390.074 86.1215 389.924 86.0799Z" fill="black"/>
</g>
<g>
<path d="M43.0325 319.561C28.9439 308.701 19.6982 294.026 15.2955 275.534C11.1863 257.043 10.8928 237.231 14.415 216.098C17.9371 194.671 24.9814 173.098 35.5479 151.378C46.1144 129.365 59.1757 109.553 74.7319 91.9419C90.5816 74.0376 108.339 59.5087 128.005 48.3552C147.963 37.2017 169.096 31.625 191.403 31.625C207.253 31.625 223.396 35.0004 239.833 41.7512C256.563 48.502 273.293 59.362 290.024 74.3311C303.819 86.6587 312.184 101.921 315.119 120.119C318.054 138.317 316.88 157.689 311.597 178.235C306.314 198.487 297.508 218.74 285.181 238.992C273.147 259.244 258.618 277.442 241.594 293.585C224.57 309.729 205.785 322.937 185.24 333.21C164.694 343.189 143.707 348.179 122.281 348.179C109.073 348.179 95.7181 345.831 82.2165 341.134C69.0084 336.732 55.9471 329.541 43.0325 319.561ZM206.372 133.768C185.24 144.334 167.922 159.303 154.421 178.675C140.919 198.047 130.793 219.18 124.042 242.074C123.162 245.302 123.895 247.21 126.243 247.797C128.592 248.091 130.206 246.917 131.086 244.275C138.131 223.142 147.963 203.33 160.584 184.839C173.205 166.347 189.936 151.672 210.775 140.812C211.656 140.225 212.389 139.344 212.977 138.17C213.564 136.996 213.564 135.822 212.977 134.648C211.802 132.593 209.601 132.3 206.372 133.768Z" fill="white"/>
<path fill-rule="evenodd" clip-rule="evenodd" d="M4.38894 278.047L4.37063 277.964C-0.0876029 257.902 -0.3516 236.632 3.37397 214.271C7.08962 191.676 14.493 169.083 25.4717 146.51C36.4647 123.614 50.0857 102.94 66.3447 84.5335L66.3526 84.5245C82.9735 65.749 101.684 50.418 122.484 38.6208L122.515 38.6033L122.546 38.586C144.13 26.5243 167.137 20.4336 191.405 20.4336C208.87 20.4336 226.444 24.1567 244.056 31.3862C262.228 38.724 280.027 50.3682 297.484 65.9867C297.485 65.9875 297.486 65.9884 297.487 65.9892C297.488 65.9899 297.488 65.9906 297.489 65.9913C313.188 80.0224 322.826 97.5978 326.171 118.339C329.386 138.271 328.049 159.21 322.439 181.024L322.435 181.043L322.43 181.062C316.842 202.481 307.579 223.717 294.775 244.762C282.223 265.877 267.058 284.868 249.298 301.709C231.491 318.596 211.801 332.446 190.247 343.223L190.19 343.252L190.132 343.28C168.165 353.95 145.514 359.374 122.283 359.374C107.747 359.374 93.174 356.79 78.6105 351.732C64.0503 346.869 49.9145 339.024 36.1959 328.425C19.9353 315.889 9.36064 298.928 4.40848 278.129L4.38894 278.047ZM43.0344 319.563C55.9489 329.543 69.0103 336.734 82.2184 341.136C95.7199 345.833 109.075 348.181 122.283 348.181C143.709 348.181 164.695 343.191 185.241 333.212C205.787 322.939 224.572 309.73 241.596 293.587C258.62 277.444 273.149 259.246 285.183 238.994C297.51 218.741 306.316 198.489 311.599 178.237C316.882 157.691 318.056 138.319 315.121 120.121C312.186 101.923 303.821 86.6606 290.026 74.333C273.295 59.3639 256.565 48.5039 239.835 41.7531C223.398 35.0023 207.255 31.6269 191.405 31.6269C169.098 31.6269 147.965 37.2036 128.006 48.3571C108.341 59.5106 90.5835 74.0395 74.7338 91.9438C59.1776 109.555 46.1162 129.367 35.5498 151.38C24.9833 173.1 17.939 194.673 14.4168 216.1C10.8947 237.233 11.1882 257.045 15.2974 275.536C19.7001 294.028 28.9457 308.703 43.0344 319.563ZM132.797 239.331C139.692 220.046 148.955 201.882 160.586 184.841C160.875 184.418 161.165 183.998 161.457 183.58C173.068 166.976 188.055 153.507 206.419 143.174C207.536 142.545 208.666 141.928 209.808 141.323C209.898 141.275 209.989 141.227 210.079 141.18C210.311 141.057 210.544 140.935 210.777 140.814C211.658 140.227 212.391 139.346 212.978 138.172C213.565 136.998 213.565 135.824 212.978 134.65C211.878 132.725 209.876 132.346 206.972 133.513C206.777 133.591 206.578 133.677 206.374 133.769C206.301 133.806 206.228 133.843 206.154 133.88C205.862 134.026 205.57 134.174 205.279 134.323C204.258 134.844 203.245 135.376 202.241 135.918C182.973 146.33 167.033 160.583 154.423 178.677C154.114 179.119 153.808 179.562 153.503 180.006C141.498 197.502 132.223 216.424 125.679 236.769C125.128 238.483 124.596 240.208 124.083 241.942C124.07 241.987 124.057 242.031 124.044 242.076C123.163 245.304 123.897 247.212 126.245 247.799C128.593 248.093 130.208 246.919 131.088 244.277C131.101 244.239 131.113 244.202 131.126 244.164C131.142 244.116 131.158 244.068 131.174 244.02C131.699 242.45 132.24 240.887 132.797 239.331Z" fill="black"/>
</g>
</svg>
