<svg  viewBox="0 0 245 73" fill="none" xmlns="http://www.w3.org/2000/svg">
<path d="M38.0365 8.74885C43.8964 8.74885 49.2563 9.88048 54.9551 11.0295C55.8295 11.2058 52.8042 7.7285 52.7015 7.63351C47.026 2.38068 38.6672 1.55585 31.2973 2.17789C24.2959 2.76882 6.29986 4.54202 2.10841 11.5277C-0.0741549 15.1652 31.4015 12.7935 33.1081 12.53C40.8485 11.3346 63.9874 8.19535 56.1584 7.97262C52.492 7.86831 49.2074 8.90281 45.744 9.86518" stroke="white" stroke-width="4" stroke-linecap="round" stroke-linejoin="round"/>
<path d="M60.8486 15.0144C60.4683 13.2708 59.3386 11.0976 62.0123 11.3273C78.5808 12.7508 77.1475 41.02 77.5079 51.9094C77.6739 56.9226 76.4569 66.8952 82.5142 69.3927C88.4391 71.8355 96.6598 70.0466 102.789 69.5497C108.704 69.0702 115.475 69.7577 106.393 67.6441" stroke="white" stroke-width="4" stroke-linecap="round" stroke-linejoin="round"/>
<path d="M235.042 11.5921C236.022 10.9036 239.983 10.5846 240.025 9.50649C240.362 0.928998 209.892 8.775 208.985 17.0357C207.952 26.4471 246.904 13.9501 242.687 8.93732C239.321 4.93649 225.774 11.5995 222.497 13.1376C218.049 15.2248 215.277 17.305 212.707 21.225" stroke="white" stroke-width="4" stroke-linecap="round" stroke-linejoin="round"/>
<path d="M213.233 17.4623C212.377 15.9598 209.496 12.8061 212.526 12.3948C217.432 11.729 207.648 16.1118 206.85 16.7641C200.411 22.0276 197.964 29.4198 197.637 37.5343C197.385 43.7877 200.654 56.2694 193.647 60.128C189.685 62.3101 184.073 61.3557 180.045 59.879C179.377 59.6339 177.686 58.2978 176.91 58.4605" stroke="white" stroke-width="4" stroke-linecap="round" stroke-linejoin="round"/>
<path d="M155.291 24.9888C139.716 1.39923 112.051 37.1699 125.663 55.559C137.573 71.6481 171.814 53.7476 167.488 34.8418C165.266 25.1323 155.943 14.7354 145.115 17.5306C136.394 19.7821 132.066 27.0648 127.614 33.9735" stroke="white" stroke-width="4" stroke-linecap="round" stroke-linejoin="round"/>
</svg>
