<svg width="124" height="102" viewBox="0 0 124 102" fill="none" xmlns="http://www.w3.org/2000/svg">
<path d="M18.0537 11.6628C16.0421 10.3881 13.9824 9.61735 11.8679 8.60083C11.2679 8.31238 13.1989 8.54103 13.8646 8.55067C17.1836 8.59873 20.4899 8.67632 23.6822 9.72061C35.1662 13.4774 42.0109 24.9104 51.9123 31.2383C54.6404 32.9819 61.302 34.6852 62.6151 38.0854C62.8117 38.5947 62.8379 40.254 62.8379 39.708C62.8379 33.5791 66.8946 27.9866 70.8444 23.6429C77.5541 16.264 88.2648 7.51946 98.8495 7.1705C100.169 7.12702 100.237 7.13169 98.9193 6.66406" stroke="white" stroke-width="4" stroke-linecap="round" stroke-linejoin="round"/>
<path d="M3.49526 12.1776C0.92473 10.3328 4.8354 5.92504 6.27918 7.70024C9.64703 11.8412 10.4178 19.7359 11.1556 24.5788C13.42 39.443 12.4644 54.6161 14.8708 69.4255C14.9301 69.7903 16.862 80.4845 19.1691 78.1759C21.4843 75.8592 23.3311 72.2697 25.3756 69.6464" stroke="white" stroke-width="4" stroke-linecap="round" stroke-linejoin="round"/>
<path d="M64.8825 42.7296C64.6664 42.3043 63.092 38.223 63.8487 40.9773C67.0345 52.5728 66.3124 65.1658 67.2145 77.0533C67.3144 78.37 67.5495 92.0944 71.0305 92.3976C72.6208 92.5361 73.0289 84.8602 73.182 83.6759" stroke="white" stroke-width="4" stroke-linecap="round" stroke-linejoin="round"/>
<path d="M107.418 6.38397C107.346 5.53249 107.18 0.69553 108.055 4.2531C111.129 16.755 110.114 30.3558 111.095 43.1044C111.69 50.831 113.207 58.0714 115.661 65.3757C115.698 65.4852 115.737 64.6259 115.725 64.4011C115.514 60.3585 100.874 67.0017 100.302 67.3131C91.3124 72.212 84.5435 79.6245 79.2817 88.2837C79.0097 88.7313 77.304 93.2586 76.7667 91.5218C75.3668 86.9972 72.9869 92.0696 70.3796 92.6673C67.5701 93.3114 63.5183 91.8012 60.9837 90.9736C50.5485 87.5665 41.0409 81.7671 30.9234 77.5721C25.6604 75.3899 20.0683 74.2476 14.815 72.1852C13.4134 71.6349 17.81 71.853 19.3138 71.7755" stroke="white" stroke-width="4" stroke-linecap="round" stroke-linejoin="round"/>
<path d="M5.93584 14.8969C5.89377 14.6522 5.26019 7.19489 6.21722 8.16752C7.92953 9.90772 8.27403 14.8972 8.59027 16.8558C9.84999 24.6579 10.5677 32.5616 11.2289 40.4315C12.0601 50.323 12.5938 60.232 13.3044 70.1316C13.4381 71.9939 13.2752 77.3508 14.5084 79.4381C16.5229 82.8479 14.5764 71.503 14.1979 67.5606" stroke="white" stroke-width="4" stroke-linecap="round" stroke-linejoin="round"/>
<path d="M3.68843 12.2545C2.8559 9.97801 2.64109 9.45456 3.17339 12.8231C5.7885 29.3719 8.15511 45.9441 10.3756 62.5508C11.0432 67.5444 13.6197 82.4259 12.4917 77.5159C11.3973 72.7517 10.5097 67.9305 9.51523 63.1445" stroke="white" stroke-width="4" stroke-linecap="round" stroke-linejoin="round"/>
<path d="M2.50859 11.275C2.49334 11.1521 1.68481 4.10382 2.13756 8.46567C3.1914 18.6184 4.09936 28.7855 5.11986 38.9416C6.16331 49.3261 6.38168 60.6942 9.38205 70.7839C10.3762 74.1272 10.7522 72.4224 11.7568 71.0658" stroke="white" stroke-width="4" stroke-linecap="round" stroke-linejoin="round"/>
<path d="M114.067 2.87891C112.247 12.3569 112.363 21.9003 113.103 31.5058C113.731 39.6655 114.461 48.8744 118.474 56.2294C120.413 59.7821 118.961 54.6367 118.656 53.8238C117.717 51.3272 116.719 48.8552 115.8 46.3514" stroke="white" stroke-width="4" stroke-linecap="round" stroke-linejoin="round"/>
<path d="M116.356 7.2872C116.208 5.90991 116.253 4.15591 115.882 2.80152C115.289 0.631533 116.081 7.29655 116.192 9.54349C116.974 25.3038 117.929 41.0742 119.645 56.7641C119.672 57.0095 120.998 66.5575 121.144 61.4057C121.364 53.6315 120.59 45.8593 120.016 38.1179" stroke="white" stroke-width="4" stroke-linecap="round" stroke-linejoin="round"/>
<path d="M119.498 5.43745C118.971 5.00166 118.269 19.3714 118.268 19.6834C118.219 28.2698 117.557 37.5601 121.627 45.0508" stroke="white" stroke-width="4" stroke-linecap="round" stroke-linejoin="round"/>
<path d="M80.5892 91.9522C79.5561 92.514 78.6687 93.1205 78.0049 94.1135C77.787 94.4395 77.2286 95.4632 77.4902 95.1712C79.7253 92.6767 81.498 89.5499 83.5416 86.9129C87.6555 81.6043 92.0129 76.3047 97.2163 72.0076C100.283 69.4749 105.864 65.2139 110.24 67.4317C111.306 67.9719 111.712 69.7553 112.961 69.9185C114.291 70.0922 115.332 69.0766 116.394 68.5067" stroke="white" stroke-width="4" stroke-linecap="round" stroke-linejoin="round"/>
<path d="M92.1533 88.879C89.2235 90.6584 81.741 97.5535 83.7078 94.746C89.4201 86.5922 98.2586 78.9731 106.409 73.4601C109.293 71.5093 119.33 65.9504 116.675 74.1576C116.074 76.015 115.237 77.9739 113.839 79.3438" stroke="white" stroke-width="4" stroke-linecap="round" stroke-linejoin="round"/>
<path d="M94.5111 90.2978C93.2759 89.9732 89.7569 89.5932 89.3421 87.9968C88.5149 84.8134 97.6204 79.1467 99.263 77.8602C102.094 75.643 106.094 72.6502 109.082 70.6315C110.901 69.4032 115.133 65.9593 117.777 66.104C119.214 66.1827 118.957 70.1925 119.028 71.1845" stroke="white" stroke-width="4" stroke-linecap="round" stroke-linejoin="round"/>
<path d="M17.2713 76.7844C13.4168 69.894 30.6448 76.8736 32.484 77.4581C41.2601 80.2466 49.9987 83.2839 58.5303 86.7543C60.8513 87.6984 63.9779 89.0493 66.2687 90.2743C67.2838 90.8171 69.9302 91.7906 68.97 92.4255C67.8182 93.1871 63.1614 90.9242 62.2676 90.5956C55.5867 88.1394 48.9762 85.7664 42.0651 84.0095C36.3869 82.5661 30.4295 81.6466 24.9764 79.4313C24.5297 79.2498 18.4708 75.117 20.9541 76.1215C25.4464 77.9387 29.6697 80.7935 33.9499 83.0396C40.4416 86.4464 47.0345 89.6532 53.5693 92.9755C55.1531 93.7807 59.9344 95.8945 58.173 95.6618C53.0614 94.9863 47.8831 93.3509 42.9847 91.8318C36.9212 89.9514 31.0598 87.6225 25.159 85.3019C19.3135 83.003 25.0052 86.7023 26.9004 87.7284C37.524 93.48 49.8073 94.3266 60.4344 99.5957" stroke="white" stroke-width="4" stroke-linecap="round" stroke-linejoin="round"/>
</svg>
