<svg width="893" height="319" viewBox="0 0 893 319" fill="none" xmlns="http://www.w3.org/2000/svg">
<g>
<path d="M340.392 146.086C342.031 150.066 342.616 154.047 342.148 158.028C341.68 161.775 340.509 165.404 338.636 168.917C336.762 172.429 334.186 175.708 330.908 178.752C327.864 181.562 324.351 184.138 320.37 186.48C310.535 192.334 299.998 196.783 288.758 199.827C277.752 202.871 266.746 206.033 255.74 209.311C254.803 209.779 253.867 210.131 252.93 210.365C252.227 210.599 251.993 211.301 252.227 212.472C252.462 213.643 252.93 214.346 253.632 214.58C254.569 214.814 255.389 214.814 256.091 214.58C259.37 213.877 263.116 213.292 267.331 212.824C271.78 212.355 276.347 212.121 281.03 212.121C289.46 212.121 297.656 213.292 305.618 215.634C313.58 217.741 319.2 221.839 322.478 227.927C326.225 234.484 327.395 241.041 325.99 247.598C324.585 254.154 321.424 260.594 316.507 266.916C311.589 273.005 305.149 278.742 297.188 284.128C289.226 289.514 280.679 294.197 271.546 298.178C262.414 301.925 252.93 304.969 243.095 307.31C233.26 309.652 223.893 310.823 214.995 310.823C208.906 310.823 203.286 310.355 198.135 309.418C192.983 308.247 188.417 306.374 184.436 303.798C172.259 297.71 163.478 288.109 158.092 274.995C156.218 269.844 155.516 261.882 155.984 251.11C156.687 240.338 158.443 228.279 161.253 214.931C164.063 201.349 167.693 187.299 172.142 172.781C176.591 158.262 181.509 144.681 186.894 132.035C192.28 119.39 198.017 108.502 204.106 99.369C210.428 90.0023 216.751 84.031 223.073 81.4551C235.719 76.0692 247.778 72.2055 259.252 69.8638C270.961 67.2879 283.489 66 296.836 66C302.925 66 309.13 67.2879 315.453 69.8638C321.775 72.2055 326.342 76.1863 329.152 81.8064C331.728 88.1289 331.376 94.1002 328.098 99.7202C325.054 105.34 320.37 109.204 314.048 111.312C306.554 113.887 298.944 116.229 291.216 118.337C283.489 120.444 276.113 123.254 269.088 126.767C268.385 127.235 267.565 127.703 266.629 128.172C265.926 128.64 265.809 129.46 266.278 130.63C266.746 132.504 268.502 132.972 271.546 132.035C273.654 131.333 277.401 130.513 282.786 129.577C288.406 128.406 294.495 127.352 301.052 126.415C309.95 125.245 317.795 125.83 324.585 128.172C331.376 130.513 336.645 136.485 340.392 146.086Z" fill="white"/>
<path fill-rule="evenodd" clip-rule="evenodd" d="M271.436 212.461C274.578 212.235 277.776 212.121 281.031 212.121C289.461 212.121 297.657 213.292 305.619 215.634C313.581 217.741 319.201 221.839 322.479 227.928C326.226 234.484 327.397 241.041 325.992 247.598C324.587 254.155 321.425 260.594 316.508 266.917C311.59 273.005 305.151 278.742 297.189 284.128C289.227 289.514 280.68 294.197 271.547 298.178C262.415 301.925 252.931 304.969 243.096 307.311C233.261 309.653 223.894 310.823 214.996 310.823C208.907 310.823 203.287 310.355 198.136 309.418C192.984 308.248 188.418 306.374 184.437 303.798C172.26 297.71 163.479 288.109 158.093 274.996C156.22 269.844 155.517 261.882 155.985 251.11C156.688 240.339 158.444 228.279 161.254 214.931C164.064 201.35 167.694 187.3 172.143 172.781C176.592 158.263 181.51 144.681 186.896 132.036C192.281 119.391 198.019 108.502 204.107 99.3694C210.429 90.0026 216.752 84.0313 223.075 81.4555C235.72 76.0696 247.779 72.2058 259.254 69.8642C270.962 67.2883 283.49 66.0004 296.838 66.0004C302.926 66.0004 309.131 67.2883 315.454 69.8642C321.777 72.2058 326.343 76.1867 329.153 81.8067C331.729 88.1293 331.377 94.1006 328.099 99.7206C325.055 105.341 320.372 109.204 314.049 111.312C306.556 113.888 298.945 116.229 291.218 118.337C286.493 119.626 281.9 121.177 277.438 122.99C275.316 123.853 273.224 124.774 271.162 125.756C270.712 125.97 270.263 126.187 269.815 126.407C269.774 126.427 269.733 126.447 269.691 126.468C269.49 126.567 269.289 126.667 269.089 126.767C268.386 127.235 267.567 127.704 266.63 128.172C265.927 128.64 265.81 129.46 266.279 130.631C266.581 131.84 267.42 132.464 268.795 132.502C269.016 132.508 269.25 132.5 269.499 132.476C270.101 132.417 270.783 132.271 271.547 132.036C271.597 132.019 271.647 132.003 271.698 131.986C271.922 131.914 272.163 131.84 272.421 131.765C272.604 131.712 272.797 131.658 272.998 131.603C274.621 131.162 276.812 130.681 279.569 130.16C280.567 129.971 281.64 129.777 282.787 129.577C288.408 128.406 294.496 127.352 301.053 126.416C309.951 125.245 317.796 125.83 324.587 128.172C331.377 130.514 336.646 136.485 340.393 146.086C342.032 150.067 342.617 154.048 342.149 158.029C341.681 161.775 340.51 165.405 338.637 168.917C336.763 172.43 334.187 175.708 330.909 178.752C327.865 181.562 324.352 184.138 320.371 186.48C310.536 192.334 299.999 196.783 288.759 199.828C282.543 201.547 276.327 203.303 270.111 205.097C268.949 205.433 267.787 205.769 266.625 206.107C266.613 206.111 266.6 206.115 266.587 206.118C263.715 206.954 260.843 207.797 257.971 208.649C257.228 208.869 256.484 209.09 255.741 209.311C255.602 209.381 255.462 209.448 255.323 209.513C255.227 209.557 255.13 209.601 255.034 209.643C254.972 209.67 254.91 209.696 254.848 209.722C254.738 209.769 254.628 209.813 254.518 209.856C253.989 210.063 253.46 210.233 252.931 210.365C252.229 210.599 251.994 211.302 252.229 212.473C252.463 213.644 252.931 214.346 253.634 214.58C253.76 214.612 253.883 214.639 254.005 214.662C254.133 214.686 254.259 214.706 254.383 214.721C255.014 214.796 255.584 214.75 256.092 214.58C256.469 214.5 256.851 214.42 257.24 214.343C257.545 214.282 257.854 214.222 258.167 214.163C258.462 214.107 258.761 214.053 259.063 213.999C261.583 213.548 264.34 213.156 267.332 212.824C268.689 212.681 270.057 212.56 271.436 212.461ZM295.165 205.722C299.372 206.351 303.526 207.266 307.624 208.467C317.083 210.993 324.556 216.149 328.986 224.315C333.484 232.224 335.1 240.609 333.268 249.157C331.587 257.003 327.855 264.448 322.382 271.486L322.34 271.54L322.297 271.593C316.825 278.368 309.797 284.584 301.359 290.292C293.006 295.943 284.056 300.844 274.521 305L274.447 305.032L274.372 305.063C264.874 308.96 255.021 312.121 244.82 314.55C234.495 317.009 224.547 318.265 214.996 318.265C208.531 318.265 202.459 317.768 196.804 316.74L196.645 316.711L196.486 316.675C190.725 315.366 185.45 313.253 180.747 310.272C167.077 303.334 157.195 292.397 151.209 277.823L151.151 277.682L151.099 277.539C148.705 270.956 148.073 261.775 148.551 250.787L148.554 250.707L148.559 250.626C149.29 239.428 151.106 227.014 153.969 213.412C156.83 199.587 160.518 185.316 165.028 170.601C169.546 155.858 174.551 142.029 180.049 129.12C185.572 116.152 191.517 104.838 197.915 95.2414L197.927 95.2236L197.939 95.2059C204.583 85.362 211.915 77.9869 220.209 74.5874C233.199 69.058 245.703 65.039 257.71 62.584C269.983 59.8886 283.033 58.5586 296.838 58.5586C303.962 58.5586 311.083 60.0619 318.154 62.9284C326.05 65.8812 332.107 71.0746 335.809 78.4787L335.937 78.7343L336.045 78.999C339.427 87.3012 339.038 95.6687 334.587 103.368C330.605 110.659 324.413 115.693 316.437 118.36C316.133 118.465 315.828 118.569 315.523 118.673C319.527 119.068 323.364 119.879 327.013 121.137C336.624 124.451 343.116 132.626 347.301 143.317C349.366 148.36 350.164 153.59 349.54 158.898L349.537 158.925L349.533 158.952C348.946 163.649 347.481 168.148 345.203 172.419C342.896 176.746 339.783 180.668 335.973 184.206L335.965 184.213L335.957 184.221C332.485 187.425 328.541 190.307 324.161 192.885C315.054 198.304 305.384 202.583 295.165 205.722Z" fill="black"/>
</g>
<g>
<path d="M871.257 21.3476C879.921 27.9043 884.487 35.0464 884.956 42.774C885.424 50.2674 883.317 57.8778 878.633 65.6054C874.184 73.3329 867.861 80.9434 859.665 88.4368C851.704 95.696 843.391 102.487 834.727 108.809C826.062 114.898 817.866 120.284 810.139 124.967C802.645 129.416 797.025 132.695 793.279 134.802C792.342 135.739 791.991 136.675 792.225 137.612C793.162 142.53 793.63 149.203 793.63 157.634C793.63 165.829 793.045 174.611 791.874 183.977C790.937 193.344 789.298 202.711 786.956 212.078C784.615 221.444 781.336 229.64 777.121 236.665C773.14 243.69 768.223 249.076 762.369 252.823C756.514 256.335 749.489 257.038 741.293 254.93C735.908 253.525 731.693 249.896 728.648 244.042C725.604 238.187 723.262 231.162 721.623 222.966C720.218 214.771 719.399 205.989 719.165 196.623C718.93 187.022 719.047 177.772 719.516 168.874C720.218 159.975 721.155 152.014 722.326 144.988C723.497 137.729 724.55 132.343 725.487 128.831C725.721 127.894 725.487 126.84 724.785 125.67C718.696 121.455 711.905 116.42 704.412 110.566C697.153 104.712 690.245 98.389 683.688 91.5981C677.365 84.573 671.862 77.3138 667.179 69.8204C662.496 62.327 659.803 54.8337 659.1 47.3403C658.632 39.3786 659.803 31.8852 662.613 24.8601C665.657 17.6009 671.277 12.6834 679.473 10.1075C683.454 8.7025 687.201 8 690.713 8C699.611 8 708.276 11.1613 716.706 17.4838C725.37 23.5722 733.097 31.0656 739.888 39.964C746.913 48.8624 752.768 58.112 757.451 67.7129C762.369 77.3138 765.53 85.6268 766.935 92.6518C767.403 94.291 768.223 95.1106 769.394 95.1106C770.564 95.1106 771.384 94.4081 771.852 93.0031C774.662 85.5097 778.994 77.3138 784.849 68.4154C790.703 59.517 797.377 51.087 804.87 43.1252C812.598 35.1635 820.676 28.6068 829.107 23.4551C837.771 18.0692 846.084 15.3763 854.045 15.3763C860.602 15.3763 866.339 17.3667 871.257 21.3476Z" fill="white"/>
<path fill-rule="evenodd" clip-rule="evenodd" d="M683.688 91.5985C677.366 84.5734 671.863 77.3142 667.179 69.8208C662.496 62.3274 659.803 54.834 659.101 47.3407C658.632 39.3789 659.803 31.8855 662.613 24.8605C665.657 17.6013 671.277 12.6837 679.473 10.1079C683.454 8.70289 687.201 8.00038 690.713 8.00038C699.612 8.00038 708.276 11.1617 716.706 17.4842C725.37 23.5726 733.098 31.0659 739.889 39.9643C746.914 48.8627 752.768 58.1124 757.451 67.7133C761.33 75.2853 764.116 82.0561 765.809 88.0259C765.895 88.3268 765.977 88.6257 766.057 88.9226C766.249 89.6361 766.425 90.3379 766.584 91.0279C766.603 91.1072 766.621 91.1865 766.639 91.2655C766.745 91.7332 766.844 92.1954 766.935 92.6522C767.404 94.2914 768.223 95.111 769.394 95.111C770.565 95.111 771.384 94.4085 771.853 93.0035C772.032 92.5242 772.218 92.0421 772.411 91.5572C772.48 91.3809 772.551 91.2043 772.622 91.0273C772.842 90.4826 773.07 89.9343 773.306 89.3825C773.419 89.1164 773.535 88.8495 773.652 88.5817C776.393 82.317 780.126 75.5951 784.849 68.4158C790.703 59.5174 797.377 51.0873 804.87 43.1256C812.598 35.1639 820.677 28.6072 829.107 23.4555C837.771 18.0696 846.084 15.3767 854.046 15.3767C860.602 15.3767 866.34 17.3671 871.257 21.348C879.921 27.9047 884.488 35.0468 884.956 42.7744C885.424 50.2677 883.317 57.8782 878.633 65.6058C874.184 73.3333 867.862 80.9438 859.666 88.4372C851.704 95.6964 843.391 102.487 834.727 108.81C826.063 114.898 817.867 120.284 810.139 124.967C802.646 129.417 797.026 132.695 793.279 134.803C792.342 135.739 791.991 136.676 792.225 137.613C793.162 142.53 793.63 149.204 793.63 157.634C793.63 165.83 793.045 174.611 791.874 183.978C790.937 193.345 789.298 202.711 786.957 212.078C784.615 221.445 781.337 229.641 777.122 236.666C773.141 243.691 768.223 249.077 762.369 252.823C756.515 256.336 749.49 257.038 741.294 254.931C735.908 253.526 731.693 249.896 728.649 244.042C725.604 238.188 723.263 231.163 721.624 222.967C720.219 214.771 719.399 205.99 719.165 196.623C718.931 187.022 719.048 177.772 719.516 168.874C720.219 159.976 721.155 152.014 722.326 144.989C723.497 137.73 724.551 132.344 725.487 128.831C725.722 127.895 725.487 126.841 724.785 125.67C718.697 121.455 711.906 116.42 704.412 110.566C697.153 104.712 690.245 98.3893 683.688 91.5985ZM717.606 129.727C712.161 125.868 706.234 121.433 699.831 116.43L699.785 116.395L699.741 116.359C692.238 110.309 685.103 103.778 678.335 96.7675L678.244 96.6737L678.157 96.5768C671.565 89.2524 665.797 81.6494 660.869 73.7649C655.678 65.4592 652.519 56.8674 651.691 48.0353L651.679 47.9066L651.672 47.7776C651.143 38.7842 652.465 30.1923 655.704 22.0967L655.727 22.0394L655.75 21.9826C659.709 12.542 667.111 6.22546 677.118 3.0478C681.697 1.44391 686.246 0.558594 690.713 0.558594C701.468 0.558594 711.631 4.4006 721.078 11.461C730.346 17.9883 738.574 25.9844 745.767 35.4007C753.07 44.6571 759.191 54.3184 764.108 64.3854C766.591 69.2373 768.689 73.8636 770.371 78.2525C772.725 73.7533 775.484 69.11 778.632 64.3257C784.729 55.0587 791.671 46.2918 799.451 38.0253L799.491 37.9836L799.53 37.9426C807.634 29.5936 816.187 22.6327 825.203 17.1201C834.711 11.2142 844.363 7.93488 854.046 7.93488C862.198 7.93488 869.57 10.443 875.842 15.4853C885.458 22.7892 891.739 31.6912 892.384 42.3211C892.961 51.5867 890.317 60.6598 885.041 69.391C880.133 77.895 873.291 86.0632 864.687 93.9294L864.68 93.9363C856.519 101.377 847.997 108.339 839.114 114.821L839.06 114.86L839.006 114.899C830.227 121.068 821.889 126.548 813.996 131.332L813.968 131.349L813.939 131.366C808.271 134.732 803.642 137.446 800.068 139.501C800.759 144.53 801.072 150.611 801.072 157.634C801.072 166.154 800.466 175.216 799.27 184.81C798.295 194.514 796.595 204.206 794.176 213.883C791.696 223.805 788.18 232.679 783.55 240.416C779.076 248.286 773.385 254.609 766.38 259.091L766.29 259.149L766.198 259.205C758.246 263.976 749.074 264.615 739.44 262.138L739.428 262.135L739.415 262.132C731.614 260.096 725.865 254.819 722.046 247.475C718.606 240.859 716.068 233.136 714.326 224.426L714.306 224.326L714.289 224.224C712.816 215.633 711.967 206.491 711.725 196.809L711.725 196.804C711.487 187.027 711.605 177.586 712.085 168.483L712.09 168.386L712.097 168.288C712.812 159.235 713.77 151.061 714.982 143.785C715.902 138.084 716.774 133.37 717.606 129.727Z" fill="black"/>
</g>
<g>
<path d="M554.172 85.2651C561.197 78.4743 569.627 73.7909 579.462 71.215C589.297 68.405 599.601 67 610.372 67C622.315 67 633.789 68.405 644.795 71.215C656.035 73.7909 665.753 77.1863 673.949 81.4014C685.189 87.2556 693.736 94.9831 699.59 104.584C705.445 114.185 709.074 124.605 710.479 135.845C712.118 147.086 711.884 158.56 709.777 170.268C707.669 181.977 704.157 192.983 699.239 203.286C695.258 211.482 689.872 219.912 683.082 228.576C676.291 237.006 668.563 245.085 659.899 252.813C651.235 260.54 641.868 267.799 631.799 274.59C621.964 281.381 611.894 287.352 601.591 292.504C591.522 297.422 581.453 301.402 571.383 304.447C561.548 307.257 552.299 308.662 543.634 308.662C535.673 308.662 528.531 307.257 522.208 304.447C515.885 301.871 510.734 297.539 506.753 291.45C503.24 286.064 501.367 277.869 501.133 266.863C501.133 255.623 502.187 242.978 504.294 228.927C506.636 214.643 509.797 199.891 513.778 184.67C517.993 169.214 522.442 154.813 527.126 141.466C531.809 127.884 536.492 116.058 541.176 105.989C546.093 95.6856 550.425 88.7777 554.172 85.2651ZM584.731 206.447C584.263 208.555 585.199 209.843 587.541 210.311C589.648 210.779 590.936 209.96 591.405 207.852C593.512 195.207 597.961 184.201 604.752 174.835C611.777 165.468 621.144 158.091 632.853 152.706C634.96 151.769 635.663 150.13 634.96 147.788C634.492 146.851 633.672 146.266 632.501 146.032C631.565 145.798 630.628 145.915 629.691 146.383C617.514 151.769 607.445 159.848 599.484 170.619C591.522 181.391 586.604 193.334 584.731 206.447Z" fill="white"/>
<path fill-rule="evenodd" clip-rule="evenodd" d="M677.37 74.7926L677.387 74.8015C689.673 81.2004 699.298 89.8102 705.945 100.71C712.338 111.196 716.313 122.598 717.855 134.847C719.603 146.895 719.34 159.152 717.101 171.587C714.881 183.921 711.171 195.564 705.956 206.492L705.945 206.515L705.934 206.538C701.68 215.294 695.991 224.17 688.939 233.167L688.908 233.206L688.877 233.245C681.813 242.015 673.8 250.387 664.853 258.367C655.937 266.318 646.315 273.774 635.994 280.737C625.893 287.71 615.535 293.853 604.919 299.161L604.888 299.176L604.857 299.191C594.453 304.273 584.012 308.404 573.537 311.57L573.483 311.587L573.428 311.603C563.045 314.569 553.102 316.104 543.635 316.104C534.83 316.104 526.671 314.554 519.291 311.294C511.525 308.104 505.254 302.756 500.525 295.523L500.52 295.516C495.882 288.404 493.938 278.544 493.693 267.021L493.691 266.942V266.863C493.691 255.172 494.786 242.149 496.935 227.824L496.943 227.774L496.951 227.724C499.333 213.192 502.544 198.213 506.579 182.787L506.588 182.749L506.599 182.712C510.852 167.116 515.351 152.55 520.097 139.021C524.839 125.271 529.613 113.204 534.428 102.851L534.444 102.817L534.46 102.784C539.393 92.4486 544.205 84.43 549.039 79.8776C556.993 72.2009 566.529 66.9235 577.497 64.0376C588.007 61.0427 598.975 59.5586 610.373 59.5586C622.872 59.5586 634.937 61.0261 646.547 63.9822C658.211 66.6613 668.51 70.2362 677.353 74.7838L677.37 74.7926ZM644.795 71.2154C633.79 68.4054 622.315 67.0004 610.373 67.0004C599.601 67.0004 589.298 68.4054 579.463 71.2154C569.627 73.7913 561.197 78.4746 554.172 85.2655C550.426 88.778 546.094 95.686 541.176 105.989C536.493 116.059 531.809 127.884 527.126 141.466C522.443 154.814 517.993 169.215 513.778 184.67C509.797 199.891 506.636 214.644 504.295 228.928C502.187 242.978 501.133 255.623 501.133 266.863C501.367 277.869 503.241 286.065 506.753 291.451C510.734 297.539 515.886 301.871 522.208 304.447C528.531 307.257 535.673 308.662 543.635 308.662C552.299 308.662 561.549 307.257 571.384 304.447C581.453 301.403 591.522 297.422 601.591 292.504C611.895 287.353 621.964 281.381 631.799 274.591C641.868 267.8 651.235 260.54 659.899 252.813C668.564 245.085 676.291 237.007 683.082 228.577C689.873 219.912 695.259 211.482 699.24 203.286C704.157 192.983 707.67 181.977 709.777 170.269C711.885 158.56 712.119 147.086 710.48 135.846C709.075 124.606 705.445 114.185 699.591 104.584C693.737 94.9835 685.19 87.256 673.949 81.4017C665.754 77.1867 656.036 73.7913 644.795 71.2154ZM591.763 205.842C593.994 194.037 598.324 183.702 604.753 174.835C604.804 174.766 604.856 174.697 604.908 174.629C611.636 165.73 620.49 158.639 631.472 153.356C631.829 153.184 632.188 153.014 632.55 152.846C632.651 152.799 632.752 152.753 632.853 152.706C634.96 151.769 635.663 150.13 634.96 147.788C634.492 146.852 633.672 146.266 632.502 146.032C631.662 145.822 630.823 145.895 629.983 146.249C629.955 146.261 629.927 146.273 629.899 146.285C629.83 146.316 629.761 146.349 629.692 146.383C629.372 146.525 629.055 146.668 628.738 146.812C616.988 152.195 607.237 160.13 599.484 170.62C599.442 170.676 599.4 170.733 599.359 170.789C599.337 170.819 599.316 170.848 599.294 170.877C591.797 181.101 587.032 192.375 585 204.7C584.909 205.255 584.823 205.813 584.742 206.372C584.739 206.397 584.735 206.422 584.731 206.448C584.71 206.544 584.691 206.638 584.676 206.731C584.351 208.671 585.307 209.864 587.541 210.311C589.624 210.774 590.906 209.979 591.388 207.927C591.394 207.902 591.4 207.878 591.405 207.853C591.43 207.705 591.454 207.558 591.48 207.412C591.57 206.886 591.664 206.362 591.763 205.842Z" fill="black"/>
</g>
<g>
<path d="M521.942 159.985C520.303 167.244 517.61 175.44 513.863 184.572C510.117 193.705 505.667 202.603 500.516 211.268C495.364 219.932 489.51 227.777 482.953 234.802C476.631 241.827 469.84 246.978 462.58 250.257C459.302 251.662 455.321 252.95 450.638 254.12C445.955 255.057 441.271 255.525 436.588 255.525C431.904 255.525 427.455 254.94 423.24 253.769C419.025 252.364 415.396 250.023 412.351 246.744C409.307 243.466 407.551 239.602 407.083 235.153C406.614 230.469 406.38 223.913 406.38 215.483C406.614 201.198 408.371 187.382 411.649 174.035C415.161 160.687 419.376 147.34 424.294 133.992C424.996 132.119 424.528 130.831 422.889 130.128C421.952 129.66 421.25 129.777 420.781 130.48C420.313 130.948 419.962 131.416 419.728 131.885C417.386 137.973 414.81 144.881 412 152.609C409.424 160.102 406.497 167.947 403.219 176.142C400.175 184.104 396.779 192.066 393.033 200.028C389.286 207.755 384.954 215.014 380.036 221.805C375.353 228.362 370.084 234.216 364.23 239.368C358.376 244.52 351.936 248.383 344.911 250.959C338.588 253.067 332.968 254.12 328.051 254.12C321.962 254.12 317.162 252.715 313.649 249.905C312.244 248.735 310.957 247.213 309.786 245.339C308.615 243.466 307.678 240.773 306.976 237.26C306.273 233.514 305.922 228.713 305.922 222.859C305.922 217.005 306.507 209.511 307.678 200.379C310.02 183.05 314.118 165.488 319.972 147.691C325.826 129.894 333.32 112.8 342.452 96.4081C351.819 80.0163 362.708 65.0296 375.119 51.4478C387.764 37.6319 401.814 26.2747 417.269 17.3763C421.952 14.8005 426.519 12.9271 430.968 11.7563C435.651 10.5854 440.335 10 445.018 10C452.745 10 460.122 11.5221 467.147 14.5663C474.172 17.6105 480.729 21.7084 486.817 26.8601C493.139 31.7777 498.877 37.5148 504.028 44.0715C509.18 50.6282 513.629 57.4191 517.376 64.4441C522.059 73.3425 525.22 82.358 526.86 91.4906C528.499 100.389 529.201 109.053 528.967 117.483C528.733 125.679 527.796 133.407 526.157 140.666C524.752 147.925 523.347 154.365 521.942 159.985ZM445.018 55.3116C447.36 54.3749 448.062 52.7357 447.125 50.394C446.657 49.2232 445.837 48.6378 444.667 48.6378C443.496 48.4036 442.559 48.5207 441.857 48.989C432.022 53.9066 424.528 60.5804 419.376 69.0104C414.225 77.2063 410.712 86.573 408.839 97.1106C408.605 98.2815 408.839 99.2181 409.541 99.9206C410.244 100.623 411.063 100.974 412 100.974C414.108 101.443 415.396 100.389 415.864 97.8131C416.332 94.3006 417.035 90.9052 417.971 87.6268C419.142 84.1143 420.43 80.7188 421.835 77.4405C425.582 70.6496 429.563 65.615 433.778 62.3366C438.227 59.0583 441.974 56.7166 445.018 55.3116Z" fill="white"/>
<path fill-rule="evenodd" clip-rule="evenodd" d="M424.402 133.682C424.476 133.446 424.531 133.219 424.566 133.003C424.781 131.658 424.222 130.7 422.889 130.129C421.953 129.66 421.25 129.777 420.782 130.48C420.313 130.948 419.962 131.417 419.728 131.885C419.684 132 419.64 132.115 419.595 132.23C419.592 132.239 419.588 132.248 419.585 132.257C419.162 133.358 418.732 134.485 418.294 135.638C416.346 140.771 414.248 146.428 412.001 152.609C409.838 158.9 407.428 165.439 404.77 172.225C404.756 172.262 404.741 172.298 404.727 172.335C404.456 173.027 404.182 173.721 403.906 174.418C403.679 174.991 403.45 175.566 403.219 176.143C400.175 184.105 396.78 192.066 393.033 200.028C389.286 207.756 384.954 215.015 380.037 221.806C375.353 228.362 370.084 234.217 364.23 239.368C358.376 244.52 351.936 248.384 344.911 250.96C338.589 253.067 332.969 254.121 328.051 254.121C321.963 254.121 317.162 252.716 313.65 249.906C312.245 248.735 310.957 247.213 309.786 245.34C308.615 243.466 307.679 240.773 306.976 237.261C306.274 233.514 305.922 228.714 305.922 222.859C305.922 217.005 306.508 209.512 307.679 200.379C310.02 183.051 314.118 165.488 319.972 147.691C325.827 129.895 333.32 112.8 342.453 96.4085C351.819 80.0167 362.708 65.0299 375.119 51.4482C387.764 37.6322 401.814 26.2751 417.269 17.3767C421.953 14.8008 426.519 12.9275 430.968 11.7567C435.652 10.5858 440.335 10.0004 445.018 10.0004C452.746 10.0004 460.122 11.5225 467.147 14.5667C474.172 17.6109 480.729 21.7088 486.817 26.8605C493.14 31.778 498.877 37.5152 504.029 44.0719C509.18 50.6286 513.63 57.4195 517.376 64.4445C522.06 73.3429 525.221 82.3584 526.86 91.491C528.499 100.389 529.202 109.054 528.968 117.484C528.733 125.68 527.797 133.407 526.158 140.666C524.753 147.926 523.348 154.365 521.943 159.985C520.303 167.244 517.61 175.44 513.864 184.573C510.117 193.705 505.668 202.604 500.516 211.268C495.364 219.932 489.51 227.777 482.954 234.802C476.631 241.827 469.84 246.979 462.581 250.257C459.303 251.662 455.322 252.95 450.638 254.121C445.955 255.058 441.272 255.526 436.588 255.526C431.905 255.526 427.456 254.94 423.241 253.77C419.026 252.365 415.396 250.023 412.352 246.745C409.308 243.466 407.551 239.602 407.083 235.153C406.615 230.47 406.38 223.913 406.38 215.483C406.599 202.125 408.149 189.177 411.03 176.639C411.23 175.769 411.437 174.901 411.649 174.035C413.36 167.533 415.238 161.031 417.282 154.53C417.292 154.498 417.302 154.466 417.312 154.435C419.125 148.676 421.068 142.917 423.142 137.157C423.504 136.152 423.87 135.146 424.24 134.141C424.258 134.091 424.276 134.042 424.294 133.993C424.334 133.887 424.37 133.784 424.402 133.682ZM399.454 203.84C399.174 207.649 399.003 211.49 398.94 215.361L398.939 215.422V215.483C398.939 224 399.173 230.844 399.678 235.894L399.68 235.913L399.682 235.932C400.319 241.983 402.759 247.35 406.898 251.808C410.786 255.995 415.479 259.027 420.887 260.83L421.067 260.889L421.249 260.94C426.157 262.303 431.279 262.968 436.588 262.968C441.771 262.968 446.943 262.449 452.098 261.418L452.271 261.383L452.443 261.34C457.387 260.105 461.767 258.702 465.512 257.097L465.578 257.069L465.644 257.039C473.982 253.274 481.567 247.456 488.44 239.83C495.358 232.41 501.514 224.151 506.913 215.071C512.247 206.1 516.86 196.875 520.749 187.397C524.591 178.031 527.426 169.457 529.183 161.708C530.613 155.978 532.032 149.468 533.442 142.191C535.181 134.453 536.161 126.282 536.406 117.696L536.407 117.69C536.656 108.708 535.906 99.5273 534.182 90.1588C532.396 80.2214 528.968 70.49 523.962 60.9785L523.952 60.9605L523.943 60.9425C519.981 53.5142 515.289 46.3583 509.88 39.4742C504.402 32.5023 498.279 26.3634 491.507 21.0804C484.918 15.5237 477.782 11.0646 470.106 7.73841C462.138 4.28564 453.754 2.55859 445.018 2.55859C439.708 2.55859 434.419 3.2232 429.163 4.53707L429.119 4.54821L429.074 4.5599C423.949 5.90854 418.817 8.03251 413.683 10.8561L413.619 10.8912L413.556 10.9275C397.407 20.2256 382.764 32.073 369.629 46.4238L369.625 46.4282C356.834 60.426 345.623 75.8601 335.991 92.7163L335.971 92.7513L335.952 92.7866C326.589 109.591 318.905 127.119 312.903 145.366C306.917 163.565 302.711 181.572 300.304 199.383L300.3 199.408L300.297 199.433C299.106 208.724 298.48 216.563 298.48 222.859C298.48 228.957 298.842 234.261 299.662 238.632L299.67 238.676L299.679 238.72C300.462 242.635 301.625 246.322 303.475 249.284C304.98 251.692 306.764 253.854 308.886 255.623L308.943 255.67L309.001 255.717C314.233 259.902 320.868 261.563 328.051 261.563C333.996 261.563 340.434 260.296 347.265 258.02L347.369 257.985L347.473 257.947C355.399 255.04 362.63 250.689 369.146 244.955C375.435 239.421 381.079 233.147 386.078 226.151C391.131 219.171 395.589 211.732 399.454 203.84ZM443.691 55.9607C444.024 55.7895 444.349 55.6282 444.667 55.4768C444.785 55.4205 444.902 55.3655 445.018 55.312C445.31 55.1953 445.576 55.0677 445.817 54.9293C447.51 53.9561 447.946 52.4445 447.126 50.3944C446.657 49.2236 445.838 48.6382 444.667 48.6382C443.767 48.4581 443.005 48.4857 442.382 48.7209C442.265 48.7648 442.154 48.816 442.047 48.8744C441.982 48.91 441.919 48.9484 441.857 48.9894C441.602 49.1168 441.349 49.2452 441.098 49.3749C436.879 51.55 433.102 54.0562 429.767 56.8937C429.723 56.9317 429.678 56.9698 429.633 57.008C425.547 60.5081 422.128 64.509 419.377 69.0108C418.282 70.7526 417.261 72.5472 416.314 74.3947C416.219 74.5804 416.125 74.7666 416.031 74.9533C414.348 78.3093 412.907 81.8378 411.707 85.5388C411.677 85.6297 411.648 85.7208 411.618 85.8119C410.627 88.908 409.803 92.1242 409.148 95.4605C409.077 95.8238 409.007 96.1884 408.94 96.5545C408.92 96.6636 408.9 96.7729 408.88 96.8823C408.866 96.9585 408.853 97.0347 408.839 97.111C408.605 98.2818 408.839 99.2185 409.542 99.921C410.244 100.624 411.064 100.975 412.001 100.975C413.914 101.4 415.152 100.57 415.714 98.486C415.727 98.438 415.74 98.3893 415.752 98.3399C415.794 98.1721 415.831 97.9967 415.864 97.8135C415.913 97.451 415.963 97.0898 416.017 96.7299C416.48 93.6015 417.132 90.5672 417.972 87.6272C419.143 84.1146 420.431 80.7192 421.836 77.4409C422.821 75.6542 423.823 73.9892 424.841 72.4457C424.856 72.423 424.871 72.4003 424.886 72.3777C427.724 68.0871 430.688 64.7402 433.778 62.337C437.556 59.5535 440.827 57.4453 443.592 56.0123C443.622 55.9966 443.652 55.9811 443.682 55.9656C443.685 55.964 443.688 55.9623 443.691 55.9607ZM412.001 97.4622L412.145 97.3176L412.001 97.4622L411.822 97.6412L412.001 97.4622Z" fill="black"/>
</g>
<g>
<path d="M28.1092 36.6922C32.0901 27.5596 38.5297 21.0029 47.4281 17.0221C56.5607 13.0412 66.8641 11.0508 78.3383 11.0508C87.9392 11.0508 97.7743 12.3387 107.844 14.9145C118.147 17.4904 127.982 21.0029 137.349 25.4521C146.95 29.9013 155.614 35.2872 163.341 41.6097C171.303 47.9323 177.626 54.9573 182.309 62.6849C186.992 70.1783 189.685 78.2571 190.388 86.9213C191.325 95.3514 189.451 104.133 184.768 113.265C180.787 122.866 175.986 129.54 170.366 133.287C164.981 136.799 159.243 138.555 153.155 138.555C148.94 138.555 144.725 137.97 140.51 136.799C136.295 135.394 132.197 133.755 128.216 131.882C124.235 129.774 120.372 127.55 116.625 125.208C113.112 122.866 109.834 120.642 106.79 118.534C106.321 118.3 105.619 118.066 104.682 117.832C103.98 117.363 103.16 117.714 102.223 118.885C101.053 120.056 100.818 121.11 101.521 122.047C102.458 122.983 103.16 123.686 103.628 124.154C111.356 130.242 119.084 136.565 126.811 143.122C134.773 149.678 142.149 156.821 148.94 164.548C155.731 172.041 161.585 180.237 166.503 189.136C171.42 197.8 174.581 207.401 175.986 217.938C176.455 222.856 175.869 227.422 174.23 231.637C172.825 235.852 170.601 239.482 167.556 242.526C164.746 245.336 161.351 247.561 157.37 249.2C153.389 250.839 149.174 251.659 144.725 251.659C138.637 251.659 132.548 249.902 126.46 246.39C120.84 243.112 115.571 237.492 110.654 229.53C105.736 221.568 101.17 212.787 96.9547 203.186C92.9738 193.351 89.3442 183.75 86.0659 174.383C83.0217 164.782 80.5629 157.055 78.6896 151.201C78.2212 150.264 77.7529 149.444 77.2845 148.742C76.8162 147.805 75.8795 147.454 74.4745 147.688C72.8354 148.156 72.0158 149.093 72.0158 150.498C72.0158 151.669 72.2499 153.308 72.7183 155.416C74.1233 161.036 75.4112 167.592 76.582 175.086C77.9871 182.345 78.9237 189.838 79.3921 197.566C79.8604 205.293 79.8604 212.904 79.3921 220.397C79.1579 227.891 78.1041 234.682 76.2308 240.77C74.3574 246.624 71.6645 251.425 68.152 255.171C64.6395 258.684 59.9561 260.44 54.1019 260.44C50.8235 260.44 47.0768 259.738 42.8618 258.333C38.8809 257.162 34.4317 255.054 29.5142 252.01C24.5967 249.2 20.6158 244.4 17.5716 237.609C14.5274 230.584 12.1858 222.388 10.5466 213.021C9.14157 203.654 8.32198 193.351 8.08781 182.111C7.85364 170.871 8.08781 159.396 8.79032 147.688C9.49282 135.98 10.5466 124.388 11.9516 112.914C13.5908 101.206 15.2299 90.4338 16.8691 80.5988C18.7425 70.5295 20.6158 61.7482 22.4892 54.2548C24.5967 46.5273 26.47 40.6731 28.1092 36.6922ZM127.162 88.3263C128.333 87.858 128.919 87.1555 128.919 86.2188C129.153 85.048 129.036 84.1113 128.567 83.4088C124.587 75.6812 119.201 69.2416 112.41 64.0899C105.619 58.704 98.9451 55.4257 92.3884 54.2548C86.0659 52.8498 80.9142 52.2644 76.9333 52.4986C76.2308 52.4986 75.5283 52.8498 74.8258 53.5523C74.1233 54.0207 73.772 54.7232 73.772 55.6599C73.772 56.5965 74.1233 57.4161 74.8258 58.1186C75.5283 58.587 76.2308 58.8211 76.9333 58.8211C80.2116 58.5869 84.6609 59.0553 90.2809 60.2261C96.1351 61.397 102.106 64.3241 108.195 69.0074C114.283 73.4566 118.849 78.9596 121.894 85.5163C122.128 85.9846 122.713 86.6871 123.65 87.6238C124.587 88.5605 125.757 88.7946 127.162 88.3263Z" fill="white"/>
<path fill-rule="evenodd" clip-rule="evenodd" d="M21.2573 33.7888L21.2877 33.719C25.9916 22.9277 33.7576 14.9858 44.3895 10.2295L44.4221 10.2149L44.4548 10.2006C54.6572 5.75341 65.9954 3.60938 78.3387 3.60938C88.6043 3.60938 99.0528 4.98622 109.669 7.70033C120.42 10.3894 130.703 14.0598 140.51 18.7154C150.615 23.4011 159.792 29.0967 168.012 35.8161C176.545 42.5993 183.464 50.2458 188.647 58.7845C193.915 67.2271 196.984 76.3982 197.797 86.2117C198.887 96.247 196.62 106.362 191.527 116.392C187.28 126.543 181.771 134.628 174.495 139.479L174.464 139.5L174.432 139.52C167.908 143.775 160.77 145.998 153.155 145.998C148.545 145.998 143.959 145.396 139.413 144.211C144.715 149.062 149.742 154.19 154.493 159.593C161.646 167.493 167.815 176.132 172.996 185.499C178.404 195.039 181.843 205.55 183.363 216.955L183.382 217.094L183.395 217.233C183.957 223.135 183.279 228.819 181.233 234.164C179.47 239.367 176.664 243.943 172.819 247.789C169.258 251.35 165.017 254.1 160.204 256.082C155.294 258.103 150.113 259.101 144.725 259.101C137.141 259.101 129.784 256.899 122.741 252.836L122.726 252.827L122.711 252.818C115.676 248.715 109.619 242.015 104.322 233.441C99.2027 225.152 94.479 216.059 90.141 206.178L90.0975 206.079L90.0569 205.978C88.9691 203.291 87.9068 200.62 86.8703 197.965C87.3041 205.658 87.2906 213.252 86.8269 220.747C86.5682 228.746 85.4332 236.169 83.3439 242.959L83.3316 242.999L83.3189 243.038C81.1743 249.74 77.9836 255.566 73.5814 260.261L73.4994 260.349L73.4145 260.434C68.2593 265.589 61.5509 267.882 54.1023 267.882C49.8342 267.882 45.3115 266.983 40.6326 265.434C35.8876 264.021 30.8974 261.61 25.703 258.403C19.1044 254.592 14.248 248.387 10.7813 240.653L10.7623 240.611L10.7438 240.568C7.41885 232.895 4.93345 224.115 3.21657 214.304L3.20095 214.215L3.18751 214.125C1.72762 204.393 0.887625 193.767 0.648021 182.266C0.409505 170.817 0.648281 159.143 1.36227 147.243C2.07384 135.383 3.14141 123.639 4.56535 112.01L4.57316 111.946L4.58206 111.883C6.22861 100.122 7.87744 89.2849 9.52897 79.3757L9.54047 79.3067L9.55326 79.238C11.446 69.0646 13.3503 60.1289 15.2699 52.4503L15.2891 52.3735L15.31 52.2972C17.4423 44.4785 19.4114 38.2716 21.2283 33.8591L21.2573 33.7888ZM29.5146 252.01C34.4321 255.055 38.8813 257.162 42.8622 258.333C47.0772 259.738 50.8239 260.44 54.1023 260.44C59.9565 260.44 64.6398 258.684 68.1524 255.172C71.6649 251.425 74.3578 246.624 76.2312 240.77C78.1045 234.682 79.1583 227.891 79.3924 220.398C79.8608 212.904 79.8608 205.294 79.3924 197.566C78.9241 189.839 77.9874 182.345 76.5824 175.086C75.7827 169.968 74.9283 165.286 74.0192 161.042C73.5975 159.072 73.1639 157.197 72.7187 155.416C72.6328 155.029 72.5547 154.659 72.4846 154.304C72.4737 154.248 72.4629 154.193 72.4524 154.139C72.3926 153.83 72.339 153.533 72.2915 153.248C72.2282 152.869 72.1758 152.512 72.1344 152.176C72.0987 151.887 72.0712 151.615 72.0516 151.359C72.028 151.048 72.0161 150.762 72.0161 150.498C72.0161 149.093 72.8357 148.157 74.4749 147.688C75.8799 147.454 76.8166 147.805 77.2849 148.742C77.6323 149.263 77.9796 149.849 78.327 150.498C78.448 150.725 78.569 150.959 78.6899 151.201C78.8094 151.574 78.9313 151.955 79.0556 152.344C79.1991 152.793 79.3459 153.252 79.4958 153.722C79.5144 153.78 79.5332 153.839 79.5519 153.897C80.07 155.52 80.6258 157.262 81.219 159.125C82.624 163.537 84.2398 168.623 86.0662 174.384C89.3446 183.75 92.9742 193.351 96.9551 203.186C101.17 212.787 105.736 221.568 110.654 229.53C115.571 237.492 120.84 243.112 126.46 246.39C132.549 249.903 138.637 251.659 144.725 251.659C149.175 251.659 153.39 250.84 157.37 249.2C161.351 247.561 164.747 245.337 167.557 242.527C170.601 239.482 172.826 235.853 174.231 231.638C175.87 227.423 176.455 222.856 175.987 217.939C174.582 207.401 171.421 197.8 166.503 189.136C161.586 180.238 155.731 172.042 148.94 164.548C142.15 156.821 134.773 149.679 126.812 143.122C122.321 139.312 117.83 135.581 113.339 131.928C113.137 131.764 112.935 131.6 112.733 131.436C112.677 131.39 112.621 131.345 112.565 131.299C109.958 129.184 107.351 127.097 104.745 125.035C104.457 124.807 104.169 124.58 103.881 124.353C103.797 124.287 103.713 124.221 103.629 124.154L101.521 122.047C100.819 121.11 101.053 120.057 102.224 118.886C103.161 117.715 103.98 117.364 104.683 117.832C104.983 117.907 105.259 117.982 105.511 118.057C105.862 118.161 106.166 118.266 106.424 118.37C106.559 118.425 106.681 118.48 106.79 118.534C107.062 118.722 107.335 118.911 107.61 119.101C107.821 119.246 108.032 119.392 108.245 119.538C108.305 119.579 108.364 119.62 108.424 119.661C110.999 121.431 113.733 123.28 116.625 125.208C116.969 125.423 117.314 125.637 117.659 125.85C121.082 127.957 124.601 129.968 128.217 131.882C132.197 133.755 136.295 135.395 140.51 136.8C144.725 137.97 148.94 138.556 153.155 138.556C159.244 138.556 164.981 136.8 170.367 133.287C175.987 129.54 180.787 122.867 184.768 113.266C189.452 104.133 191.325 95.3517 190.388 86.9217C189.686 78.2575 186.993 70.1787 182.309 62.6853C177.626 54.9577 171.303 47.9327 163.342 41.6101C155.614 35.2876 146.95 29.9017 137.349 25.4525C127.982 21.0033 118.147 17.4908 107.844 14.9149C97.7747 12.3391 87.9396 11.0512 78.3387 11.0512C66.8644 11.0512 56.561 13.0416 47.4285 17.0225C38.5301 21.0033 32.0904 27.56 28.1096 36.6926C26.4704 40.6735 24.5971 46.5277 22.4895 54.2552C20.6162 61.7486 18.7429 70.5299 16.8695 80.5991C15.2303 90.4342 13.5912 101.206 11.952 112.914C10.547 124.389 9.49321 135.98 8.7907 147.688C8.0882 159.397 7.85403 170.871 8.0882 182.111C8.32236 193.351 9.14195 203.655 10.547 213.021C12.1861 222.388 14.5278 230.584 17.572 237.609C20.6162 244.4 24.5971 249.2 29.5146 252.01ZM76.4854 52.5466C75.9324 52.6643 75.3793 52.9996 74.8262 53.5527C74.1237 54.021 73.7724 54.7236 73.7724 55.6602C73.7724 56.5969 74.1237 57.4165 74.8262 58.119C75.5287 58.5873 76.2312 58.8215 76.9337 58.8215C77.0556 58.8128 77.1791 58.8051 77.3042 58.7983C77.6259 58.7809 77.9583 58.7699 78.3013 58.7654C78.8451 58.7582 79.4157 58.7671 80.0133 58.7921C80.0314 58.7929 80.0496 58.7936 80.0678 58.7944C82.8802 58.9165 86.2847 59.3939 90.2813 60.2265C90.5295 60.2761 90.778 60.329 91.0266 60.3849C91.1123 60.4042 91.198 60.4239 91.2837 60.4439C96.8167 61.7368 102.454 64.5915 108.195 69.0078C108.262 69.0564 108.328 69.1052 108.394 69.154C108.431 69.1816 108.469 69.2092 108.506 69.2368C114.245 73.5014 118.609 78.7186 121.596 84.8884C121.598 84.8934 121.601 84.8984 121.603 84.9034C121.612 84.9207 121.62 84.938 121.628 84.9554C121.718 85.1416 121.807 85.3287 121.894 85.5167C121.991 85.7107 122.148 85.9448 122.366 86.2192C122.434 86.3053 122.508 86.3954 122.588 86.4894C122.738 86.6645 122.907 86.8533 123.098 87.0558C123.266 87.2346 123.45 87.424 123.65 87.6242C124.587 88.5609 125.758 88.795 127.163 88.3267C128.334 87.8584 128.919 87.1559 128.919 86.2192C129.153 85.0483 129.036 84.1117 128.568 83.4092C128.488 83.2547 128.408 83.1006 128.327 82.9472C128.268 82.8352 128.209 82.7236 128.15 82.6122C128.118 82.5534 128.087 82.4946 128.055 82.436C127.878 82.1055 127.697 81.7774 127.514 81.4518C123.654 74.5879 118.619 68.8007 112.41 64.0903C112.32 64.0192 112.231 63.9484 112.141 63.878C112.099 63.8451 112.058 63.8124 112.016 63.7797C105.361 58.5782 98.8185 55.4034 92.3888 54.2552C92.1112 54.1935 91.8359 54.1334 91.5628 54.0749C91.5465 54.0714 91.5301 54.0679 91.5137 54.0644C86.4264 52.9765 82.1239 52.438 78.6063 52.4489C78.0275 52.4507 77.47 52.4674 76.9337 52.499C76.7843 52.499 76.6349 52.5149 76.4854 52.5466Z" fill="black"/>
</g>

</svg>
