<svg width="868" height="457" viewBox="0 0 868 457" fill="none" xmlns="http://www.w3.org/2000/svg">
<g>
<path d="M847.1 117.034C842.848 126.845 835.653 134.858 825.515 141.071C815.704 147.285 802.459 150.392 785.781 150.392C776.624 150.392 766.322 149.411 754.876 147.448C743.43 145.159 730.839 141.562 717.104 136.656C715.142 136.002 713.506 136.166 712.198 137.147C710.89 138.128 710.563 139.763 711.217 142.052C720.701 181.95 724.462 221.031 722.5 259.294C722.173 272.048 721.355 284.475 720.047 296.576C719.066 308.349 716.45 318.977 712.198 328.461C708.274 337.618 702.06 345.14 693.557 351.026C685.055 356.586 673.118 359.366 657.747 359.366C647.609 358.385 638.943 355.278 631.748 350.045C624.553 344.813 618.667 338.272 614.088 330.423C609.51 322.575 606.076 314.072 603.787 304.915C601.498 295.431 600.19 286.11 599.862 276.953C599.208 256.023 599.372 234.766 600.353 213.182C601.661 191.598 604.604 169.523 609.183 146.958C609.837 144.996 609.346 143.36 607.711 142.052C606.403 140.417 604.604 140.417 602.315 142.052C591.85 148.593 580.404 153.662 567.977 157.259C555.877 160.857 543.94 162.655 532.167 162.655C523.337 162.655 514.997 161.674 507.149 159.712C499.627 157.423 492.923 153.826 487.036 148.92C481.149 144.015 476.407 137.801 472.81 130.279C469.213 122.757 467.414 113.6 467.414 102.808C467.414 88.4189 473.464 75.8281 485.564 65.0361C497.665 54.244 513.526 45.087 533.148 37.5653C553.097 30.0435 575.499 24.484 600.353 20.8866C625.208 16.9622 650.389 15 675.898 15C701.733 15 726.588 17.1257 750.461 21.3772C774.335 25.3015 794.611 31.5152 811.289 40.018C827.968 48.1938 839.905 58.6589 847.1 71.4132C854.621 84.1675 854.621 99.3745 847.1 117.034Z" fill="white"/>
<path fill-rule="evenodd" clip-rule="evenodd" d="M860.468 122.777L860.45 122.819C854.89 135.649 845.553 145.833 833.207 153.422C820.277 161.578 804.031 164.941 785.78 164.941C775.615 164.941 764.471 163.855 752.417 161.789L752.219 161.755L752.022 161.715C744.742 160.259 737.111 158.327 729.137 155.935C736.121 191.092 738.773 225.74 737.04 259.852C736.702 272.859 735.867 285.565 734.531 297.965C733.424 311.044 730.48 323.21 725.524 334.304C720.476 346.023 712.467 355.631 701.839 362.989L701.681 363.099L701.52 363.204C689.726 370.915 674.592 373.915 657.747 373.915H657.044L656.345 373.848C644.003 372.653 632.774 368.783 623.19 361.812C614.33 355.369 607.091 347.305 601.52 337.754C596.222 328.672 592.28 318.882 589.671 308.443L589.656 308.386L589.642 308.328C587.139 297.956 585.685 287.666 585.321 277.472L585.32 277.44L585.319 277.407C584.653 256.094 584.82 234.465 585.817 212.521L585.822 212.411L585.829 212.301C586.785 196.525 588.585 180.526 591.221 164.306C585.07 167 578.685 169.304 572.073 171.22C558.741 175.179 545.425 177.205 532.166 177.205C522.254 177.205 512.722 176.103 503.619 173.827L503.263 173.738L502.912 173.631C493.581 170.791 485.139 166.279 477.721 160.097C470.088 153.737 464.103 145.798 459.683 136.556C454.915 126.586 452.863 115.157 452.863 102.808C452.863 83.7201 461.12 67.3405 475.879 54.1767C489.619 41.922 507.135 31.9535 527.939 23.9785L527.976 23.9642L528.014 23.9501C549.078 16.0078 572.494 10.2221 598.175 6.49932C623.761 2.46448 649.671 0.449219 675.897 0.449219C702.499 0.449219 728.178 2.63536 752.917 7.03487C777.775 11.1289 799.502 17.693 817.796 27.0031C836.309 36.0972 850.733 48.3071 859.704 64.1441C870.169 81.989 869.209 102.255 860.486 122.735L860.468 122.777ZM847.099 71.4126C839.904 58.6583 827.967 48.1933 811.289 40.0174C794.61 31.5146 774.334 25.301 750.461 21.3766C726.587 17.1251 701.733 14.9994 675.897 14.9994C650.389 14.9994 625.207 16.9616 600.352 20.886C575.498 24.4834 553.096 30.0429 533.147 37.5647C513.525 45.0865 497.664 54.2434 485.564 65.0355C473.464 75.8276 467.413 88.4183 467.413 102.808C467.413 113.6 469.212 122.757 472.81 130.279C476.407 137.8 481.149 144.014 487.035 148.919C492.922 153.825 499.626 157.422 507.148 159.712C514.997 161.674 523.336 162.655 532.166 162.655C543.939 162.655 555.876 160.856 567.976 157.259C577.346 154.547 586.158 150.998 594.412 146.612C594.593 146.516 594.775 146.419 594.956 146.322C595.955 145.785 596.946 145.236 597.929 144.674C598.466 144.367 599.002 144.056 599.534 143.741C600.469 143.189 601.395 142.626 602.315 142.052C604.604 140.417 606.403 140.417 607.711 142.052C609.346 143.36 609.836 144.995 609.182 146.957C608.933 148.186 608.688 149.414 608.449 150.64C608.388 150.952 608.327 151.263 608.267 151.575C608.035 152.772 607.808 153.967 607.586 155.161C607.535 155.431 607.485 155.702 607.435 155.972C603.847 175.41 601.486 194.48 600.352 213.181C599.371 234.766 599.208 256.023 599.862 276.953C600.189 286.11 601.497 295.43 603.786 304.914C606.076 314.071 609.509 322.574 614.088 330.423C618.666 338.272 624.553 344.812 631.748 350.045C638.942 355.277 647.609 358.384 657.747 359.365C673.117 359.365 685.054 356.585 693.557 351.026C702.06 345.139 708.273 337.618 712.198 328.461C716.449 318.977 719.065 308.348 720.047 296.575C721.355 284.475 722.172 272.047 722.499 259.293C724.319 223.801 721.215 187.605 713.187 150.706C713.182 150.684 713.177 150.661 713.172 150.639C713.076 150.199 712.98 149.758 712.883 149.318C712.844 149.144 712.806 148.971 712.767 148.797C712.269 146.551 711.752 144.303 711.217 142.052C710.563 139.763 710.89 138.127 712.198 137.146C713.506 136.165 715.141 136.002 717.103 136.656C719.082 137.362 721.037 138.042 722.968 138.694C723.296 138.805 723.624 138.915 723.951 139.025C724.445 139.19 724.937 139.353 725.428 139.515C725.479 139.532 725.53 139.548 725.58 139.565C736.061 143.01 745.826 145.638 754.876 147.448C766.322 149.41 776.623 150.391 785.78 150.391C802.459 150.391 815.704 147.284 825.515 141.071C835.653 134.857 842.848 126.845 847.099 117.034C854.621 99.3739 854.621 84.1669 847.099 71.4126Z" fill="black"/>
</g>

<g>
<path d="M562.649 212.027C564.938 217.587 565.756 223.146 565.102 228.706C564.448 233.938 562.812 239.007 560.196 243.913C557.58 248.818 553.983 253.397 549.404 257.648C545.153 261.572 540.247 265.17 534.688 268.44C520.952 276.616 506.236 282.83 490.538 287.081C475.168 291.333 459.797 295.747 444.426 300.326C443.118 300.98 441.81 301.471 440.502 301.798C439.521 302.125 439.194 303.106 439.521 304.741C439.848 306.376 440.502 307.357 441.483 307.684C442.791 308.011 443.936 308.011 444.917 307.684C449.495 306.703 454.728 305.885 460.615 305.231C466.828 304.577 473.205 304.25 479.746 304.25C491.519 304.25 502.965 305.885 514.084 309.156C525.204 312.099 533.052 317.822 537.631 326.325C542.863 335.482 544.499 344.639 542.536 353.796C540.574 362.953 536.159 371.946 529.292 380.776C522.424 389.279 513.43 397.291 502.311 404.813C491.192 412.335 479.255 418.875 466.501 424.435C453.747 429.668 440.502 433.919 426.767 437.189C413.031 440.46 399.95 442.095 387.523 442.095C379.02 442.095 371.171 441.441 363.976 440.133C356.782 438.497 350.404 435.881 344.845 432.284C327.839 423.781 315.575 410.373 308.054 392.059C305.437 384.864 304.456 373.745 305.11 358.701C306.091 343.658 308.544 326.816 312.469 308.175C316.393 289.207 321.462 269.585 327.676 249.309C333.889 229.033 340.757 210.065 348.279 192.405C355.8 174.745 363.813 159.538 372.316 146.784C381.146 133.703 389.975 125.363 398.805 121.766C416.465 114.244 433.307 108.848 449.332 105.578C465.684 101.98 483.18 100.182 501.821 100.182C510.324 100.182 518.99 101.98 527.82 105.578C536.65 108.848 543.027 114.408 546.951 122.256C550.549 131.086 550.058 139.426 545.48 147.274C541.228 155.123 534.688 160.519 525.858 163.463C515.393 167.06 504.764 170.33 493.972 173.274C483.18 176.217 472.878 180.141 463.067 185.047C462.086 185.701 460.942 186.355 459.633 187.009C458.652 187.663 458.489 188.808 459.143 190.443C459.797 193.059 462.25 193.713 466.501 192.405C469.444 191.424 474.677 190.279 482.199 188.971C490.048 187.336 498.55 185.864 507.707 184.556C520.135 182.921 531.09 183.739 540.574 187.009C550.058 190.279 557.416 198.619 562.649 212.027Z" fill="white"/>
<path fill-rule="evenodd" clip-rule="evenodd" d="M483.003 304.294C493.633 304.568 503.994 306.189 514.085 309.157C525.204 312.1 533.053 317.824 537.632 326.326C542.864 335.483 544.499 344.64 542.537 353.797C540.575 362.954 536.16 371.947 529.292 380.777C522.425 389.28 513.431 397.293 502.312 404.814C491.193 412.336 479.256 418.877 466.502 424.436C453.748 429.669 440.503 433.92 426.767 437.191C413.032 440.461 399.951 442.096 387.524 442.096C379.021 442.096 371.172 441.442 363.977 440.134C356.782 438.499 350.405 435.882 344.846 432.285C327.84 423.782 315.576 410.374 308.054 392.06C305.438 384.865 304.457 373.746 305.111 358.703C306.092 343.659 308.545 326.817 312.469 308.176C316.394 289.208 321.463 269.586 327.676 249.31C333.89 229.034 340.758 210.066 348.28 192.406C355.801 174.747 363.814 159.54 372.316 146.785C381.146 133.704 389.976 125.365 398.806 121.767C416.466 114.245 433.308 108.849 449.333 105.579C465.684 101.982 483.181 100.183 501.822 100.183C510.324 100.183 518.991 101.982 527.821 105.579C536.651 108.849 543.028 114.409 546.952 122.258C550.549 131.088 550.059 139.427 545.48 147.276C541.229 155.125 534.688 160.521 525.859 163.464C518.738 165.912 511.542 168.208 504.27 170.353C500.854 171.36 497.422 172.334 493.973 173.275C489.3 174.549 484.719 176.008 480.23 177.65C480.11 177.694 479.989 177.738 479.868 177.783C476.597 178.988 473.374 180.292 470.2 181.693C468.141 182.602 466.102 183.553 464.083 184.545C464.025 184.573 463.968 184.602 463.91 184.63C463.629 184.769 463.348 184.908 463.068 185.048C462.087 185.702 460.942 186.356 459.634 187.01C458.653 187.664 458.49 188.809 459.144 190.444C459.566 192.133 460.737 193.004 462.658 193.058C462.966 193.066 463.294 193.054 463.641 193.02C464.482 192.939 465.435 192.735 466.502 192.406C466.571 192.383 466.641 192.36 466.713 192.337C467.025 192.236 467.361 192.133 467.722 192.028C469.149 191.614 470.954 191.172 473.136 190.703C475.654 190.162 478.676 189.585 482.2 188.972C487.044 187.963 492.137 187.016 497.479 186.132C500.689 185.6 503.988 185.091 507.378 184.605C507.488 184.589 507.598 184.573 507.708 184.558C520.135 182.922 531.091 183.74 540.575 187.01C550.059 190.281 557.417 198.62 562.65 212.028C564.939 217.588 565.757 223.147 565.103 228.707C564.448 233.94 562.813 239.009 560.197 243.914C557.581 248.82 553.983 253.398 549.405 257.649C545.154 261.574 540.248 265.171 534.688 268.442C520.953 276.617 506.237 282.831 490.539 287.082C487.399 287.951 484.26 288.826 481.12 289.708C480.662 289.837 480.205 289.965 479.747 290.094C473.041 291.983 466.334 293.902 459.628 295.853C459.61 295.858 459.593 295.863 459.575 295.868C457.043 296.605 454.511 297.346 451.979 298.091C449.462 298.832 446.944 299.577 444.427 300.327C444.233 300.425 444.038 300.518 443.843 300.609C443.709 300.671 443.574 300.731 443.44 300.79C443.353 300.828 443.267 300.865 443.18 300.901C443.026 300.966 442.873 301.028 442.719 301.089C441.98 301.377 441.242 301.614 440.503 301.799C439.522 302.126 439.195 303.107 439.522 304.742C439.849 306.377 440.503 307.358 441.484 307.686C441.66 307.73 441.833 307.768 442.003 307.8C442.182 307.834 442.358 307.861 442.53 307.882C443.412 307.988 444.208 307.922 444.918 307.686C445.443 307.573 445.978 307.462 446.52 307.354C446.947 307.269 447.378 307.185 447.815 307.103C449.672 306.753 451.624 306.427 453.673 306.124C455.876 305.799 458.19 305.502 460.615 305.233C466.829 304.579 473.206 304.252 479.747 304.252C480.835 304.252 481.92 304.266 483.003 304.294ZM514.962 294.292C515.979 294.564 516.994 294.848 518.006 295.144C532.058 298.908 543.525 306.7 550.353 319.262C557.056 331.064 559.561 343.797 556.764 356.846C554.262 368.523 548.732 379.483 540.778 389.71L540.696 389.816L540.612 389.92C532.659 399.765 522.516 408.713 510.465 416.866C498.581 424.905 485.858 431.872 472.316 437.774L472.171 437.838L472.025 437.898C458.555 443.424 444.59 447.904 430.138 451.345C415.445 454.843 401.227 456.646 387.524 456.646C378.285 456.646 369.553 455.936 361.374 454.449L361.062 454.393L360.752 454.322C352.363 452.415 344.603 449.332 337.635 444.944C317.709 434.779 303.291 418.76 294.595 397.588L294.482 397.312L294.38 397.032C290.746 387.039 289.902 373.536 290.575 358.071L290.582 357.913L290.592 357.756C291.627 341.878 294.198 324.343 298.226 305.203C302.25 285.76 307.434 265.707 313.765 245.047C320.113 224.332 327.152 204.88 334.893 186.705C342.683 168.414 351.102 152.376 360.21 138.714L360.233 138.679L360.257 138.645C369.718 124.628 380.519 113.546 393.201 108.34C411.536 100.537 429.248 94.8367 446.315 91.3449C463.77 87.5138 482.287 85.6328 501.822 85.6328C512.35 85.6328 522.806 87.8524 533.1 92.0189C545.008 96.4852 554.299 104.415 559.966 115.751L560.216 116.251L560.427 116.768C565.601 129.469 565.037 142.492 558.165 154.406C554.083 161.865 548.469 167.777 541.572 172.081C542.834 172.438 544.082 172.829 545.318 173.255L541.286 184.947L545.318 173.255C560.316 178.427 570.065 191.072 576.157 206.617C579.278 214.253 580.512 222.253 579.553 230.407L579.547 230.459L579.54 230.512C578.654 237.603 576.443 244.373 573.035 250.761C569.571 257.258 564.923 263.095 559.306 268.312L559.29 268.326L559.274 268.341C554.188 273.036 548.44 277.231 542.1 280.963C533.409 286.133 524.361 290.576 514.962 294.292Z" fill="black"/>
</g>
<g>
<path d="M357.63 141.071C355.014 154.48 348.473 165.435 338.008 173.938C327.543 182.441 314.952 186.692 300.236 186.692C293.041 186.692 286.01 185.548 279.142 183.259C272.274 181.296 265.243 178.19 258.048 173.938C250.854 169.687 243.659 165.108 236.464 160.203C229.597 155.297 222.892 150.392 216.352 145.486C209.811 140.254 203.925 135.512 198.692 131.26C196.403 129.625 194.441 129.625 192.805 131.26C191.497 132.568 191.17 133.877 191.824 135.185C192.805 136.166 193.786 136.983 194.768 137.637C200.981 142.543 208.176 148.102 216.352 154.316C224.855 160.53 233.521 167.397 242.351 174.919C251.181 182.114 259.847 189.799 268.35 197.975C276.853 206.151 284.375 214.654 290.915 223.484C297.456 231.986 302.525 240.816 306.122 249.973C310.047 258.803 311.682 267.633 311.028 276.463C310.047 290.525 306.286 302.462 299.745 312.273C293.532 322.084 285.519 330.096 275.708 336.31C265.897 342.524 254.778 347.102 242.351 350.045C229.924 352.662 217.006 353.97 203.597 353.97C188.881 353.97 174.328 352.498 159.939 349.555C145.876 346.612 132.795 342.524 120.695 337.291C108.267 331.732 95.3495 324.537 81.9412 315.707C68.5328 306.877 56.4326 297.066 45.6405 286.274C35.1754 275.155 26.9996 263.545 21.113 251.445C15.2264 239.018 13.5912 226.59 16.2075 214.163C17.1886 209.912 18.6603 205.497 20.6225 200.918C22.9117 196.013 25.6915 191.598 28.9618 187.673C32.5592 183.422 36.4836 179.661 40.735 176.391C45.3135 173.121 50.3825 170.668 55.942 169.033C58.8853 168.379 61.8286 167.888 64.7719 167.561C67.7152 167.234 70.495 167.07 73.1113 167.07C86.8467 167.07 98.9469 170.177 109.412 176.391C120.204 182.277 130.015 189.309 138.845 197.484C148.002 205.333 156.668 213.346 164.844 221.521C173.347 229.697 182.177 235.911 191.334 240.162C191.988 240.489 192.969 240.98 194.277 241.634C195.912 241.961 197.057 241.634 197.711 240.653C199.019 239.018 198.528 237.546 196.239 236.238C192.969 234.276 187.082 230.188 178.579 223.974C170.077 217.434 161.247 209.094 152.09 198.956C142.933 188.818 134.593 176.881 127.072 163.146C119.877 149.084 115.789 133.55 114.808 116.544C114.481 107.714 115.299 98.884 117.261 90.0541C119.55 81.2242 122.82 72.8849 127.072 65.0361C131.323 57.1873 136.556 49.9925 142.769 43.4519C148.983 36.5842 155.851 31.0246 163.372 26.7732C176.781 18.9244 191.17 15 206.541 15C231.395 15 259.193 24.3205 289.934 42.9614C297.456 47.8668 305.632 54.0805 314.462 61.6022C323.292 68.797 331.14 76.8093 338.008 85.6392C345.203 94.469 350.762 103.626 354.687 113.11C358.611 122.594 359.592 131.914 357.63 141.071Z" fill="white"/>
<path fill-rule="evenodd" clip-rule="evenodd" d="M133.773 174.563C131.471 170.906 129.238 167.1 127.072 163.145C119.877 149.083 115.789 133.549 114.808 116.543C114.481 107.713 115.299 98.8834 117.261 90.0535C119.55 81.2236 122.82 72.8843 127.072 65.0355C131.323 57.1867 136.556 49.992 142.769 43.4513C148.983 36.5836 155.851 31.024 163.372 26.7726C176.781 18.9238 191.17 14.9994 206.541 14.9994C231.395 14.9994 259.193 24.3199 289.934 42.9608C297.456 47.8663 305.632 54.0799 314.462 61.6017C323.292 68.7964 331.14 76.8087 338.008 85.6386C345.203 94.4685 350.762 103.625 354.687 113.109C358.611 122.593 359.592 131.914 357.63 141.071C355.014 154.479 348.473 165.435 338.008 173.938C327.543 182.44 314.952 186.692 300.236 186.692C293.041 186.692 286.01 185.547 279.142 183.258C276.409 182.477 273.65 181.515 270.865 180.372C266.652 178.642 262.38 176.497 258.049 173.938C254.791 172.013 251.534 170.021 248.277 167.962C248.22 167.926 248.163 167.891 248.107 167.855C244.226 165.399 240.345 162.848 236.464 160.202C231.088 156.362 225.811 152.521 220.635 148.68C220.599 148.654 220.563 148.628 220.528 148.601C219.128 147.563 217.736 146.524 216.352 145.486C212.568 142.459 209.003 139.596 205.657 136.897C203.467 135.131 201.371 133.435 199.368 131.809C199.267 131.727 199.166 131.645 199.066 131.563C199.012 131.52 198.958 131.476 198.904 131.432C198.833 131.374 198.763 131.317 198.692 131.26C198.022 130.781 197.379 130.442 196.765 130.244C195.281 129.765 193.962 130.103 192.805 131.26C191.497 132.568 191.17 133.876 191.824 135.184C192.54 135.9 193.256 136.528 193.971 137.07C194.096 137.164 194.221 137.256 194.345 137.345C194.486 137.446 194.627 137.543 194.768 137.637C196.879 139.304 199.103 141.046 201.441 142.864C204.725 145.417 208.232 148.12 211.963 150.971C212.021 151.016 212.08 151.06 212.138 151.104C213.512 152.155 214.917 153.225 216.352 154.316C221.524 158.095 226.757 162.117 232.051 166.381C232.094 166.416 232.137 166.451 232.18 166.486C235.546 169.199 238.936 172.01 242.351 174.919C245.74 177.68 249.105 180.514 252.446 183.42C255.937 186.456 259.402 189.572 262.84 192.766C264.684 194.48 266.521 196.216 268.35 197.974C276.853 206.15 284.375 214.653 290.915 223.483C297.456 231.986 302.525 240.816 306.122 249.973C310.047 258.803 311.682 267.633 311.028 276.462C310.047 290.525 306.286 302.462 299.745 312.273C293.532 322.083 285.519 330.096 275.708 336.309C265.897 342.523 254.778 347.102 242.351 350.045C229.924 352.661 217.006 353.969 203.598 353.969C188.881 353.969 174.328 352.498 159.939 349.554C145.876 346.611 132.795 342.523 120.695 337.291C108.267 331.731 95.3496 324.536 81.9412 315.706C68.5329 306.876 56.4326 297.065 45.6405 286.273C35.1755 275.154 26.9997 263.545 21.1131 251.444C15.2265 239.017 13.5913 226.59 16.2076 214.163C17.1887 209.911 18.6603 205.496 20.6225 200.918C22.9117 196.012 25.6915 191.597 28.9618 187.673C32.5592 183.421 36.4836 179.661 40.735 176.39C45.3135 173.12 50.3825 170.667 55.9421 169.032C58.8854 168.378 61.8287 167.887 64.772 167.56C67.7153 167.233 70.495 167.07 73.1113 167.07C86.8467 167.07 98.9469 170.177 109.412 176.39C114.145 178.972 118.688 181.773 123.044 184.795C128.62 188.664 133.887 192.893 138.845 197.484C141.401 199.675 143.919 201.879 146.399 204.095C152.802 209.819 158.951 215.627 164.844 221.521C167.927 224.485 171.052 227.191 174.221 229.639C174.268 229.675 174.314 229.711 174.36 229.747C177.574 232.221 180.831 234.43 184.132 236.374C186.51 237.774 188.91 239.037 191.334 240.162L194.277 241.633C195.912 241.96 197.057 241.633 197.711 240.652C198.904 239.161 198.601 237.805 196.801 236.586C196.628 236.468 196.44 236.352 196.239 236.237C195.992 236.089 195.73 235.928 195.453 235.756C195.007 235.478 194.523 235.169 194 234.829C193.952 234.798 193.903 234.766 193.854 234.734C192.138 233.613 190.016 232.162 187.489 230.383C184.934 228.583 181.964 226.447 178.579 223.974C175.67 221.736 172.723 219.287 169.737 216.628C169.703 216.598 169.669 216.568 169.635 216.538C163.927 211.446 158.078 205.586 152.09 198.956C149.714 196.325 147.393 193.573 145.126 190.7C145.052 190.605 144.977 190.511 144.903 190.416C141.032 185.486 137.322 180.202 133.773 174.563ZM109.694 160.123C104.267 146.803 101.156 132.522 100.282 117.381L100.273 117.232L100.268 117.082C99.8937 106.982 100.832 96.9104 103.057 86.8971L103.112 86.6485L103.176 86.402C105.755 76.4562 109.453 67.0134 114.278 58.1055C119.117 49.1713 125.067 40.9819 132.099 33.5578C139.228 25.7041 147.231 19.1971 156.116 14.1604C171.703 5.05777 188.594 0.449219 206.541 0.449219C234.988 0.449219 265.42 11.0796 297.479 30.5192L297.683 30.643L297.883 30.7734C306.012 36.075 314.648 42.6537 323.778 50.4237C333.349 58.2379 341.896 66.9573 349.392 76.5761C357.335 86.3465 363.63 96.667 368.131 107.546C373.052 119.438 374.486 131.712 371.886 143.985C368.609 160.634 360.299 174.574 347.183 185.23C333.882 196.037 317.968 201.242 300.236 201.242C297.192 201.242 294.17 201.073 291.173 200.737C295.208 205.292 298.995 209.952 302.529 214.717C309.723 224.087 315.433 233.967 319.55 244.36C324.262 255.077 326.374 266.188 325.54 277.511C324.418 293.525 320.074 307.949 311.947 320.2C304.595 331.764 295.074 341.267 283.493 348.602C272.19 355.761 259.546 360.925 245.704 364.203L245.527 364.245L245.348 364.283C231.882 367.118 217.957 368.519 203.598 368.519C187.904 368.519 172.374 366.949 157.023 363.809L156.99 363.803L156.958 363.796C142.021 360.67 127.995 356.3 114.919 350.646L114.836 350.609L114.753 350.572C101.496 344.641 87.8896 337.045 73.9387 327.858C59.7497 318.514 46.8761 308.086 35.352 296.562L35.1961 296.406L35.0451 296.246C23.7065 284.198 14.6382 271.395 8.02901 257.81L7.99589 257.741L7.96349 257.673C0.835263 242.625 -1.35724 226.967 1.96946 211.165L1.9984 211.028L2.02997 210.891C3.23044 205.689 4.9929 200.45 7.24876 195.186L7.33972 194.974L7.43736 194.765C10.2252 188.791 13.6648 183.301 17.7841 178.358L17.8191 178.316L17.8544 178.274C22.0937 173.264 26.7624 168.781 31.8636 164.857L32.0681 164.7L32.2779 164.55C38.218 160.307 44.7656 157.153 51.8365 155.073L52.307 154.935L52.7857 154.828C56.2312 154.063 59.6917 153.485 63.1651 153.099C66.5738 152.72 69.8937 152.52 73.1113 152.52C86.2504 152.52 98.5307 154.976 109.694 160.123ZM196.053 134.507L195.095 133.549L198.021 132.086M196.053 134.507L195.095 133.549Z" fill="black"/>
</g>
</svg>
