<svg width="196" height="70" viewBox="0 0 196 70" fill="none" xmlns="http://www.w3.org/2000/svg">
<path d="M86.7521 58.105C86.8437 56.3538 88.6167 59.6041 88.7916 60.2032C89.2598 61.8069 86.702 57.5948 85.716 56.2462C82.3245 51.6068 78.3624 46.7237 76.6975 41.1331C74.3233 33.1607 82.3574 21.4407 89.8598 30.625C91.4767 32.6044 91.1945 40.7313 91.1945 38.1754C91.1945 35.0461 91.64 32.1759 93.0672 29.3209C94.4541 26.5466 98.3519 20.383 102.316 22.3159C105.7 23.9664 107.257 29.5439 108.253 32.8241C109.538 37.0572 108.204 38.8753 109.954 34.9478C112.356 29.5568 119.518 20.4194 122.809 30.4417C123.356 32.1053 122.647 38.7085 122.647 36.9992C122.647 34.1872 127.62 31.1603 130.159 32.3283C134.943 34.5291 133.654 43.219 131.436 46.547C131.117 47.0271 128.589 49.0871 129.567 48.0316C130.642 46.8713 129.175 51.281 128.315 52.6087C123.524 60.0079 111.039 62.3276 103.282 64.3542C96.5467 66.1138 91.3893 65.4258 85.7975 61.0826C85.4751 60.8321 79.8192 55.0445 82.0254 57.4913" stroke="white" stroke-width="3" stroke-linecap="round" stroke-linejoin="round"/>
<path d="M78.2333 51.6357C77.2221 51.2603 75.6548 50.9717 75.5234 49.7051" stroke="white" stroke-width="3" stroke-linecap="round" stroke-linejoin="round"/>
<path d="M76.9737 48.5415C74.9307 46.8082 79.8467 48.9719 79.0024 49.9038C78.5807 50.3693 76.664 50.3968 76.2639 50.4522C72.5241 50.9703 68.8329 51.6605 65.1461 52.4751C65.0469 52.497 58.2074 53.8346 60.0255 53.8346C60.6084 53.8346 58.7501 37.4012 58.6351 36.3698C57.8403 29.2425 56.3933 23.1418 53.8595 16.5141C53.0671 14.4415 52.5061 7.88304 52.1675 10.076C52.0701 10.7064 52.3649 8.79836 52.6339 8.21996C53.7483 5.82393 55.5623 5.85087 57.9697 5.83336C72.6978 5.72622 87.4331 4.09754 102.161 4.87232C114.493 5.52104 126.898 9.92911 139.21 9.63985C140.373 9.61252 141.998 8.68819 142.509 9.91615C145.179 16.333 145.539 22.947 145.763 29.8606C145.893 33.8829 145.931 37.9074 145.954 41.9315C145.96 42.9743 146.536 46.5335 145.891 47.5911C145.435 48.3383 144.692 46.3131 144.048 45.7202C143.35 45.078 142.682 44.6691 141.886 44.22" stroke="white" stroke-width="3" stroke-linecap="round" stroke-linejoin="round"/>
<path d="M128.503 46.0101C128.435 44.605 126.307 41.0938 127.907 40.5948C133.264 38.9233 139.566 38.7419 145.123 38.2508C150.44 37.781 146.617 40.099 144.371 42.1106" stroke="white" stroke-width="3" stroke-linecap="round" stroke-linejoin="round"/>
<path d="M154.855 15.39C155.445 11.9482 156.394 22.2149 156.809 25.6823C156.941 26.7859 157.529 39.1564 158.275 33.2981C159.217 25.9097 160.974 17.5421 159.297 10.153C159.125 9.39401 158.056 8.04986 159.246 8.01854C163.432 7.90835 167.65 8.06741 171.837 8.08034C175.392 8.09132 192.21 5.76992 194.242 10.202C195.103 12.0807 192.995 14.8963 192.223 16.3518C189.665 21.1694 187.42 26.0448 186.355 31.4385C185.63 35.1095 185.524 38.8539 186.272 42.5206C186.566 43.9599 186.477 43.5762 185.295 42.8232C178.448 38.4626 172.58 37.087 164.584 36.537" stroke="white" stroke-width="3" stroke-linecap="round" stroke-linejoin="round"/>
<path d="M13.9797 7.89762C10.7671 7.34768 7.96406 8.18727 4.82049 8.00914C-2.4933 7.59469 18.9205 3.7003 26.2081 2.95536C33.028 2.25822 40.3903 1.05114 38.5149 9.51284C36.0021 20.8508 36.283 31.4806 40.4721 42.4551C42.6254 48.0964 45.4721 53.4073 48.0271 58.8644C48.0979 59.0157 49.7541 63.2302 49.5913 63.1397C43.3371 59.6608 33.2168 61.0558 26.5042 61.4186C19.9224 61.7744 13.2773 62.5449 7.03872 64.784C5.32771 65.3981 0.754931 68.4431 2.3219 67.5215C4.79161 66.069 4.85586 61.6701 4.65958 59.2693" stroke="white" stroke-width="3" stroke-linecap="round" stroke-linejoin="round"/>
</svg>
