<svg width="225" height="74" viewBox="0 0 225 74" fill="none" xmlns="http://www.w3.org/2000/svg">
<path d="M72.7987 16.4796C72.8232 9.95143 73.2157 14.277 73.2539 18.366C73.389 32.8293 71.9441 47.206 71.6984 61.6474C71.6695 63.3484 71.983 63.2553 71.4586 62.0979C70.9254 60.9212 72.4327 61.4691 73.4602 61.2675C82.9995 59.3951 91.9167 57.1866 101.801 57.4731C113.424 57.81 125.534 60.7684 136.469 64.7551C138.95 65.6596 137.174 65.6319 139.496 65.086C139.567 65.0693 140.11 65.0672 140.143 65.0061C140.598 64.1621 139.945 63.0985 139.844 62.145C138.989 54.0885 138.592 45.9854 138.375 37.8889C138.192 31.0776 138.111 24.2445 138.498 17.4377C138.557 16.4107 138.424 12.5103 139.201 11.3746C139.654 10.7122 139.293 13.1018 138.824 13.753C138.751 13.8537 138.047 13.8318 137.941 13.8466C133.078 14.5244 127.81 13.8833 122.902 14.162C110.136 14.8867 95.8204 16.7165 83.8454 11.0474C82.9511 10.624 77.6166 8.15407 78.7372 6.16172C79.5953 4.636 82.4121 4.75361 83.8213 4.45508" stroke="white" stroke-width="3" stroke-linecap="round" stroke-linejoin="round"/>
<path d="M145.074 19.636C145.252 18.1786 145.367 14.7198 146.678 13.7811C147.589 13.1287 149.821 36.2713 149.867 37.275C150.299 46.7151 149.281 57.1618 151.226 66.4763C151.6 68.2651 151.013 62.8275 150.919 61.0025C150.885 60.354 171.697 61.2571 172.093 61.2857C184.958 62.216 199.765 61.9107 212.149 65.9433C214.413 66.6806 217.371 67.9053 218.722 70.073C220.035 72.1816 216.513 71.6331 215.713 71.7387" stroke="white" stroke-width="3" stroke-linecap="round" stroke-linejoin="round"/>
<path d="M152.985 15.7417C152.304 15.0819 151.792 14.561 151.072 13.9533C150.585 13.5418 149.179 13.2197 149.596 12.7368C150.143 12.1022 154.823 12.1232 154.933 12.1177C161.648 11.7862 168.386 11.7702 175.107 11.8203C184.35 11.8892 194.873 11.1797 203.929 13.5839C206.908 14.375 201.84 15.9598 201.005 16.2771" stroke="white" stroke-width="3" stroke-linecap="round" stroke-linejoin="round"/>
<path d="M12.0733 9.1615C10.6218 9.09174 8.7631 8.71329 7.31439 9.01029C4.72773 9.54059 12.5747 9.71283 15.2131 9.60892C25.9592 9.18571 36.4718 6.41973 47.1792 5.53009C52.6627 5.07448 60.3821 4.29211 64.8934 8.36023C66.7173 10.005 61.8527 9.16983 61.1529 10.1059C61.1053 10.1695 61.3392 10.1269 61.3458 10.153C62.569 14.9767 61.3282 21.8922 61.3544 26.7249C61.4107 37.1121 61.6859 47.3665 63.7414 57.5715C64.2999 60.344 65.333 63.8078 64.4597 66.6481C63.7306 69.0198 62.3799 67.2119 60.9897 66.4598C57.661 64.6588 53.8133 63.6064 50.2104 62.5433C39.0214 59.2417 27.2994 56.9884 15.5908 58.1013C11.8264 58.4591 8.20308 59.4116 4.5187 60.1835C3.71621 60.3516 1.62229 60.8351 2.05934 60.1413C3.73216 57.4861 7.43768 55.3136 9.78666 53.2107" stroke="white" stroke-width="3" stroke-linecap="round" stroke-linejoin="round"/>
<path d="M76.1835 8.8386C74.7143 8.03281 80.8303 16.9336 81.9592 18.0882C82.3496 18.4874 86.2614 21.3405 85.369 20.7739" stroke="white" stroke-width="3" stroke-linecap="round" stroke-linejoin="round"/>
<path d="M72.9174 56.7697C71.8102 57.6593 69.3252 61.1605 70.1183 59.9822C71.3357 58.1732 83.7203 44.3591 84.1863 45.0104C84.2379 45.0825 83.7169 45.7105 83.7083 45.5136C83.5676 42.3144 84.2047 38.9307 84.3422 35.736C84.5105 31.8215 84.7932 20.074 84.5239 23.9829C84.4136 25.5837 85.0232 27.1112 85.498 28.5934" stroke="white" stroke-width="3" stroke-linecap="round" stroke-linejoin="round"/>
<path d="M89.0848 21.0625C87.97 20.5439 84.6914 19.209 85.5192 20.1181C85.8844 20.5192 87.6044 20.4586 87.9678 20.4751C92.9329 20.7 97.9393 20.261 102.903 20.1652C111.704 19.9953 121.395 19.359 130.074 21.2329C131.816 21.6091 130.754 21.9781 130.598 21.3699C130.331 20.3269 128.375 21.4398 127.738 21.8136C124.991 23.4268 132.815 17.948 135.163 15.7951C137.525 13.6301 138.519 11.5747 137.679 15.3403" stroke="white" stroke-width="3" stroke-linecap="round" stroke-linejoin="round"/>
<path d="M131.966 26.3844C131.616 25.3954 131.404 23.6036 130.727 22.8007C130.044 21.9895 130.962 24.9092 131.072 25.9642C131.476 29.8274 131.685 33.7121 131.894 37.5897C132.127 41.8975 132.669 54.8275 132.564 50.5147C132.527 49.0185 132.125 47.5543 131.869 46.087C131.849 45.9668 131.18 48.3505 131.193 49.0888C131.293 54.7163 134.334 61.3325 136.794 66.2481C138.565 69.7874 140.569 71.8028 138.655 67.0314" stroke="white" stroke-width="3" stroke-linecap="round" stroke-linejoin="round"/>
<path d="M87.7825 50.2219C87.4406 49.8435 85.5791 47.8283 85.7809 47.9148C94.7128 51.7454 104.682 52.4266 114.273 53.106C122.414 53.6827 125.794 54.1315 126.609 54.1929" stroke="white" stroke-width="3" stroke-linecap="round" stroke-linejoin="round"/>
<path d="M147.685 13.3776C147.163 13.4241 146.45 13.744 146.192 14.2191C145.151 16.1368 150.478 13.0378 152.275 11.7999C158.086 7.79691 163.445 3.70985 169.49 2" stroke="white" stroke-width="3" stroke-linecap="round" stroke-linejoin="round"/>
<path d="M169.853 3.76188C168.895 3.65508 166.061 3.69142 166.983 3.40803C171.289 2.08379 176.847 2.59794 181.25 2.63341C191.165 2.71328 201.152 3.0867 211.056 3.57101C214.653 3.74688 219.322 3.77221 221.918 6.72154C222.18 7.01949 223.375 6.88322 223.045 7.10451C220.657 8.70875 217.821 9.87 215.124 10.8165C214.533 11.024 210.823 11.9525 211.091 11.9828" stroke="white" stroke-width="3" stroke-linecap="round" stroke-linejoin="round"/>
<path d="M210.038 20.3709C209.194 18.5555 208.769 14.87 208.553 18.5341C207.921 29.2332 205.461 41.0251 207.828 51.6314C208.502 54.6474 209.33 51.333 209.464 53.9014" stroke="white" stroke-width="3" stroke-linecap="round" stroke-linejoin="round"/>
<path d="M209.461 60.974C208.267 61.0961 207.215 61.9473 206.363 62.7327C203.094 65.7473 212.993 56.7599 216.682 54.2769C217.455 53.7563 222.412 52.1424 219.764 54.0817C218.826 54.7685 219.278 51.808 219.435 51.4418C219.758 50.6899 219.685 52.6708 219.768 49.5889C220.056 38.9896 221.405 28.4558 221.519 17.8407C221.541 15.7971 221.204 2.25129 220.073 11.1245" stroke="white" stroke-width="3" stroke-linecap="round" stroke-linejoin="round"/>
<path d="M5.04948 9.73044C2.80614 5.72093 3.58779 10.0769 3.63226 12.7384C3.92039 29.9849 4.97996 47.0082 4.23902 64.2909C3.83083 73.8123 4.70495 62.5367 5.13475 59.7138" stroke="white" stroke-width="3" stroke-linecap="round" stroke-linejoin="round"/>
<path d="M82.5129 6.7084C82.3169 6.70739 77.1675 6.49983 78.747 8.12069C78.9593 8.33862 77.6501 7.63143 77.9516 7.67265C81.0333 8.09398 84.887 5.55173 87.5289 4.28911C89.2512 3.466 88.5026 4.03989 87.6689 4.12737C86.6159 4.23786 90.735 3.80823 90.9848 3.80823C101.334 3.80823 111.779 3.14224 121.575 6.65139C126.596 8.45017 132.901 6.93798 137.973 6.19653C140.394 5.84256 147.707 5.86478 145.283 5.53346C144.309 5.40037 142.288 7.90416 141.744 8.376C140.055 9.84218 131.859 15.6351 138.292 12.5534" stroke="white" stroke-width="3" stroke-linecap="round" stroke-linejoin="round"/>
<path d="M142.374 9.52936C142.374 8.46209 142.339 7.24101 142.738 6.22886C144.127 2.70993 143.175 13.8078 142.855 17.5773C141.976 27.9449 139.956 39.2701 141.676 49.5864C142.074 51.9745 141.392 54.01 142.322 56.5605C142.84 57.9804 140.475 63.8321 141.513 64.008" stroke="white" stroke-width="3" stroke-linecap="round" stroke-linejoin="round"/>
<path d="M139.718 19.6343C139.339 18.3175 138.846 16.935 138.963 15.5413C138.968 15.4782 139.484 13.4631 139.847 14.1029C141.079 16.2786 140.241 21.3312 140.231 23.6004C140.194 31.1913 139.863 38.7851 140.116 46.3754C140.248 50.3593 140.703 54.3191 140.703 58.307C140.703 62.8605 140.703 49.2 140.703 44.6465C140.703 35.5991 140.685 26.5533 140.628 17.5063C140.616 15.5199 140.776 9.47817 140.78 15.056C140.79 27.3738 140.51 39.7447 141.619 52.0258C141.875 54.8537 142.957 66.1529 142.455 57.0466" stroke="white" stroke-width="3" stroke-linecap="round" stroke-linejoin="round"/>
<path d="M208.929 17.0581C208.904 16.2239 209.017 9.95879 209.256 13.656C210.024 25.5276 209.12 37.4925 209.562 49.3814C209.685 52.6758 210.297 59.4073 210.413 52.3163C210.508 46.496 210.1 40.6619 210.085 34.8384C210.071 29.103 210.497 11.9066 210.622 17.6406C210.881 29.4206 209.808 41.2165 210.803 52.988C210.987 55.1663 211.888 61.3677 212.591 59.2977C213.724 55.9611 213.035 51.2562 212.936 47.8482C212.645 37.8772 210.928 8.06879 212.456 17.9263C214.137 28.7663 212.115 40.5095 212.275 51.4543C212.354 56.8225 212.72 51.0846 212.756 49.9912C212.989 42.8578 212.976 35.7198 213.343 28.59C213.344 28.5717 214.597 15.0332 214.923 18.5887C215.517 25.0822 214.754 31.8321 214.443 38.3223C214.269 41.951 213.155 52.6211 214.434 49.2209C216.166 44.6189 215.659 38.1821 215.95 33.3901C216.303 27.5935 215.994 21.2287 217.141 15.5144C218.203 10.2253 216.595 26.2899 216.342 31.6785C216.169 35.346 214.258 45.4761 216.91 48.7629C217.598 49.6151 218.993 37.056 218.997 36.9484C219.287 30.3701 219.578 23.6453 219.246 17.0624C219.233 16.8074 219.156 16.0646 219.092 16.312C218.881 17.1346 218.867 17.9964 218.789 18.8422C218.434 22.6456 218.204 26.5487 218.052 30.3561C217.782 37.1237 216.941 45.1433 219.108 51.7226C220.784 56.8097 221.512 47.1105 221.587 46.4614" stroke="white" stroke-width="3" stroke-linecap="round" stroke-linejoin="round"/>
<path d="M101.704 33.8241C99.5602 33.1095 99.3046 33.3266 101.626 33.166" stroke="white" stroke-width="3" stroke-linecap="round" stroke-linejoin="round"/>
<path d="M109.748 33.7025C109.09 33.2468 109.359 33.3255 109.989 33.4125" stroke="white" stroke-width="3" stroke-linecap="round" stroke-linejoin="round"/>
<path d="M102.765 38.4071C100.198 37.4939 100.443 38.7524 102.29 40.6956C105.079 43.6287 113.592 43.6548 112.648 38.117" stroke="white" stroke-width="3" stroke-linecap="round" stroke-linejoin="round"/>
<path d="M8.16016 15.3746C8.16016 8.49109 9.13439 20.5866 9.13684 22.3201C9.14986 31.5499 10.4003 40.6365 10.4003 49.9213C10.4003 52.6938 11.089 52.5182 13.9453 52.912C16.8609 53.3139 20.1796 53.5179 23.1135 53.347C26.6644 53.1402 28.7022 51.8918 32.0777 53.1822C34.7677 54.2106 37.4273 50.7792 39.9256 52.4571C41.8694 53.7627 43.3023 52.3313 45.3107 52.7131C47.3321 53.0973 50.9203 52.575 52.3993 54.2096C58.2827 60.7117 57.0778 41.6047 57.1544 40.7313C57.7929 33.4561 56.8403 26.597 57.1381 19.3382C57.2278 17.1508 56.9344 15.3219 56.7716 13.2218C56.6325 11.4267 57.4356 9.5051 55.09 10.0979C48.6234 11.7321 42.0588 10.3131 35.6295 11.5424C29.6091 12.6935 24.0168 11.1681 17.9429 12.5333C15.7816 13.0191 14.3234 12.9917 12.2116 12.5017C9.87303 11.9591 9.01044 12.2162 12.1211 12.1063" stroke="white" stroke-width="3" stroke-linecap="round" stroke-linejoin="round"/>
<path d="M16.0361 19.0548C13.2245 19.0548 14.0036 19.8462 13.4411 17.0246C12.1719 10.6581 14.6415 29.954 15.0788 36.431C15.2471 38.9242 15.1434 41.8705 15.8475 44.0595C17.4777 49.1275 30.5186 47.3984 35.3169 47.3984C36.5552 47.3984 51.2698 46.1244 51.2698 46.3907C51.2698 53.2584 50.1293 32.67 50.381 25.807C50.4786 23.1452 49.3454 20.8459 49.5137 18.1401C49.5466 17.6113 49.1654 17.3029 48.6998 17.0965C46.4134 16.083 42.9541 16.732 40.6155 16.9366C36.2453 17.3191 32.1245 15.328 28.0129 16.3306C25.1334 17.0327 22.1722 16.9146 19.2443 16.7972C18.3979 16.7633 11.2209 17.3703 14.8966 16.3219" stroke="white" stroke-width="3" stroke-linecap="round" stroke-linejoin="round"/>
<path d="M154.709 23.3488C153.859 22.5875 153.996 21.2928 154.547 20.3655C155.045 19.5284 155.138 20.8894 155.17 21.2127C155.676 26.2857 155.525 31.4807 155.5 36.5681C155.498 36.9634 153.136 54.9462 157.68 54.5306C160.286 54.2923 163.061 53.5832 165.708 53.2577C174.244 52.2082 180.73 53.2099 189.017 55.0598C191.546 55.6244 197.786 56.9651 199.276 55.1032C200.561 53.4974 199.929 48.4263 199.993 46.6505C200.248 39.5213 201.779 31.4759 200.368 24.4221C200.185 23.5075 201.127 20.5055 200.55 20.2813C198.346 19.4241 194.666 20.1301 192.423 20.2577C185.852 20.6315 179.44 20.8309 172.857 20.756C167.491 20.6949 161.785 20.1794 156.518 21.3695C154.295 21.8716 150.587 22.5938 154.213 20.2813" stroke="white" stroke-width="3" stroke-linecap="round" stroke-linejoin="round"/>
</svg>
