<svg width="182" height="118" viewBox="0 0 182 118" fill="none" xmlns="http://www.w3.org/2000/svg">
<path d="M64.0251 31.3014C63.4868 31.2891 55.8331 31.4104 58.4309 31.0177C71.1258 29.0987 83.6756 28.0865 96.5349 28.7625C104.912 29.2029 114.025 31.8107 122.194 31.5891C124.153 31.5359 124.22 30.5633 123.982 32.0632C121.743 46.1875 119.856 60.404 119.081 74.6906C118.808 79.7213 119.612 94.7795 118.828 89.8028C118.638 88.5992 116.411 88.33 115.464 87.8058C110.332 84.9647 102.594 85.8824 97.0521 85.8009C86.8227 85.6504 76.6221 85.4637 66.4008 85.1123C64.9707 85.0632 65.8895 86.0477 66.4651 86.7699C68.1636 88.901 65.4085 81.4054 65.254 78.6846C64.4553 64.6209 67.2328 47.7703 61.9297 34.395C60.466 30.7034 59.0933 33.3274 62.5001 35.8628" stroke="white" stroke-width="3" stroke-linecap="round" stroke-linejoin="round"/>
<path d="M137.537 38.7015C137.539 37.8075 137.706 34.0485 137.661 37.7389C137.487 52.1467 135.182 66.5791 133.69 80.8874C133.212 85.4738 132.573 90.1637 132.493 94.7899C132.457 96.9061 133.468 90.5612 134.689 88.8324C137.205 85.2711 141.189 84.6527 145.293 84.5292C154.976 84.2376 165.33 84.8065 174.878 86.472C175.979 86.664 180.379 89.3133 177.548 88.834" stroke="white" stroke-width="3" stroke-linecap="round" stroke-linejoin="round"/>
<path d="M137.591 38.7015C130.977 26.8935 164.36 33.8166 168.255 34.7473C168.771 34.8707 183.941 37.9748 179.018 39.4904" stroke="white" stroke-width="3" stroke-linecap="round" stroke-linejoin="round"/>
<path d="M12.3045 30.5094C10.0054 30.294 7.68061 30.144 5.41111 29.6966C5.26803 29.6684 1.977 28.8555 2.2164 29.3093C5.63329 35.7861 27.8375 30.8516 32.9247 30.4377C37.1841 30.0911 42.5762 29.2151 46.6649 31.0609C47.3752 31.3815 49.0191 32.7885 48.2399 32.7885C47.7792 32.7885 45.4669 31.8508 45.4494 32.4618C44.9972 48.229 46.785 64.7314 47.7935 80.4746C47.9763 83.3281 48.0902 86.5512 49.0982 89.2914C49.2504 89.705 49.3395 89.3836 49.1414 89.3464C38.7936 87.4024 28.252 86.2945 17.8821 84.3921C16.5083 84.14 1.69125 82.3928 1.74625 79.547C1.79821 76.858 11.8191 76.5603 13.2514 76.31" stroke="white" stroke-width="3" stroke-linecap="round" stroke-linejoin="round"/>
<path d="M55.6259 12.1494C52.8694 8.6408 52.668 5.94847 55.4953 2.18904C56.2966 1.12353 55.7423 4.85038 55.7057 6.18306C55.1793 25.3181 55.4083 44.5674 55.925 63.6971C56.3076 77.8639 62.4092 120.007 61.1354 105.893C60.9133 103.431 78.184 101.087 79.4769 100.872C88.9428 99.297 100.234 96.6193 109.854 98.2392C113.848 98.9119 116.548 102.652 120.226 103.222C122.338 103.55 127.268 103.938 129 102.605C129.14 102.497 128.323 102.503 128.239 102.503C127.22 102.503 127.46 100.753 127.431 100.107C126.164 72.4342 136.327 44.8626 133.799 17.1108C133.496 13.7931 130.659 14.0849 127.929 13.9862C119.156 13.6691 110.381 13.7023 101.606 13.5169C88.7477 13.2451 76.8196 11.0422 64.2626 8.68769C63.1519 8.47944 53.3507 6.03361 56.9472 8.42233C57.8951 9.05187 57.9608 10.1795 58.0542 11.2385C59.6018 28.773 59.1347 46.6274 59.9852 64.2183C60.5832 76.5853 60.68 88.9138 60.8547 101.288C60.8926 103.973 60.1488 111.104 62.0896 109.248C63.183 108.203 64.4334 107.52 66.9063 106.764C84.6659 101.338 104.064 100.373 122.565 100.2C125.027 100.177 132.294 101.286 129.943 100.555C126.48 99.4776 128.952 69.6399 129.02 67.3134C129.406 53.9593 130.404 40.6441 131.26 27.3158C131.476 23.9639 132.184 20.0862 131.702 16.7124C131.434 14.8331 132.248 13.1031 130.087 13.2889C111.338 14.9016 91.3206 14.4545 73.0022 9.85275C65.1788 7.88741 59.1029 2.2806 55.5296 12.1566C52.1632 21.4606 55.0485 34.4236 55.7899 43.8179C57.4154 64.4152 59.3502 84.9969 59.5389 105.673C59.5678 108.843 60.2762 118.216 59.3539 115.183C59.1664 114.566 60.267 113.64 60.5673 113.37C64.3726 109.95 70.0731 108.957 74.9011 108.015C85.7281 105.901 96.9624 103.499 107.951 102.48C113.568 101.959 119.226 102.705 124.746 100.989C125.584 100.729 130.814 98.8592 129.924 98.7158C125.906 98.0676 128.416 55.8827 128.444 52.8514C128.55 41.5904 127.372 28.7595 130.321 17.7213C130.442 17.2679 131.433 12.546 131.101 12.2904C130.312 11.6841 126.944 12.2068 126.152 12.2068C114.283 12.2068 102.373 13.4239 90.5136 12.6817C78.3078 11.9179 66.9635 8.1341 55.3402 4.69287C49.6743 3.0154 61.2585 3.25589 62.454 3.21305" stroke="white" stroke-width="3" stroke-linecap="round" stroke-linejoin="round"/>
</svg>
