<svg width="184" height="83" viewBox="0 0 184 83" fill="none" xmlns="http://www.w3.org/2000/svg">
<path d="M3.25992 3.38261C2.00175 1.205 2.1352 1.74837 2.42662 3.97469C5.01725 23.7656 2.07293 43.9877 4.65128 63.8364C4.96436 66.2466 5.51465 73.1461 6.44935 70.9026C7.07017 69.4124 6.39899 66.3215 6.35949 64.7878C6.23053 59.7798 6.4609 54.9441 7.29495 50.0061" stroke="white" stroke-width="3" stroke-linecap="round" stroke-linejoin="round"/>
<path d="M4.96074 7.42553C3.36323 5.87915 2.74658 5.32337 5.49231 5.28042C15.041 5.13105 24.567 5.66367 34.0884 6.32031C45.2707 7.09149 56.1176 7.1629 67.2927 6.44962C69.2497 6.3247 74.1515 5.27182 73.5987 8.61106C73.1585 11.2706 78.9433 3.57894 80.1336 3.39664C80.6387 3.31929 80.5376 4.36521 80.5347 4.87617C80.5112 9.03478 80.0001 13.2314 79.6815 17.3671C78.2918 35.4089 77.2934 53.4997 77.8617 71.6006C77.8715 71.913 78.4618 81.3266 77.8466 80.9977C76.6875 80.378 75.6594 79.4567 74.6571 78.6212C72.7935 77.0675 71.0034 76.2122 68.5535 75.9275C60.6402 75.0079 52.7634 74.7739 44.8693 73.4449C35.4202 71.854 25.9725 69.8881 16.7045 67.4437C12.9736 66.4597 12.2403 66.1476 16.3507 66.887" stroke="white" stroke-width="3" stroke-linecap="round" stroke-linejoin="round"/>
<path d="M85.5927 5.31813C84.4496 4.50712 86.7435 4.97106 87.2526 4.99963" stroke="white" stroke-width="3" stroke-linecap="round" stroke-linejoin="round"/>
<path d="M92.9899 5.75966C92.2621 4.93408 92.0395 4.89011 93.2623 4.81641" stroke="white" stroke-width="3" stroke-linecap="round" stroke-linejoin="round"/>
<path d="M95.3672 9.98438C95.3672 10.9927 95.4647 12.0294 95.546 13.0346" stroke="white" stroke-width="3" stroke-linecap="round" stroke-linejoin="round"/>
<path d="M95.5457 24C95.0116 25.1705 94.7949 26.1876 94.5156 27.4177" stroke="white" stroke-width="3" stroke-linecap="round" stroke-linejoin="round"/>
<path d="M96.6672 35.8574C95.2519 38.0737 95.1344 39.5857 96.3522 41.8354" stroke="white" stroke-width="3" stroke-linecap="round" stroke-linejoin="round"/>
<path d="M96.4486 46.4551C95.1651 48.5129 95.0933 50.8067 95.5463 53.1436" stroke="white" stroke-width="3" stroke-linecap="round" stroke-linejoin="round"/>
<path d="M96.3556 60.6016C95.9283 63.379 95.658 66.103 95.5469 68.9071" stroke="white" stroke-width="3" stroke-linecap="round" stroke-linejoin="round"/>
<path d="M95.8151 71.4316C95.0565 72.6708 94.7094 73.7739 94.9127 75.2046" stroke="white" stroke-width="3" stroke-linecap="round" stroke-linejoin="round"/>
<path d="M92.9923 77.2255C91.5244 76.3236 89.9011 76.5028 88.2422 76.5028" stroke="white" stroke-width="3" stroke-linecap="round" stroke-linejoin="round"/>
<path d="M86.4446 77.1768C85.0036 76.9764 83.6266 76.846 82.1797 76.9563" stroke="white" stroke-width="3" stroke-linecap="round" stroke-linejoin="round"/>
<path d="M101.871 6.66513C102.157 5.80625 104.271 6.28788 104.919 6.29763" stroke="white" stroke-width="3" stroke-linecap="round" stroke-linejoin="round"/>
<path d="M120.888 5.48987C120.646 5.46794 120.406 5.45312 120.164 5.45312" stroke="white" stroke-width="3" stroke-linecap="round" stroke-linejoin="round"/>
<path d="M125.681 18.0215C124.157 18.0215 124.517 18.7022 124.557 20.1407" stroke="white" stroke-width="3" stroke-linecap="round" stroke-linejoin="round"/>
<path d="M124.333 43.084C123.811 44.8827 123.673 46.1927 123.933 48.0207" stroke="white" stroke-width="3" stroke-linecap="round" stroke-linejoin="round"/>
<path d="M124.069 69.0918C123.577 69.5888 122.048 70.7578 123.481 70.7578" stroke="white" stroke-width="3" stroke-linecap="round" stroke-linejoin="round"/>
<path d="M108.555 76.6365C107.628 76.7206 105.004 77.5788 105.278 76.2812" stroke="white" stroke-width="3" stroke-linecap="round" stroke-linejoin="round"/>
<path d="M140.169 4.91414C139.256 4.08241 140.307 4.20431 141.156 4.05664" stroke="white" stroke-width="3" stroke-linecap="round" stroke-linejoin="round"/>
<path d="M170.031 3.78705C170.071 3.12479 171.591 3.28981 172.049 3.24805" stroke="white" stroke-width="3" stroke-linecap="round" stroke-linejoin="round"/>
<path d="M181.999 24.625C181.776 24.646 179.5 24.6768 179.718 25.1272" stroke="white" stroke-width="3" stroke-linecap="round" stroke-linejoin="round"/>
<path d="M177.292 56.6953C176.142 57.5092 176.014 58.0979 177.113 58.9371" stroke="white" stroke-width="3" stroke-linecap="round" stroke-linejoin="round"/>
<path d="M172.448 77.3961C171.804 77.387 171.233 77.3217 170.609 77.2246" stroke="white" stroke-width="3" stroke-linecap="round" stroke-linejoin="round"/>
<path d="M148.639 75.7812C148.247 75.7812 147.079 76.0438 147.566 75.5117" stroke="white" stroke-width="3" stroke-linecap="round" stroke-linejoin="round"/>
<path d="M134.38 75.7423C133.96 75.7056 133.535 75.6708 133.129 75.5586" stroke="white" stroke-width="3" stroke-linecap="round" stroke-linejoin="round"/>
</svg>
