<svg width="247" height="88" viewBox="0 0 247 88" fill="none" xmlns="http://www.w3.org/2000/svg">
<path d="M4.68948 16.6017C0.321678 18.7645 10.3171 15.5159 11.1991 15.2792C17.1793 13.6743 25.5308 12.1594 31.0896 15.7836C35.7464 18.8196 35.5275 25.0017 32.128 28.8735C30.2856 30.9719 23.0531 33.6305 23.5167 33.7111C28.9505 34.6554 36.6276 38.3656 35.9119 44.9509C35.6082 47.7455 33.5838 49.8942 30.7926 50.1359C30.146 50.1919 28.8292 49.5515 29.5427 49.7737C41.4708 53.4876 39.0096 69.4758 28.1451 72.3755C24.8245 73.2617 -4.97826 74.1025 3.51721 68.0244" stroke="white" stroke-width="3" stroke-linecap="round" stroke-linejoin="round"/>
<path d="M233.387 13.1914C243.096 13.1914 227.848 15.525 225.289 16.9896C218.087 21.1131 218.723 26.6401 226.986 26.9227C228.596 26.9777 231.261 26.4143 228.436 27.6598C224.864 29.2344 220.914 30.8073 217.796 33.1965C208.643 40.2111 219.161 44.7642 226.23 44.2668C227.463 44.18 233.416 42.3344 229.525 43.8182C226.671 44.9062 223.267 46.6363 221.785 49.4697C219.781 53.3028 221.844 58.9883 226.1 59.8124C231.947 60.9446 238.091 60.4028 244.011 60.8359C245.679 60.9579 244.922 61.0128 244.003 61.0128" stroke="white" stroke-width="3" stroke-linecap="round" stroke-linejoin="round"/>
<path d="M20.6523 12.9244C20.6523 9.7507 21.1858 1.70246 24.8892 1.95094C38.3429 2.85362 52.463 8.69852 65.2044 12.3568C104.239 23.5644 142.263 38.0784 183.164 25.9848C193.505 22.927 203.548 18.5532 213.591 14.6218C214.079 14.4307 214.381 14.3738 214.788 13.9626C215.71 13.0307 216.494 11.8813 217.197 10.7804C217.745 9.92102 217.847 16.3228 217.975 17.7198" stroke="white" stroke-width="3" stroke-linecap="round" stroke-linejoin="round"/>
<path d="M24.6716 77.8238C24.5741 65.5014 26.4714 86.3512 27.6359 85.8298C33.3561 83.2689 40.2436 81.784 46.1624 79.3791C86.2699 63.0832 125.981 46.6986 170.304 51.5007C187.076 53.3179 202.347 60.3491 215.208 69.5724C219.439 72.6064 221.167 69.7939 224.089 66.0153" stroke="white" stroke-width="3" stroke-linecap="round" stroke-linejoin="round"/>
</svg>
