<svg width="155" height="143" viewBox="0 0 155 143" fill="none" xmlns="http://www.w3.org/2000/svg">
<path d="M45.659 8.77808C45.3358 8.57811 42.8482 7.55844 43.944 7.14009C49.3918 5.06012 56.2564 5.32913 61.9401 5.13043C73.9212 4.71157 86.0161 4.67725 97.9822 5.51504C100.035 5.65876 106.071 5.82178 104.093 6.39091C104.079 6.39494 104.878 8.78843 104.886 8.82785C106.387 15.7262 104.374 23.6133 103.461 30.4662C103.276 31.8533 102.817 43.7213 101.514 43.3167C82.2614 37.3381 20.9134 41.2055 41.0727 41.2055C41.4015 41.2055 42.4328 27.0461 42.5407 26.2853C43.4149 20.1229 47.0593 9.24772 44.0796 3.21255C42.5999 0.215496 43.3828 6.2978 43.484 6.85826" stroke="white" stroke-width="3" stroke-linecap="round" stroke-linejoin="round"/>
<path d="M112.866 10.7909C112.868 10.6698 112.899 8.35128 113.225 8.56464C116.166 10.4926 111.609 24.5999 111.138 26.7958C109.825 32.9208 107.059 40.4333 107.794 46.8156C107.966 48.3053 108.535 47.4418 109.126 46.8201C112.128 43.6619 120.496 44.3628 124.2 43.9875C130.545 43.3447 137.44 43.8811 143.684 42.5797C146.567 41.9786 143.9 40.6254 142.726 39.9721" stroke="white" stroke-width="3" stroke-linecap="round" stroke-linejoin="round"/>
<path d="M121.856 9.20884C120.34 8.31323 115.617 7.12518 117.285 6.56117C122.193 4.90162 129.862 6.40446 134.844 6.69174C140.756 7.03268 146.811 7.24223 152.696 7.93607C153.11 7.9848 150.166 9.03535 149.671 9.20884" stroke="white" stroke-width="3" stroke-linecap="round" stroke-linejoin="round"/>
<path d="M2.2959 4.00743C1.94256 2.6442 1.65209 2.6846 2.99799 2.78831C12.1105 3.49047 22.3308 0.365644 31.1549 3.23627C33.8174 4.10242 32.8804 4.7295 32.4796 6.01128C31.7697 8.28156 33.7762 12.6383 33.9943 14.8883C34.731 22.4873 34.1382 30.0699 33.8734 37.6708C33.8275 38.9908 33.885 37.9636 32.8376 37.932C23.9442 37.663 15.2111 40.8209 6.24702 40.3624C6.20451 40.3603 0.523399 38.8477 3.06312 38.7613C4.78822 38.7026 6.2892 39.4053 7.83448 40.0069" stroke="white" stroke-width="3" stroke-linecap="round" stroke-linejoin="round"/>
<path d="M131.309 33.7358C131.718 32.9158 132.277 32.1676 132.456 33.5373C133.566 42.0604 123.111 51.1137 116.914 55.1388C113.182 57.5631 108.548 58.8423 104.183 59.61C102.327 59.9362 102.738 59.8104 104.473 59.8104" stroke="white" stroke-width="3" stroke-linecap="round" stroke-linejoin="round"/>
<path d="M104.431 57.6694C104.472 56.9329 104.555 56.2525 104.753 55.544C105.625 52.4252 101.304 61.1474 100.523 64.2905C99.4447 68.6332 103.555 69.2217 106.873 68.5787C108.107 68.3397 110.361 67.4508 108.013 67.2684" stroke="white" stroke-width="3" stroke-linecap="round" stroke-linejoin="round"/>
<path d="M46.2982 52.2138C45.4933 52.0195 44.0335 51.4709 43.2019 51.7898C42.6121 52.0159 44.2886 52.4991 44.9106 52.6088C49.9316 53.4936 55.2824 53.1061 60.3333 52.8757C68.9106 52.4846 77.4548 51.6097 86.0286 51.1744C90.4374 50.9505 95.2238 50.5861 99.5413 51.7995C103.248 52.8413 98.4381 52.6647 97.3555 52.5338C97.2771 52.5243 95.4286 52.2953 96.3754 52.2953C98.6946 52.2953 97.1384 66.8054 97.0977 67.6066C96.7304 74.8349 95.8695 82.1641 96.2545 89.4085C96.3895 91.9467 96.7329 94.7533 98.2961 96.8628C99.6229 98.6533 98.9998 95.4427 98.7646 94.8034C98.5694 94.2728 97.8257 93.7239 98.5144 93.3522C101.185 91.911 92.4483 93.1355 89.4137 93.1053C76.466 92.9762 63.8043 92.1129 51.1405 89.3368C49.2726 88.9273 47.0308 88.0737 45.0656 88.243C43.2495 88.3995 44.0509 84.9547 44.045 83.8113C44.0155 78.0673 44.0976 72.3234 44.1034 66.5795C44.1059 64.0498 44.7034 59.9991 43.656 57.5066C42.8509 55.5907 46.5401 60.5045 48.0851 61.8943" stroke="white" stroke-width="3" stroke-linecap="round" stroke-linejoin="round"/>
<path d="M19.2055 29.1282C19.1146 27.3703 20.0155 26.3238 20.8652 28.7902C22.463 33.4276 21.6216 39.4412 21.2206 44.1326C19.8203 60.5116 16.4517 76.6181 14.4476 92.9166C13.902 97.3537 12.1598 105.255 15.8832 109.084C19.1378 112.432 26.0551 112.046 30.2597 112.906C33.8356 113.637 37.5699 114.551 40.7192 116.47C41.4509 116.916 40.2559 115.373 40.1402 115.197C39.8132 114.699 38.414 113.649 38.3852 113.083C38.3101 111.604 38.8061 110.068 38.184 108.641C37.1623 106.298 38.4239 111.452 38.5245 111.847C39.0067 113.739 39.2272 116.402 36.84 116.974" stroke="white" stroke-width="3" stroke-linecap="round" stroke-linejoin="round"/>
<path d="M45.1027 100.976C44.8294 97.3564 45.2969 99.5078 45.5402 102.126C46.6776 114.367 45.067 127.21 47.5445 139.287C49.1682 147.202 47.3696 123.099 48.1267 115.054" stroke="white" stroke-width="3" stroke-linecap="round" stroke-linejoin="round"/>
<path d="M49.1907 104.77C47.1384 100.165 45.4885 100.164 51.124 100.865C64.0525 102.472 76.5865 100.682 89.4808 100.443C92.6984 100.383 94.5293 100.291 96.1136 103.202C97.5438 105.829 97.7312 109.302 98.17 112.176C99.1035 118.29 99.8843 124.435 101.316 130.459C102.012 133.388 103.779 134.979 100.452 135.264C89.4462 136.209 79.0329 139.351 68.1701 141.216C65.5474 141.667 52.4003 141.446 61.5858 141.072" stroke="white" stroke-width="3" stroke-linecap="round" stroke-linejoin="round"/>
</svg>
