<svg width="181" height="100" viewBox="0 0 181 100" fill="none" xmlns="http://www.w3.org/2000/svg">
<path d="M63.5234 41.3301C64.4565 43.0659 64.9569 44.7563 65.5816 46.6091" stroke="white" stroke-width="3" stroke-linecap="round" stroke-linejoin="round"/>
<path d="M98.0557 44.7572C101.25 43.1255 103.644 43.5729 106.956 44.7244C107.433 44.8903 112.053 46.4251 109.441 46.165C103.904 45.6133 56.6134 43.0696 56.3872 45.6378C56.3294 46.2938 61.5325 45.3267 61.5263 45.653C61.1958 62.9894 62.1868 80.2277 62.7205 97.5082C62.7359 98.0055 72.4467 93.6109 72.915 93.4754C85.0115 89.9776 97.7646 90.8789 110.01 92.9589C112.619 93.4022 119.785 95.554 117.917 93.6788C117.75 93.5114 117.705 93.7199 118.126 93.4053C121.128 91.1606 118.716 84.1089 118.192 81.5088C116.186 71.5535 114.067 61.6454 113.602 51.4699C113.478 48.7585 116.365 54.2022 117.284 55.3153" stroke="white" stroke-width="3" stroke-linecap="round" stroke-linejoin="round"/>
<path d="M148.3 48.4744C151.834 48.5059 155.057 49.0925 158.525 49.6361C163.574 50.4276 158.498 48.9076 156.352 48.5993C145.764 47.0783 133.15 46.9076 122.737 49.6194C120.03 50.3244 127.307 50.43 128.172 50.5137C128.865 50.5806 134.044 51.1345 130.947 51.1345C129.251 51.1345 131.741 54.433 132.135 56.083C134.627 66.5158 136.49 77.1241 139.659 87.3856C140.061 88.6853 139.266 92.8076 139.266 91.4474C139.266 89.5576 141.966 88.3703 143.296 87.6484C151.007 83.464 161.094 80.3021 169.96 81.4598C172.647 81.8107 171.573 81.9077 169.813 80.5586C168.398 79.4739 166.841 78.3469 165.918 76.7833C163.085 71.9854 162.404 66.0701 161.864 60.6414C161.715 59.1396 162.253 51.5615 159.6 53.301" stroke="white" stroke-width="3" stroke-linecap="round" stroke-linejoin="round"/>
<path d="M46.4123 47.8698C46.5297 47.4864 47.9462 42.4844 48.5022 44.5789C50.7483 53.0405 49.6199 63.124 49.6975 71.7589C49.7358 76.0129 48.2651 84.6605 51.5567 88.3091C51.5799 88.3349 52.7398 89.2722 52.1316 89.0343C48.3261 87.5457 42.5295 88.1864 38.5163 87.7088C32.9264 87.0436 27.015 86.6475 21.548 85.2133C20.488 84.9352 21.1635 85.0257 21.4241 84.8552C22.0532 84.4438 21.1227 79.9182 21.0917 79.6676C19.983 70.6937 19.0914 61.6826 17.8678 52.7245C16.4923 42.6538 16.3156 52.5237 16.8096 52.6811C17.3212 52.8441 18.6158 51.487 18.9806 51.2726C23.9581 48.3468 30.7138 47.8387 36.2982 47.3838C37.5623 47.2808 49.1026 48.0575 48.5515 48.3451C46.574 49.377 43.8413 49.4676 41.6956 50.1871" stroke="white" stroke-width="3" stroke-linecap="round" stroke-linejoin="round"/>
<path d="M9.5148 56.4687C9.64127 55.9789 10.16 52.4977 10.7387 52.3536C10.8572 52.3241 11.8443 67.2457 11.8858 67.8556C12.1815 72.1951 12.7778 85.0752 13.5602 80.7965C13.6527 80.291 13.5866 79.8617 13.2129 79.5008C8.05686 74.5198 4.96572 66.9501 1.77547 60.5944C1.57986 60.2047 2.56309 64.1824 2.94378 60.9608C3.39453 57.1464 3.77108 53.3021 3.99881 49.468C4.00789 49.3151 4.02835 46.7988 3.99298 46.8361C3.23798 47.6328 3.63231 44.5243 4.13009 43.546C4.25781 43.295 7.35526 49.9403 7.62443 50.539C8.57203 52.6468 9.40675 54.7268 11.8684 54.9604" stroke="white" stroke-width="3" stroke-linecap="round" stroke-linejoin="round"/>
<path d="M163.059 53.1497C164.849 59.4284 168.263 65.7521 170.937 71.7118C172.088 74.2768 172.918 76.6197 173.163 79.4399C173.181 79.649 173.05 81.291 173.412 80.4737C174.383 78.283 174.498 76.0679 174.784 73.7084C175.784 65.4595 180.031 40.8881 178.764 49.1002C178.226 52.5866 178.137 50.5692 177.247 48.2409C174.947 42.2236 172.493 36.2968 170.571 30.1397C170.494 29.8924 169.36 24.6581 169.388 27.2953C169.406 28.9718 170.153 30.3225 170.202 31.9421C170.391 38.2717 168.827 44.774 167.587 50.9421C166.964 54.0379 167.497 49.7375 167.575 48.9813" stroke="white" stroke-width="3" stroke-linecap="round" stroke-linejoin="round"/>
<path d="M6.80078 36.558C6.98636 36.0413 7.17004 34.7648 7.8341 34.6407C11.9026 33.8803 17.2939 26.3878 20.2562 23.8669C22.1387 22.265 29.4602 16.0122 32.8403 18.696C34.4805 19.9985 41.3819 25.5051 40.9692 26.8295C40.0097 29.909 24.2871 39.759 25.6769 40.3288" stroke="white" stroke-width="3" stroke-linecap="round" stroke-linejoin="round"/>
<path d="M44.7979 12.5764C43.3813 9.21303 48.1301 18.26 48.6369 19.0948C49.1266 19.9015 53.213 25.3189 50.82 22.0238" stroke="white" stroke-width="3" stroke-linecap="round" stroke-linejoin="round"/>
<path d="M49.623 14.6323C48.6982 12.6661 45.2191 11.2368 48.0275 10.5355C60.9168 7.31684 74.7976 5.77576 87.9533 3.86927C92.2376 3.24841 91.2507 4.12664 92.8277 7.12964C94.5126 10.3381 97.637 12.1809 100.525 14.1417C101.511 14.8116 105.76 17.1434 105.958 18.5326C106.074 19.3438 85.3135 20.6219 84.3298 20.6823C78.1442 21.0618 71.8499 21.818 65.666 22.0009C64.1949 22.0444 67.1179 21.5699 67.7464 21.6254" stroke="white" stroke-width="3" stroke-linecap="round" stroke-linejoin="round"/>
<path d="M110.758 4.33538C110.758 -4.67036 112.894 15.2797 113.121 15.1952" stroke="white" stroke-width="3" stroke-linecap="round" stroke-linejoin="round"/>
<path d="M115.179 5.88497C115.154 5.56255 114.828 3.18056 115.04 3.2721C123.241 6.81269 131.364 10.2673 139.826 13.2071C141.331 13.7302 161.005 18.7869 161.008 20.6915C161.009 21.3584 150.71 21.1188 149.605 21.1188" stroke="white" stroke-width="3" stroke-linecap="round" stroke-linejoin="round"/>
<path d="M121.143 20.0623C120.294 19.5448 117.78 18.4544 120.423 19.4163C129.582 22.7493 139.071 25.1207 148.234 28.4768C151.091 29.5233 163.327 32.6392 163.512 37.2593C163.56 38.464 161.613 38.2717 160.859 38.2717C159.665 38.2717 160.682 39.7184 161.28 40.0329C161.44 40.1169 161.13 36.6332 161.114 36.4785C160.867 34.1288 160.76 31.7651 160.553 29.4138" stroke="white" stroke-width="3" stroke-linecap="round" stroke-linejoin="round"/>
</svg>
