<svg width="251" height="92" viewBox="0 0 251 92" fill="none" xmlns="http://www.w3.org/2000/svg">
<path d="M98.1632 20.1044C97.9228 19.9006 95.9386 18.3672 96.2623 18.056C98.7981 15.6178 111.146 17.3053 113.956 17.3031C126.339 17.2933 138.722 17.5042 151.105 17.5157C154.071 17.5184 161.75 16.3563 164.034 19.3269C164.965 20.537 164.318 27.4405 164.294 28.722C164.117 38.3892 163.043 47.9915 163.425 57.6736C163.523 60.1602 164.461 63.438 164.042 65.9374C163.783 67.4853 151.417 64.68 150.819 64.6331C137.707 63.6047 124.38 63.8855 111.26 64.5759C107.18 64.7906 103.114 65.1488 99.0388 65.4185C98.0425 65.4844 95.8332 66.4404 96.044 65.4645C96.1448 64.9977 97.0173 64.3995 97.1962 63.8096C98.5785 59.2511 96.9373 53.5289 96.0803 49.0807C94.4218 40.4711 93.1388 31.1591 89.8394 22.9868C89.1798 21.3531 86.9868 17.939 86.4531 21.2612" stroke="white" stroke-width="3" stroke-linecap="round" stroke-linejoin="round"/>
<path d="M170.88 22.7188C170.074 19.1013 171.116 25.645 171.121 25.6812C172.693 36.8324 172.947 48.19 172.073 59.4144C172.028 60.0049 171.33 66.1084 171.364 65.9701C171.927 63.6499 172.72 61.3809 173.44 59.1058" stroke="white" stroke-width="3" stroke-linecap="round" stroke-linejoin="round"/>
<path d="M176.781 23.2465C176.178 22.7747 173.941 21.8929 173.614 21.2821C173.326 20.7436 185.958 19.5199 186.104 19.5129C189.105 19.3672 221.22 19.9623 220.178 22.204" stroke="white" stroke-width="3" stroke-linecap="round" stroke-linejoin="round"/>
<path d="M175.055 67.4316C173.275 67.4316 171.494 67.4316 169.714 67.4316C165.294 67.4316 178.549 67.1019 182.967 66.958C193.346 66.6199 203.808 66.6468 214.151 65.6386C215.003 65.5556 219.596 65.4554 217.142 64.1328" stroke="white" stroke-width="3" stroke-linecap="round" stroke-linejoin="round"/>
<path d="M28.0009 22.0889C25.4425 21.9519 17.9472 23.1355 24.9102 22.6728C34.935 22.0067 44.9672 21.8346 55.0136 21.8795C62.6605 21.9136 71.2842 23.4753 78.8749 22.5197C80.1046 22.3649 76.7227 21.198 75.5118 20.9338C74.5072 20.7146 75.5159 21.1405 75.8018 21.6827C79.3323 28.3798 78.7471 38.8147 79.2608 46.0391C79.9038 55.0832 78.7238 67.1614 83.4051 75.3906C85.297 78.7163 82.9093 67.1712 83.1796 67.13C83.4085 67.0952 84.1293 68.5395 84.1488 68.7652C84.1617 68.9139 63.9005 70.9675 63.3816 71.0334C52.2458 72.4473 39.7324 75.7112 28.4188 74.6226C24.6825 74.2631 35.9093 74.0898 39.6614 73.9848" stroke="white" stroke-width="3" stroke-linecap="round" stroke-linejoin="round"/>
<path d="M88.699 11.8794C88.3075 11.8794 88.2862 11.9912 88.2822 12.3951C88.2695 13.6664 88.3919 8.89532 88.4134 8.6091C88.5683 6.54103 88.6502 0.360252 88.957 2.4113C89.4705 5.84429 108.427 3.32825 109.796 3.2364C124.802 2.2297 138.351 2.43078 153.106 4.89613C154.208 5.08027 156.477 6.00606 157.29 6.02589C158.973 6.06693 162.693 3.44732 164.056 4.37489C165.763 5.53657 165.29 9.67317 164.864 11.3653" stroke="white" stroke-width="3" stroke-linecap="round" stroke-linejoin="round"/>
<path d="M175.837 10.2084C173.928 10.2084 174.703 10.8836 173.707 12.2926C172.258 14.3432 173.529 7.26104 173.748 4.75957C173.999 1.90246 173.737 3.09559 175.392 3.87496C181.854 6.91664 191.41 5.94686 198.247 6.19239C205.384 6.44873 213.038 5.83102 220.033 7.56016C221.185 7.84501 222.388 7.19623 222.617 8.62327C223.28 12.7454 223.501 17.2277 220.435 20.2049" stroke="white" stroke-width="3" stroke-linecap="round" stroke-linejoin="round"/>
<path d="M77.8193 14.7081C75.8174 14.4351 74.6525 5.95363 74.8146 6.80932C74.9002 7.26073 75.3358 6.96498 75.5165 6.75695C76.9744 5.07853 71.0658 6.73549 68.8482 6.89341C56.3397 7.7842 41.3763 10.7675 29.1275 6.80138C27.9606 6.42355 26.0851 5.13057 24.7423 5.5312C23.7186 5.8366 23.5055 10.8616 23.3882 11.533C22.9024 14.3155 21.5022 18.4679 22.2282 21.3026C22.4938 22.3396 25.2278 20.5519 25.6994 20.3204" stroke="white" stroke-width="3" stroke-linecap="round" stroke-linejoin="round"/>
<path d="M23.1411 40.9393C23.52 39.9996 23.7316 39.3009 24.8447 39.2177C28.7723 38.9241 18.4577 43.8317 15.1755 46.0089C14.5645 46.4143 9.96636 48.8662 10.8355 50.2979C12.1515 52.4656 18.2782 52.6816 20.4148 52.9842C25.4307 53.6948 27.9021 53.7559 23.0418 50.2646" stroke="white" stroke-width="3" stroke-linecap="round" stroke-linejoin="round"/>
<path d="M29.9388 37.9549C29.9388 37.1561 29.9501 36.4189 29.3599 35.7764C26.3818 32.534 19.7657 33.5224 16.2604 34.9068C8.00264 38.1683 -0.0909926 48.1473 2.77724 57.5281C8.01884 74.6714 41.3118 57.5249 40.2309 42.8199C39.4927 32.7773 28.5748 26.6303 19.3908 28.5837C11.089 30.3494 6.75808 36.07 2.49937 42.5676" stroke="white" stroke-width="3" stroke-linecap="round" stroke-linejoin="round"/>
<path d="M224.674 35.1845C224.483 34.9821 222.219 33.0188 223.109 33.6438C226.779 36.2206 230.607 38.5839 234.255 41.184C234.408 41.2932 224.558 44.8312 222.774 45.6816C219.319 47.3287 219.24 47.6259 222.739 47.2231" stroke="white" stroke-width="3" stroke-linecap="round" stroke-linejoin="round"/>
<path d="M236.016 31.1587C237.305 28.8165 238.875 25.4477 235.111 24.3341C222.955 20.7376 206.012 40.5708 211.442 51.7918C218.087 65.5237 248.167 52.0521 248.975 39.3811C249.475 31.538 241.751 25.5805 234.757 24.3008C226.487 22.7874 220.277 26.5079 213.847 30.7874" stroke="white" stroke-width="3" stroke-linecap="round" stroke-linejoin="round"/>
<path d="M98.6838 89.4799C98.6838 88.923 98.8491 86.9871 97.8359 88.1359C96.9575 89.1318 99.8229 88.398 99.5863 87.3862C99.4861 86.9574 98.5888 87.4432 98.4512 87.5734C97.7336 88.252 98.6162 88.6639 99.051 89.0657" stroke="white" stroke-width="3" stroke-linecap="round" stroke-linejoin="round"/>
<path d="M110.81 87.8089C109.721 81.4291 106.858 90.4374 109.853 90.0526C115.038 89.3864 107.162 84.4258 109.302 88.9085" stroke="white" stroke-width="3" stroke-linecap="round" stroke-linejoin="round"/>
<path d="M123.779 88.5374C126.284 83.9667 121.639 86.7876 122.592 88.2375C125.072 92.0124 126.532 84.8554 123.67 87.0665" stroke="white" stroke-width="3" stroke-linecap="round" stroke-linejoin="round"/>
<path d="M133.761 88.3238C133.351 83.859 130.75 88.065 135.36 88.1001C140.797 88.1414 136.587 85.018 132.868 87.5955" stroke="white" stroke-width="3" stroke-linecap="round" stroke-linejoin="round"/>
<path d="M147.041 87.338C145.816 85.1563 144.094 86.1804 145.64 87.3015C147.104 88.362 153.394 87.889 148.659 87.0666" stroke="white" stroke-width="3" stroke-linecap="round" stroke-linejoin="round"/>
</svg>
