<svg width="55" height="34" viewBox="0 0 55 34" fill="none" xmlns="http://www.w3.org/2000/svg">
<path d="M20.0703 15.8527C20.1173 14.9505 20.1387 13.1497 20.7942 12.406C21.5699 11.5258 21.0248 14.7439 21.043 15.917C21.1008 19.6289 21.0202 23.3433 21.1157 27.0544C21.1193 27.1973 21.0094 30.6977 21.6888 30.6131C22.2182 30.5472 22.5193 30.3612 23.1049 30.4714C27.7686 31.3495 32.3657 29.7575 36.9528 30.5602C37.1142 30.5885 40.0123 31.7458 40.0308 31.5673C40.4308 27.7103 39.3509 23.4845 39.207 19.6318C39.1062 16.9362 39.1164 11.9214 39.1164 10.1539C39.1164 8.96704 39.4597 5.09186 38.4685 4.34491C37.2819 3.4507 32.6001 4.64428 31.3632 4.79795C30.6504 4.8865 22.7071 5.18443 22.7405 5.14166C23.1161 4.66126 22.6375 6.3681 22.4467 6.94725C22.1552 7.8319 19.2757 16.012 21.2518 12.3028" stroke="white" stroke-width="3" stroke-linecap="round" stroke-linejoin="round"/>
<path d="M41.9645 6.84756C41.5816 4.18699 41.8724 6.14106 41.9936 7.87957C42.3556 13.0693 42.1794 18.3094 42.0957 23.5054C42.057 25.9104 42.0073 28.3149 41.9973 30.7203C41.9952 31.213 41.6787 32.5571 42.0164 32.1983C43.2515 30.8865 53.1094 30.5882 53.3412 31.7925C53.4289 32.2484 52.7894 31.4723 52.7486 31.322C52.2732 29.571 52.5619 27.4479 52.5955 25.6783C52.7128 19.4933 52.8206 13.302 53.0719 7.12087C53.1 6.42973 54.0282 2.51417 52.8638 2.27828C49.6528 1.62782 46.0892 2.32157 42.8287 2.32157" stroke="white" stroke-width="3" stroke-linecap="round" stroke-linejoin="round"/>
<path d="M17.0441 5.61119C17.0185 5.52463 16.7712 4.83045 16.7591 4.90015C16.2242 7.97859 16.7105 11.5661 16.6563 14.6688C16.5729 19.454 16.1507 24.3223 16.509 29.1035C16.5637 29.8342 16.6842 30.5896 16.5804 31.3232C16.4818 32.0197 15.443 30.4746 14.799 30.1914C10.7968 28.4318 6.4781 27.5058 2.10832 27.5406C1.74564 27.5435 2.39045 27.0294 2.62613 26.3857C4.82343 20.384 4.52119 13.0408 3.30896 6.83955C2.73385 3.8976 8.15715 4.35089 9.95394 4.49784C13.2717 4.76918 16.4346 5.62108 19.5742 6.67119C20.1768 6.87275 19.6668 6.14311 19.5493 5.87094" stroke="white" stroke-width="3" stroke-linecap="round" stroke-linejoin="round"/>
</svg>
