<svg width="1429" height="409" viewBox="0 0 1429 409" fill="none" xmlns="http://www.w3.org/2000/svg">
<g>
<path d="M1414.88 112.381C1416.94 117.371 1417.67 122.361 1417.09 127.351C1416.5 132.047 1415.03 136.596 1412.68 140.999C1410.33 145.402 1407.11 149.511 1403 153.327C1399.18 156.849 1394.78 160.077 1389.79 163.012C1377.46 170.35 1364.25 175.927 1350.16 179.743C1336.37 183.558 1322.57 187.521 1308.78 191.63C1307.61 192.217 1306.43 192.657 1305.26 192.951C1304.38 193.244 1304.08 194.125 1304.38 195.592C1304.67 197.06 1305.26 197.94 1306.14 198.234C1307.31 198.528 1308.34 198.528 1309.22 198.234C1313.33 197.353 1318.02 196.62 1323.31 196.033C1328.88 195.446 1334.61 195.152 1340.48 195.152C1351.05 195.152 1361.32 196.62 1371.3 199.555C1381.28 202.196 1388.32 207.333 1392.43 214.964C1397.13 223.183 1398.59 231.401 1396.83 239.619C1395.07 247.838 1391.11 255.909 1384.95 263.834C1378.78 271.466 1370.71 278.657 1360.73 285.407C1350.75 292.158 1340.04 298.028 1328.59 303.018C1317.14 307.714 1305.26 311.53 1292.93 314.465C1280.6 317.4 1268.86 318.868 1257.71 318.868C1250.08 318.868 1243.03 318.281 1236.57 317.107C1230.12 315.639 1224.39 313.291 1219.4 310.062C1204.14 302.431 1193.13 290.397 1186.38 273.96C1184.04 267.503 1183.16 257.524 1183.74 244.022C1184.62 230.52 1186.82 215.404 1190.35 198.674C1193.87 181.651 1198.42 164.04 1203.99 145.842C1209.57 127.644 1215.74 110.62 1222.49 94.7707C1229.24 78.921 1236.43 65.2726 1244.06 53.8256C1251.98 42.0851 1259.91 34.6005 1267.83 31.3719C1283.68 24.6211 1298.8 19.7781 1313.18 16.843C1327.86 13.6143 1343.56 12 1360.29 12C1367.92 12 1375.7 13.6143 1383.62 16.843C1391.55 19.7781 1397.27 24.7678 1400.8 31.8121C1404.02 39.737 1403.58 47.2216 1399.47 54.2659C1395.66 61.3102 1389.79 66.1531 1381.86 68.7948C1372.47 72.0234 1362.93 74.9585 1353.25 77.6002C1343.56 80.2418 1334.31 83.7639 1325.51 88.1666C1324.63 88.7536 1323.6 89.3407 1322.43 89.9277C1321.55 90.5147 1321.4 91.542 1321.99 93.0096C1322.57 95.3577 1324.78 95.9447 1328.59 94.7707C1331.23 93.8901 1335.93 92.8628 1342.68 91.6888C1349.72 90.2212 1357.36 88.9004 1365.57 87.7264C1376.73 86.2588 1386.56 86.9926 1395.07 89.9277C1403.58 92.8628 1410.19 100.347 1414.88 112.381Z" fill="white"/>
<path fill-rule="evenodd" clip-rule="evenodd" d="M1336.54 195.199C1337.84 195.169 1339.16 195.154 1340.48 195.154C1351.04 195.154 1361.32 196.622 1371.3 199.557C1381.28 202.198 1388.32 207.335 1392.43 214.966C1397.13 223.185 1398.59 231.403 1396.83 239.621C1395.07 247.84 1391.11 255.911 1384.94 263.836C1378.78 271.467 1370.71 278.658 1360.73 285.409C1350.75 292.16 1340.04 298.03 1328.59 303.02C1317.14 307.716 1305.26 311.532 1292.93 314.467C1280.6 317.402 1268.86 318.87 1257.71 318.87C1250.08 318.87 1243.03 318.283 1236.57 317.109C1230.12 315.641 1224.39 313.293 1219.4 310.064C1204.14 302.433 1193.13 290.399 1186.38 273.962C1184.04 267.505 1183.15 257.526 1183.74 244.024C1184.62 230.522 1186.82 215.406 1190.35 198.676C1193.87 181.652 1198.42 164.042 1203.99 145.844C1209.57 127.646 1215.73 110.622 1222.49 94.7726C1229.24 78.9229 1236.43 65.2745 1244.06 53.8275C1251.98 42.087 1259.91 34.6024 1267.83 31.3737C1283.68 24.6229 1298.8 19.78 1313.18 16.8448C1327.86 13.6162 1343.56 12.0019 1360.29 12.0019C1367.92 12.0019 1375.7 13.6162 1383.62 16.8448C1391.55 19.78 1397.27 24.7697 1400.79 31.814C1404.02 39.7389 1403.58 47.2235 1399.47 54.2678C1395.66 61.3121 1389.79 66.155 1381.86 68.7967C1372.47 72.0253 1362.93 74.9604 1353.25 77.602C1351.19 78.1631 1349.15 78.7639 1347.13 79.4044C1345.04 80.0696 1342.96 80.7777 1340.91 81.5285C1340.8 81.5682 1340.69 81.608 1340.59 81.6478C1337.01 82.9661 1333.5 84.4149 1330.05 85.9942C1328.83 86.5522 1327.62 87.1264 1326.42 87.7169C1326.37 87.7424 1326.32 87.7679 1326.26 87.7934C1326.01 87.9177 1325.76 88.0428 1325.51 88.1685C1324.63 88.7555 1323.6 89.3426 1322.43 89.9296C1321.55 90.5166 1321.4 91.5439 1321.99 93.0115C1322.37 94.527 1323.42 95.3089 1325.14 95.3572C1325.42 95.365 1325.71 95.3538 1326.02 95.3237C1326.78 95.2509 1327.63 95.0672 1328.59 94.7726C1328.65 94.7519 1328.72 94.7312 1328.78 94.7105C1329.06 94.6196 1329.36 94.5272 1329.68 94.4333C1330.5 94.1962 1331.45 93.9493 1332.55 93.6926C1335.14 93.0809 1338.52 92.4136 1342.68 91.6907C1345.01 91.2047 1347.41 90.7348 1349.87 90.2809C1354.84 89.3644 1360.08 88.5135 1365.57 87.7283C1376.73 86.2607 1386.56 86.9945 1395.07 89.9296C1403.58 92.8647 1410.19 100.349 1414.88 112.383C1416.94 117.373 1417.67 122.363 1417.08 127.352C1416.5 132.049 1415.03 136.598 1412.68 141.001C1410.33 145.404 1407.11 149.513 1403 153.328C1399.18 156.851 1394.78 160.079 1389.79 163.014C1377.46 170.352 1364.25 175.929 1350.16 179.745C1345.05 181.159 1339.94 182.593 1334.83 184.047C1330.69 185.224 1326.56 186.413 1322.42 187.616C1322.4 187.621 1322.39 187.625 1322.37 187.63C1319.45 188.479 1316.53 189.335 1313.61 190.198C1312 190.674 1310.39 191.152 1308.78 191.632C1308.6 191.719 1308.43 191.803 1308.25 191.884C1308.13 191.94 1308.01 191.994 1307.89 192.047C1307.81 192.081 1307.74 192.114 1307.66 192.147C1307.52 192.205 1307.38 192.261 1307.24 192.315C1306.58 192.574 1305.92 192.787 1305.26 192.953C1304.38 193.246 1304.08 194.127 1304.38 195.594C1304.67 197.062 1305.26 197.942 1306.14 198.236C1306.29 198.275 1306.45 198.31 1306.6 198.338C1306.76 198.369 1306.92 198.393 1307.08 198.412C1307.87 198.507 1308.58 198.448 1309.22 198.236C1309.69 198.135 1310.17 198.036 1310.66 197.938C1311.04 197.862 1311.43 197.787 1311.82 197.713C1312.87 197.515 1313.95 197.326 1315.07 197.145C1317.63 196.73 1320.38 196.36 1323.31 196.035C1327.63 195.58 1332.04 195.301 1336.54 195.199ZM1365.73 186.605C1368.61 187.221 1371.47 187.945 1374.31 188.776C1386.55 192.048 1396.38 198.777 1402.22 209.532C1408.04 219.785 1410.18 230.754 1407.78 241.967C1405.6 252.124 1400.78 261.708 1393.78 270.708L1393.72 270.789L1393.65 270.869C1386.65 279.534 1377.7 287.444 1367 294.68C1356.43 301.829 1345.12 308.027 1333.06 313.281L1332.95 313.33L1332.84 313.376C1320.84 318.298 1308.4 322.29 1295.52 325.356C1282.46 328.466 1269.84 330.063 1257.71 330.063C1249.51 330.063 1241.79 329.433 1234.57 328.121L1234.33 328.078L1234.09 328.024C1226.72 326.347 1219.93 323.64 1213.85 319.802C1196.35 310.892 1183.68 296.849 1176.03 278.215L1175.94 278.003L1175.86 277.788C1172.73 269.177 1171.96 257.364 1172.56 243.538L1172.56 243.417L1172.57 243.295C1173.49 229.152 1175.79 213.503 1179.39 196.389C1182.99 179 1187.62 161.057 1193.29 142.564C1198.97 124.029 1205.27 106.633 1212.19 90.3863C1219.14 74.0515 1226.65 59.7639 1234.75 47.6186L1234.76 47.5918L1234.78 47.5652C1243.19 35.106 1252.63 25.5108 1263.52 21.0436C1279.89 14.0768 1295.68 9.00018 1310.86 5.89465C1326.38 2.48625 1342.87 0.808594 1360.29 0.808594C1369.48 0.808594 1378.63 2.74676 1387.69 6.41293C1397.98 10.2677 1405.94 17.0812 1410.81 26.8082L1411 27.1927L1411.16 27.5908C1415.6 38.4937 1415.11 49.5819 1409.23 59.7535C1404.95 67.589 1398.71 73.4375 1390.86 77.2105C1393.54 77.7571 1396.17 78.467 1398.72 79.3478C1411.47 83.7459 1419.92 94.5442 1425.27 108.221C1427.97 114.807 1429.02 121.675 1428.2 128.66L1428.2 128.701L1428.19 128.741C1427.43 134.867 1425.51 140.725 1422.56 146.268C1419.56 151.895 1415.52 156.973 1410.61 161.531L1410.6 161.542L1410.59 161.553C1406.13 165.668 1401.08 169.357 1395.49 172.647C1386.04 178.268 1376.12 182.921 1365.73 186.605Z" fill="black"/>
</g>
<g>
<path d="M1238.47 279.586C1229.66 294.555 1217.33 308.937 1201.48 322.732C1185.93 336.527 1168.46 348.708 1149.09 359.275C1130.01 369.841 1110.2 378.353 1089.65 384.81C1069.11 390.974 1049.74 394.056 1031.54 394.056C1019.21 394.056 1007.76 392.442 997.198 389.213C986.925 385.984 977.973 380.848 970.341 373.804C963.004 366.466 957.427 357.073 953.611 345.626C949.796 334.179 948.475 320.384 949.649 304.241C950.823 287.511 954.639 270.634 961.096 253.61C967.847 236.586 976.505 220.15 987.072 204.3C997.932 188.157 1010.41 173.187 1024.49 159.392C1038.58 145.304 1053.7 133.123 1069.84 122.85C1085.99 112.284 1102.72 104.065 1120.03 98.1949C1137.35 92.0311 1154.67 88.9492 1171.98 88.9492C1177.56 88.9492 1182.99 89.3895 1188.27 90.27C1193.56 91.1506 1198.25 92.7649 1202.36 95.113C1206.77 97.1676 1210.44 100.103 1213.37 103.918C1216.31 107.734 1218.21 112.43 1219.09 118.007C1219.97 122.41 1219.24 127.399 1216.89 132.976C1214.84 138.259 1211.76 143.543 1207.65 148.826C1203.83 154.109 1199.43 159.099 1194.44 163.795C1189.45 168.491 1184.46 172.307 1179.47 175.242C1163.91 184.634 1148.8 193.587 1134.12 202.098C1119.74 210.317 1105.06 219.563 1090.09 229.835C1081.58 235.706 1075.13 240.402 1070.72 243.924C1066.32 247.446 1063.24 250.235 1061.48 252.289C1059.72 254.344 1058.84 255.811 1058.84 256.692C1059.13 257.572 1059.57 258.306 1060.16 258.893C1061.62 260.361 1063.24 260.654 1065 259.774C1066.76 258.893 1068.23 258.013 1069.4 257.132C1087.89 241.87 1107.56 229.542 1128.4 220.15C1149.53 210.757 1171.84 206.061 1195.32 206.061C1199.13 206.061 1202.95 206.208 1206.77 206.501C1210.58 206.795 1214.4 207.235 1218.21 207.822C1227.9 209.29 1235.09 212.665 1239.79 217.948C1244.48 222.938 1247.42 228.955 1248.59 235.999C1249.77 243.044 1249.33 250.381 1247.27 258.013C1245.22 265.644 1242.28 272.835 1238.47 279.586Z" fill="white"/>
<path fill-rule="evenodd" clip-rule="evenodd" d="M1248.16 285.18L1248.12 285.263C1238.59 301.452 1225.43 316.727 1208.87 331.144C1192.66 345.511 1174.52 358.153 1154.48 369.087C1134.77 380.004 1114.27 388.809 1093.01 395.491L1092.94 395.512L1092.87 395.533C1071.46 401.956 1051 405.251 1031.54 405.251C1018.23 405.251 1005.67 403.507 993.929 399.92L993.886 399.907L993.844 399.893C982.055 396.188 971.641 390.237 962.751 382.03L962.587 381.879L962.428 381.72C953.677 372.968 947.27 361.995 942.994 349.168C938.583 335.934 937.241 320.581 938.486 303.446C939.744 285.54 943.822 267.596 950.632 249.642L950.662 249.564L950.693 249.486C957.745 231.703 966.775 214.57 977.76 198.093L977.773 198.073L977.786 198.054C989.066 181.287 1002.02 165.746 1016.62 151.438C1031.24 136.83 1046.95 124.158 1063.77 113.447C1080.62 102.427 1098.15 93.8036 1116.36 87.6232C1134.78 81.0758 1153.34 77.7578 1171.99 77.7578C1178.15 77.7578 1184.2 78.2449 1190.12 79.2309L1188.28 90.2719C1182.99 89.3914 1177.56 88.9511 1171.99 88.9511C1154.67 88.9511 1137.35 92.033 1120.03 98.1968C1102.72 104.067 1085.99 112.285 1069.84 122.852C1053.7 133.125 1038.59 145.306 1024.5 159.394C1010.41 173.189 997.933 188.158 987.073 204.302C976.507 220.151 967.848 236.588 961.098 253.612C954.64 270.636 950.825 287.513 949.651 304.243C948.477 320.386 949.797 334.181 953.613 345.628C957.429 357.075 963.006 366.468 970.343 373.806C977.975 380.85 986.927 385.986 997.2 389.215C1007.77 392.444 1019.21 394.058 1031.54 394.058C1049.74 394.058 1069.11 390.976 1089.66 384.812C1110.2 378.355 1130.01 369.843 1149.09 359.277C1168.46 348.71 1185.93 336.529 1201.48 322.734C1217.33 308.939 1229.66 294.557 1238.47 279.588C1242.28 272.837 1245.22 265.646 1247.27 258.015C1249.33 250.383 1249.77 243.045 1248.59 236.001C1247.42 228.957 1244.48 222.94 1239.79 217.95C1235.09 212.667 1227.9 209.291 1218.21 207.824C1214.4 207.237 1210.58 206.797 1206.77 206.503C1202.95 206.21 1199.14 206.063 1195.32 206.063C1171.84 206.063 1149.53 210.759 1128.4 220.151C1124.12 222.083 1119.88 224.138 1115.69 226.317C1108.89 229.86 1102.22 233.73 1095.68 237.929C1095.67 237.933 1095.66 237.937 1095.66 237.941C1089.2 242.088 1082.86 246.556 1076.66 251.343C1074.4 253.084 1072.16 254.868 1069.94 256.694C1069.76 256.84 1069.58 256.987 1069.4 257.134C1069.02 257.425 1068.6 257.715 1068.15 258.006C1067.23 258.596 1066.18 259.186 1065 259.776C1063.24 260.656 1061.63 260.363 1060.16 258.895C1059.57 258.308 1059.13 257.574 1058.84 256.694C1058.84 255.837 1059.67 254.423 1061.34 252.454C1061.39 252.4 1061.43 252.346 1061.48 252.291C1062.04 251.631 1062.75 250.895 1063.58 250.084C1063.69 249.986 1063.79 249.887 1063.89 249.787C1064.09 249.599 1064.3 249.406 1064.51 249.21C1066.16 247.685 1068.23 245.923 1070.72 243.926C1075.13 240.404 1081.58 235.708 1090.1 229.837C1096.82 225.223 1103.49 220.816 1110.09 216.616C1118.19 211.466 1126.2 206.627 1134.12 202.1C1148.8 193.589 1163.92 184.636 1179.47 175.244C1184.46 172.309 1189.45 168.493 1194.44 163.797C1199.43 159.101 1203.83 154.111 1207.65 148.828C1211.76 143.545 1214.84 138.261 1216.89 132.978C1219.24 127.401 1219.98 122.412 1219.1 118.009C1218.21 112.432 1216.31 107.736 1213.37 103.92C1210.44 100.105 1206.77 97.1695 1202.37 95.1149C1198.26 92.7668 1193.56 91.1524 1188.28 90.2719L1190.12 79.2309C1196.38 80.2745 1202.22 82.2125 1207.52 85.171C1213.35 87.9688 1218.3 91.9676 1222.24 97.0956C1226.46 102.577 1228.98 109.028 1230.12 116.051C1231.48 123.167 1230.12 130.357 1227.27 137.178C1224.78 143.527 1221.17 149.646 1216.61 155.542C1212.38 161.369 1207.54 166.837 1202.11 171.948C1196.64 177.098 1191.01 181.437 1185.2 184.858C1178 189.205 1170.9 193.458 1163.88 197.618C1174.14 195.786 1184.63 194.869 1195.32 194.869C1199.42 194.869 1203.53 195.027 1207.63 195.343C1211.72 195.658 1215.82 196.13 1219.9 196.759C1231.12 198.46 1241.05 202.599 1248.05 210.392C1254.27 217.045 1258.12 225.079 1259.63 234.161C1261.1 242.949 1260.51 251.911 1258.08 260.925C1255.79 269.446 1252.5 277.511 1248.21 285.096L1248.16 285.18ZM1066.62 256.694H1069.04Z" fill="black"/>
</g>
<g>
<path d="M808.034 115.808C813.023 104.361 821.095 96.1423 832.248 91.1526C843.695 86.1628 856.61 83.668 870.992 83.668C883.026 83.668 895.354 85.2823 907.975 88.5109C920.889 91.7396 933.217 96.1423 944.957 101.719C956.991 107.296 967.851 114.047 977.537 121.971C987.517 129.896 995.442 138.702 1001.31 148.388C1007.18 157.78 1010.56 167.906 1011.44 178.766C1012.61 189.333 1010.26 200.339 1004.39 211.786C999.404 223.82 993.387 232.186 986.343 236.882C979.592 241.285 972.401 243.486 964.77 243.486C959.486 243.486 954.203 242.752 948.92 241.284C943.637 239.523 938.5 237.469 933.51 235.121C928.521 232.479 923.678 229.691 918.981 226.756C914.579 223.82 910.47 221.032 906.654 218.39C906.067 218.097 905.186 217.803 904.012 217.51C903.132 216.923 902.104 217.363 900.93 218.831C899.463 220.298 899.169 221.619 900.05 222.793C901.224 223.967 902.104 224.848 902.692 225.435C912.377 233.066 922.063 240.991 931.749 249.209C941.729 257.428 950.974 266.38 959.486 276.066C967.998 285.458 975.336 295.731 981.5 306.885C987.664 317.745 991.626 329.779 993.387 342.987C993.974 349.15 993.24 354.874 991.186 360.157C989.425 365.44 986.636 369.99 982.821 373.806C979.298 377.328 975.042 380.116 970.053 382.171C965.063 384.225 959.78 385.253 954.203 385.253C946.572 385.253 938.94 383.051 931.309 378.649C924.265 374.539 917.661 367.495 911.497 357.516C905.333 347.536 899.61 336.529 894.326 324.495C889.337 312.168 884.787 300.134 880.678 288.393C876.862 276.359 873.78 266.673 871.432 259.336C870.845 258.161 870.258 257.134 869.671 256.254C869.084 255.08 867.91 254.639 866.149 254.933C864.095 255.52 863.067 256.694 863.067 258.455C863.067 259.923 863.361 261.977 863.948 264.619C865.709 271.663 867.323 279.881 868.791 289.274C870.552 298.373 871.726 307.765 872.313 317.451C872.9 327.137 872.9 336.676 872.313 346.069C872.019 355.461 870.699 363.973 868.351 371.604C866.002 378.942 862.627 384.959 858.224 389.655C853.822 394.058 847.951 396.259 840.614 396.259C836.504 396.259 831.808 395.379 826.525 393.618C821.535 392.15 815.958 389.509 809.795 385.693C803.631 382.171 798.641 376.154 794.825 367.642C791.01 358.836 788.075 348.563 786.02 336.823C784.259 325.082 783.232 312.168 782.938 298.079C782.645 283.991 782.938 269.609 783.819 254.933C784.699 240.257 786.02 225.728 787.781 211.346C789.836 196.67 791.89 183.169 793.945 170.841C796.293 158.22 798.641 147.214 800.989 137.821C803.631 128.135 805.979 120.797 808.034 115.808ZM932.19 180.527C933.657 179.94 934.391 179.06 934.391 177.886C934.684 176.418 934.538 175.244 933.951 174.363C928.961 164.678 922.21 156.606 913.698 150.149C905.186 143.398 896.821 139.289 888.603 137.821C880.678 136.06 874.221 135.326 869.231 135.62C868.35 135.62 867.47 136.06 866.589 136.941C865.709 137.528 865.269 138.408 865.269 139.582C865.269 140.756 865.709 141.784 866.589 142.664C867.47 143.251 868.35 143.545 869.231 143.545C873.34 143.251 878.917 143.838 885.961 145.306C893.299 146.773 900.784 150.442 908.415 156.312C916.046 161.889 921.77 168.787 925.586 177.005C925.879 177.592 926.613 178.473 927.787 179.647C928.961 180.821 930.429 181.114 932.19 180.527Z" fill="white"/>
<path fill-rule="evenodd" clip-rule="evenodd" d="M797.729 111.442L797.775 111.337C803.852 97.3949 813.918 87.0932 827.679 80.937L827.728 80.9151L827.778 80.8936C840.834 75.2025 855.305 72.4766 870.994 72.4766C884.028 72.4766 897.278 74.2246 910.721 77.6611C924.309 81.0601 937.311 85.7002 949.714 91.5874C962.506 97.5199 974.137 104.737 984.564 113.259C995.403 121.877 1004.23 131.617 1010.85 142.522C1017.6 153.343 1021.54 165.111 1022.58 177.7C1023.99 190.678 1021.05 203.69 1014.56 216.49C1009.17 229.357 1002.09 239.842 992.554 246.197L992.507 246.228L992.459 246.259C983.997 251.778 974.699 254.681 964.771 254.681C961.057 254.681 957.357 254.378 953.678 253.778C958.596 258.526 963.317 263.472 967.84 268.615C976.897 278.618 984.709 289.558 991.268 301.417C998.169 313.593 1002.55 326.997 1004.48 341.509L1004.51 341.718L1004.53 341.927C1005.26 349.572 1004.39 356.977 1001.72 363.958C999.421 370.728 995.758 376.702 990.737 381.722C986.086 386.374 980.558 389.953 974.316 392.523C967.929 395.153 961.194 396.448 954.205 396.448C944.324 396.448 934.784 393.576 925.717 388.346L925.694 388.333L925.671 388.319C916.499 382.969 908.709 374.301 901.976 363.4C895.508 352.928 889.547 341.452 884.079 328.997L884.014 328.848L883.953 328.697C883.944 328.676 883.936 328.655 883.927 328.633C884.007 334.669 883.864 340.657 883.497 346.596C883.167 356.749 881.723 366.211 879.051 374.898L879.032 374.958L879.013 375.018C876.257 383.63 872.133 391.189 866.392 397.313L866.269 397.444L866.141 397.572C859.268 404.446 850.351 407.455 840.615 407.455C835.019 407.455 829.155 406.279 823.173 404.3C817.035 402.47 810.645 399.371 804.062 395.309C795.372 390.281 789.065 382.153 784.613 372.222L784.585 372.158L784.557 372.094C780.319 362.314 777.168 351.163 774.996 338.754L774.973 338.62L774.953 338.485C773.109 326.194 772.051 312.795 771.749 298.314C771.449 283.912 771.75 269.228 772.647 254.264C773.542 239.361 774.883 224.602 776.673 209.988L776.684 209.892L776.698 209.796C778.764 195.041 780.833 181.442 782.906 169.003L782.923 168.899L782.942 168.796C785.32 156.018 787.714 144.779 790.132 135.108L790.161 134.993L790.192 134.878C792.871 125.055 795.363 117.187 797.685 111.548L797.729 111.442ZM809.797 385.695C815.96 389.51 821.537 392.152 826.527 393.62C831.81 395.381 836.506 396.261 840.615 396.261C847.953 396.261 853.824 394.06 858.226 389.657C862.629 384.961 866.004 378.944 868.352 371.606C870.701 363.975 872.021 355.463 872.315 346.07C872.902 336.678 872.902 327.139 872.315 317.453C871.728 307.767 870.554 298.375 868.793 289.276C868.651 288.368 868.508 287.472 868.363 286.586C867.068 278.649 865.662 271.593 864.147 265.417C864.081 265.15 864.016 264.884 863.95 264.621C863.842 264.136 863.744 263.671 863.656 263.226C863.565 262.764 863.484 262.323 863.414 261.904C863.335 261.428 863.269 260.98 863.217 260.559C863.173 260.198 863.138 259.856 863.114 259.535C863.084 259.146 863.069 258.787 863.069 258.457C863.069 256.696 864.096 255.522 866.151 254.935C867.912 254.641 869.086 255.081 869.673 256.256C870.109 256.909 870.544 257.642 870.979 258.457C871.131 258.741 871.283 259.034 871.434 259.337C871.757 260.346 872.094 261.399 872.444 262.497C872.468 262.57 872.491 262.644 872.515 262.717C872.56 262.86 872.606 263.003 872.652 263.147C874.49 268.905 876.699 275.847 879.277 283.973C879.733 285.41 880.201 286.884 880.68 288.395C884.789 300.136 889.339 312.17 894.328 324.497C899.612 336.531 905.335 347.538 911.499 357.518C917.663 367.497 924.267 374.541 931.311 378.65C938.942 383.053 946.574 385.254 954.205 385.254C959.782 385.254 965.065 384.227 970.055 382.173C975.044 380.118 979.3 377.33 982.823 373.808C986.638 369.992 989.426 365.442 991.188 360.159C993.242 354.876 993.976 349.152 993.389 342.989C991.628 329.781 987.665 317.747 981.502 306.887C975.338 295.733 968 285.46 959.488 276.068C950.976 266.382 941.731 257.43 931.751 249.211C929.169 247.02 926.587 244.85 924.005 242.701C920.705 239.954 917.405 237.242 914.105 234.563C914.034 234.506 913.964 234.449 913.894 234.392C911.261 232.256 908.629 230.143 905.996 228.05C905.001 227.259 904.005 226.471 903.009 225.686C902.904 225.603 902.799 225.52 902.693 225.437L900.052 222.795C899.171 221.621 899.465 220.3 900.932 218.833C902.106 217.365 903.134 216.925 904.014 217.512C904.391 217.606 904.737 217.7 905.053 217.794C905.492 217.925 905.873 218.056 906.196 218.187C906.366 218.255 906.519 218.324 906.656 218.392C906.996 218.628 907.339 218.865 907.684 219.103C907.948 219.285 908.213 219.467 908.479 219.651C909.225 220.163 909.981 220.681 910.747 221.204C913.368 222.993 916.113 224.844 918.983 226.757C922.679 229.067 926.466 231.286 930.343 233.414C931.393 233.99 932.449 234.56 933.512 235.123C938.502 237.471 943.638 239.525 948.922 241.286C954.205 242.754 959.488 243.488 964.771 243.488C972.403 243.488 979.594 241.286 986.345 236.884C993.389 232.187 999.406 223.822 1004.4 211.788C1010.27 200.341 1012.61 189.335 1011.44 178.768C1010.56 167.908 1007.18 157.782 1001.31 148.39C995.444 138.704 987.519 129.898 977.539 121.973C967.853 114.048 956.993 107.298 944.959 101.721C933.219 96.1441 920.891 91.7415 907.977 88.5128C895.356 85.2842 883.028 83.6699 870.994 83.6699C856.612 83.6699 843.697 86.1647 832.25 91.1545C821.097 96.1442 813.025 104.363 808.035 115.81C805.981 120.799 803.633 128.137 800.991 137.823C798.643 147.215 796.295 158.222 793.947 170.843C791.892 183.171 789.838 196.672 787.783 211.348C786.022 225.73 784.701 240.259 783.821 254.935C782.94 269.61 782.647 283.993 782.94 298.081C783.234 312.17 784.261 325.084 786.022 336.825C788.077 348.565 791.012 358.838 794.827 367.644C798.643 376.156 803.633 382.173 809.797 385.695ZM868.671 135.681C867.978 135.829 867.285 136.249 866.591 136.942C865.711 137.53 865.271 138.41 865.271 139.584C865.271 140.758 865.711 141.785 866.591 142.666C867.472 143.253 868.352 143.547 869.233 143.547C869.386 143.536 869.541 143.526 869.697 143.517C870.101 143.496 870.517 143.482 870.947 143.476C871.65 143.467 872.388 143.479 873.161 143.513C873.84 143.542 874.547 143.588 875.28 143.651C878.357 143.913 881.918 144.465 885.963 145.308C886.274 145.37 886.586 145.436 886.897 145.506C887.005 145.53 887.112 145.555 887.22 145.58C894.155 147.201 901.221 150.779 908.417 156.314C908.5 156.375 908.583 156.436 908.666 156.498C908.713 156.532 908.76 156.567 908.806 156.601C915.314 161.437 920.411 167.25 924.096 174.04C924.452 174.695 924.794 175.36 925.124 176.034C925.281 176.356 925.436 176.68 925.587 177.007C925.709 177.25 925.906 177.544 926.179 177.888C926.264 177.995 926.357 178.108 926.458 178.226C926.645 178.446 926.858 178.682 927.096 178.936C927.307 179.16 927.538 179.398 927.789 179.649C928.963 180.823 930.43 181.116 932.191 180.529C933.659 179.942 934.393 179.062 934.393 177.888C934.686 176.42 934.54 175.246 933.953 174.365C933.853 174.172 933.752 173.979 933.651 173.786C933.577 173.646 933.503 173.506 933.429 173.366C933.389 173.293 933.35 173.219 933.31 173.146C932.674 171.963 932.011 170.806 931.321 169.673C926.672 162.043 920.798 155.535 913.7 150.151C913.588 150.061 913.475 149.973 913.363 149.884C913.311 149.843 913.258 149.802 913.206 149.761C904.864 143.242 896.664 139.262 888.605 137.823C888.257 137.746 887.912 137.67 887.57 137.597C887.549 137.593 887.528 137.588 887.508 137.584C882.927 136.604 878.853 135.98 875.287 135.711C874.728 135.669 874.181 135.636 873.646 135.611C872.846 135.574 872.074 135.557 871.329 135.559C870.604 135.561 869.905 135.582 869.233 135.622C869.046 135.622 868.858 135.642 868.671 135.681Z" fill="black"/>
</g>
<g>
<path d="M659.947 283.545C660.534 287.654 662.002 289.709 664.35 289.709C666.111 289.709 666.992 288.681 666.992 286.627C667.285 284.572 667.432 283.105 667.432 282.224C667.726 274.006 667.726 264.467 667.432 253.607C667.139 242.747 666.992 231.446 666.992 219.706C666.992 207.965 667.285 196.078 667.872 184.044C668.459 172.01 669.78 160.71 671.835 150.143C673.889 139.283 676.971 129.597 681.08 121.085C685.19 112.28 690.62 105.383 697.37 100.393C701.186 97.4576 705.148 95.2563 709.258 93.7888C713.367 92.0277 717.182 90.8536 720.705 90.2666C724.52 89.6796 727.896 89.3861 730.831 89.3861C734.059 89.3861 736.554 89.3861 738.315 89.3861C751.523 90.8536 762.677 94.9628 771.776 101.714C780.875 108.171 788.213 116.243 793.789 125.928C799.366 135.321 803.329 145.741 805.677 157.188C808.025 168.635 809.052 180.082 808.759 191.529C808.465 205.324 807.144 219.999 804.796 235.556C802.742 250.818 799.513 265.934 795.11 280.903C790.708 295.579 784.984 309.668 777.94 323.169C770.895 336.671 762.383 348.558 752.404 358.831C742.425 369.104 730.831 377.322 717.623 383.486C704.415 389.356 689.299 392.291 672.275 392.291C655.251 392.291 639.695 389.503 625.606 383.926C611.518 378.35 598.897 370.718 587.743 361.032C576.883 351.346 567.491 339.753 559.566 326.251C551.641 312.749 545.331 298.074 540.634 282.224C538.286 273.712 536.085 263.146 534.03 250.525C531.976 237.61 530.802 223.962 530.508 209.58C530.215 195.198 530.948 180.815 532.71 166.433C534.471 151.758 537.699 138.696 542.395 127.249C547.385 115.509 554.136 105.97 562.648 98.6317C571.453 91.2939 582.607 87.625 596.108 87.625C604.914 87.625 613.572 90.4134 622.084 95.9901C630.596 101.273 637.347 107.437 642.337 114.481C648.207 122.406 652.169 133.707 654.224 148.382C656.572 163.058 657.893 178.761 658.186 195.491C658.773 211.928 658.92 228.071 658.627 243.921C658.627 259.77 659.067 272.978 659.947 283.545Z" fill="white"/>
<path fill-rule="evenodd" clip-rule="evenodd" d="M668.484 174.773C669.201 166.163 670.318 157.954 671.837 150.145C673.891 139.285 676.973 129.599 681.082 121.087C685.191 112.282 690.621 105.384 697.372 100.395C701.188 97.4595 705.15 95.2582 709.26 93.7907C713.369 92.0296 717.184 90.8555 720.707 90.2685C724.522 89.6815 727.898 89.388 730.833 89.388H738.317C751.525 90.8555 762.679 94.9647 771.778 101.715C780.877 108.173 788.215 116.244 793.791 125.93C799.368 135.323 803.33 145.742 805.679 157.189C808.027 168.636 809.054 180.083 808.76 191.53C808.467 205.326 807.146 220.001 804.798 235.557C802.743 250.82 799.515 265.936 795.112 280.905C790.709 295.581 784.986 309.669 777.942 323.171C770.897 336.673 762.385 348.56 752.406 358.833C742.427 369.106 730.833 377.324 717.625 383.488C704.417 389.358 689.301 392.293 672.277 392.293C655.253 392.293 639.697 389.505 625.608 383.928C611.52 378.352 598.899 370.72 587.745 361.034C576.885 351.348 567.493 339.755 559.568 326.253C551.643 312.751 545.332 298.076 540.636 282.226C538.288 273.714 536.087 263.148 534.032 250.527C531.978 237.612 530.804 223.964 530.51 209.582C530.217 195.199 530.95 180.817 532.711 166.435C534.473 151.759 537.701 138.698 542.397 127.251C547.387 115.511 554.138 105.971 562.65 98.6336C571.455 91.2958 582.609 87.6269 596.11 87.6269C604.916 87.6269 613.574 90.4152 622.086 95.992C630.598 101.275 637.349 107.439 642.339 114.483C648.209 122.408 652.171 133.708 654.226 148.384C655.576 156.823 656.587 165.602 657.258 174.721C657.472 177.631 657.651 180.575 657.796 183.554C657.987 187.474 658.117 191.453 658.188 195.493C658.479 203.637 658.662 211.708 658.737 219.708C658.813 227.854 658.777 235.926 658.629 243.923C658.629 247.354 658.649 250.661 658.69 253.845C658.819 263.769 659.148 272.489 659.678 280.007C659.724 280.665 659.772 281.314 659.822 281.954C659.829 282.045 659.836 282.136 659.843 282.226C659.877 282.671 659.913 283.111 659.949 283.547C660.062 284.335 660.207 285.048 660.384 285.685C660.478 286.02 660.58 286.335 660.692 286.629C661.472 288.683 662.692 289.711 664.352 289.711C666.113 289.711 666.994 288.683 666.994 286.629C667.22 285.046 667.359 283.811 667.411 282.925C667.42 282.765 667.427 282.616 667.43 282.478C667.433 282.389 667.434 282.305 667.434 282.226C667.469 281.239 667.5 280.232 667.527 279.206C667.723 271.696 667.692 263.164 667.434 253.608C667.349 250.47 667.277 247.294 667.216 244.082C667.215 244.029 667.214 243.976 667.213 243.923C667.067 236.071 666.994 227.999 666.994 219.708C666.994 211.651 667.132 203.526 667.408 195.331C667.41 195.275 667.412 195.219 667.414 195.163C667.539 191.472 667.693 187.766 667.874 184.046C668.027 180.905 668.231 177.814 668.484 174.773ZM663.478 136.572C665.453 129.344 667.941 122.573 670.97 116.287C675.724 106.124 682.22 97.7004 690.632 91.4576C695.158 87.9887 700 85.2547 705.16 83.3703C709.791 81.4086 714.372 79.9765 718.866 79.2275L718.935 79.216L719.005 79.2053C723.219 78.557 727.183 78.1947 730.833 78.1947H738.937L739.553 78.2631C754.343 79.9064 767.425 84.5779 778.351 92.655C788.705 100.023 797.097 109.259 803.454 120.28C809.69 130.8 814.068 142.382 816.644 154.94C819.157 167.195 820.264 179.483 819.951 191.789C819.646 206.093 818.28 221.214 815.879 237.141C813.747 252.943 810.403 268.586 805.851 284.064L805.842 284.093L805.833 284.122C801.229 299.471 795.239 314.216 787.865 328.349C780.351 342.751 771.216 355.534 760.435 366.632C749.491 377.897 736.776 386.903 722.358 393.631L722.265 393.675L722.171 393.717C707.3 400.326 690.592 403.487 672.277 403.487C654.016 403.487 637.041 400.492 621.489 394.336C606.255 388.306 592.539 380.022 580.406 369.486L580.35 369.437L580.295 369.388C568.501 358.869 558.385 346.349 549.915 331.919C541.506 317.593 534.844 302.076 529.904 285.406L529.874 285.305L529.846 285.203C527.355 276.174 525.078 265.184 522.984 252.325L522.981 252.305L522.978 252.285C520.835 238.817 519.622 224.654 519.319 209.81C519.015 194.897 519.776 179.989 521.6 165.088C523.459 149.604 526.898 135.539 532.042 123.003L532.068 122.938L532.096 122.873C537.665 109.769 545.365 98.7556 555.341 90.1557L555.412 90.0946L555.484 90.0347C566.647 80.7323 580.479 76.4336 596.11 76.4336C607.375 76.4336 618.094 80.0209 628.104 86.5534C637.596 92.4625 645.456 99.5505 651.405 107.918C657.096 115.638 660.993 125.346 663.478 136.572Z" fill="black"/>
</g>
<g>
<path d="M282.673 368.96C268.584 358.1 259.339 343.424 254.936 324.933C250.827 306.441 250.533 286.629 254.056 265.496C257.578 244.07 264.622 222.497 275.189 200.777C285.755 178.763 298.816 158.951 314.373 141.34C330.222 123.436 347.98 108.907 367.645 97.7537C387.604 86.6002 408.737 81.0234 431.044 81.0234C446.894 81.0234 463.037 84.3989 479.474 91.1497C496.204 97.9005 512.934 108.76 529.664 123.73C543.459 136.057 551.825 151.32 554.76 169.518C557.695 187.715 556.521 207.087 551.238 227.633C545.954 247.886 537.149 268.138 524.821 288.39C512.787 308.643 498.258 326.841 481.235 342.984C464.211 359.127 445.426 372.335 424.88 382.608C404.334 392.588 383.348 397.577 361.922 397.577C348.714 397.577 335.359 395.229 321.857 390.533C308.649 386.13 295.588 378.939 282.673 368.96ZM446.013 183.166C424.88 193.732 407.563 208.702 394.061 228.073C380.56 247.445 370.434 268.578 363.683 291.472C362.802 294.701 363.536 296.609 365.884 297.196C368.232 297.489 369.846 296.315 370.727 293.674C377.771 272.541 387.604 252.729 400.225 234.237C412.846 215.746 429.576 201.07 450.416 190.21C451.296 189.623 452.03 188.743 452.617 187.569C453.204 186.395 453.204 185.221 452.617 184.047C451.443 181.992 449.242 181.698 446.013 183.166Z" fill="white"/>
<path fill-rule="evenodd" clip-rule="evenodd" d="M314.374 141.342C298.818 158.953 285.757 178.765 275.19 200.779C264.624 222.499 257.58 244.072 254.057 265.498C250.535 286.631 250.829 306.443 254.938 324.935C259.341 343.426 268.586 358.102 282.675 368.962C295.59 378.941 308.651 386.132 321.859 390.535C335.361 395.231 348.715 397.579 361.924 397.579C383.35 397.579 404.336 392.589 424.882 382.61C445.428 372.337 464.213 359.129 481.237 342.986C498.26 326.842 512.789 308.645 524.823 288.392C537.151 268.14 545.956 247.887 551.239 227.635C556.523 207.089 557.697 187.717 554.762 169.519C551.826 151.322 543.461 136.059 529.666 123.731C512.936 108.762 496.206 97.9023 479.475 91.1515C463.039 84.4007 446.896 81.0253 431.046 81.0253C408.739 81.0253 387.606 86.6021 367.647 97.7556C347.982 108.909 330.224 123.438 314.374 141.342ZM483.697 80.7847C466.084 73.5551 448.51 69.832 431.046 69.832C406.778 69.832 383.771 75.9227 362.187 87.9845L362.156 88.0017L362.125 88.0192C341.325 99.8164 322.614 115.148 305.993 133.923L305.985 133.932C289.726 152.338 276.105 173.012 265.112 195.908C254.133 218.481 246.73 241.075 243.014 263.671C239.289 286.031 239.553 307.301 244.011 327.363L244.03 327.445L244.049 327.527C249.001 348.326 259.576 365.287 275.836 377.823C289.555 388.423 303.691 396.268 318.251 401.131C332.815 406.189 347.388 408.772 361.924 408.772C385.155 408.772 407.805 403.348 429.772 392.678L429.83 392.65L429.888 392.622C451.442 381.845 471.131 367.994 488.939 351.108C506.699 334.266 521.863 315.275 534.416 294.161C547.22 273.116 556.483 251.879 562.07 230.461L562.075 230.442L562.08 230.423C567.69 208.608 569.027 187.669 565.812 167.737C562.466 146.994 552.827 129.417 537.125 115.385C519.668 99.7667 501.868 88.1224 483.697 80.7847ZM372.437 288.729C379.332 269.444 388.595 251.281 400.227 234.239C400.515 233.817 400.805 233.397 401.098 232.978C412.709 216.374 427.696 202.906 446.06 192.573C447.177 191.944 448.306 191.327 449.448 190.722C449.539 190.674 449.629 190.626 449.72 190.578C449.952 190.456 450.185 190.334 450.418 190.212C451.298 189.625 452.032 188.745 452.619 187.571C453.206 186.397 453.206 185.222 452.619 184.048C451.519 182.123 449.517 181.744 446.613 182.911C446.418 182.99 446.218 183.075 446.015 183.168C445.942 183.205 445.868 183.241 445.795 183.278C445.503 183.425 445.211 183.573 444.92 183.721C443.898 184.243 442.885 184.775 441.882 185.317C422.613 195.729 406.674 209.982 394.063 228.075C393.755 228.518 393.449 228.961 393.144 229.405C381.139 246.901 371.864 265.822 365.32 286.168C364.769 287.882 364.237 289.606 363.724 291.341C363.711 291.385 363.698 291.43 363.685 291.474C362.804 294.703 363.538 296.611 365.886 297.198C368.234 297.491 369.848 296.317 370.729 293.676C370.741 293.638 370.754 293.6 370.767 293.562C370.783 293.515 370.799 293.467 370.815 293.419C371.34 291.848 371.881 290.285 372.437 288.729Z" fill="black"/>
</g>
<g>
<path d="M319.511 168.056C317.163 180.09 311.293 189.922 301.901 197.554C292.508 205.185 281.208 209.001 268 209.001C261.543 209.001 255.232 207.973 249.068 205.919C242.904 204.158 236.594 201.369 230.137 197.554C223.679 193.738 217.222 189.629 210.765 185.226C204.601 180.823 198.584 176.421 192.714 172.018C186.843 167.322 181.56 163.066 176.864 159.25C174.809 157.783 173.048 157.783 171.581 159.25C170.407 160.424 170.113 161.598 170.7 162.772C171.581 163.653 172.461 164.387 173.342 164.974C178.919 169.376 185.376 174.366 192.714 179.943C200.345 185.52 208.123 191.683 216.048 198.434C223.973 204.891 231.751 211.789 239.382 219.127C247.014 226.465 253.764 234.096 259.635 242.021C265.505 249.652 270.054 257.577 273.283 265.795C276.805 273.72 278.273 281.645 277.686 289.57C276.805 302.191 273.43 312.904 267.56 321.71C261.983 330.515 254.792 337.706 245.986 343.283C237.181 348.86 227.201 352.969 216.048 355.61C204.895 357.958 193.301 359.133 181.267 359.133C168.059 359.133 154.997 357.812 142.083 355.17C129.462 352.528 117.721 348.86 106.861 344.163C95.7077 339.174 84.1139 332.716 72.0799 324.792C60.0458 316.867 49.1858 308.061 39.4999 298.375C30.1075 288.396 22.7697 277.976 17.4864 267.116C12.2032 255.963 10.7356 244.809 13.0837 233.656C13.9643 229.84 15.2851 225.878 17.0462 221.768C19.1008 217.366 21.5956 213.403 24.5307 209.881C27.7594 206.065 31.2815 202.69 35.0972 199.755C39.2064 196.82 43.7559 194.618 48.7456 193.151C51.3872 192.564 54.0288 192.124 56.6704 191.83C59.312 191.537 61.8069 191.39 64.155 191.39C76.4826 191.39 87.3425 194.178 96.735 199.755C106.421 205.038 115.226 211.349 123.151 218.687C131.369 225.731 139.148 232.922 146.485 240.26C154.117 247.598 162.042 253.174 170.26 256.99C170.847 257.283 171.728 257.724 172.902 258.311C174.369 258.604 175.396 258.311 175.983 257.43C177.158 255.963 176.717 254.642 174.663 253.468C171.728 251.707 166.444 248.038 158.813 242.461C151.182 236.591 143.257 229.106 135.038 220.007C126.82 210.908 119.335 200.195 112.585 187.868C106.127 175.247 102.458 161.305 101.578 146.042C101.284 138.117 102.018 130.192 103.779 122.267C105.834 114.343 108.769 106.858 112.585 99.8138C116.4 92.7694 121.097 86.3121 126.673 80.4419C132.25 74.2781 138.414 69.2884 145.165 65.4727C157.199 58.4284 170.113 54.9062 183.908 54.9062C206.215 54.9062 231.164 63.2714 258.754 80.0016C265.505 84.4043 272.843 89.9811 280.768 96.7319C288.692 103.189 295.737 110.38 301.901 118.305C308.358 126.23 313.348 134.448 316.87 142.96C320.392 151.472 321.272 159.837 319.511 168.056Z" fill="white"/>
<path fill-rule="evenodd" clip-rule="evenodd" d="M121.556 202.665C118.433 198.023 115.442 193.091 112.583 187.87C106.126 175.248 102.457 161.307 101.576 146.044C101.283 138.119 102.017 130.194 103.778 122.269C105.832 114.345 108.767 106.86 112.583 99.8156C116.399 92.7713 121.095 86.314 126.672 80.4438C132.248 74.28 138.412 69.2903 145.163 65.4746C157.197 58.4303 170.112 54.9081 183.907 54.9081C206.214 54.9081 231.162 63.2733 258.753 80.0035C265.503 84.4062 272.841 89.9829 280.766 96.7337C288.691 103.191 295.735 110.382 301.899 118.307C308.356 126.232 313.346 134.45 316.868 142.962C320.39 151.474 321.271 159.839 319.51 168.057C317.162 180.091 311.291 189.924 301.899 197.555C292.507 205.187 281.206 209.002 267.998 209.002C261.541 209.002 255.23 207.975 249.067 205.921C244.794 204.7 240.451 202.986 236.038 200.778C234.084 199.8 232.117 198.726 230.135 197.555C227.212 195.828 224.288 194.04 221.365 192.193C221.314 192.16 221.263 192.128 221.212 192.096C217.729 189.892 214.246 187.603 210.763 185.228C205.938 181.781 201.202 178.334 196.556 174.887C196.524 174.863 196.492 174.84 196.46 174.816C195.204 173.884 193.955 172.952 192.712 172.02C188.696 168.807 184.954 165.8 181.487 162.999C180.104 161.881 178.765 160.797 177.47 159.745C177.379 159.671 177.288 159.598 177.198 159.525C177.15 159.485 177.101 159.446 177.053 159.407C176.989 159.355 176.926 159.303 176.862 159.252C176.261 158.822 175.684 158.518 175.133 158.34C173.801 157.91 172.617 158.214 171.579 159.252C170.405 160.426 170.112 161.6 170.699 162.774C171.341 163.416 171.983 163.981 172.625 164.467C172.737 164.551 172.849 164.634 172.961 164.714C173.088 164.804 173.214 164.891 173.34 164.976C174.752 166.09 176.22 167.242 177.744 168.431C181.141 171.082 184.817 173.919 188.774 176.943C188.826 176.983 188.878 177.023 188.93 177.063C190.164 178.005 191.424 178.966 192.712 179.945C197.354 183.337 202.051 186.947 206.802 190.774C206.841 190.805 206.879 190.836 206.918 190.867C209.939 193.302 212.982 195.825 216.046 198.436C219.088 200.914 222.108 203.458 225.106 206.066C226.629 207.39 228.145 208.731 229.657 210.088C232.924 213.024 236.165 216.037 239.381 219.129C247.012 226.467 253.763 234.098 259.633 242.023C265.503 249.654 270.053 257.579 273.282 265.797C276.804 273.722 278.271 281.647 277.684 289.572C276.804 302.193 273.428 312.906 267.558 321.711C261.981 330.517 254.79 337.708 245.985 343.285C237.179 348.861 227.2 352.971 216.046 355.612C204.893 357.96 193.299 359.134 181.265 359.134C168.057 359.134 154.996 357.814 142.081 355.172C129.46 352.53 117.72 348.861 106.86 344.165C95.7061 339.176 84.1124 332.718 72.0783 324.793C60.0443 316.869 49.1843 308.063 39.4984 298.377C30.106 288.398 22.7681 277.978 17.4849 267.118C12.2017 255.965 10.7341 244.811 13.0822 233.658C13.9627 229.842 15.2836 225.88 17.0446 221.77C19.0992 217.368 21.5941 213.405 24.5292 209.883C27.7579 206.067 31.28 202.692 35.0957 199.757C39.2049 196.822 43.7543 194.62 48.744 193.153C51.3857 192.566 54.0273 192.126 56.6689 191.832C59.3105 191.538 61.8054 191.392 64.1535 191.392C76.481 191.392 87.341 194.18 96.7334 199.757C102.581 202.946 108.108 206.51 113.313 210.449C116.73 213.034 120.009 215.781 123.15 218.688C125.444 220.655 127.704 222.633 129.93 224.622C135.676 229.759 141.195 234.972 146.484 240.262C149.251 242.922 152.056 245.351 154.9 247.548C154.941 247.58 154.983 247.612 155.025 247.645C158.464 250.293 161.96 252.603 165.512 254.574C167.083 255.446 168.665 256.252 170.258 256.992L172.9 258.313C174.368 258.606 175.395 258.313 175.982 257.432C177.053 256.093 176.781 254.877 175.165 253.782C175.01 253.677 174.842 253.573 174.661 253.47C174.439 253.337 174.204 253.192 173.955 253.038C173.555 252.788 173.121 252.511 172.651 252.206C172.608 252.177 172.564 252.149 172.52 252.12C171.35 251.356 169.971 250.421 168.381 249.316C165.761 247.495 162.571 245.21 158.811 242.463C156.2 240.454 153.555 238.257 150.875 235.87C150.845 235.843 150.814 235.816 150.784 235.789C145.661 231.22 140.411 225.96 135.037 220.009C132.904 217.648 130.821 215.178 128.787 212.6C128.72 212.515 128.654 212.43 128.587 212.345C126.173 209.272 123.83 206.045 121.556 202.665ZM100.765 189.165C89.8427 183.094 77.536 180.198 64.1535 180.198C61.3426 180.198 58.4322 180.374 55.4328 180.707C52.3835 181.046 49.344 181.553 46.3159 182.226L45.9476 182.308L45.5857 182.414C39.4333 184.224 33.7463 186.965 28.5897 190.648L28.4283 190.764L28.271 190.885C23.8016 194.323 19.7068 198.254 15.9844 202.653L15.9572 202.685L15.9303 202.717C12.3421 207.023 9.33958 211.812 6.90146 217.037L6.82634 217.198L6.75637 217.361C4.76939 221.997 3.22486 226.594 2.17556 231.141L2.15127 231.246L2.12901 231.352C-0.765626 245.101 1.13069 258.74 7.3691 271.91L7.39403 271.962L7.4195 272.015C13.2586 284.017 21.283 295.355 31.3474 306.049L31.4636 306.172L31.5835 306.292C41.8326 316.541 53.2875 325.821 65.9221 334.142C78.3735 342.341 90.4968 349.107 102.289 354.383L102.353 354.411L102.417 354.439C114.027 359.46 126.495 363.346 139.788 366.128L139.813 366.133L139.838 366.138C153.492 368.931 167.305 370.328 181.265 370.328C194.031 370.328 206.4 369.082 218.352 366.565L218.49 366.537L218.626 366.504C230.868 363.605 242.02 359.045 251.974 352.741C262.141 346.302 270.492 337.963 276.945 327.81C284.037 317.125 287.861 304.496 288.849 290.372C289.573 280.531 287.738 270.854 283.611 261.479C279.983 252.31 274.94 243.577 268.568 235.279C264.423 229.69 259.884 224.261 254.959 218.988C259.246 219.792 263.595 220.196 267.998 220.196C283.526 220.196 297.383 215.647 308.957 206.243C320.388 196.955 327.62 184.827 330.477 170.3C332.729 159.684 331.5 149.046 327.211 138.682C323.244 129.097 317.689 119.983 310.656 111.334C304.008 102.803 296.428 95.0683 287.933 88.1348C279.778 81.1931 272.085 75.3355 264.867 70.6279L264.713 70.5276L264.556 70.4324C235.953 53.0877 208.978 43.7148 183.907 43.7148C168.13 43.7148 153.291 47.7633 139.581 55.7721C131.781 60.1921 124.744 65.9108 118.463 72.8328C112.257 79.3827 107.009 86.6052 102.741 94.4845C98.484 102.344 95.2198 110.677 92.9427 119.46L92.8935 119.65L92.851 119.841C90.8876 128.676 90.0611 137.556 90.3908 146.458L90.395 146.573L90.4017 146.689C91.2789 161.894 94.7044 176.09 100.765 189.165ZM174.494 162.167L173.634 161.307L176.26 159.994M174.494 162.167L173.634 161.307Z" fill="black"/>
</g>
</svg>
