<svg width="138" height="119" viewBox="0 0 138 119" fill="none" xmlns="http://www.w3.org/2000/svg">
<path d="M3.42896 95.283C1.25422 97.4076 2.9242 97.6023 5.26699 95.8995C20.4546 84.8607 32.5656 69.497 46.5376 56.9889C49.3647 54.4581 47.3129 55.212 48.9584 57.1567" stroke="white" stroke-width="4" stroke-linecap="round" stroke-linejoin="round"/>
<path d="M49.0037 54.317C47.0112 54.268 46.7891 57.5601 46.7891 57.306C46.7891 52.1201 48.8874 46.9906 50.247 42.0842C51.0865 39.0545 61.1856 9.76165 57.9199 8.39833C56.6194 7.85541 58.8973 11.845 59.1173 12.2554" stroke="white" stroke-width="4" stroke-linecap="round" stroke-linejoin="round"/>
<path d="M61.474 4.92911C60.1416 4.82857 59.1918 4.56737 59.3491 3.04537C59.401 2.54302 60.9897 3.26214 60.9998 3.26471C68.3275 5.12876 75.9844 5.51517 83.4632 6.42721C89.4896 7.16215 95.805 7.79167 101.444 10.2126C102.601 10.7092 104.056 12.0757 105.306 12.3558C106.786 12.6874 106.66 10.2129 108.232 12.1673" stroke="white" stroke-width="4" stroke-linecap="round" stroke-linejoin="round"/>
<path d="M111.064 12.8244C111.35 11.4512 111.698 10.0891 112.047 8.73074C112.547 6.78713 109.971 16.6983 109.782 17.204C106.082 27.0773 98.611 38.2913 98.0776 49.0312C98.015 50.291 98.8338 50.2927 99.8205 50.2927" stroke="white" stroke-width="4" stroke-linecap="round" stroke-linejoin="round"/>
<path d="M5.88781 101.76C4.14618 101.611 2.69191 101.341 5.06891 102.907C14.7591 109.291 25.7462 114.845 37.3571 116.384C37.7142 116.431 50.5378 117.262 50.3249 115.436C50.1983 114.349 46.2554 114.607 45.5087 114.623" stroke="white" stroke-width="4" stroke-linecap="round" stroke-linejoin="round"/>
<path d="M49.4788 113.914C48.8206 113.914 47.9996 113.78 47.4425 114.209C47.0511 114.511 53.6669 105.614 54.3817 104.671C64.8638 90.842 77.513 78.9448 88.1213 65.3151C89.5476 63.4825 90.0944 60.2838 92.4619 61.84" stroke="white" stroke-width="4" stroke-linecap="round" stroke-linejoin="round"/>
<path d="M67.3283 59.7112C65.5117 59.3347 62.0512 59.4538 60.4758 58.4611C59.395 57.7801 63.0224 58.1982 64.2998 58.2102C68.8801 58.2533 73.4572 58.4742 78.0297 58.7277C83.0655 59.0069 88.1145 59.2642 93.1415 59.6796C94.2158 59.7684 91.044 59.1796 90.0034 58.8983" stroke="white" stroke-width="4" stroke-linecap="round" stroke-linejoin="round"/>
<path d="M113.379 9.27734C108.833 9.27734 123.674 16.2494 124.508 16.5915C127.07 17.644 129.659 18.6298 132.277 19.5376C132.773 19.7096 134.054 20.4386 133.786 19.987C133.426 19.3799 133.201 18.7678 133.356 18.0767" stroke="white" stroke-width="4" stroke-linecap="round" stroke-linejoin="round"/>
<path d="M109.938 47.79C108.603 48.5672 107.333 49.3104 106.238 50.4114C105.33 51.3243 113.063 42.8675 113.585 42.3187C119.961 35.6148 126.61 27.7784 134.358 22.5889C135.777 21.6387 135.792 25.9488 136.002 27.0173" stroke="white" stroke-width="4" stroke-linecap="round" stroke-linejoin="round"/>
</svg>
