<svg width="876" height="439" viewBox="0 0 876 439" fill="none" xmlns="http://www.w3.org/2000/svg">
<g>
<path d="M857.158 135.109C859.596 141.03 860.466 146.951 859.77 152.871C859.073 158.444 857.332 163.842 854.546 169.066C851.759 174.29 847.928 179.166 843.053 183.694C838.525 187.873 833.301 191.704 827.38 195.187C812.753 203.893 797.081 210.511 780.363 215.038C763.995 219.566 747.626 224.267 731.257 229.143C729.864 229.84 728.471 230.362 727.078 230.71C726.033 231.059 725.685 232.103 726.033 233.845C726.381 235.586 727.078 236.631 728.122 236.979C729.516 237.328 730.734 237.328 731.779 236.979C736.655 235.934 742.227 235.064 748.496 234.367C755.114 233.671 761.905 233.322 768.87 233.322C781.408 233.322 793.598 235.064 805.439 238.547C817.28 241.681 825.639 247.776 830.515 256.831C836.087 266.583 837.828 276.334 835.739 286.086C833.649 295.837 828.947 305.415 821.634 314.818C814.32 323.873 804.743 332.406 792.901 340.416C781.06 348.427 768.348 355.392 754.765 361.313C741.183 366.885 727.078 371.413 712.45 374.896C697.823 378.378 683.892 380.12 670.657 380.12C661.602 380.12 653.244 379.423 645.582 378.03C637.92 376.289 631.128 373.502 625.208 369.671C607.098 360.616 594.037 346.337 586.027 326.834C583.241 319.172 582.196 307.331 582.893 291.31C583.937 275.289 586.549 257.353 590.729 237.502C594.908 217.302 600.306 196.406 606.923 174.813C613.541 153.22 620.854 133.02 628.865 114.213C636.875 95.4063 645.408 79.2116 654.463 65.6289C663.866 51.698 673.269 42.817 682.673 38.986C701.48 30.9758 719.416 25.2292 736.481 21.7465C753.895 17.9155 772.527 16 792.379 16C801.434 16 810.663 17.9155 820.067 21.7465C829.47 25.2292 836.261 31.1499 840.441 39.5084C844.272 48.9118 843.749 57.7928 838.873 66.1513C834.346 74.5099 827.38 80.2564 817.977 83.3909C806.832 87.2219 795.513 90.7046 784.02 93.839C772.527 96.9735 761.557 101.153 751.108 106.377C750.064 107.073 748.845 107.77 747.452 108.467C746.407 109.163 746.233 110.382 746.929 112.123C747.626 114.91 750.238 115.606 754.765 114.213C757.9 113.168 763.472 111.949 771.482 110.556C779.841 108.815 788.896 107.248 798.648 105.854C811.882 104.113 823.549 104.984 833.649 108.467C843.749 111.949 851.585 120.83 857.158 135.109Z" fill="white"/>
<path fill-rule="evenodd" clip-rule="evenodd" d="M772.339 233.366C783.659 233.658 794.693 235.385 805.44 238.546C817.281 241.68 825.64 247.775 830.515 256.83C836.088 266.582 837.829 276.333 835.74 286.085C833.65 295.837 828.948 305.414 821.634 314.817C814.321 323.873 804.743 332.405 792.902 340.416C781.061 348.426 768.349 355.391 754.766 361.312C741.183 366.884 727.078 371.412 712.451 374.895C697.823 378.377 683.892 380.119 670.658 380.119C661.603 380.119 653.244 379.422 645.582 378.029C637.92 376.288 631.129 373.502 625.208 369.671C607.098 360.615 594.038 346.336 586.028 326.833C583.241 319.171 582.197 307.33 582.893 291.309C583.938 275.288 586.55 257.352 590.729 237.501C594.909 217.301 600.307 196.405 606.924 174.812C613.541 153.219 620.855 133.019 628.865 114.212C636.876 95.4054 645.408 79.2107 654.463 65.628C663.867 51.6971 673.27 42.8161 682.673 38.9852C701.48 30.9749 719.416 25.2284 736.482 21.7456C753.895 17.9146 772.528 15.9991 792.379 15.9991C801.435 15.9991 810.664 17.9146 820.067 21.7456C829.471 25.2284 836.262 31.149 840.441 39.5076C844.272 48.9109 843.75 57.7919 838.874 66.1504C834.346 74.509 827.381 80.2555 817.978 83.39C810.395 85.9966 802.731 88.442 794.987 90.7261C791.349 91.799 787.694 92.8364 784.021 93.8382C779.045 95.1953 774.166 96.7483 769.386 98.4972C769.257 98.5443 769.129 98.5915 769 98.6388C765.516 99.9225 762.084 101.311 758.705 102.803C756.511 103.771 754.34 104.784 752.19 105.84C752.128 105.87 752.067 105.901 752.006 105.931C751.706 106.078 751.408 106.227 751.109 106.376C750.064 107.073 748.845 107.769 747.452 108.466C746.407 109.162 746.233 110.381 746.93 112.122C747.379 113.921 748.627 114.849 750.672 114.906C751.001 114.915 751.35 114.902 751.719 114.866C752.614 114.78 753.63 114.562 754.766 114.212C754.839 114.188 754.914 114.163 754.99 114.138C755.323 114.031 755.681 113.921 756.065 113.81C757.585 113.368 759.507 112.897 761.83 112.398C764.513 111.822 767.73 111.208 771.483 110.555C776.642 109.481 782.066 108.472 787.755 107.53C791.173 106.964 794.687 106.422 798.297 105.904C798.414 105.887 798.531 105.87 798.648 105.854C811.883 104.112 823.55 104.983 833.65 108.466C843.75 111.948 851.586 120.829 857.158 135.109C859.596 141.029 860.467 146.95 859.77 152.87C859.074 158.443 857.332 163.841 854.546 169.065C851.76 174.289 847.929 179.165 843.053 183.693C838.526 187.872 833.302 191.703 827.381 195.186C812.753 203.892 797.081 210.51 780.364 215.037C777.021 215.962 773.677 216.894 770.333 217.833C769.846 217.97 769.358 218.108 768.871 218.245C761.729 220.256 754.587 222.3 747.446 224.377C747.427 224.383 747.408 224.388 747.389 224.394C744.692 225.178 741.996 225.967 739.299 226.761C736.619 227.55 733.938 228.344 731.258 229.142C731.05 229.246 730.843 229.346 730.635 229.442C730.492 229.508 730.349 229.572 730.206 229.635C730.114 229.675 730.022 229.715 729.929 229.754C729.766 229.822 729.602 229.889 729.438 229.953C728.651 230.261 727.865 230.513 727.078 230.71C726.033 231.058 725.685 232.103 726.033 233.844C726.382 235.585 727.078 236.63 728.123 236.978C728.311 237.025 728.495 237.066 728.676 237.1C728.867 237.136 729.054 237.165 729.238 237.187C730.176 237.3 731.024 237.231 731.78 236.978C732.34 236.859 732.908 236.741 733.487 236.626C733.941 236.535 734.4 236.446 734.865 236.358C736.843 235.985 738.922 235.638 741.103 235.316C743.45 234.97 745.914 234.653 748.497 234.366C755.114 233.67 761.906 233.322 768.871 233.322C770.03 233.322 771.186 233.336 772.339 233.366ZM806.374 222.715C807.457 223.005 808.537 223.307 809.616 223.622C824.579 227.631 836.792 235.929 844.063 249.307C851.201 261.876 853.869 275.435 850.891 289.332C848.226 301.767 842.337 313.439 833.866 324.331L833.778 324.443L833.689 324.554C825.22 335.039 814.418 344.568 801.584 353.25C788.928 361.811 775.379 369.23 760.958 375.516L760.803 375.584L760.647 375.648C746.303 381.532 731.43 386.304 716.04 389.968C700.393 393.694 685.252 395.614 670.658 395.614C660.819 395.614 651.52 394.858 642.811 393.274L642.478 393.214L642.148 393.139C633.213 391.108 624.95 387.824 617.529 383.151C596.309 372.326 580.955 355.267 571.694 332.72L571.574 332.426L571.465 332.128C567.595 321.485 566.697 307.106 567.413 290.636L567.42 290.468L567.431 290.301C568.534 273.392 571.271 254.718 575.561 234.335C579.846 213.629 585.366 192.273 592.109 170.272C598.869 148.212 606.365 127.496 614.609 108.14C622.906 88.6618 631.871 71.5822 641.571 57.0328L641.595 56.9958L641.62 56.9589C651.696 42.0319 663.199 30.2305 676.704 24.6854C696.23 16.3756 715.092 10.3056 733.268 6.58696C751.856 2.5071 771.576 0.503906 792.379 0.503906C803.592 0.503906 814.727 2.86761 825.69 7.30482C838.371 12.0612 848.265 20.5064 854.3 32.5779L854.567 33.1102L854.791 33.6613C860.302 47.1872 859.701 61.0555 852.383 73.7433C848.035 81.6869 842.056 87.9836 834.712 92.5666C836.055 92.9465 837.385 93.363 838.701 93.8169C854.673 99.3244 865.056 112.791 871.543 129.347C874.866 137.478 876.181 145.998 875.159 154.681L875.153 154.737L875.146 154.792C874.202 162.344 871.847 169.554 868.218 176.357C864.529 183.275 859.58 189.492 853.597 195.047L853.58 195.063L853.563 195.079C848.147 200.078 842.024 204.546 835.272 208.521C826.017 214.027 816.382 218.758 806.374 222.715Z" fill="black"/>
</g>
<g>
<path d="M624.379 196.744C621.593 211.023 614.628 222.69 603.483 231.745C592.338 240.8 578.93 245.328 563.257 245.328C555.595 245.328 548.107 244.109 540.794 241.671C533.48 239.581 525.992 236.273 518.33 231.745C510.668 227.218 503.006 222.342 495.344 217.118C488.03 211.894 480.891 206.669 473.925 201.445C466.96 195.873 460.691 190.823 455.118 186.295C452.681 184.554 450.591 184.554 448.85 186.295C447.456 187.689 447.108 189.082 447.805 190.475C448.85 191.52 449.894 192.39 450.939 193.087C457.556 198.311 465.218 204.232 473.925 210.849C482.98 217.466 492.21 224.78 501.613 232.79C511.016 240.452 520.246 248.636 529.301 257.343C538.356 266.05 546.366 275.105 553.331 284.509C560.297 293.564 565.695 302.967 569.526 312.719C573.705 322.122 575.447 331.525 574.75 340.929C573.705 355.905 569.7 368.616 562.735 379.065C556.118 389.513 547.585 398.046 537.137 404.663C526.689 411.28 514.847 416.156 501.613 419.29C488.379 422.076 474.622 423.469 460.343 423.469C444.67 423.469 429.172 421.902 413.848 418.768C398.872 415.633 384.941 411.28 372.055 405.708C358.821 399.787 345.064 392.125 330.785 382.722C316.506 373.318 303.62 362.87 292.127 351.377C280.982 339.536 272.275 327.172 266.006 314.286C259.737 301.051 257.996 287.817 260.782 274.583C261.827 270.055 263.394 265.353 265.484 260.478C267.922 255.254 270.882 250.552 274.365 246.373C278.196 241.845 282.375 237.84 286.903 234.357C291.778 230.874 297.177 228.262 303.097 226.521C306.232 225.824 309.366 225.302 312.501 224.954C315.635 224.606 318.595 224.431 321.382 224.431C336.009 224.431 348.895 227.74 360.04 234.357C371.533 240.626 381.981 248.114 391.384 256.821C401.136 265.179 410.365 273.712 419.072 282.419C428.127 291.126 437.531 297.743 447.282 302.27C447.979 302.619 449.024 303.141 450.417 303.838C452.158 304.186 453.377 303.838 454.074 302.793C455.467 301.051 454.944 299.484 452.506 298.091C449.024 296.002 442.755 291.648 433.7 285.031C424.645 278.065 415.241 269.184 405.49 258.388C395.738 247.592 386.857 234.88 378.847 220.252C371.185 205.276 366.831 188.733 365.786 170.623C365.438 161.22 366.309 151.816 368.398 142.413C370.836 133.01 374.319 124.129 378.847 115.77C383.374 107.412 388.947 99.7496 395.564 92.7842C402.181 85.4704 409.495 79.5498 417.505 75.0222C431.784 66.6636 447.108 62.4844 463.477 62.4844C489.946 62.4844 519.549 72.4102 552.287 92.2617C560.297 97.4858 569.004 104.103 578.407 112.113C587.811 119.775 596.169 128.308 603.483 137.711C611.145 147.115 617.065 156.866 621.245 166.966C625.424 177.066 626.469 186.992 624.379 196.744Z" fill="white"/>
<path fill-rule="evenodd" clip-rule="evenodd" d="M385.983 232.414C383.532 228.52 381.153 224.467 378.846 220.255C371.184 205.279 366.831 188.736 365.786 170.626C365.438 161.223 366.309 151.819 368.398 142.416C370.836 133.013 374.319 124.132 378.846 115.773C383.374 107.415 388.946 99.7526 395.564 92.7872C402.181 85.4734 409.494 79.5528 417.505 75.0252C431.784 66.6667 447.108 62.4874 463.477 62.4874C489.946 62.4874 519.549 72.4132 552.286 92.2648C560.297 97.4889 569.004 104.106 578.407 112.116C587.81 119.778 596.169 128.311 603.483 137.714C611.145 147.118 617.065 156.869 621.245 166.969C625.424 177.069 626.469 186.995 624.379 196.747C621.593 211.026 614.627 222.693 603.483 231.748C592.338 240.803 578.929 245.331 563.257 245.331C555.595 245.331 548.107 244.112 540.793 241.674C537.883 240.842 534.945 239.818 531.979 238.6C527.492 236.758 522.943 234.474 518.33 231.748C514.861 229.698 511.392 227.577 507.923 225.385C507.863 225.347 507.803 225.308 507.742 225.27C503.609 222.655 499.477 219.939 495.344 217.121C489.618 213.031 483.998 208.941 478.486 204.851C478.448 204.822 478.41 204.794 478.372 204.766C476.882 203.66 475.4 202.554 473.925 201.448C469.896 198.225 466.099 195.176 462.536 192.302C460.204 190.421 457.971 188.615 455.839 186.884C455.731 186.796 455.624 186.709 455.516 186.622C455.459 186.575 455.401 186.529 455.344 186.482C455.269 186.421 455.193 186.36 455.118 186.299C454.404 185.788 453.72 185.428 453.066 185.217C451.486 184.707 450.081 185.067 448.849 186.299C447.456 187.692 447.108 189.085 447.805 190.478C448.567 191.24 449.329 191.909 450.091 192.486C450.224 192.587 450.356 192.684 450.489 192.779C450.639 192.886 450.789 192.99 450.939 193.09C453.187 194.865 455.556 196.72 458.046 198.656C461.543 201.375 465.278 204.253 469.252 207.29C469.313 207.337 469.375 207.385 469.437 207.432C470.901 208.551 472.397 209.69 473.925 210.852C479.433 214.877 485.006 219.16 490.643 223.701C490.689 223.738 490.735 223.775 490.781 223.812C494.366 226.702 497.976 229.695 501.613 232.793C505.222 235.734 508.805 238.751 512.363 241.846C516.081 245.08 519.771 248.398 523.433 251.8C525.397 253.624 527.353 255.473 529.3 257.346C538.356 266.053 546.366 275.108 553.331 284.512C560.297 293.567 565.695 302.97 569.526 312.722C573.705 322.125 575.447 331.528 574.75 340.932C573.705 355.908 569.7 368.619 562.735 379.068C556.117 389.516 547.585 398.049 537.137 404.666C526.688 411.283 514.847 416.159 501.613 419.293C488.378 422.079 474.622 423.473 460.342 423.473C444.67 423.473 429.172 421.905 413.848 418.771C398.872 415.636 384.941 411.283 372.055 405.711C358.821 399.79 345.064 392.128 330.785 382.725C316.506 373.321 303.619 362.873 292.126 351.38C280.982 339.539 272.275 327.175 266.006 314.289C259.737 301.055 257.996 287.82 260.782 274.586C261.827 270.058 263.394 265.357 265.484 260.481C267.921 255.257 270.882 250.555 274.364 246.376C278.195 241.848 282.375 237.843 286.902 234.36C291.778 230.877 297.176 228.265 303.097 226.524C306.231 225.828 309.366 225.305 312.5 224.957C315.635 224.609 318.595 224.434 321.381 224.434C336.009 224.434 348.895 227.743 360.04 234.36C365.08 237.109 369.919 240.093 374.557 243.311C380.495 247.431 386.104 251.935 391.384 256.824C394.107 259.157 396.788 261.504 399.429 263.865C406.248 269.96 412.796 276.146 419.072 282.422C422.355 285.579 425.684 288.461 429.058 291.068C429.107 291.106 429.157 291.144 429.206 291.182C432.628 293.817 436.097 296.169 439.613 298.24C442.145 299.731 444.701 301.075 447.282 302.273L450.417 303.841C452.158 304.189 453.377 303.841 454.073 302.796C455.344 301.207 455.021 299.764 453.104 298.465C452.92 298.34 452.72 298.217 452.506 298.094C452.243 297.936 451.964 297.765 451.668 297.581C451.194 297.286 450.678 296.957 450.122 296.594C450.07 296.561 450.018 296.527 449.966 296.493C448.138 295.299 445.879 293.755 443.188 291.859C440.466 289.943 437.304 287.668 433.699 285.034C430.601 282.651 427.462 280.043 424.282 277.211C424.246 277.179 424.21 277.147 424.175 277.115C418.095 271.693 411.867 265.452 405.489 258.391C402.959 255.589 400.487 252.659 398.074 249.599C397.994 249.499 397.915 249.398 397.836 249.297C393.713 244.047 389.762 238.42 385.983 232.414ZM360.34 217.037C354.561 202.851 351.247 187.643 350.317 171.519L350.307 171.359L350.302 171.2C349.903 160.444 350.902 149.718 353.272 139.055L353.331 138.79L353.399 138.527C356.145 127.936 360.083 117.88 365.222 108.393C370.375 98.8787 376.711 90.1575 384.2 82.2512C391.792 73.8875 400.314 66.9578 409.777 61.5939C426.376 51.9001 444.364 46.9922 463.477 46.9922C493.772 46.9922 526.18 58.313 560.321 79.0152L560.538 79.147L560.751 79.2858C569.408 84.9317 578.605 91.9375 588.327 100.212C598.521 108.534 607.622 117.819 615.606 128.063C624.065 138.468 630.768 149.459 635.562 161.045C640.803 173.709 642.33 186.781 639.561 199.85C636.071 217.581 627.221 232.426 613.254 243.774C599.089 255.283 582.141 260.826 563.257 260.826C560.015 260.826 556.797 260.646 553.605 260.288C557.903 265.14 561.936 270.102 565.699 275.176C573.36 285.155 579.442 295.677 583.825 306.745C588.843 318.157 591.093 329.987 590.205 342.044C589.011 359.1 584.384 374.462 575.729 387.511C567.899 399.825 557.76 409.946 545.427 417.756C533.39 425.38 519.925 430.88 505.184 434.371L504.995 434.416L504.805 434.456C490.464 437.475 475.635 438.968 460.342 438.968C443.629 438.968 427.091 437.296 410.743 433.952L410.708 433.945L410.673 433.937C394.767 430.608 379.83 425.955 365.905 419.933L365.816 419.894L365.727 419.855C351.609 413.539 337.119 405.45 322.263 395.666C307.152 385.715 293.442 374.609 281.17 362.337L281.004 362.171L280.843 362C268.768 349.17 259.111 335.535 252.072 321.068L252.037 320.995L252.002 320.922C244.411 304.896 242.076 288.222 245.619 271.394L245.65 271.247L245.683 271.101C246.962 265.562 248.839 259.982 251.241 254.377L251.338 254.151L251.442 253.928C254.411 247.566 258.074 241.72 262.461 236.456L262.498 236.411L262.536 236.367C267.05 231.031 272.022 226.257 277.455 222.078L277.672 221.911L277.896 221.751C284.222 217.233 291.195 213.873 298.725 211.659L299.226 211.511L299.736 211.398C303.405 210.582 307.09 209.967 310.789 209.556C314.419 209.153 317.955 208.939 321.381 208.939C335.374 208.939 348.452 211.556 360.34 217.037ZM452.308 189.757L451.287 188.736L454.403 187.178M452.308 189.757L451.287 188.736Z" fill="black"/>
</g>
<g>
<path d="M169.663 250.961C170.36 255.836 172.101 258.274 174.887 258.274C176.977 258.274 178.022 257.055 178.022 254.617C178.37 252.18 178.544 250.438 178.544 249.393C178.892 239.642 178.892 228.323 178.544 215.437C178.196 202.551 178.022 189.142 178.022 175.211C178.022 161.28 178.37 147.175 179.066 132.896C179.763 118.617 181.33 105.208 183.768 92.6705C186.206 79.7844 189.863 68.2914 194.739 58.1914C199.615 47.7432 206.058 39.5588 214.068 33.6382C218.595 30.1554 223.297 27.5434 228.173 25.802C233.049 23.7124 237.576 22.3193 241.756 21.6227C246.283 20.9262 250.288 20.5779 253.771 20.5779C257.602 20.5779 260.562 20.5779 262.652 20.5779C278.324 22.3193 291.559 27.1951 302.355 35.2054C313.152 42.8674 321.858 52.4449 328.476 63.9379C335.093 75.0827 339.795 87.4464 342.581 101.029C345.367 114.612 346.586 128.194 346.238 141.777C345.889 158.146 344.322 175.559 341.536 194.018C339.098 212.128 335.267 230.064 330.043 247.826C324.819 265.24 318.028 281.957 309.669 297.977C301.31 313.998 291.21 328.103 279.369 340.293C267.528 352.482 253.771 362.234 238.099 369.548C222.426 376.513 204.49 379.996 184.291 379.996C164.091 379.996 145.632 376.687 128.915 370.07C112.198 363.453 97.2223 354.398 83.9879 342.905C71.1018 331.412 59.957 317.655 50.5537 301.634C41.1503 285.614 33.6624 268.2 28.0901 249.393C25.3039 239.293 22.6918 226.756 20.2539 211.78C17.816 196.456 16.4229 180.261 16.0746 163.196C15.7264 146.13 16.597 129.065 18.6867 112C20.7763 94.586 24.6073 79.0878 30.1797 65.5052C36.1003 51.5742 44.1106 40.2554 54.2105 31.5485C64.6587 22.8417 77.8931 18.4883 93.9137 18.4883C104.362 18.4883 114.636 21.7969 124.736 28.4141C134.836 34.683 142.846 41.9967 148.767 50.3553C155.732 59.7586 160.434 73.1672 162.872 90.5808C165.658 107.994 167.225 126.627 167.573 146.479C168.27 165.982 168.444 185.137 168.096 203.944C168.096 222.75 168.618 238.423 169.663 250.961Z" fill="white"/>
<path fill-rule="evenodd" clip-rule="evenodd" d="M181.007 110.113C181.751 104.124 182.671 98.3108 183.767 92.6735C186.205 79.7874 189.862 68.2944 194.738 58.1945C199.614 47.7462 206.057 39.5618 214.067 33.6412C218.595 30.1584 223.296 27.5464 228.172 25.805C233.048 23.7154 237.575 22.3223 241.755 21.6257C246.282 20.9292 250.287 20.5809 253.77 20.5809H262.651C278.323 22.3223 291.558 27.1981 302.354 35.2084C313.151 42.8704 321.858 52.4479 328.475 63.9409C335.092 75.0857 339.794 87.4494 342.58 101.032C345.366 114.615 346.585 128.197 346.237 141.78C345.888 158.149 344.321 175.562 341.535 194.021C339.097 212.131 335.266 230.067 330.042 247.829C324.818 265.243 318.027 281.96 309.668 297.98C301.309 314.001 291.21 328.106 279.368 340.296C267.527 352.485 253.77 362.237 238.098 369.551C222.426 376.516 204.49 379.999 184.29 379.999C164.09 379.999 145.631 376.69 128.914 370.073C112.197 363.456 97.2214 354.401 83.987 342.908C71.1009 331.415 59.9562 317.658 50.5528 301.637C41.1494 285.617 33.6615 268.203 28.0892 249.396C25.303 239.296 22.6909 226.759 20.253 211.783C17.8151 196.459 16.422 180.264 16.0737 163.199C15.7255 146.133 16.5961 129.068 18.6858 112.003C20.7754 94.589 24.6064 79.0908 30.1788 65.5082C36.0994 51.5772 44.1097 40.2584 54.2096 31.5515C64.6578 22.8447 77.8922 18.4913 93.9128 18.4913C104.361 18.4913 114.635 21.7999 124.735 28.4171C134.835 34.686 142.845 41.9997 148.766 50.3583C155.731 59.7617 160.433 73.1702 162.871 90.5838C163.879 96.8845 164.728 103.345 165.416 109.965C166.172 117.223 166.735 124.673 167.107 132.316C167.333 136.967 167.488 141.689 167.573 146.482C167.918 156.145 168.135 165.722 168.223 175.214C168.313 184.88 168.271 194.458 168.095 203.947C168.095 208.018 168.119 211.943 168.168 215.72C168.307 226.418 168.642 235.938 169.174 244.28C169.278 245.924 169.391 247.522 169.51 249.074C169.519 249.182 169.527 249.289 169.536 249.396C169.577 249.924 169.619 250.447 169.662 250.964C169.796 251.899 169.968 252.744 170.178 253.5C170.289 253.899 170.411 254.272 170.543 254.62C171.468 257.058 172.916 258.277 174.886 258.277C176.976 258.277 178.021 257.058 178.021 254.62C178.289 252.742 178.454 251.277 178.516 250.226C178.527 250.036 178.535 249.859 178.539 249.696C178.542 249.59 178.543 249.49 178.543 249.396C178.612 247.476 178.667 245.495 178.708 243.453C178.878 235.126 178.823 225.788 178.543 215.44C178.443 211.715 178.356 207.947 178.285 204.135C178.284 204.073 178.282 204.01 178.281 203.947C178.108 194.63 178.021 185.052 178.021 175.214C178.021 165.655 178.185 156.013 178.513 146.29C178.515 146.223 178.517 146.157 178.519 146.091C178.668 141.71 178.85 137.313 179.066 132.899C179.449 125.04 180.096 117.445 181.007 110.113ZM174.03 68.2783C175.953 62.4322 178.185 56.8513 180.74 51.5486C186.509 39.2197 194.427 28.924 204.736 21.2694C210.248 17.047 216.168 13.6983 222.496 11.3805C228.096 9.0117 233.685 7.26185 239.207 6.34138L239.303 6.32545L239.399 6.31072C244.478 5.52928 249.298 5.08574 253.77 5.08574H263.509L264.362 5.18051C282.224 7.16516 298.128 12.8196 311.454 22.6656C323.988 31.5884 334.153 42.7782 341.851 56.1186C349.381 68.8248 354.657 82.7979 357.759 97.9184C360.775 112.62 362.104 127.369 361.728 142.143C361.363 159.213 359.734 177.242 356.875 196.21C354.33 215.069 350.339 233.734 344.908 252.201L344.896 252.242L344.884 252.282C339.38 270.627 332.22 288.254 323.406 305.148C314.397 322.415 303.434 337.761 290.483 351.093C277.307 364.656 261.997 375.497 244.651 383.592L244.521 383.652L244.391 383.71C226.417 391.699 206.277 395.494 184.29 395.494C162.377 395.494 141.954 391.9 123.211 384.481C104.909 377.236 88.4175 367.278 73.827 354.607L73.7496 354.54L73.6732 354.472C59.4951 341.826 47.3476 326.787 37.1895 309.481C27.1162 292.319 19.1415 273.742 13.2324 253.798L13.1908 253.658L13.1519 253.517C10.1683 242.701 7.45069 229.578 4.95914 214.273L4.95465 214.245L4.95026 214.217C2.39042 198.127 0.9431 181.221 0.581762 163.515C0.218508 145.716 1.12651 127.921 3.3032 110.138C5.52847 91.6056 9.65188 74.718 15.8431 59.6269L15.88 59.5369L15.9181 59.4474C22.6409 43.6291 31.9656 30.2693 44.0922 19.8153L44.1903 19.7307L44.2899 19.6478C58.0015 8.22144 74.9435 2.99609 93.9128 2.99609C107.765 2.99609 120.89 7.41013 133.066 15.3507C144.523 22.4866 154.069 31.08 161.316 41.2695C166.916 48.8699 171.062 57.9845 174.03 68.2783Z" fill="black"/>
</g>
</svg>
