<svg width="75" height="153" viewBox="0 0 75 153" fill="none" xmlns="http://www.w3.org/2000/svg">
<path d="M6.2152 15.1683C6.16474 15.1245 2.94536 12.5736 3.04525 13.004C3.95586 16.9283 21.9374 12.1975 23.3098 11.9048C37.5555 8.86746 51.6094 4.82625 65.9195 2.10371C68.1529 1.6788 74.3654 0.826312 72.7329 2.40853C72.3491 2.78052 69.9318 4.89825 69.9516 4.89825C70.2408 4.89825 69.8786 5.32488 69.8079 5.44962C62.4899 18.357 54.1797 30.7924 46.3463 43.3916C42.9526 48.8499 37.8006 54.8162 35.6005 60.9518C34.357 64.4196 43.3733 62.5726 44.4798 62.294C48.3282 61.3249 67.1626 49.5823 67.0606 58.8329C66.974 66.679 62.7608 74.4528 59.0192 81.0678C48.6869 99.3345 35.3661 116.112 21.2769 131.61C18.2268 134.965 8.24354 144.215 11.6342 141.205C14.9724 138.241 16.7079 133.152 18.7647 129.354" stroke="white" stroke-width="2.8413" stroke-linecap="round" stroke-linejoin="round"/>
<path d="M4.75526 16.2934C4.06698 15.7933 3.13997 15.8518 2.45976 15.4038C2.18909 15.2255 2.89275 15.394 3.05079 15.661C4.08783 17.413 4.20703 20.2212 4.35927 22.0565C5.30771 33.4908 4.76031 45.0402 4.42444 56.4877C4.24459 62.6178 3.78326 68.8871 4.3168 75.0206C4.44429 76.4862 4.66295 79.1368 5.80105 80.3454C6.22009 80.7904 8.98437 78.1917 9.32849 77.9331C13.1801 75.039 16.2904 71.3694 19.0931 67.4733C19.3895 67.0614 22.2217 62.5313 22.2833 63.3927C22.4797 66.137 26.0629 66.6654 27.021 68.7835C27.6777 70.2355 27.4174 72.7436 27.3582 74.0571C26.7523 87.5106 24.7398 100.954 22.8087 114.264C21.0622 126.303 18.9336 138.273 17.3877 150.337C16.955 153.714 18.812 143.678 19.4111 140.327" stroke="white" stroke-width="2.8413" stroke-linecap="round" stroke-linejoin="round"/>
</svg>
