<svg width="122" height="129" viewBox="0 0 122 129" fill="none" xmlns="http://www.w3.org/2000/svg">
<path d="M24.0689 24.9251C20.7575 22.7223 15.1305 17.5244 10.656 18.6916C0.363191 21.3766 5.66548 42.6086 7.37865 48.4026C14.6697 73.0612 30.8697 96.1256 50.8018 112.255C59.5014 119.295 88.1782 138.106 95.2224 118.479C100.347 104.201 91.0082 85.3169 85.1555 72.8849C78.2007 58.1117 70.0477 43.6933 60.9228 30.1505C54.7168 20.9397 46.6874 7.80634 35.8378 3.11505C20.3423 -3.5851 12.3381 21.6728 10.4671 31.9382C8.09168 44.9711 8.79647 58.7925 13.1336 71.3385C14.4651 75.1899 16.133 78.9517 18.1937 82.4673C26.9038 97.3276 22.7576 86.2986 32.755 99.7147" stroke="white" stroke-width="2.70382" stroke-linecap="round" stroke-linejoin="round"/>
<path d="M81.3181 34.3832C83.4818 31.991 91.3387 26.8817 85.328 24.0232C75.2644 19.2372 60.0096 27.1367 51.9719 32.398C40.0871 40.1776 30.4301 50.7631 22.5086 62.4619C13.987 75.047 5.91819 90.0144 3.88807 105.357C2.81795 113.444 4.40197 122.887 13.7915 124.514C24.284 126.332 35.9331 119.491 44.3186 114.294C58.1107 105.746 71.2503 94.9912 82.2287 83.0475C91.52 72.9393 100.429 60.8306 101.857 46.6379C102.694 38.3166 100.091 27.5101 91.0167 24.75C80.9858 21.699 69.2995 28.9956 61.5958 34.3088C49.7342 42.4897 39.4907 53.0363 30.8761 64.5222C26.3387 70.5718 24.6785 75.317 21.5731 81.6425" stroke="white" stroke-width="2.70382" stroke-linecap="round" stroke-linejoin="round"/>
<path d="M116.427 65.4427C116.663 64.8728 117.379 64.0541 116.697 63.7165C111.123 60.9594 105.968 57.281 100.55 54.2347C87.6225 46.9672 74.5377 43.1826 59.6403 42.7678C41.7237 42.2689 18.612 44.8299 6.02336 59.3451C-2.99953 69.7489 5.59732 78.8376 15.3329 84.3372C34.9283 95.4067 58.8319 97.4019 80.746 94.249C88.0268 93.2014 128.858 85.3736 118.162 69.4969C111.498 59.6044 93.5789 58.9821 83.3608 58.4905C68.1004 57.7562 54.0857 60.2015 39.1657 62.327" stroke="white" stroke-width="2.70382" stroke-linecap="round" stroke-linejoin="round"/>
<path d="M56.1387 70.6285C56.3041 69.5229 57.1724 65.4647 55.4442 65.0948C51.2326 64.1935 47.5412 78.1255 54.2188 79.121C63.1302 80.4495 66.9646 65.6201 57.6094 63.4694C53.0436 62.4197 49.3306 66.4035 47.9085 70.2809C46.2971 74.6743 48.1225 75.6777 50.0407 78.8803" stroke="white" stroke-width="2.70382" stroke-linecap="round" stroke-linejoin="round"/>
</svg>
