<svg width="140" height="130" viewBox="0 0 140 130" fill="none" xmlns="http://www.w3.org/2000/svg">
<path d="M11.1142 54.0052C10.3275 49.0624 9.62094 44.2547 10.0487 39.2495C10.2175 37.2735 11.5467 43.7742 11.6 43.9543C15.8996 58.4744 20.9044 72.8922 26.7592 86.8568C30.6908 96.2345 35.0035 105.498 40.5925 114.019C43.7622 118.851 48.1961 125.557 53.7907 128.009C59.5432 130.531 59.6745 119.639 59.989 116.625C61.5979 101.207 62.3663 85.7345 64.3271 70.3444C65.2839 62.8351 65.7228 54.0757 68.8543 47.0376C69.9041 44.6783 70.9123 49.0564 71.2018 49.7844C76.9345 64.1952 80.7134 79.2341 86.9471 93.4969C90.2548 101.065 93.8375 108.884 99.4472 115.086C101.067 116.876 106.333 122.435 109.469 121.53C111.563 120.926 111.619 115.798 111.737 114.649C112.496 107.298 112.633 99.8906 113.119 92.5205C114.708 68.3842 117.345 43.2317 130.148 22.1345C132.558 18.1646 135.54 14.8217 138.191 11.0875C138.606 10.5036 136.797 10.7585 136.101 10.5921C128.236 8.71288 120.121 6.62694 113.074 2.53345C112.242 2.05034 113.265 4.46746 113.122 5.41849C110.074 25.6002 105.378 45.5697 101.976 65.7034C100.572 74.013 99.3354 82.358 97.7999 90.6453C97.388 92.8677 97.1026 96.8105 95.6625 98.8118C94.946 99.8074 93.9894 96.8758 93.7384 95.6753C92.0997 87.839 91.8404 79.6894 91.4194 71.7242C90.6105 56.4219 89.5813 41.3886 86.3219 26.3736C85.6624 23.3351 82.8117 1.84766 77.6166 2.00081C75.3372 2.06801 73.7965 5.22302 73.0309 6.9518C70.961 11.6257 68.3229 15.2547 65.2501 19.3483C56.3005 31.2709 55.7729 46.9344 54.8662 61.2691C54.3199 69.9059 54.1186 78.5655 53.7722 87.2116C53.6706 89.7487 54.0306 93.6703 53.2268 96.2413C53.0169 96.9125 52.4287 95.0663 52.1861 94.4064C50.6209 90.1496 49.3331 85.783 48.0454 81.4378C43.0177 64.4724 39.1863 46.9148 32.9422 30.3414C30.9292 24.9984 28.3185 25.2249 22.8709 27.0726C16.2704 29.3114 9.66529 32.5444 3.93115 36.5119C-1.58489 40.3284 4.22778 37.3887 6.40963 36.2528" stroke="white" stroke-width="3.03837" stroke-linecap="round" stroke-linejoin="round"/>
</svg>
