<svg width="70" height="44" viewBox="0 0 70 44" fill="none" xmlns="http://www.w3.org/2000/svg">
<path d="M2.06277 24.611C1.82721 24.2104 2.325 25.4855 2.40106 25.6433C3.31901 27.5485 5.754 28.2007 7.68363 28.3737C16.4582 29.1606 17.886 18.3139 21.161 12.5363C24.2254 7.13029 29.0225 3.45533 35.1746 2.38043C40.6635 1.4214 45.413 2.14062 49.4152 6.09668C50.0182 6.69271 52.1617 7.4737 51.3567 7.73981C51.0582 7.83851 50.3868 7.57966 50.0966 7.53831C48.4773 7.30755 46.8349 7.2972 45.2114 7.49738C42.2545 7.86195 39.2271 8.25036 36.8315 10.1418C34.5671 11.9297 32.0762 14.1269 30.7852 16.7497C29.4267 19.5099 29.4244 22.1996 31.4459 24.5742C32.2235 25.4875 33.3528 26.8357 34.6598 26.9179C36.2223 27.0162 37.6406 24.6907 38.6772 23.8107C41.5161 21.4009 46.1108 20.8676 48.356 24.3659C49.2419 25.7462 49.6659 27.3601 50.8762 28.5324C52.3197 29.9304 54.5226 30.5118 56.485 30.2323C58.8613 29.8939 60.9012 28.4734 63.2241 27.9416C64.7027 27.603 65.7502 27.9929 67.128 28.4209C69.1566 29.0511 67.4949 28.1352 66.3902 28.0432" stroke="white" stroke-width="3" stroke-linecap="round" stroke-linejoin="round"/>
<path d="M33.2392 7.72296C33.2397 7.61428 33.2584 5.71836 33.8615 6.21585C34.8317 7.01604 32.8867 9.53303 32.5119 10.0792C28.9287 15.3011 21.5541 22.9377 26.3661 29.621C28.2108 32.1832 30.0142 31.6493 32.406 30.3358C36.2671 28.2156 39.3125 31.6843 42.7798 33.0775C44.2148 33.6541 45.3267 34.4775 46.6249 35.2876C48.5892 36.5135 50.6561 36.5398 52.8708 36.0845C55.8886 35.464 57.8257 35.244 60.4596 36.9397" stroke="white" stroke-width="3" stroke-linecap="round" stroke-linejoin="round"/>
<path d="M22.8833 16.1718C22.6236 15.1198 22.9358 15.9179 23.1272 16.451C23.798 18.3194 23.3447 20.044 22.5935 21.8164C21.2296 25.0343 18.6055 31.9383 24.1976 32.5766C26.3602 32.8235 28.1515 33.2224 29.3993 35.1916C30.8395 37.4643 31.4189 40.3889 34.7048 39.0037C35.9432 38.4817 37.1117 37.6788 38.5304 37.9815C40.2632 38.3512 41.8041 39.6234 43.4601 40.2359C45.5392 41.0049 47.6561 41.2767 49.8507 41.4242C51.2293 41.5169 50.9443 41.459 51.3113 42.3897" stroke="white" stroke-width="3" stroke-linecap="round" stroke-linejoin="round"/>
</svg>
