<svg width="1070" height="461" viewBox="0 0 1070 461" fill="none" xmlns="http://www.w3.org/2000/svg">
<g>
<path d="M820.184 247.545C820.184 245.551 819.187 244.553 817.193 244.553C815.447 244.553 814.575 245.551 814.575 247.545V253.903C814.325 269.86 813.951 285.069 813.453 299.529C813.203 313.741 810.959 326.581 806.721 338.05C802.732 349.269 795.751 358.993 785.778 367.221C776.054 375.448 761.718 381.432 742.769 385.172C738.032 386.169 733.42 386.793 728.932 387.042C724.693 387.541 720.455 387.79 716.216 387.79C698.764 387.79 683.929 384.05 671.712 376.57C659.495 369.091 649.772 359.242 642.541 347.026C635.311 334.559 630.574 320.597 628.33 305.139C626.335 289.432 626.584 273.35 629.078 256.895C631.571 240.44 636.308 224.483 643.289 209.025C650.27 193.317 659.495 179.355 670.964 167.138C682.433 154.672 695.896 144.699 711.355 137.22C727.062 129.74 744.639 126 764.087 126C770.32 126 777.176 127.247 784.656 129.74C792.135 131.984 798.493 135.35 803.729 139.837C808.965 144.325 812.331 149.81 813.827 156.293C815.572 162.526 813.827 169.632 808.591 177.61C806.098 181.101 802.233 184.591 796.997 188.082C791.761 191.572 786.027 195.187 779.794 198.927C773.561 202.418 767.328 206.158 761.095 210.147C754.862 214.136 749.501 218.499 745.013 223.236C741.523 226.727 738.157 230.591 734.916 234.83C731.674 239.068 728.932 243.307 726.688 247.545C726.189 248.792 725.566 250.163 724.818 251.659C724.319 253.155 724.693 254.152 725.94 254.651C726.937 255.15 727.685 255.15 728.184 254.651C728.683 254.152 729.181 253.654 729.68 253.155C733.918 245.925 739.154 238.819 745.387 231.838C751.87 224.857 758.975 218.748 766.704 213.513C774.434 208.028 782.661 203.664 791.387 200.423C800.114 197.182 808.965 195.561 817.94 195.561C827.165 195.561 835.144 197.182 841.876 200.423C848.607 203.415 854.466 207.529 859.453 212.765C864.689 218 869.177 224.234 872.916 231.464C876.656 238.445 880.022 245.925 883.014 253.903C889.247 271.605 892.114 287.063 891.616 300.277C891.117 313.242 888.624 324.088 884.136 332.814C879.648 341.54 873.789 348.148 866.559 352.635C859.578 356.874 852.721 358.993 845.989 358.993C838.51 358.993 832.027 356.5 826.542 351.513C821.057 346.527 818.439 338.923 818.688 328.7L820.184 247.545Z" fill="white"/>
<path fill-rule="evenodd" clip-rule="evenodd" d="M820.186 247.547C820.186 245.552 819.189 244.555 817.194 244.555C815.479 244.555 814.607 245.518 814.577 247.444C814.576 247.478 814.576 247.512 814.576 247.547V253.905C814.327 269.861 813.953 285.07 813.454 299.531C813.305 308.043 812.44 316.064 810.859 323.592C809.801 328.632 808.422 333.452 806.723 338.051C802.733 349.271 795.752 358.995 785.779 367.222C776.056 375.45 761.72 381.434 742.771 385.174C738.034 386.171 733.421 386.794 728.933 387.044C724.695 387.542 720.456 387.792 716.218 387.792C698.765 387.792 683.93 384.052 671.714 376.572C659.497 369.092 649.773 359.244 642.543 347.027C635.312 334.561 630.575 320.599 628.331 305.141C626.337 289.433 626.586 273.352 629.079 256.897C631.573 240.441 636.31 224.484 643.291 209.026C650.272 193.319 659.497 179.357 670.966 167.14C682.435 154.674 695.898 144.701 711.356 137.221C727.063 129.741 744.641 126.002 764.088 126.002C770.321 126.002 777.178 127.248 784.657 129.741C792.137 131.985 798.495 135.351 803.731 139.839C808.966 144.327 812.332 149.812 813.828 156.294C815.573 162.527 813.828 169.633 808.592 177.612C806.099 181.102 802.235 184.593 796.999 188.083C794.902 189.481 792.725 190.899 790.468 192.337C789.911 192.692 789.349 193.048 788.782 193.406C785.911 195.215 782.916 197.056 779.795 198.929C774.338 201.985 768.881 205.232 763.424 208.67C763.388 208.693 763.352 208.715 763.316 208.738C762.576 209.205 761.836 209.675 761.096 210.148C754.863 214.138 749.503 218.501 745.015 223.238C743.61 224.643 742.225 226.108 740.86 227.635C740.834 227.665 740.807 227.695 740.78 227.725C738.782 229.963 736.828 232.332 734.917 234.831C731.787 238.925 729.122 243.018 726.922 247.112C726.844 247.257 726.766 247.402 726.69 247.547C726.456 248.131 726.195 248.743 725.906 249.382C725.727 249.78 725.536 250.189 725.335 250.609C725.209 250.872 725.078 251.139 724.944 251.411C724.903 251.494 724.861 251.577 724.82 251.661C724.321 253.157 724.695 254.154 725.942 254.653C726.939 255.151 727.687 255.151 728.185 254.653L729.681 253.157C730.278 252.139 730.895 251.123 731.531 250.11C731.591 250.015 731.651 249.919 731.712 249.824C731.757 249.752 731.802 249.681 731.847 249.61C734.214 245.883 736.849 242.189 739.752 238.529C741.53 236.286 743.409 234.057 745.389 231.839C746.714 230.412 748.066 229.021 749.443 227.667C749.484 227.627 749.524 227.587 749.564 227.548C754.188 223.014 759.105 218.89 764.314 215.176C765.105 214.613 765.902 214.059 766.706 213.514C771.817 209.887 777.146 206.75 782.694 204.104C782.747 204.079 782.801 204.053 782.855 204.028C785.644 202.703 788.489 201.502 791.389 200.425C792.232 200.112 793.075 199.814 793.92 199.531C801.826 196.886 809.833 195.563 817.942 195.563C827.167 195.563 835.145 197.184 841.877 200.425C848.609 203.417 854.468 207.53 859.454 212.766C864.69 218.002 869.178 224.235 872.918 231.466C876.658 238.447 880.024 245.926 883.016 253.905C889.249 271.607 892.116 287.065 891.617 300.279C891.119 313.244 888.625 324.089 884.138 332.816C879.65 341.542 873.791 348.149 866.56 352.637C859.579 356.875 852.723 358.995 845.991 358.995C838.511 358.995 832.029 356.501 826.544 351.515C821.059 346.528 818.441 338.924 818.69 328.702L820.186 247.547ZM812.831 344.225C808.18 355.401 800.791 365.1 790.859 373.304C779.721 382.712 763.952 389.064 744.355 392.937C739.356 393.987 734.442 394.66 729.618 394.941C725.155 395.457 720.687 395.715 716.218 395.715C697.624 395.715 681.285 391.723 667.576 383.329C654.267 375.181 643.619 364.402 635.724 351.063L635.706 351.033L635.689 351.002C627.91 337.591 622.867 322.653 620.49 306.279L620.48 306.209L620.471 306.139C618.38 289.669 618.648 272.852 621.245 255.71C623.848 238.532 628.792 221.885 636.06 205.787C643.386 189.31 653.087 174.615 665.162 161.746C677.309 148.549 691.574 137.991 707.905 130.089L707.927 130.078L707.95 130.067C724.841 122.024 743.602 118.078 764.088 118.078C771.33 118.078 779.007 119.517 787.05 122.187C795.401 124.707 802.736 128.551 808.887 133.823C815.312 139.33 819.597 146.221 821.509 154.341C824.028 163.599 821.064 173.048 815.217 181.959L815.131 182.09L815.04 182.217C813.596 184.238 811.864 186.175 809.886 188.036C812.558 187.772 815.244 187.639 817.942 187.639C828.038 187.639 837.205 189.405 845.204 193.233C852.791 196.621 859.451 201.292 865.125 207.231C870.949 213.071 875.873 219.943 879.929 227.774C883.836 235.073 887.336 242.859 890.435 251.123L890.463 251.198L890.489 251.273C896.925 269.552 900.083 286.044 899.535 300.578L899.535 300.583C899.005 314.349 896.343 326.408 891.184 336.439C886.141 346.244 879.366 354.014 870.739 359.369L870.706 359.39L870.672 359.41C862.716 364.24 854.454 366.918 845.991 366.918C836.56 366.918 828.172 363.703 821.214 357.378C817.221 353.748 814.497 349.284 812.831 344.225Z" fill="black"/>
</g>
<g>
<path d="M513.75 287.741C506.519 279.264 499.164 267.67 491.685 252.96C484.454 238.001 478.221 221.92 472.985 204.716C467.75 187.264 464.134 169.686 462.14 151.984C460.145 134.033 460.768 117.827 464.01 103.366C467.251 88.9053 473.609 77.0624 483.083 67.8375C492.807 58.6125 506.769 54 524.969 54C535.69 54 546.661 55.3713 557.88 58.1138C569.1 60.6071 579.197 64.7209 588.173 70.4554C597.398 75.9405 604.753 83.1709 610.238 92.1465C615.973 100.873 618.59 111.469 618.092 123.935C617.843 130.418 616.347 136.402 613.604 141.887C610.861 147.372 607.62 152.358 603.88 156.846C600.39 161.334 596.775 165.198 593.035 168.44C589.295 171.681 586.303 174.299 584.059 176.293C579.322 179.535 577.452 182.152 578.449 184.147C578.948 184.396 579.322 184.77 579.571 185.269C580.07 185.518 580.569 185.643 581.067 185.643C582.065 185.892 584.184 184.646 587.425 181.903C589.42 180.407 591.913 178.413 594.905 175.919C597.897 173.426 601.262 170.933 605.002 168.44C608.991 165.946 613.23 163.827 617.718 162.082C622.455 160.337 627.441 159.339 632.677 159.09C642.9 159.09 653.122 160.96 663.344 164.7C673.566 168.44 682.667 173.675 690.645 180.407C698.873 187.139 705.604 195.117 710.84 204.342C716.076 213.567 718.819 223.665 719.068 234.635C719.567 248.348 716.699 260.939 710.466 272.408C704.483 283.627 695.756 293.102 684.287 300.831C677.556 305.318 668.455 308.684 656.986 310.928C645.767 312.923 633.425 313.92 619.962 313.92C609.49 313.92 598.894 313.297 588.173 312.05C577.452 310.803 567.23 309.058 557.506 306.814C548.032 304.57 539.43 301.828 531.701 298.587C524.221 295.345 518.238 291.73 513.75 287.741ZM527.213 163.578C526.715 164.575 526.465 165.572 526.465 166.57C526.715 167.567 527.213 168.315 527.961 168.814C529.956 169.811 531.576 169.562 532.823 168.066C539.056 159.339 544.043 149.865 547.783 139.643C551.522 129.42 554.14 118.824 555.636 107.854C556.135 105.361 555.138 103.989 552.644 103.74C550.4 103.241 549.029 104.239 548.53 106.732C547.533 116.705 545.165 126.678 541.425 136.651C537.934 146.624 533.197 155.599 527.213 163.578ZM589.669 263.058C588.921 264.305 588.672 265.427 588.921 266.424C589.42 267.421 590.043 268.169 590.791 268.668C591.539 269.166 592.287 269.416 593.035 269.416C594.032 269.166 594.905 268.294 595.653 266.798C600.141 258.072 606.124 250.467 613.604 243.985C621.084 237.253 629.062 231.394 637.539 226.407C639.534 225.161 640.157 223.54 639.409 221.546C638.91 220.798 638.162 220.299 637.165 220.05C636.168 219.8 635.295 219.925 634.547 220.424C625.572 225.161 617.095 231.269 609.116 238.749C601.138 245.979 594.655 254.082 589.669 263.058Z" fill="white"/>
<path fill-rule="evenodd" clip-rule="evenodd" d="M508.078 293.299L507.723 292.883C499.945 283.763 492.264 271.578 484.623 256.551L484.587 256.48L484.552 256.408C477.13 241.052 470.752 224.586 465.407 207.023L465.402 207.008L465.398 206.993C460.029 189.097 456.317 171.054 454.268 152.871L454.266 152.859C452.195 134.22 452.81 117.113 456.28 101.633C459.815 85.8585 466.851 72.5845 477.557 62.1602L477.594 62.1243L477.631 62.0889C489.288 51.03 505.481 46.0762 524.971 46.0762C536.347 46.0762 547.922 47.5284 559.682 50.3969C571.659 53.0674 582.567 57.4886 592.334 63.7098C602.555 69.8103 610.791 77.8924 616.934 87.905C623.689 98.2404 626.558 110.504 626.011 124.239C625.721 131.782 623.968 138.878 620.692 145.43C619.118 148.578 617.388 151.589 615.499 154.458C620.867 152.54 626.478 151.452 632.302 151.175L632.49 151.166H632.679C643.888 151.166 655.03 153.22 666.068 157.258C677.104 161.296 687.004 166.976 695.71 174.312C704.671 181.653 712.023 190.372 717.733 200.431C723.629 210.82 726.704 222.189 726.99 234.402C727.527 249.426 724.371 263.406 717.444 276.164C710.799 288.612 701.154 299.019 688.717 307.401L688.7 307.412L688.684 307.423C680.786 312.688 670.586 316.341 658.509 318.704L658.442 318.717L658.375 318.729C646.624 320.818 633.811 321.843 619.963 321.843C609.177 321.843 598.275 321.201 587.259 319.92C576.27 318.642 565.758 316.849 555.726 314.534L555.704 314.529L555.682 314.524C545.85 312.196 536.826 309.327 528.638 305.893L528.595 305.875L528.552 305.856C520.557 302.392 513.783 298.37 508.487 293.663L508.078 293.299ZM710.468 272.407C716.701 260.938 719.568 248.347 719.069 234.635C718.82 223.664 716.078 213.567 710.842 204.342C705.606 195.117 698.874 187.138 690.647 180.407C682.668 173.675 673.568 168.439 663.346 164.699C653.123 160.96 642.901 159.09 632.679 159.09C627.443 159.339 622.457 160.336 617.719 162.081C613.232 163.827 608.993 165.946 605.004 168.439C604.448 168.809 603.901 169.18 603.362 169.55C601.333 170.944 599.42 172.339 597.625 173.733C596.687 174.462 595.78 175.19 594.906 175.919C592.38 178.024 590.209 179.774 588.394 181.168C588.17 181.34 587.951 181.507 587.738 181.668C587.633 181.747 587.529 181.826 587.427 181.903C586.966 182.292 586.529 182.652 586.113 182.981C583.606 184.969 581.924 185.856 581.069 185.643C580.57 185.643 580.071 185.518 579.573 185.269C579.323 184.77 578.949 184.396 578.451 184.147C577.701 182.646 578.573 180.793 581.069 178.586C581.162 178.504 581.258 178.421 581.355 178.337C581.56 178.163 581.774 177.987 581.998 177.808C582.007 177.801 582.017 177.793 582.026 177.786C582.049 177.768 582.071 177.75 582.094 177.732C582.247 177.611 582.404 177.49 582.565 177.367C582.768 177.214 582.978 177.058 583.195 176.901C583.297 176.827 583.402 176.753 583.508 176.678C583.687 176.55 583.872 176.422 584.061 176.293C585.773 174.771 587.921 172.886 590.505 170.637C591.307 169.94 592.151 169.207 593.036 168.439C594.783 166.925 596.502 165.276 598.195 163.49C600.126 161.452 602.021 159.238 603.882 156.846C607.622 152.358 610.863 147.371 613.606 141.886C616.348 136.401 617.844 130.417 618.093 123.935C618.592 111.469 615.974 100.872 610.24 92.1461C604.755 83.1705 597.399 75.9401 588.174 70.455C579.199 64.7205 569.101 60.6067 557.882 58.1134C546.662 55.3709 535.692 53.9996 524.971 53.9996C506.77 53.9996 492.808 58.6121 483.085 67.8371C473.61 77.062 467.252 88.9049 464.011 103.366C460.77 117.826 460.147 134.033 462.141 151.984C464.136 169.686 467.751 187.263 472.987 204.716C478.223 221.919 484.456 238.001 491.686 252.96C499.166 267.67 506.521 279.264 513.751 287.741C518.239 291.73 524.223 295.345 531.703 298.586C539.432 301.827 548.033 304.57 557.508 306.814C567.231 309.058 577.454 310.803 588.174 312.05C598.895 313.296 609.492 313.92 619.963 313.92C633.427 313.92 645.768 312.922 656.988 310.928C668.457 308.684 677.557 305.318 684.289 300.83C695.758 293.101 704.484 283.627 710.468 272.407ZM555.707 107.449C556.021 105.212 555.001 103.975 552.646 103.74C550.49 103.261 549.14 104.162 548.595 106.445C548.572 106.538 548.552 106.634 548.532 106.732C548.527 106.782 548.522 106.832 548.517 106.882C548.455 107.49 548.389 108.097 548.317 108.704C547.216 118.02 544.92 127.335 541.426 136.65C541.357 136.847 541.288 137.044 541.218 137.24C538.011 146.241 533.78 154.423 528.526 161.786C528.123 162.349 527.715 162.908 527.301 163.462C527.272 163.501 527.244 163.539 527.215 163.577C527.155 163.697 527.098 163.817 527.046 163.937C526.66 164.815 526.467 165.692 526.467 166.569C526.716 167.567 527.215 168.315 527.963 168.813C529.957 169.81 531.578 169.561 532.825 168.065C532.868 168.004 532.912 167.943 532.955 167.882C533.206 167.53 533.455 167.176 533.702 166.821C533.76 166.737 533.818 166.653 533.876 166.569C539.621 158.259 544.257 149.283 547.784 139.642C547.849 139.464 547.914 139.286 547.979 139.108C547.996 139.059 548.014 139.011 548.031 138.962C551.414 129.575 553.854 119.873 555.351 109.857C555.437 109.287 555.519 108.716 555.598 108.145C555.611 108.048 555.624 107.951 555.638 107.854C555.665 107.715 555.688 107.58 555.707 107.449ZM596.685 264.86C601.045 256.941 606.685 249.982 613.606 243.984C613.653 243.942 613.7 243.899 613.747 243.857C613.776 243.831 613.805 243.805 613.834 243.779C620.585 237.727 627.742 232.384 635.304 227.75C636.045 227.296 636.791 226.848 637.541 226.407C637.583 226.381 637.624 226.354 637.665 226.328C637.864 226.198 638.048 226.065 638.218 225.927C639.668 224.754 640.066 223.293 639.411 221.545C638.912 220.797 638.164 220.299 637.167 220.049C636.169 219.8 635.297 219.925 634.549 220.423C634.414 220.494 634.28 220.565 634.146 220.637C634.093 220.665 634.04 220.693 633.987 220.722C633.312 221.083 632.639 221.453 631.969 221.83C623.945 226.35 616.328 231.989 609.118 238.749C609.108 238.757 609.099 238.765 609.09 238.774C609.058 238.803 609.026 238.832 608.994 238.861C601.38 245.783 595.133 253.504 590.255 262.022C590.058 262.366 589.863 262.711 589.67 263.058C589.566 263.232 589.471 263.404 589.386 263.574C589.374 263.598 589.362 263.622 589.35 263.645C588.856 264.659 588.713 265.585 588.922 266.423C589.421 267.421 590.044 268.169 590.792 268.667C591.54 269.166 592.288 269.415 593.036 269.415C594.034 269.166 594.906 268.293 595.654 266.797C595.674 266.759 595.693 266.721 595.713 266.683C595.749 266.614 595.785 266.544 595.821 266.475C596.103 265.932 596.391 265.394 596.685 264.86Z" fill="black"/>
</g>
<g>
<path d="M519.492 111.269C521.237 115.507 521.861 119.746 521.362 123.984C520.863 127.973 519.617 131.838 517.622 135.578C515.628 139.318 512.885 142.808 509.395 146.049C506.153 149.041 502.413 151.784 498.175 154.277C487.703 160.51 476.484 165.247 464.516 168.489C452.798 171.73 441.08 175.096 429.362 178.586C428.364 179.085 427.367 179.459 426.37 179.708C425.622 179.957 425.372 180.705 425.622 181.952C425.871 183.199 426.37 183.947 427.118 184.196C428.115 184.445 428.988 184.445 429.735 184.196C433.226 183.448 437.215 182.825 441.703 182.326C446.44 181.827 451.302 181.578 456.288 181.578C465.264 181.578 473.99 182.825 482.467 185.318C490.944 187.562 496.928 191.925 500.419 198.407C504.408 205.388 505.655 212.37 504.159 219.351C502.663 226.332 499.297 233.188 494.061 239.92C488.825 246.402 481.969 252.511 473.492 258.245C465.015 263.98 455.914 268.966 446.191 273.205C436.467 277.194 426.37 280.435 415.898 282.928C405.426 285.421 395.454 286.668 385.979 286.668C379.497 286.668 373.513 286.169 368.028 285.172C362.543 283.926 357.681 281.931 353.442 279.188C340.478 272.706 331.128 262.484 325.394 248.521C323.399 243.036 322.651 234.559 323.15 223.09C323.898 211.622 325.768 198.781 328.759 184.57C331.751 170.109 335.616 155.15 340.353 139.692C345.09 124.234 350.326 109.773 356.06 96.3093C361.795 82.8458 367.903 71.2523 374.386 61.5286C381.117 51.5557 387.849 45.1979 394.581 42.4554C408.044 36.7209 420.885 32.6071 433.101 30.1138C445.568 27.3713 458.906 26 473.118 26C479.6 26 486.207 27.3713 492.939 30.1138C499.671 32.6071 504.533 36.8456 507.525 42.8294C510.267 49.5611 509.893 55.9189 506.403 61.9026C503.161 67.8864 498.175 72.0002 491.443 74.2442C483.465 76.9867 475.362 79.4799 467.134 81.7239C458.906 83.9678 451.053 86.9597 443.573 90.6995C442.825 91.1982 441.952 91.6968 440.955 92.1955C440.207 92.6941 440.082 93.5668 440.581 94.8134C441.08 96.808 442.95 97.3066 446.191 96.3093C448.435 95.5613 452.424 94.6887 458.158 93.6914C464.142 92.4448 470.625 91.3228 477.606 90.3255C487.08 89.0789 495.432 89.7022 502.663 92.1955C509.893 94.6887 515.503 101.046 519.492 111.269Z" fill="white"/>
<path fill-rule="evenodd" clip-rule="evenodd" d="M446.075 181.939C449.42 181.698 452.825 181.578 456.291 181.578C465.266 181.578 473.993 182.824 482.47 185.318C490.947 187.561 496.931 191.925 500.421 198.407C504.41 205.388 505.657 212.369 504.161 219.35C502.665 226.331 499.299 233.188 494.063 239.919C488.828 246.402 481.971 252.51 473.494 258.245C465.017 263.979 455.917 268.966 446.193 273.204C436.47 277.193 426.372 280.435 415.9 282.928C405.429 285.421 395.456 286.668 385.982 286.668C379.499 286.668 373.515 286.169 368.03 285.172C362.545 283.925 357.683 281.93 353.445 279.188C340.48 272.706 331.13 262.483 325.396 248.521C323.401 243.036 322.653 234.559 323.152 223.09C323.9 211.621 325.77 198.781 328.762 184.57C331.754 170.109 335.618 155.149 340.355 139.691C345.092 124.233 350.328 109.772 356.063 96.3089C361.797 82.8454 367.906 71.2519 374.388 61.5282C381.12 51.5553 387.851 45.1975 394.583 42.455C408.047 36.7205 420.887 32.6067 433.104 30.1134C445.57 27.3709 458.909 25.9996 473.12 25.9996C479.603 25.9996 486.21 27.3709 492.941 30.1134C499.673 32.6067 504.535 36.8452 507.527 42.829C510.269 49.5607 509.895 55.9185 506.405 61.9022C503.164 67.886 498.177 71.9998 491.445 74.2437C483.467 76.9863 475.364 79.4795 467.136 81.7235C462.106 83.0954 457.215 84.7469 452.465 86.6781C450.206 87.5962 447.979 88.5776 445.783 89.6222C445.303 89.8503 444.826 90.0814 444.349 90.3156C444.305 90.3372 444.261 90.3589 444.217 90.3806C444.003 90.4861 443.789 90.5923 443.575 90.6991C442.827 91.1978 441.955 91.6964 440.957 92.1951C440.209 92.6937 440.085 93.5663 440.583 94.813C440.905 96.1003 441.798 96.7645 443.263 96.8055C443.498 96.8121 443.748 96.8026 444.012 96.7771C444.653 96.7152 445.38 96.5592 446.193 96.3089C446.246 96.2914 446.299 96.2738 446.354 96.2561C446.592 96.1789 446.848 96.1005 447.123 96.0207C447.319 95.9638 447.524 95.9063 447.738 95.8482C449.466 95.379 451.798 94.8667 454.734 94.3113C455.797 94.1102 456.939 93.9034 458.161 93.691C464.145 92.4444 470.627 91.3224 477.608 90.3251C487.082 89.0785 495.435 89.7018 502.665 92.1951C509.895 94.6883 515.505 101.046 519.494 111.268C521.24 115.507 521.863 119.745 521.364 123.984C520.866 127.973 519.619 131.838 517.624 135.577C515.63 139.317 512.887 142.808 509.397 146.049C506.156 149.041 502.416 151.783 498.177 154.277C487.706 160.51 476.486 165.247 464.519 168.488C457.9 170.319 451.282 172.189 444.664 174.099C443.427 174.456 442.19 174.815 440.953 175.174C440.939 175.178 440.926 175.182 440.912 175.186C437.854 176.076 434.796 176.974 431.738 177.88C430.947 178.115 430.155 178.35 429.364 178.586C429.215 178.66 429.067 178.731 428.918 178.8C428.816 178.848 428.714 178.894 428.611 178.938C428.545 178.967 428.479 178.996 428.413 179.023C428.296 179.073 428.179 179.12 428.061 179.166C427.498 179.386 426.935 179.567 426.372 179.708C425.624 179.957 425.375 180.705 425.624 181.952C425.873 183.198 426.372 183.946 427.12 184.196C427.254 184.229 427.386 184.258 427.516 184.283C427.652 184.308 427.786 184.329 427.918 184.345C428.59 184.426 429.196 184.376 429.738 184.196C430.138 184.11 430.546 184.025 430.96 183.943C431.285 183.878 431.614 183.814 431.947 183.751C432.261 183.692 432.579 183.634 432.9 183.576C435.584 183.097 438.519 182.68 441.705 182.326C443.15 182.174 444.607 182.045 446.075 181.939ZM471.339 174.764C475.818 175.434 480.241 176.408 484.604 177.686C494.675 180.376 502.633 185.865 507.349 194.561C512.138 202.981 513.859 211.909 511.909 221.01C510.119 229.364 506.145 237.291 500.318 244.784L500.273 244.841L500.227 244.898C494.401 252.112 486.919 258.73 477.934 264.808C469.04 270.824 459.512 276.042 449.359 280.468L449.28 280.502L449.201 280.535C439.088 284.684 428.597 288.05 417.736 290.636C406.743 293.253 396.151 294.591 385.982 294.591C379.098 294.591 372.634 294.062 366.613 292.967L366.443 292.936L366.274 292.898C360.14 291.504 354.524 289.255 349.516 286.081C334.962 278.693 324.44 267.049 318.067 251.531L318.005 251.381L317.949 251.229C315.401 244.22 314.727 234.445 315.236 222.746L315.24 222.66L315.245 222.574C316.023 210.651 317.957 197.434 321.005 182.951C324.051 168.231 327.978 153.037 332.78 137.37C337.59 121.673 342.919 106.948 348.773 93.204C354.654 79.3971 360.983 67.3511 367.795 57.1331L367.808 57.1142L367.821 57.0953C374.895 46.6142 382.701 38.7618 391.532 35.1423C405.363 29.2551 418.676 24.976 431.46 22.3621C444.527 19.4923 458.422 18.0762 473.12 18.0762C480.706 18.0762 488.287 19.6768 495.816 22.7288C504.223 25.8726 510.672 31.4023 514.614 39.2855L514.75 39.5577L514.865 39.8395C518.466 48.6789 518.052 57.5879 513.313 65.7851C509.073 73.5491 502.481 78.9083 493.988 81.7483C493.664 81.8597 493.339 81.9708 493.015 82.0814C497.278 82.5017 501.363 83.3648 505.248 84.7045C515.482 88.2335 522.394 96.9375 526.85 108.321C529.048 113.69 529.898 119.258 529.234 124.91L529.23 124.938L529.227 124.967C528.601 129.968 527.041 134.759 524.616 139.306C522.159 143.912 518.845 148.089 514.788 151.855L514.78 151.863L514.771 151.871C511.075 155.283 506.875 158.351 502.212 161.096C492.515 166.866 482.219 171.421 471.339 174.764Z" fill="black"/>
</g>
<g>
<path d="M328.163 47.2685C332.651 55.2469 336.266 65.7185 339.008 78.6833C341.751 91.6481 343.372 105.735 343.87 120.944C344.618 136.152 343.995 151.735 342 167.692C340.255 183.649 337.014 198.608 332.277 212.57C327.789 226.283 321.68 238.251 313.951 248.473C306.222 258.695 296.873 265.801 285.902 269.79C275.182 273.53 265.084 275.4 255.61 275.4C239.653 275.4 225.94 270.787 214.471 261.562C203.002 252.337 193.279 240.868 185.3 227.156C177.322 213.443 170.715 198.608 165.479 182.651C160.493 166.445 156.379 151.611 153.138 138.147C152.39 134.407 150.894 132.911 148.65 133.659C147.403 134.158 146.78 134.906 146.78 135.903C146.78 136.651 146.905 137.648 147.154 138.895C148.899 145.627 150.894 153.605 153.138 162.83C155.382 171.806 157.127 181.28 158.373 191.253C159.869 200.977 160.617 210.7 160.617 220.424C160.617 230.147 159.121 238.998 156.129 246.977C153.387 254.955 148.774 261.687 142.292 267.172C136.059 272.408 127.333 275.649 116.113 276.896C102.65 278.89 90.308 276.771 79.0884 270.538C67.8689 264.056 57.8959 255.08 49.1696 243.611C40.6926 231.893 33.4622 218.305 27.4784 202.847C21.4946 187.388 16.8822 171.432 13.641 154.976C10.3997 138.521 8.52981 122.315 8.03117 106.358C7.78184 90.4015 9.02846 76.19 11.771 63.7239C14.5136 51.2577 18.7521 41.1601 24.4865 33.431C30.221 25.702 37.576 21.8375 46.5517 21.8375C53.7821 21.8375 61.6358 24.4554 70.1128 29.6912C76.5952 33.6804 81.457 38.9162 84.6982 45.3986C88.1888 51.881 90.5573 58.862 91.8039 66.3418C93.2999 73.8215 94.0479 81.5505 94.0479 89.5289C94.0479 97.2579 93.7985 104.488 93.2999 111.22C92.8012 117.702 92.3026 123.312 91.8039 128.049C91.5546 132.537 91.804 135.28 92.5519 136.277C93.0506 137.025 93.6739 137.399 94.4218 137.399C95.6685 137.399 96.5411 136.776 97.0397 135.529C98.5357 130.543 99.2837 123.811 99.2837 115.334C99.533 106.857 100.406 97.8812 101.902 88.4069C103.398 78.9326 106.14 69.7076 110.129 60.732C114.118 51.7563 120.601 44.5259 129.577 39.0408C130.823 38.5422 133.566 37.4202 137.804 35.6749C142.043 33.6803 147.029 32.683 152.764 32.683C156.503 32.683 159.869 33.1817 162.861 34.179C169.593 36.4229 175.203 40.2874 179.691 45.7726C184.428 51.0084 188.417 57.1168 191.658 64.0979C195.149 70.8296 197.891 78.06 199.886 85.789C201.88 93.2687 203.501 100.374 204.748 107.106C205.994 113.589 206.867 119.323 207.366 124.31C208.114 129.047 208.737 132.163 209.235 133.659C209.485 134.158 209.734 134.906 209.983 135.903C210.233 136.651 210.981 137.025 212.227 137.025C213.474 137.025 214.222 136.651 214.471 135.903C214.721 135.155 214.845 134.407 214.845 133.659C215.095 125.182 215.469 115.209 215.967 103.74C216.466 92.0221 217.712 80.4286 219.707 68.9597C221.951 57.2414 225.317 46.3959 229.805 36.4229C234.542 26.45 241.024 19.0949 249.252 14.3578C253.241 12.1138 257.23 10.4932 261.219 9.49595C265.209 8.49865 269.073 8 272.813 8C278.547 8 284.157 9.12196 289.642 11.3659C295.127 13.3605 300.239 16.2277 304.976 19.9675C309.713 23.4581 313.951 27.5719 317.691 32.3091C321.68 37.0462 325.171 42.0327 328.163 47.2685Z" fill="white"/>
<path fill-rule="evenodd" clip-rule="evenodd" d="M335.057 43.3602L335.07 43.3835C340.086 52.2998 343.921 63.6109 346.762 77.0431C349.61 90.5045 351.275 105.037 351.789 120.619C352.555 136.27 351.911 152.271 349.872 168.613C348.069 185.055 344.72 200.55 339.796 215.074C335.07 229.5 328.585 242.258 320.273 253.251C311.716 264.568 301.158 272.674 288.612 277.236L288.563 277.254L288.514 277.271C277.116 281.247 266.131 283.323 255.611 283.323C238.011 283.323 222.505 278.191 209.507 267.736C197.224 257.857 186.882 245.626 178.453 231.14C174.805 224.868 171.437 218.378 168.348 211.67C168.478 214.587 168.542 217.505 168.542 220.423C168.542 230.925 166.931 240.7 163.588 249.657C160.374 258.949 154.949 266.843 147.412 273.22L147.401 273.229L147.39 273.239C139.609 279.775 129.264 283.387 117.133 284.754C102.11 286.952 88.0405 284.574 75.242 277.464L75.1838 277.432L75.1261 277.398C62.9 270.334 52.1565 260.619 42.8655 248.408L42.8075 248.332L42.7514 248.255C33.8231 235.913 26.285 221.708 20.0908 205.706C13.9383 189.812 9.1979 173.411 5.86845 156.507C2.54805 139.65 0.625939 123.014 0.113158 106.605L0.111225 106.543L0.110259 106.482C-0.146382 90.0566 1.13175 75.214 4.0342 62.021C6.94245 48.8017 11.5445 37.5786 18.1248 28.7095C25.2281 19.1354 34.8654 13.9136 46.5532 13.9136C55.7088 13.9136 65.0017 17.2208 74.2738 22.9469C81.9089 27.647 87.7977 33.9277 91.732 41.7456C95.5969 48.9506 98.2154 56.6864 99.5998 64.9116C99.6335 65.081 99.6668 65.2505 99.6998 65.4201C100.665 62.7627 101.729 60.1271 102.89 57.5136C107.579 46.9629 115.202 38.5403 125.446 32.2795L126.016 31.9315L126.635 31.6837C127.822 31.2092 130.469 30.1265 134.62 28.4174C140.076 25.8893 146.196 24.7592 152.765 24.7592C157.203 24.7592 161.434 25.3505 165.368 26.6618C173.456 29.3575 180.28 34.0354 185.697 40.5999C190.92 46.403 195.268 53.0915 198.773 60.6037C202.51 67.8391 205.431 75.5701 207.551 83.7769C208.057 85.6738 208.54 87.5494 208.999 89.4037C209.679 82.0897 210.647 74.8222 211.902 67.6016L211.914 67.5353L211.927 67.4691C214.276 55.1986 217.818 43.7558 222.581 33.171L222.614 33.0966L222.649 33.0229C227.961 21.8394 235.46 13.1561 245.3 7.49074L245.334 7.47095L245.369 7.45149C249.906 4.89944 254.551 2.99565 259.299 1.80869C263.855 0.66969 268.366 0.0761719 272.815 0.0761719C279.561 0.0761719 286.139 1.39161 292.498 3.97255C298.709 6.24865 304.475 9.49287 309.783 13.6664C315.028 17.5458 319.713 22.098 323.833 27.2998C328.089 32.3644 331.829 37.7105 335.044 43.337L335.057 43.3602ZM317.693 32.3087C313.953 27.5715 309.715 23.4577 304.977 19.9671C300.24 16.2273 295.129 13.3601 289.644 11.3655C284.159 9.12155 278.549 7.9996 272.815 7.9996C269.075 7.9996 265.21 8.49825 261.221 9.49554C257.232 10.4928 253.243 12.1134 249.253 14.3574C241.026 19.0945 234.543 26.4496 229.806 36.4225C225.318 46.3955 221.953 57.241 219.709 68.9593C217.714 80.4282 216.467 92.0217 215.969 103.74C215.666 110.711 215.409 117.13 215.198 122.996C215.197 123.024 215.196 123.052 215.195 123.08C215.189 123.23 215.184 123.379 215.179 123.528C215.098 125.786 215.024 127.962 214.957 130.055C214.949 130.308 214.941 130.56 214.934 130.811C214.923 131.132 214.913 131.452 214.904 131.77C214.884 132.408 214.865 133.037 214.847 133.659C214.847 133.87 214.837 134.081 214.817 134.292C214.804 134.431 214.787 134.569 214.765 134.708C214.703 135.106 214.606 135.504 214.473 135.903C214.224 136.651 213.476 137.025 212.229 137.025C210.982 137.025 210.234 136.651 209.985 135.903C209.819 135.238 209.653 134.684 209.486 134.241C209.403 134.019 209.32 133.825 209.237 133.659C209.219 133.605 209.201 133.55 209.183 133.492C208.984 132.861 208.767 131.982 208.53 130.855C208.183 129.204 207.796 127.023 207.367 124.309C207.333 123.967 207.297 123.622 207.259 123.272C206.747 118.532 205.91 113.144 204.749 107.106C203.503 100.374 201.882 93.2683 199.887 85.7886C197.893 78.0596 195.15 70.8292 191.66 64.0975C188.418 57.1164 184.429 51.008 179.692 45.7722C175.204 40.287 169.595 36.4225 162.863 34.1786C159.871 33.1813 156.505 32.6826 152.765 32.6826C147.031 32.6826 142.044 33.6799 137.806 35.6745C133.567 37.4198 130.825 38.5418 129.578 39.0404C120.602 44.5255 114.12 51.7559 110.131 60.7316C106.196 69.5859 103.473 78.6829 101.964 88.0225C101.944 88.1505 101.923 88.2785 101.903 88.4065C101.844 88.7813 101.786 89.1553 101.729 89.5285C100.546 97.2436 99.7794 104.625 99.4301 111.674C99.4298 111.679 99.4295 111.685 99.4292 111.691C99.3686 112.915 99.3206 114.129 99.2852 115.333C99.2852 120.294 99.0291 124.657 98.5169 128.422C98.5019 128.532 98.4867 128.642 98.4713 128.751C98.3719 129.454 98.2634 130.136 98.1458 130.797C98.0543 131.311 97.9573 131.812 97.8547 132.301C97.8183 132.474 97.7811 132.646 97.7433 132.817C97.5312 133.772 97.2972 134.676 97.0413 135.529C96.5427 136.775 95.67 137.399 94.4234 137.399C93.6754 137.399 93.0521 137.025 92.5535 136.277C92.2271 135.841 91.9956 135.074 91.8592 133.974C91.8378 133.802 91.8187 133.621 91.802 133.433C91.7243 132.557 91.6969 131.504 91.7198 130.276C91.7327 129.589 91.7612 128.846 91.8055 128.049C92.1955 124.344 92.5855 120.106 92.9754 115.333C92.9805 115.272 92.9855 115.21 92.9905 115.148C93.0942 113.876 93.1978 112.567 93.3015 111.22C93.8001 104.488 94.0494 97.2575 94.0494 89.5285C94.0494 88.8344 94.0438 88.1421 94.0324 87.4518C93.9136 80.2071 93.1713 73.1703 91.8055 66.3414C90.5589 58.8616 88.1903 51.8806 84.6998 45.3982C81.4586 38.9157 76.5968 33.68 70.1143 29.6908C61.6373 24.455 53.7836 21.8371 46.5532 21.8371C37.5776 21.8371 30.2225 25.7016 24.4881 33.4306C18.7536 41.1597 14.5151 51.2573 11.7726 63.7235C9.03001 76.1896 7.78339 90.4011 8.03272 106.358C8.53136 122.315 10.4013 138.521 13.6425 154.976C16.8837 171.431 21.4962 187.388 27.48 202.846C33.4637 218.304 40.6941 231.892 49.1711 243.611C57.8975 255.079 67.8704 264.055 79.09 270.538C90.3096 276.771 102.651 278.89 116.115 276.895C127.334 275.649 136.061 272.407 142.294 267.172C148.776 261.687 153.388 254.955 156.131 246.976C159.123 238.998 160.619 230.147 160.619 220.423C160.619 210.7 159.871 200.976 158.375 191.253C158 188.255 157.581 185.302 157.116 182.395C156.034 175.629 154.709 169.107 153.139 162.83C151.126 154.555 149.314 147.283 147.703 141.015C147.575 140.519 147.449 140.03 147.324 139.547C147.305 139.471 147.285 139.396 147.266 139.321C147.229 139.178 147.192 139.036 147.155 138.895C146.906 137.648 146.781 136.651 146.781 135.903C146.781 134.905 147.405 134.157 148.651 133.659C150.374 133.085 151.655 133.833 152.496 135.903C152.674 136.339 152.831 136.834 152.969 137.387C152.996 137.495 153.022 137.604 153.048 137.716C153.079 137.856 153.11 138 153.139 138.147C153.248 138.597 153.357 139.049 153.467 139.502C155.15 146.417 157.06 153.687 159.198 161.315C159.201 161.328 159.205 161.341 159.208 161.353C160.941 167.535 162.822 173.951 164.852 180.601C165.06 181.282 165.27 181.965 165.481 182.651C170.717 198.608 177.324 213.442 185.302 227.155C193.28 240.868 203.004 252.337 214.473 261.562C225.942 270.787 239.655 275.399 255.611 275.399C265.086 275.399 275.183 273.529 285.904 269.79C296.874 265.8 306.224 258.695 313.953 248.472C321.682 238.25 327.79 226.283 332.278 212.57C337.015 198.608 340.257 183.648 342.002 167.691C343.997 151.735 344.62 136.152 343.872 120.943C343.373 105.735 341.753 91.6477 339.01 78.6829C336.267 65.7181 332.652 55.2465 328.164 47.2681C325.173 42.0323 321.682 37.0458 317.693 32.3087ZM208.053 103.403C208.053 103.401 208.053 103.398 208.053 103.396L212.144 103.574C212.144 103.575 212.144 103.576 212.145 103.577L208.053 103.403ZM212.535 105.636C212.409 104.953 212.278 104.267 212.145 103.577Z" fill="black"/>
</g>
<g>
<path d="M1060.07 337.746C1062.57 347.968 1061.94 357.941 1058.2 367.664C1054.46 377.139 1048.61 386.114 1040.63 394.591C1032.9 403.068 1023.55 410.797 1012.58 417.778C1001.61 424.76 990.264 430.868 978.545 436.104C966.827 441.09 955.234 444.955 943.765 447.697C932.296 450.689 922.073 452.185 913.098 452.185C898.886 452.185 887.791 449.567 879.813 444.331C871.835 438.846 865.976 431.741 862.236 423.014C858.745 414.288 857 404.44 857 393.469C857.249 382.25 858.496 371.03 860.74 359.811C862.984 348.342 865.851 337.247 869.341 326.526C873.081 315.805 876.572 306.455 879.813 298.477C881.808 292.493 884.8 284.889 888.789 275.664C893.027 266.19 897.515 256.591 902.252 246.867C907.239 237.143 912.225 228.168 917.212 219.94C922.447 211.463 927.06 205.23 931.049 201.241C938.279 193.761 945.261 189.024 951.992 187.029C958.724 184.785 964.583 183.788 969.57 184.037C984.03 184.536 994.253 188.525 1000.24 196.005C1006.22 203.485 1009.21 213.707 1009.21 226.672C1009.21 238.141 1007.84 248.862 1005.1 258.835C1002.61 268.558 998.99 277.783 994.253 286.509C989.516 295.236 983.781 303.588 977.049 311.567C970.567 319.545 963.461 327.399 955.732 335.128C949.998 340.862 946.009 344.976 943.765 347.469C941.521 349.962 940.897 351.708 941.895 352.705C942.892 353.702 944.139 353.827 945.635 353.079C947.131 352.082 950.247 349.464 954.984 345.225C958.973 341.735 963.586 337.746 968.822 333.258C974.307 328.77 980.041 324.656 986.025 320.916C992.258 316.927 998.491 313.686 1004.72 311.193C1011.21 308.45 1017.56 307.079 1023.8 307.079C1028.29 307.079 1032.52 307.951 1036.51 309.697C1040.5 311.193 1043.99 313.436 1046.98 316.428C1050.23 319.171 1052.97 322.412 1055.21 326.152C1057.46 329.642 1059.08 333.507 1060.07 337.746Z" fill="white"/>
<path fill-rule="evenodd" clip-rule="evenodd" d="M888.79 275.665C893.029 266.191 897.517 256.592 902.254 246.869C907.24 237.145 912.227 228.169 917.213 219.942C922.449 211.465 927.061 205.231 931.051 201.242C938.281 193.763 945.262 189.025 951.994 187.031C958.726 184.787 964.585 183.79 969.571 184.039C984.032 184.538 994.254 188.527 1000.24 196.006C1006.22 203.486 1009.21 213.708 1009.21 226.673C1009.21 238.142 1007.84 248.863 1005.1 258.836C1002.61 268.56 998.991 277.785 994.254 286.511C989.517 295.237 983.783 303.59 977.051 311.568C972.387 317.308 967.401 322.983 962.092 328.594C960.022 330.782 957.902 332.961 955.734 335.129C953.847 337.015 952.15 338.726 950.641 340.262C950.624 340.279 950.607 340.297 950.59 340.314C948.427 342.516 946.655 344.356 945.272 345.833C944.704 346.44 944.202 346.986 943.766 347.471C943.554 347.706 943.357 347.935 943.174 348.157C943.015 348.35 942.867 348.538 942.73 348.721C941.353 350.557 941.075 351.885 941.896 352.706C942.894 353.704 944.14 353.828 945.636 353.08C946.196 352.707 946.983 352.107 947.998 351.279C948.373 350.972 948.78 350.635 949.218 350.266C950.756 348.971 952.679 347.291 954.986 345.227C956.791 343.647 958.724 341.965 960.785 340.181C962.909 338.342 965.168 336.395 967.563 334.34C967.979 333.983 968.399 333.623 968.823 333.259C974.308 328.771 980.043 324.658 986.027 320.918C992.26 316.929 998.493 313.687 1004.73 311.194C1011.21 308.452 1017.57 307.08 1023.8 307.08C1028.29 307.08 1032.53 307.953 1036.51 309.698C1040.5 311.194 1043.99 313.438 1046.99 316.43C1050.23 319.172 1052.97 322.414 1055.21 326.154C1057.46 329.644 1059.08 333.509 1060.08 337.747C1062.57 347.969 1061.95 357.942 1058.21 367.666C1054.47 377.14 1048.61 386.116 1040.63 394.593C1032.9 403.07 1023.55 410.799 1012.58 417.78C1001.61 424.761 990.265 430.87 978.547 436.105C966.829 441.092 955.235 444.956 943.766 447.699C932.297 450.691 922.075 452.187 913.099 452.187C898.888 452.187 887.793 449.569 879.815 444.333C871.836 438.848 865.977 431.742 862.237 423.016C858.747 414.289 857.002 404.441 857.002 393.471C857.251 382.251 858.497 371.032 860.741 359.812C862.985 348.343 865.852 337.248 869.343 326.527C873.083 315.807 876.573 306.457 879.815 298.479C881.809 292.495 884.801 284.89 888.79 275.665ZM872.379 295.73C869.102 303.81 865.596 313.212 861.862 323.918L861.834 323.996L861.809 324.075C858.217 335.106 855.272 346.507 852.969 358.274C850.638 369.934 849.34 381.609 849.08 393.295L849.078 393.383V393.471C849.078 405.283 850.959 416.154 854.881 425.958L854.916 426.048L854.955 426.137C859.297 436.269 866.138 444.546 875.326 450.862L875.396 450.911L875.467 450.957C885.225 457.361 898.053 460.11 913.099 460.11C922.904 460.11 933.792 458.484 945.688 455.386C957.594 452.534 969.582 448.531 981.649 443.396L981.715 443.368L981.779 443.339C993.856 437.944 1005.54 431.651 1016.83 424.465C1028.3 417.169 1038.19 409.017 1046.44 399.978C1054.99 390.886 1061.43 381.09 1065.58 370.575L1065.59 370.543L1065.6 370.51C1069.92 359.274 1070.64 347.664 1067.78 335.901C1066.6 330.882 1064.66 326.221 1061.95 321.973C1059.34 317.646 1056.14 313.84 1052.35 310.593C1048.66 306.961 1044.35 304.205 1039.5 302.354C1034.53 300.214 1029.27 299.157 1023.8 299.157C1016.4 299.157 1009.02 300.783 1001.71 303.866C997.163 305.689 992.644 307.869 988.154 310.396C993.091 303.936 997.448 297.235 1001.22 290.291C1006.26 281.006 1010.11 271.194 1012.76 260.871C1015.7 250.163 1017.14 238.751 1017.14 226.673C1017.14 212.543 1013.87 200.367 1006.43 191.057L1000.32 195.943L1006.43 191.057C998.4 181.026 985.457 176.668 969.903 176.122C963.665 175.821 956.844 177.074 949.61 179.473C941.152 182.014 933.1 187.732 925.399 195.688C920.781 200.32 915.806 207.141 910.472 215.778L910.454 215.806L910.437 215.835C905.341 224.243 900.264 233.384 895.203 243.253L895.166 243.325L895.131 243.398C890.357 253.196 885.833 262.874 881.558 272.43L881.537 272.475L881.518 272.521C877.536 281.728 874.474 289.483 872.379 295.73Z" fill="black"/>
<g>
</svg>
