<svg width="1255" height="811" viewBox="0 0 1255 811" fill="none" xmlns="http://www.w3.org/2000/svg">
<rect width="1255" height="811" fill="black"/>
<path d="M909.521 431.834C906.478 431.834 903.87 430.893 901.696 429.012C899.523 427.13 898.453 424.838 898.486 422.133C898.453 419.488 899.523 417.225 901.696 415.343C903.87 413.462 906.478 412.521 909.521 412.521C912.464 412.521 915.022 413.462 917.196 415.343C919.403 417.225 920.523 419.488 920.556 422.133C920.523 423.926 919.988 425.558 918.951 427.028C917.948 428.497 916.61 429.673 914.938 430.555C913.3 431.407 911.494 431.834 909.521 431.834Z" fill="white"/>
<path d="M852.626 460.745C849.871 460.745 847.286 460.524 844.872 460.082C842.491 459.674 840.519 459.147 838.954 458.5L843.851 442.278C846.402 443.06 848.698 443.485 850.738 443.553C852.813 443.621 854.599 443.145 856.095 442.125C857.625 441.104 858.867 439.37 859.819 436.921L861.094 433.605L832.985 353.002H855.84L872.063 410.547H872.879L889.255 353.002H912.262L881.806 439.829C880.344 444.046 878.354 447.719 875.838 450.848C873.355 454.011 870.209 456.443 866.4 458.143C862.591 459.878 858 460.745 852.626 460.745Z" fill="white"/>
<path d="M785.595 386.06V431.361H763.862V326.883H784.982V366.827H785.901C787.669 362.202 790.526 358.58 794.471 355.961C798.416 353.308 803.365 351.982 809.316 351.982C814.758 351.982 819.502 353.172 823.55 355.553C827.631 357.9 830.794 361.284 833.038 365.705C835.317 370.092 836.439 375.347 836.405 381.469V431.361H814.673V385.346C814.707 380.516 813.483 376.758 811 374.071C808.551 371.385 805.116 370.041 800.695 370.041C797.736 370.041 795.117 370.67 792.839 371.929C790.594 373.187 788.826 375.024 787.533 377.438C786.275 379.819 785.629 382.693 785.595 386.06Z" fill="white"/>
<path d="M759.512 353.002V369.327H712.323V353.002H759.512ZM723.036 334.229H744.769V407.282C744.769 409.288 745.075 410.853 745.687 411.975C746.299 413.063 747.149 413.828 748.238 414.271C749.36 414.713 750.652 414.934 752.115 414.934C753.135 414.934 754.155 414.849 755.176 414.679C756.196 414.475 756.978 414.322 757.522 414.22L760.94 430.391C759.852 430.731 758.322 431.122 756.349 431.565C754.376 432.041 751.979 432.33 749.156 432.432C743.918 432.636 739.327 431.939 735.382 430.34C731.471 428.742 728.427 426.259 726.25 422.892C724.074 419.525 723.002 415.274 723.036 410.138V334.229Z" fill="white"/>
<path d="M683.383 468.282C675.458 468.282 668.605 466.599 662.824 463.232C657.076 459.831 652.638 455.104 649.509 449.05C646.38 442.962 644.815 435.905 644.815 427.879C644.815 419.784 646.38 412.71 649.509 406.657C652.638 400.569 657.076 395.841 662.824 392.475C668.605 389.074 675.458 387.373 683.383 387.373C691.307 387.373 698.143 389.074 703.89 392.475C709.672 395.841 714.127 400.569 717.256 406.657C720.385 412.71 721.95 419.784 721.95 427.879C721.95 435.905 720.385 442.962 717.256 449.05C714.127 455.104 709.672 459.831 703.89 463.232C698.143 466.599 691.307 468.282 683.383 468.282ZM683.485 451.448C687.09 451.448 690.1 450.427 692.514 448.387C694.929 446.312 696.748 443.489 697.973 439.918C699.231 436.347 699.86 432.283 699.86 427.726C699.86 423.168 699.231 419.104 697.973 415.533C696.748 411.962 694.929 409.139 692.514 407.065C690.1 404.99 687.09 403.953 683.485 403.953C679.846 403.953 676.785 404.99 674.302 407.065C671.853 409.139 670 411.962 668.741 415.533C667.517 419.104 666.905 423.168 666.905 427.726C666.905 432.283 667.517 436.347 668.741 439.918C670 443.489 671.853 446.312 674.302 448.387C676.785 450.427 679.846 451.448 683.485 451.448Z" fill="white"/>
<path d="M646.398 402.994C640.496 408.282 634.269 411.602 627.717 412.954C621.167 414.257 614.706 413.699 608.336 411.279C601.943 408.833 596.068 404.622 590.711 398.645C585.309 392.617 581.753 386.305 580.043 379.709C578.31 373.087 578.46 366.604 580.493 360.261C582.529 353.869 586.497 348.029 592.399 342.741C598.3 337.452 604.525 334.156 611.076 332.853C617.628 331.501 624.101 332.048 630.494 334.494C636.865 336.914 642.751 341.138 648.153 347.165C653.51 353.143 657.055 359.442 658.788 366.064C660.498 372.66 660.335 379.154 658.299 385.546C656.266 391.889 652.299 397.705 646.398 402.994ZM635.238 390.389C637.923 387.983 639.483 385.214 639.919 382.083C640.333 378.926 639.804 375.61 638.333 372.133C636.886 368.634 634.643 365.188 631.601 361.794C628.559 358.4 625.378 355.793 622.058 353.974C618.763 352.132 615.524 351.244 612.341 351.311C609.158 351.377 606.225 352.614 603.54 355.02C600.83 357.448 599.243 360.264 598.779 363.465C598.34 366.645 598.843 369.984 600.289 373.483C601.761 376.96 604.018 380.395 607.059 383.789C610.101 387.182 613.269 389.8 616.564 391.643C619.884 393.462 623.149 394.327 626.357 394.238C629.568 394.1 632.528 392.817 635.238 390.389Z" fill="white"/>
<path d="M562.395 481.428C554.891 478.883 548.942 475.087 544.548 470.041C540.197 464.974 537.512 459.072 536.494 452.334C535.486 445.564 536.271 438.378 538.85 430.777C541.45 423.112 545.203 416.915 550.111 412.187C555.029 407.427 560.751 404.376 567.276 403.033C573.843 401.67 580.879 402.261 588.384 404.806C595.888 407.351 601.816 411.158 606.166 416.225C610.56 421.27 613.261 427.178 614.268 433.948C615.287 440.686 614.496 447.888 611.896 455.553C609.318 463.154 605.57 469.335 600.651 474.095C595.744 478.823 590.006 481.869 583.438 483.232C576.914 484.575 569.899 483.973 562.395 481.428ZM567.899 465.518C571.313 466.676 574.491 466.676 577.433 465.52C580.387 464.331 583.016 462.242 585.323 459.253C587.662 456.276 589.563 452.629 591.027 448.313C592.491 443.997 593.2 439.946 593.156 436.16C593.143 432.385 592.327 429.128 590.706 426.387C589.086 423.647 586.569 421.698 583.155 420.54C579.709 419.371 576.477 419.37 573.459 420.537C570.474 421.716 567.812 423.793 565.473 426.771C563.167 429.76 561.281 433.412 559.818 437.728C558.354 442.043 557.628 446.089 557.64 449.864C557.685 453.65 558.534 456.918 560.186 459.67C561.882 462.4 564.453 464.349 567.899 465.518Z" fill="white"/>
<path d="M420.599 431.539V353.18H441.311V367.005H442.229C443.861 362.414 446.582 358.792 450.391 356.139C454.2 353.487 458.758 352.16 464.063 352.16C469.437 352.16 474.011 353.504 477.786 356.19C481.561 358.843 484.078 362.448 485.336 367.005H486.153C487.751 362.516 490.642 358.928 494.825 356.241C499.042 353.521 504.025 352.16 509.772 352.16C517.084 352.16 523.019 354.49 527.577 359.149C532.168 363.775 534.463 370.338 534.463 378.841V431.539H512.782V383.126C512.782 378.773 511.626 375.508 509.313 373.331C507.001 371.155 504.11 370.066 500.641 370.066C496.696 370.066 493.618 371.325 491.407 373.841C489.196 376.324 488.091 379.606 488.091 383.687V431.539H467.022V382.667C467.022 378.824 465.917 375.763 463.706 373.484C461.529 371.206 458.656 370.066 455.085 370.066C452.67 370.066 450.493 370.679 448.555 371.903C446.65 373.093 445.137 374.777 444.014 376.953C442.892 379.096 442.331 381.613 442.331 384.503V431.539H420.599Z" fill="white"/>
<path d="M395.044 357.103C394.636 352.988 392.885 349.791 389.79 347.512C386.695 345.234 382.495 344.094 377.189 344.094C373.584 344.094 370.54 344.604 368.058 345.625C365.575 346.611 363.67 347.988 362.344 349.757C361.052 351.525 360.405 353.532 360.405 355.777C360.337 357.647 360.728 359.28 361.579 360.674C362.463 362.068 363.67 363.276 365.201 364.296C366.731 365.282 368.5 366.15 370.506 366.898C372.513 367.612 374.655 368.224 376.934 368.734L386.321 370.979C390.878 371.999 395.061 373.36 398.87 375.06C402.68 376.761 405.978 378.852 408.767 381.335C411.556 383.818 413.716 386.743 415.246 390.11C416.811 393.477 417.61 397.337 417.644 401.69C417.61 408.084 415.977 413.627 412.746 418.321C409.55 422.98 404.924 426.602 398.87 429.187C392.851 431.738 385.59 433.013 377.087 433.013C368.653 433.013 361.307 431.721 355.049 429.136C348.825 426.551 343.962 422.725 340.459 417.658C336.99 412.556 335.17 406.247 335 398.731H356.375C356.613 402.234 357.617 405.159 359.385 407.506C361.188 409.818 363.585 411.57 366.578 412.76C369.605 413.916 373.023 414.495 376.832 414.495C380.573 414.495 383.821 413.95 386.576 412.862C389.365 411.774 391.524 410.26 393.055 408.322C394.585 406.383 395.35 404.156 395.35 401.639C395.35 399.292 394.653 397.32 393.259 395.721C391.898 394.123 389.892 392.762 387.239 391.64C384.62 390.518 381.406 389.497 377.597 388.579L366.221 385.722C357.412 383.58 350.457 380.23 345.356 375.672C340.255 371.115 337.721 364.976 337.755 357.256C337.721 350.93 339.404 345.404 342.805 340.676C346.24 335.949 350.951 332.259 356.936 329.606C362.922 326.953 369.724 325.627 377.342 325.627C385.096 325.627 391.864 326.953 397.646 329.606C403.462 332.259 407.985 335.949 411.216 340.676C414.447 345.404 416.113 350.879 416.215 357.103H395.044Z" fill="white"/>
</svg>
