<svg width="1255" height="347" viewBox="0 0 1255 347" fill="none" xmlns="http://www.w3.org/2000/svg">
<rect width="1255" height="347" fill="black"/>
<path d="M909.521 199.834C906.478 199.834 903.87 198.893 901.696 197.012C899.523 195.13 898.453 192.838 898.486 190.133C898.453 187.488 899.523 185.225 901.696 183.343C903.87 181.462 906.478 180.521 909.521 180.521C912.464 180.521 915.022 181.462 917.196 183.343C919.403 185.225 920.523 187.488 920.556 190.133C920.523 191.926 919.988 193.558 918.951 195.028C917.948 196.497 916.61 197.673 914.938 198.555C913.3 199.407 911.494 199.834 909.521 199.834Z" fill="white"/>
<path d="M852.626 228.745C849.871 228.745 847.286 228.524 844.872 228.082C842.491 227.674 840.519 227.147 838.954 226.5L843.851 210.278C846.402 211.06 848.698 211.485 850.738 211.553C852.813 211.621 854.599 211.145 856.095 210.125C857.625 209.104 858.867 207.37 859.819 204.921L861.094 201.605L832.985 121.002H855.84L872.063 178.547H872.879L889.255 121.002H912.262L881.806 207.829C880.344 212.046 878.354 215.719 875.838 218.848C873.355 222.011 870.209 224.443 866.4 226.143C862.591 227.878 858 228.745 852.626 228.745Z" fill="white"/>
<path d="M785.595 154.06V199.361H763.862V94.8828H784.982V134.827H785.901C787.669 130.202 790.526 126.58 794.471 123.961C798.416 121.308 803.365 119.982 809.316 119.982C814.758 119.982 819.502 121.172 823.55 123.553C827.631 125.9 830.794 129.284 833.038 133.705C835.317 138.092 836.439 143.347 836.405 149.469V199.361H814.673V153.346C814.707 148.516 813.483 144.758 811 142.071C808.551 139.385 805.116 138.041 800.695 138.041C797.736 138.041 795.117 138.67 792.839 139.929C790.594 141.187 788.826 143.024 787.533 145.438C786.275 147.819 785.629 150.693 785.595 154.06Z" fill="white"/>
<path d="M759.512 121.002V137.327H712.323V121.002H759.512ZM723.036 102.229H744.769V175.282C744.769 177.288 745.075 178.853 745.687 179.975C746.299 181.063 747.149 181.828 748.238 182.271C749.36 182.713 750.652 182.934 752.115 182.934C753.135 182.934 754.155 182.849 755.176 182.679C756.196 182.475 756.978 182.322 757.522 182.22L760.94 198.391C759.852 198.731 758.322 199.122 756.349 199.565C754.376 200.041 751.979 200.33 749.156 200.432C743.918 200.636 739.327 199.939 735.382 198.34C731.471 196.742 728.427 194.259 726.25 190.892C724.074 187.525 723.002 183.274 723.036 178.138V102.229Z" fill="white"/>
<path d="M683.383 236.282C675.458 236.282 668.605 234.599 662.824 231.232C657.076 227.831 652.638 223.104 649.509 217.05C646.38 210.962 644.815 203.905 644.815 195.879C644.815 187.784 646.38 180.71 649.509 174.657C652.638 168.569 657.076 163.841 662.824 160.475C668.605 157.074 675.458 155.373 683.383 155.373C691.307 155.373 698.143 157.074 703.89 160.475C709.672 163.841 714.127 168.569 717.256 174.657C720.385 180.71 721.95 187.784 721.95 195.879C721.95 203.905 720.385 210.962 717.256 217.05C714.127 223.104 709.672 227.831 703.89 231.232C698.143 234.599 691.307 236.282 683.383 236.282ZM683.485 219.448C687.09 219.448 690.1 218.427 692.514 216.387C694.929 214.312 696.748 211.489 697.973 207.918C699.231 204.347 699.86 200.283 699.86 195.726C699.86 191.168 699.231 187.104 697.973 183.533C696.748 179.962 694.929 177.139 692.514 175.065C690.1 172.99 687.09 171.953 683.485 171.953C679.846 171.953 676.785 172.99 674.302 175.065C671.853 177.139 670 179.962 668.741 183.533C667.517 187.104 666.905 191.168 666.905 195.726C666.905 200.283 667.517 204.347 668.741 207.918C670 211.489 671.853 214.312 674.302 216.387C676.785 218.427 679.846 219.448 683.485 219.448Z" fill="white"/>
<path d="M646.398 170.994C640.496 176.282 634.269 179.602 627.717 180.954C621.167 182.257 614.706 181.699 608.336 179.279C601.943 176.833 596.068 172.622 590.711 166.645C585.309 160.617 581.753 154.305 580.043 147.709C578.31 141.087 578.46 134.604 580.493 128.261C582.529 121.869 586.497 116.029 592.399 110.741C598.3 105.452 604.525 102.156 611.076 100.853C617.628 99.5014 624.101 100.048 630.494 102.494C636.865 104.914 642.751 109.138 648.153 115.165C653.51 121.143 657.055 127.442 658.788 134.064C660.498 140.66 660.335 147.154 658.299 153.546C656.266 159.889 652.299 165.705 646.398 170.994ZM635.238 158.389C637.923 155.983 639.483 153.214 639.919 150.083C640.333 146.926 639.804 143.61 638.333 140.133C636.886 136.634 634.643 133.188 631.601 129.794C628.559 126.4 625.378 123.793 622.058 121.974C618.763 120.132 615.524 119.244 612.341 119.311C609.158 119.377 606.225 120.614 603.54 123.02C600.83 125.448 599.243 128.264 598.779 131.465C598.34 134.645 598.843 137.984 600.289 141.483C601.761 144.96 604.018 148.395 607.059 151.789C610.101 155.182 613.269 157.8 616.564 159.643C619.884 161.462 623.149 162.327 626.357 162.238C629.568 162.1 632.528 160.817 635.238 158.389Z" fill="white"/>
<path d="M562.395 249.428C554.891 246.883 548.942 243.087 544.548 238.041C540.197 232.974 537.512 227.072 536.494 220.334C535.486 213.564 536.271 206.378 538.85 198.777C541.45 191.112 545.203 184.915 550.111 180.187C555.029 175.427 560.751 172.376 567.276 171.033C573.843 169.67 580.879 170.261 588.384 172.806C595.888 175.351 601.816 179.158 606.166 184.225C610.56 189.27 613.261 195.178 614.268 201.948C615.287 208.686 614.496 215.888 611.896 223.553C609.318 231.154 605.57 237.335 600.651 242.095C595.744 246.823 590.006 249.869 583.438 251.232C576.914 252.575 569.899 251.973 562.395 249.428ZM567.899 233.518C571.313 234.676 574.491 234.676 577.433 233.52C580.387 232.331 583.016 230.242 585.323 227.253C587.662 224.276 589.563 220.629 591.027 216.313C592.491 211.997 593.2 207.946 593.156 204.16C593.143 200.385 592.327 197.128 590.706 194.387C589.086 191.647 586.569 189.698 583.155 188.54C579.709 187.371 576.477 187.37 573.459 188.537C570.474 189.716 567.812 191.793 565.473 194.771C563.167 197.76 561.281 201.412 559.818 205.728C558.354 210.043 557.628 214.089 557.64 217.864C557.685 221.65 558.534 224.918 560.186 227.67C561.882 230.4 564.453 232.349 567.899 233.518Z" fill="white"/>
<path d="M420.599 199.539V121.18H441.311V135.005H442.229C443.861 130.414 446.582 126.792 450.391 124.139C454.2 121.487 458.758 120.16 464.063 120.16C469.437 120.16 474.011 121.504 477.786 124.19C481.561 126.843 484.078 130.448 485.336 135.005H486.153C487.751 130.516 490.642 126.928 494.825 124.241C499.042 121.521 504.025 120.16 509.772 120.16C517.084 120.16 523.019 122.49 527.577 127.149C532.168 131.775 534.463 138.338 534.463 146.841V199.539H512.782V151.126C512.782 146.773 511.626 143.508 509.313 141.331C507.001 139.155 504.11 138.066 500.641 138.066C496.696 138.066 493.618 139.325 491.407 141.841C489.196 144.324 488.091 147.606 488.091 151.687V199.539H467.022V150.667C467.022 146.824 465.917 143.763 463.706 141.484C461.529 139.206 458.656 138.066 455.085 138.066C452.67 138.066 450.493 138.679 448.555 139.903C446.65 141.093 445.137 142.777 444.014 144.953C442.892 147.096 442.331 149.613 442.331 152.503V199.539H420.599Z" fill="white"/>
<path d="M395.044 125.103C394.636 120.988 392.885 117.791 389.79 115.512C386.695 113.234 382.495 112.094 377.189 112.094C373.584 112.094 370.54 112.604 368.058 113.625C365.575 114.611 363.67 115.988 362.344 117.757C361.052 119.525 360.405 121.532 360.405 123.777C360.337 125.647 360.728 127.28 361.579 128.674C362.463 130.068 363.67 131.276 365.201 132.296C366.731 133.282 368.5 134.15 370.506 134.898C372.513 135.612 374.655 136.224 376.934 136.734L386.321 138.979C390.878 139.999 395.061 141.36 398.87 143.06C402.68 144.761 405.978 146.852 408.767 149.335C411.556 151.818 413.716 154.743 415.246 158.11C416.811 161.477 417.61 165.337 417.644 169.69C417.61 176.084 415.977 181.627 412.746 186.321C409.55 190.98 404.924 194.602 398.87 197.187C392.851 199.738 385.59 201.013 377.087 201.013C368.653 201.013 361.307 199.721 355.049 197.136C348.825 194.551 343.962 190.725 340.459 185.658C336.99 180.556 335.17 174.247 335 166.731H356.375C356.613 170.234 357.617 173.159 359.385 175.506C361.188 177.818 363.585 179.57 366.578 180.76C369.605 181.916 373.023 182.495 376.832 182.495C380.573 182.495 383.821 181.95 386.576 180.862C389.365 179.774 391.524 178.26 393.055 176.322C394.585 174.383 395.35 172.156 395.35 169.639C395.35 167.292 394.653 165.32 393.259 163.721C391.898 162.123 389.892 160.762 387.239 159.64C384.62 158.518 381.406 157.497 377.597 156.579L366.221 153.722C357.412 151.58 350.457 148.23 345.356 143.672C340.255 139.115 337.721 132.976 337.755 125.256C337.721 118.93 339.404 113.404 342.805 108.676C346.24 103.949 350.951 100.259 356.936 97.6061C362.922 94.9533 369.724 93.627 377.342 93.627C385.096 93.627 391.864 94.9533 397.646 97.6061C403.462 100.259 407.985 103.949 411.216 108.676C414.447 113.404 416.113 118.879 416.215 125.103H395.044Z" fill="white"/>
</svg>
