<svg width="1200" height="630" viewBox="0 0 1200 630" fill="none" xmlns="http://www.w3.org/2000/svg">
<g clip-path="url(#clip0_1714_31780)">
<path d="M529.378 302.51C539.976 302.51 550.654 304.805 561.371 309.272C572.422 313.803 583.271 321.007 593.934 330.7C603.41 339.305 609.205 350.053 611.218 362.735C613.164 374.996 612.359 387.901 608.946 401.386L608.944 401.396L608.941 401.406C605.542 414.645 599.902 427.791 592.092 440.839C584.429 453.943 575.17 465.73 564.319 476.185C553.452 486.656 541.435 495.245 528.279 501.929L528.249 501.944L528.218 501.959C514.841 508.561 501.058 511.913 486.926 511.913C478.086 511.913 469.217 510.315 460.344 507.179V507.178C451.52 504.178 442.937 499.341 434.592 492.789V492.788C424.794 485.112 418.431 474.743 415.445 462.002L415.435 461.959L415.426 461.916C412.722 449.555 412.558 436.429 414.826 422.599C417.088 408.624 421.597 394.634 428.295 380.638C435.006 366.431 443.322 353.606 453.247 342.189L453.251 342.185C463.389 330.548 474.798 321.05 487.479 313.742L487.496 313.733L487.513 313.724C500.636 306.272 514.621 302.51 529.378 302.51Z" fill="white" stroke="black" stroke-width="11.8628"/>
<path d="M712.439 232.07C723.09 232.07 733.825 234.326 744.609 238.724H744.608C755.704 243.174 766.604 250.248 777.325 259.771C786.864 268.235 792.718 278.829 794.753 291.355C796.717 303.448 795.904 316.172 792.464 329.456L792.458 329.476C789.027 342.534 783.334 355.495 775.452 368.353C767.741 381.227 758.429 392.805 747.524 403.072C736.587 413.371 724.498 421.813 711.268 428.382L711.236 428.396L711.206 428.411C697.758 434.897 683.911 438.186 669.72 438.186C660.846 438.186 651.939 436.618 643.022 433.538V433.537C634.16 430.594 625.532 425.844 617.137 419.403C607.276 411.856 600.849 401.639 597.832 389.06L597.821 389.016L597.812 388.972C595.084 376.785 594.919 363.847 597.206 350.222C599.488 336.448 604.036 322.663 610.79 308.879C617.548 294.907 625.916 282.297 635.901 271.073L635.906 271.068C646.112 259.621 657.593 250.283 670.347 243.101L670.362 243.091L670.379 243.082C683.573 235.761 697.622 232.07 712.439 232.07Z" fill="white" stroke="black" stroke-width="11.8628"/>
<path d="M193.902 130.436C203.6 123.29 215.216 120.242 228.357 120.972C237.214 121.464 245.35 123.816 252.654 128.098H252.653C259.871 132.199 266.238 137.491 271.743 143.938C277.401 150.087 282.316 157.132 286.503 165.04C290.603 172.785 294.248 180.757 297.436 188.955C300.578 197.036 303.171 205.131 305.216 213.239C305.511 209.478 305.874 205.653 306.307 201.762L306.312 201.714L306.318 201.667C307.929 189.009 310.93 177.197 315.353 166.258L315.365 166.229L315.377 166.199C320.111 154.839 326.781 145.147 335.41 137.22C344.494 128.64 356.299 123.674 370.391 122.002L370.427 121.997L370.462 121.993C381.957 120.77 392.929 122.612 403.25 127.526H403.249C413.359 132.235 422.518 138.58 430.713 146.526C439.033 154.162 446.31 162.826 452.541 172.503C458.867 181.77 464.111 190.764 468.246 199.483C492.667 247.896 504.135 286.544 501.094 314.741C500.598 320.635 499.245 326.394 497.051 332.002C495.098 337.333 492.427 342.305 489.048 346.908C485.746 351.713 481.588 355.849 476.63 359.319L476.604 359.337L476.578 359.355C471.637 362.736 465.997 365.016 459.753 366.265L459.692 366.276C450.396 368.035 441.438 367.166 432.984 363.58L432.883 363.537L432.783 363.49C425.018 359.85 417.723 354.682 410.886 348.081L410.849 348.045L410.812 348.008C404.252 341.448 398.217 333.773 392.69 325.022L392.66 324.975L392.631 324.927C387.427 316.329 382.675 307.503 378.375 298.45C375.071 291.494 372.097 284.658 369.453 277.944C369.721 284.799 369.691 291.765 369.362 298.842V298.849C368.903 308.502 367.637 317.739 365.55 326.55C363.611 335.443 360.076 342.808 354.43 347.89L354.387 347.929C350.042 351.763 345.067 354.687 339.514 356.707C333.968 358.724 328.179 359.726 322.183 359.726C316.28 359.726 310.728 358.864 305.585 357.064L305.515 357.039L305.445 357.014C296.07 353.466 288.194 347.278 281.822 338.7L281.775 338.636C275.752 330.296 270.559 321.172 266.188 311.277L266.154 311.202L266.123 311.126C265.674 310.029 265.233 308.931 264.798 307.831C265.009 310.943 265.155 314.128 265.232 317.386L265.25 318.3C265.38 327.722 263.943 336.514 260.851 344.602C257.763 353.035 252.448 359.787 244.999 364.69L245 364.691C236.954 370.151 226.139 371.066 213.728 368.958V368.957C203.471 367.245 194.568 363.285 187.227 356.956L187.188 356.923L187.148 356.889C180.339 350.809 174.794 343.428 170.49 334.821L170.476 334.793L170.461 334.764C166.241 326.09 163.096 316.751 161.007 306.769L161.004 306.755L161.001 306.742C158.96 296.763 157.486 286.67 156.579 276.468C155.678 266.325 155.225 256.501 155.225 246.998V221.907L155.231 221.77C155.693 211.844 157.189 201.089 159.684 189.521C162.238 177.677 166.313 166.603 171.919 156.325C177.612 145.888 184.912 137.239 193.841 130.481L193.871 130.458L193.902 130.436Z" fill="white" stroke="black" stroke-width="11.8628"/>
<path d="M30.8645 250.988C45.928 235.054 68.2434 223.209 97.2002 215.07L98.5841 214.685L98.678 214.659L98.772 214.636C106.376 212.811 115.103 211.375 124.922 210.31C134.759 209.032 144.541 208.857 154.263 209.789C164.269 210.531 173.595 212.524 182.203 215.813C191.242 219.266 198.491 224.738 203.681 232.285L203.679 232.285C211.086 242.681 214.369 254.306 213.42 266.935C212.463 279.679 207.159 291.037 197.849 300.885C193.299 305.699 188.083 309.686 182.226 312.838C179.45 314.477 176.489 315.955 173.348 317.275C176.143 317.079 178.954 316.911 181.781 316.777C191.915 316.293 201.712 316.611 211.166 317.742L212.93 317.937C221.663 318.969 229.869 321.007 237.524 324.077C245.929 327.061 253.049 331.639 258.733 337.864L258.735 337.864C267.252 347.121 272.922 357.126 275.417 367.882C278.029 378.155 278.322 388.527 276.292 398.931C274.291 409.181 270.428 419.197 264.774 428.964L264.736 429.028L264.697 429.092C258.915 438.528 252.026 447.465 244.047 455.905C235.308 465.149 225.739 473.42 215.344 480.712L215.334 480.72L215.322 480.728C205.143 487.799 194.783 493.609 184.241 498.133L184.207 498.147L184.173 498.161C173.3 502.666 161.18 506.48 147.837 509.62C134.381 512.787 121.051 514.563 107.855 514.934L107.765 514.936L107.676 514.936C94.3709 514.907 82.0001 513.134 70.609 509.554L70.5798 509.545L70.5498 509.535C58.4781 505.603 48.863 498.71 42.0055 488.814L41.9731 488.767L41.9414 488.72C39.6987 485.346 37.6955 481.594 35.9175 477.488L35.8806 477.402L35.8456 477.313C34.0007 472.652 32.7796 467.925 32.2087 463.141L32.2067 463.119L32.2033 463.097C31.6407 458.06 31.6049 453.086 32.1047 448.184L32.1155 448.078L32.1292 447.974C32.866 442.632 34.4958 437.502 36.9901 432.607L37.0811 432.428L37.1841 432.257C38.5866 429.91 40.0994 427.659 41.7243 425.506C43.3332 423.375 44.9736 421.419 46.6468 419.649C55.153 410.651 64.8612 404.458 75.7659 401.326C80.8913 399.664 86.0566 398.331 91.2602 397.326C86.9386 396.522 82.5531 395.536 78.1043 394.37L78.0235 394.349L77.9434 394.325C64.397 390.366 51.8695 383.5 40.3773 373.827L40.3299 373.787L40.2845 373.747C34.3342 368.525 29.098 362.565 24.577 355.883L24.5186 355.797L24.463 355.709C20.1575 348.839 16.7575 341.617 14.274 334.049C11.794 326.491 10.3342 318.701 9.89125 310.693C9.24075 302.374 9.84767 294.358 11.7507 286.676C14.9294 273.025 21.312 261.093 30.8645 250.988Z" fill="white" stroke="black" stroke-width="11.8628"/>
<path d="M594.079 83.791C605.92 83.791 617.868 86.2994 629.886 91.2021H629.887C642.262 96.1666 654.442 104.072 666.441 114.746H666.44C677.023 124.148 683.508 135.902 685.765 149.81C687.951 163.285 687.048 177.482 683.208 192.328L683.206 192.338L683.203 192.348C679.377 206.928 673.028 221.41 664.229 235.79L664.23 235.791C655.602 250.228 645.178 263.208 632.969 274.719C620.742 286.245 607.23 295.694 592.443 303.044L592.412 303.059L592.382 303.073C577.377 310.319 561.94 313.988 546.124 313.988C536.249 313.988 526.329 312.241 516.39 308.804V308.803C506.526 305.524 496.909 300.227 487.535 293.026C476.607 284.652 469.481 273.319 466.132 259.334L466.121 259.29L466.111 259.246C463.073 245.654 462.886 231.209 465.439 215.977C467.988 200.573 473.069 185.148 480.623 169.712C488.181 154.065 497.538 139.948 508.701 127.385L508.706 127.38C520.112 114.57 532.938 104.126 547.182 96.0947L547.197 96.0859L547.214 96.0771C561.92 87.9068 577.571 83.791 594.079 83.791Z" fill="white" stroke="black" stroke-width="11.8628"/>
<path d="M939.882 267.658C944.184 267.658 949.26 268.286 955.018 269.438L955.136 269.461L955.252 269.489C963.526 271.495 970.372 275.372 975.325 281.374C979.917 286.731 983.091 292.963 984.863 299.978C986.818 306.633 987.528 313.692 987.061 321.107C986.824 328.063 986.009 334.626 984.59 340.781C980.635 358.139 977.564 375.041 975.371 391.484C973.356 408.035 970.778 423.398 967.63 437.566C964.653 451.736 960.276 464.347 954.434 475.33L954.433 475.329C948.531 486.842 939.741 495.505 928.183 501.161L928.128 501.188L928.073 501.213C921.027 504.484 913.402 506.09 905.28 506.09C900.539 506.09 895.901 505.465 891.383 504.21C886.765 502.927 882.637 500.849 879.099 497.924C873.398 494.036 869.33 488.474 866.781 481.591L866.747 481.499L866.717 481.406C864.574 474.977 863.156 468.223 862.449 461.157L862.439 461.06L862.433 460.962C862.364 459.926 862.305 458.892 862.257 457.861C860.038 464.428 857.134 470.639 853.54 476.486C850.853 481.572 847.461 486.275 843.386 490.59L843.327 490.651L843.268 490.712C839.165 494.815 834.589 498.424 829.553 501.542C824.739 504.658 819.575 507.174 814.073 509.088L813.963 509.126L813.852 509.159C808.216 510.874 802.533 511.745 796.82 511.745C790.271 511.745 783.95 510.481 777.904 507.962L777.764 507.903L777.627 507.838C771.563 504.938 766.225 500.416 761.562 494.524L761.491 494.435L761.424 494.342C756.47 487.563 753.721 479.49 752.98 470.362L752.975 470.282L752.97 470.203C752.503 461.561 752.972 452.618 754.357 443.385L754.368 443.313L754.381 443.242C755.969 434.164 758.014 425.305 760.515 416.665L760.528 416.617L760.543 416.569C763.197 407.944 765.403 400.554 767.163 394.394L767.171 394.366L767.18 394.338C768.913 388.489 770.544 382.184 772.071 375.42C773.624 368.544 775.176 361.669 776.729 354.793C778.294 347.858 779.972 340.924 781.762 333.99C783.564 327.007 785.598 320.438 787.867 314.291C789.551 308.584 791.929 303.026 794.984 297.62L795.004 297.585L795.024 297.55C798.414 291.739 802.456 286.697 807.172 282.478C811.896 278.251 817.157 274.986 822.938 272.724L822.978 272.709L823.018 272.694C829.244 270.359 835.874 269.835 842.774 270.964L843.443 271.078L843.485 271.085L843.527 271.094C850.827 272.507 857.071 274.833 861.813 278.406C866.609 281.642 870.204 285.899 872.434 291.128C874.74 296.036 876.097 301.467 876.589 307.344C877.057 312.726 877.17 318.519 876.94 324.712L876.939 324.711L876.895 326.012C879.678 317.079 883.188 308.739 887.44 301.007L887.468 300.958L887.496 300.909C892.969 291.391 899.824 283.538 908.088 277.461C917.015 270.838 927.723 267.658 939.882 267.658Z" fill="white" stroke="black" stroke-width="11.8628"/>
<path d="M933.439 101.582C945.659 101.582 957.31 105.94 968.294 114.157C979.225 121.849 988.945 131.286 997.458 142.427L998.271 143.464C1006.63 154.19 1013.65 165.355 1019.31 176.96C1023.62 185.366 1026.91 193.127 1029.12 200.215C1032.47 192.923 1036.82 185.245 1042.12 177.189C1049.38 166.153 1057.65 155.708 1066.93 145.854L1066.99 145.787C1076.62 135.861 1086.76 127.619 1097.41 121.11C1108.54 114.201 1119.63 110.487 1130.61 110.487C1139.79 110.487 1148.01 113.3 1155.03 118.945C1166.25 127.455 1173.13 137.48 1173.84 149.124C1174.5 159.586 1171.52 169.942 1165.4 180.073C1159.66 190.021 1151.61 199.654 1141.4 208.997L1141.39 209.003C1131.62 217.911 1121.42 226.246 1110.78 234.006L1110.74 234.037L1110.7 234.067C1100.15 241.482 1090.14 248.059 1080.68 253.793L1080.66 253.807L1080.63 253.82C1072.79 258.479 1066.61 262.094 1062.12 264.654C1063.13 270.87 1063.61 278.744 1063.61 288.157C1063.61 298.307 1062.88 309.128 1061.45 320.613C1060.29 332.193 1058.26 343.764 1055.38 355.322C1052.44 367.045 1048.31 377.458 1042.91 386.491L1042.42 387.347C1037.29 396.128 1030.89 403.106 1023.14 408.068L1023.06 408.115L1022.99 408.159C1014.25 413.403 1004.06 414.2 993.021 411.361L993.011 411.359L993.001 411.356C984.574 409.158 978.263 403.462 973.971 395.208C969.98 387.534 966.997 378.496 964.937 368.192L964.921 368.112L964.907 368.031C963.157 357.822 962.144 346.933 961.855 335.374V335.37C961.569 323.639 961.712 312.32 962.286 301.414L962.29 301.337L962.296 301.26C963.154 290.388 964.303 280.601 965.75 271.916C967.038 263.933 968.236 257.646 969.352 253.161C962.371 248.267 954.693 242.548 946.324 236.009L946.288 235.98L946.253 235.952C937.296 228.729 928.775 220.929 920.691 212.556L920.619 212.481L920.55 212.404C912.703 203.685 905.848 194.647 900 185.289C893.942 175.595 890.32 165.674 889.372 155.561L889.362 155.458L889.356 155.354C888.743 144.921 890.277 134.999 894.011 125.665L894.028 125.619L894.048 125.574C898.452 115.072 906.656 108.022 917.991 104.433C923.274 102.578 928.436 101.582 933.439 101.582Z" fill="white" stroke="black" stroke-width="11.8628"/>
<path d="M823.013 85.2871C840.861 85.2871 858.067 86.7558 874.623 89.7041L874.622 89.7051C891.179 92.4329 905.494 96.7803 917.447 102.86H917.448C929.507 108.771 938.62 116.571 944.233 126.466C950.566 137.203 950.181 149.598 944.582 162.744L944.574 162.762L944.567 162.778C941.156 170.651 935.415 176.961 927.658 181.732L927.659 181.733C919.727 186.757 909.507 188.976 897.537 188.976C890.916 188.976 883.586 188.267 875.575 186.894L875.494 186.88L875.414 186.864C868.722 185.526 861.542 183.568 853.882 181.012C859.585 206.828 861.817 232.202 860.547 257.121C860.32 265.903 859.756 274.472 858.853 282.826C858.129 291.333 856.219 299.159 853.045 306.24C849.925 313.475 844.986 319.412 838.366 323.995L838.302 324.039L838.235 324.082C831.127 328.73 821.728 330.705 810.702 330.705H810.416L810.131 330.678C802.357 329.925 795.435 327.506 789.581 323.249C784.023 319.207 779.479 314.15 775.969 308.133C772.57 302.307 770.035 296.016 768.352 289.283L768.34 289.236C766.7 282.442 765.753 275.725 765.517 269.092L765.516 269.079V269.065C765.067 254.714 765.18 240.146 765.852 225.36L765.854 225.315L765.856 225.271C766.644 212.278 768.286 199.048 770.779 185.582C764.735 188.817 758.295 191.423 751.468 193.399L751.467 193.398C742.765 195.981 734.114 197.293 725.531 197.293C719.102 197.293 712.959 196.578 707.125 195.119L706.98 195.083L706.837 195.039C700.998 193.262 695.743 190.45 691.126 186.603C686.422 182.683 682.699 177.764 679.924 171.962C677.007 165.863 675.684 158.726 675.684 150.772C675.684 139.098 680.687 129.014 689.978 120.728C698.853 112.812 710.284 106.27 724.074 100.984L724.089 100.979L724.104 100.973C738.099 95.696 753.718 91.8315 770.927 89.3408C788.069 86.6381 805.432 85.2871 823.013 85.2871Z" fill="white" stroke="black" stroke-width="11.8628"/>
</g>
<defs>
<clipPath id="clip0_1714_31780">
<rect width="1200" height="630" fill="white"/>
</clipPath>
</defs>
</svg>
